<svg width="617" height="290" viewBox="0 0 617 290" fill="none" xmlns="http://www.w3.org/2000/svg">
    <path d="M420.125 155.682C420.125 155.682 462.869 161.092 488.589 113.22C488.589 113.22 424.362 108.292 420.125 155.682Z" fill="#7FC6A6"/>
    <path d="M433.485 113.304C433.701 113.408 433.851 113.626 433.851 113.88C433.851 114.236 433.564 114.523 433.209 114.523H432.614C430.714 117.322 429.264 120.456 428.601 123.916H433.209C433.564 123.916 433.851 124.203 433.851 124.559C433.851 124.914 433.564 125.201 433.209 125.201H428.395C427.918 128.839 428.316 132.819 429.967 137.137C429.967 137.137 453.648 129.067 454.87 97.5327C454.87 97.5327 441.255 102.935 433.483 113.301L433.485 113.304Z" fill="#3F9896"/>
    <path d="M306.483 91.5052C306.483 91.5052 290.265 82.0435 294.06 58.6676C294.06 58.6676 317.58 73.9916 306.483 91.5052Z" fill="#3F9896"/>
    <path d="M310.964 106.611C310.964 106.611 278.718 104.228 266.925 65.1853C266.925 65.1853 314.901 71.1214 310.964 106.611Z" fill="#7FC6A6"/>
    <path d="M189.099 289.31C187.943 288.386 167.724 252.711 155.253 270.029C155.253 270.029 136.548 206.526 110.917 209.528C85.2851 212.53 106.99 259.638 106.99 259.638C106.99 259.638 85.0514 250.631 90.1315 274.416C90.1315 274.416 62.1886 269.336 64.2688 289.425L189.099 289.308V289.31Z" fill="#3F9896"/>
    <path d="M85.0536 240.402C87.2632 238.57 86.2833 233.743 82.8649 229.62C79.4466 225.496 74.8842 223.639 72.6746 225.471C70.4651 227.302 71.445 232.13 74.8633 236.253C78.2816 240.377 82.844 242.234 85.0536 240.402Z" fill="#3F9896"/>
    <path d="M77.6316 245.873C79.6561 248.314 80.2352 251.172 78.9271 252.256C77.6189 253.341 74.9189 252.241 72.8945 249.798C70.8701 247.357 70.2909 244.499 71.5991 243.414C72.9072 242.33 75.6072 243.43 77.6316 245.873Z" fill="#3F9896"/>
    <path d="M108.006 264.283C108.072 264.268 108.133 264.23 108.171 264.169C108.252 264.047 108.219 263.879 108.097 263.798C107.874 263.648 102.558 260.143 97.8889 261.154C97.8889 261.154 97.8889 261.154 97.8864 261.154C97.7416 261.185 97.6502 261.329 97.6807 261.474C97.7111 261.619 97.8559 261.71 98.0007 261.68C98.0007 261.68 98.0007 261.68 98.0032 261.68C102.446 260.717 107.747 264.21 107.8 264.245C107.864 264.288 107.937 264.299 108.006 264.283Z" fill="black"/>
    <path d="M104.434 264.682C104.5 264.667 104.561 264.629 104.602 264.568C104.683 264.443 104.65 264.278 104.525 264.197C104.424 264.128 101.968 262.538 97.6063 262.81C97.4565 262.82 97.3472 262.947 97.3549 263.095C97.365 263.242 97.492 263.354 97.6394 263.346C101.823 263.087 104.205 264.629 104.228 264.644C104.292 264.685 104.365 264.697 104.434 264.682Z" fill="black"/>
    <path d="M171.024 275.056C171.09 275.056 171.159 275.03 171.209 274.979C171.316 274.875 171.319 274.708 171.217 274.601C171.029 274.408 166.576 269.854 161.801 269.854C161.646 269.856 161.529 269.973 161.529 270.123C161.529 270.273 161.649 270.392 161.799 270.392C161.799 270.392 161.799 270.392 161.801 270.392C166.35 270.392 170.785 274.931 170.831 274.977C170.884 275.03 170.953 275.058 171.024 275.058V275.056Z" fill="black"/>
    <path d="M167.447 274.69C167.516 274.69 167.582 274.664 167.635 274.614C167.742 274.51 167.744 274.342 167.64 274.235C167.554 274.146 165.491 272.074 161.173 271.413C161.023 271.39 160.889 271.492 160.868 271.637C160.846 271.784 160.947 271.921 161.092 271.942C165.22 272.571 167.236 274.588 167.257 274.609C167.31 274.662 167.379 274.69 167.45 274.69H167.447Z" fill="black"/>
    <path d="M463.219 289.082C464.378 288.162 484.728 252.559 497.134 269.925C497.134 269.925 516.07 206.49 541.691 209.586C567.312 212.683 545.433 259.711 545.433 259.711C545.433 259.711 567.404 250.786 562.235 274.553C562.235 274.553 590.196 269.574 588.044 289.658L463.217 289.087L463.219 289.082Z" fill="#3F9896"/>
    <path d="M577.651 236.415C581.084 232.304 582.08 227.48 579.877 225.64C577.674 223.801 573.105 225.642 569.673 229.753C566.24 233.865 565.243 238.689 567.446 240.528C569.649 242.368 574.218 240.526 577.651 236.415Z" fill="#3F9896"/>
    <path d="M579.551 249.947C581.583 247.514 582.173 244.658 580.869 243.57C579.565 242.481 576.861 243.571 574.829 246.005C572.797 248.438 572.207 251.294 573.511 252.383C574.815 253.471 577.519 252.381 579.551 249.947Z" fill="#3F9896"/>
    <path d="M544.403 264.349C544.337 264.334 544.276 264.296 544.238 264.235C544.157 264.111 544.19 263.946 544.314 263.864C544.538 263.714 549.869 260.229 554.533 261.258C554.533 261.258 554.533 261.258 554.535 261.258C554.68 261.291 554.771 261.433 554.738 261.578C554.705 261.723 554.563 261.814 554.418 261.781C554.418 261.781 554.418 261.781 554.416 261.781C549.976 260.801 544.665 264.276 544.611 264.311C544.548 264.352 544.474 264.365 544.405 264.349H544.403Z" fill="black"/>
    <path d="M547.974 264.763C547.908 264.748 547.848 264.71 547.809 264.649C547.728 264.525 547.764 264.36 547.886 264.278C547.987 264.21 550.451 262.63 554.81 262.917C554.96 262.927 555.069 263.054 555.059 263.201C555.049 263.349 554.921 263.46 554.774 263.45C550.593 263.176 548.203 264.708 548.18 264.725C548.117 264.766 548.043 264.779 547.974 264.763Z" fill="black"/>
    <path d="M481.348 274.893C481.282 274.893 481.213 274.868 481.163 274.817C481.056 274.713 481.053 274.543 481.158 274.439C481.346 274.245 485.816 269.709 490.591 269.724C490.746 269.727 490.863 269.844 490.861 269.993C490.861 270.141 490.739 270.26 490.591 270.26C490.591 270.26 490.591 270.26 490.589 270.26C486.04 270.242 481.587 274.766 481.544 274.812C481.49 274.865 481.422 274.893 481.351 274.893H481.348Z" fill="black"/>
    <path d="M484.924 274.54C484.855 274.54 484.789 274.515 484.736 274.464C484.629 274.36 484.629 274.19 484.733 274.085C484.819 273.999 486.89 271.932 491.21 271.286C491.36 271.266 491.492 271.365 491.515 271.512C491.538 271.66 491.436 271.794 491.289 271.817C487.159 272.432 485.134 274.441 485.114 274.461C485.061 274.515 484.992 274.543 484.921 274.54H484.924Z" fill="black"/>
    <path d="M524.848 152.42C535.402 151.864 571.572 150.337 596.304 154.005C599.512 154.48 601.557 150.637 599.337 148.27C598.039 146.885 595.824 145.76 592.1 145.499C592.1 145.499 593.383 122.407 575.941 120.878C555.938 119.123 555.694 141.808 555.694 141.808C555.694 141.808 546.603 133.177 540.045 144.119C540.045 144.119 528.711 137.569 522.996 149.667C522.374 150.985 523.39 152.494 524.845 152.418L524.848 152.42Z" fill="white"/>
    <path d="M515.178 67.7584C505.882 67.225 484.086 66.2979 465.139 67.8955C457.301 68.556 450.532 62.2948 450.709 54.4308C450.781 51.2126 451.936 47.466 454.923 43.2242C466.427 26.8867 486.425 42.4901 486.232 50.7833C486.232 50.7833 490.276 38.294 502.554 40.481C514.833 42.6679 510.492 60.8292 510.492 60.8292C510.492 60.8292 514.454 59.991 517.2 61.8681C519.9 63.7121 518.445 67.9489 515.181 67.7609L515.178 67.7584Z" fill="white"/>
    <path d="M461.837 218.205C461.837 218.205 447.268 254.865 459.488 282.597L179.358 284.947L153.508 282.597L130.724 268.48V246.877L137.058 229.015L157.739 218.205H461.837Z" fill="white"/>
    <path d="M166.236 288.518H468.888C470.859 288.518 472.457 286.92 472.457 284.949C472.457 282.978 470.859 281.38 468.888 281.38H166.236C147.968 281.38 133.103 267.588 133.103 250.638C133.103 233.689 147.965 219.896 166.236 219.896H468.888C470.859 219.896 472.457 218.299 472.457 216.328C472.457 214.356 470.859 212.759 468.888 212.759H166.236C144.031 212.759 125.966 229.752 125.966 250.638C125.966 271.525 144.031 288.52 166.236 288.52V288.518Z" fill="#FF424D"/>
    <path d="M132.196 259.595L136.004 256.927L136.446 262.302L132.196 259.595Z" fill="#FF424D"/>
    <path d="M457.725 251.431H309.199C308.759 251.431 308.406 251.075 308.406 250.638C308.406 250.201 308.762 249.846 309.199 249.846H457.725C458.164 249.846 458.517 250.201 458.517 250.638C458.517 251.075 458.162 251.431 457.725 251.431Z" fill="#AAC9F8"/>
    <path d="M288.285 251.431H143.988C143.548 251.431 143.195 251.075 143.195 250.638C143.195 250.201 143.551 249.846 143.988 249.846H288.285C288.724 249.846 289.077 250.201 289.077 250.638C289.077 251.075 288.722 251.431 288.285 251.431Z" fill="#AAC9F8"/>
    <path d="M221.9 265.64H147.866C147.426 265.64 147.073 265.284 147.073 264.847C147.073 264.41 147.429 264.055 147.866 264.055H221.9C222.34 264.055 222.693 264.41 222.693 264.847C222.693 265.284 222.337 265.64 221.9 265.64Z" fill="#AAC9F8"/>
    <path d="M457.725 265.64H232.762C232.323 265.64 231.97 265.284 231.97 264.847C231.97 264.41 232.325 264.055 232.762 264.055H457.725C458.165 264.055 458.518 264.41 458.518 264.847C458.518 265.284 458.162 265.64 457.725 265.64Z" fill="#AAC9F8"/>
    <path d="M468.888 289.31H166.235C143.593 289.31 125.173 271.962 125.173 250.636C125.173 229.31 143.593 211.961 166.235 211.961H468.888C471.293 211.961 473.249 213.917 473.249 216.323C473.249 218.728 471.293 220.684 468.888 220.684C468.448 220.684 468.095 220.328 468.095 219.891C468.095 219.454 468.451 219.099 468.888 219.099C470.419 219.099 471.664 217.854 471.664 216.323C471.664 214.791 470.419 213.546 468.888 213.546H166.235C144.467 213.546 126.758 230.184 126.758 250.633C126.758 271.083 144.467 287.72 166.235 287.72H468.888C470.419 287.72 471.664 286.476 471.664 284.944C471.664 283.412 470.419 282.168 468.888 282.168C468.448 282.168 468.095 281.812 468.095 281.375C468.095 280.938 468.451 280.583 468.888 280.583C471.293 280.583 473.249 282.539 473.249 284.944C473.249 287.35 471.293 289.305 468.888 289.305V289.31Z" fill="#21111D"/>
    <path d="M286.877 237.212C286.877 237.212 296.41 260.958 290.916 278.439L283.171 266.47C283.171 266.47 277.883 272.815 274.642 278.439C274.642 278.439 268.728 239.396 257.263 237.212H286.879H286.877Z" fill="#3F9896"/>
    <path d="M457.725 237.212H147.866C147.426 237.212 147.073 236.856 147.073 236.419C147.073 235.982 147.429 235.627 147.866 235.627H457.725C458.164 235.627 458.517 235.982 458.517 236.419C458.517 236.856 458.161 237.212 457.725 237.212Z" fill="#AAC9F8"/>
    <path d="M133.909 87.2455C133.909 59.2137 111.183 36.488 83.1511 36.488C55.1192 36.488 32.3936 59.2137 32.3936 87.2455C32.3936 101.15 37.9867 113.746 47.0419 122.913C47.0419 122.913 62.4015 139.339 67.5883 157.244C67.5883 157.244 76.4555 160.256 83.1511 160.424C89.8441 160.256 98.7139 157.244 98.7139 157.244C103.901 139.339 119.26 122.913 119.26 122.913C128.315 113.746 133.909 101.15 133.909 87.2455Z" fill="#FECC86"/>
    <path d="M66.2193 153.2V166.337C66.2193 172.525 69.9659 177.836 75.3127 180.13C75.7826 184.039 79.1049 187.069 83.1385 187.069C87.1721 187.069 90.497 184.036 90.9644 180.13C96.3111 177.836 100.058 172.525 100.058 166.337V153.2H66.2168H66.2193Z" fill="#4CB7D8"/>
    <g style="mix-blend-mode:multiply" opacity="0.3">
        <path d="M133.908 87.2456C133.908 76.8594 130.789 67.2047 125.437 59.163C110.593 95.7395 86.915 120.342 52.8125 129.883C57.1077 135.516 62.7999 144 66.2442 153.198H100.062C106.148 136.941 119.262 122.913 119.262 122.913C128.318 113.746 133.911 101.15 133.911 87.2456H133.908Z" fill="#FECC86"/>
    </g>
    <path d="M91.4455 153.398L89.9926 153.002C90.0409 152.829 94.773 135.425 98.0572 117.596C103.755 86.6664 100.478 80.1055 98.0191 78.9472C95.5045 77.7636 93.5284 77.9769 92.1415 79.5772C92.0399 79.694 91.9434 79.8159 91.8519 79.9455C95.4004 82.0385 96.2589 85.2516 96.4621 86.5521C97.026 90.1437 95.4181 93.7277 92.8806 94.543C92.266 94.7412 91.0848 94.8402 90.0638 93.2959C88.4407 90.8422 87.9327 84.7055 89.7513 80.6135C88.0063 79.8998 85.8803 79.5213 83.4495 79.5213H81.9839C79.5506 79.5213 77.4271 79.9023 75.6821 80.6135C77.4982 84.7055 76.9927 90.8422 75.3696 93.2959C74.3486 94.8402 73.1674 94.7412 72.5502 94.543C70.0127 93.7277 68.4074 90.1437 68.9688 86.5521C69.172 85.2516 70.033 82.0359 73.5789 79.9455C73.4875 79.8185 73.3884 79.694 73.2894 79.5772C71.905 77.9744 69.9264 77.7636 67.4117 78.9472C64.953 80.1055 61.6763 86.6639 67.3736 117.596C70.6554 135.422 75.39 152.827 75.4382 153.002L73.9853 153.398C73.9371 153.223 69.1897 135.765 65.8953 117.878C61.3461 93.1841 61.6331 80.0039 66.7716 77.5858C70.7595 75.7112 73.137 77.0981 74.4298 78.5942C74.6127 78.805 74.7804 79.0285 74.9404 79.2622C76.7159 78.5078 79.0121 78.0151 81.9839 78.0151H83.4495C86.4213 78.0151 88.7175 78.5078 90.493 79.2622C90.653 79.026 90.8232 78.8025 91.0036 78.5942C92.2964 77.0981 94.6739 75.7112 98.6618 77.5858C103.8 80.0039 104.087 93.1841 99.5381 117.878C96.2437 135.768 91.4938 153.225 91.4481 153.398H91.4455ZM74.3257 81.279C72.1845 82.5287 70.8281 84.4083 70.4547 86.7883C69.9645 89.9227 71.3793 92.5898 73.0074 93.113C73.1598 93.1613 73.5637 93.2934 74.1098 92.4678C75.4992 90.3672 75.8675 84.8173 74.3257 81.2815V81.279ZM91.1026 81.279C89.5608 84.8147 89.9291 90.3647 91.3185 92.4653C91.8646 93.2908 92.2685 93.1587 92.4209 93.1105C94.0516 92.5872 95.4664 89.9202 94.9736 86.7858C94.6003 84.4058 93.2439 82.5287 91.1026 81.2764V81.279Z" fill="#F99247"/>
    <path d="M65.9747 153.553C65.5708 152.395 65.388 151.973 64.9866 151.044L64.7682 150.536C58.4308 135.737 46.8813 123.294 46.767 123.169L46.7314 123.131C37.2444 113.504 32.0195 100.761 32.0195 87.2455C32.0195 59.0511 54.9586 36.1121 83.153 36.1121C100.463 36.1121 116.468 44.7685 125.963 59.2721L125.333 59.6836C115.978 45.3959 100.209 36.8665 83.153 36.8665C55.3726 36.8665 32.7739 59.4677 32.7739 87.2455C32.7739 100.586 37.9378 113.159 47.3131 122.649L47.8033 123.146L47.7677 123.154C49.9776 125.625 59.7897 136.995 65.4616 150.241L65.6801 150.746C66.0865 151.691 66.2719 152.123 66.6859 153.304L65.9747 153.553Z" fill="#21111D"/>
    <path d="M47.7044 63.8137L46.9805 63.6029C47.016 63.4785 50.7702 50.984 63.3967 46.2875L63.6583 46.9936C51.3951 51.5555 47.7399 63.6918 47.7018 63.8137H47.7044Z" fill="#21111D"/>
    <path d="M50.0315 68.3299L49.3076 68.1191C49.3432 67.9921 53.0974 55.5002 65.7239 50.8036L65.9855 51.5098C53.7222 56.0717 50.0671 68.208 50.029 68.3299H50.0315Z" fill="#21111D"/>
    <path d="M84.9849 181.717H81.2967C72.7775 181.717 65.8457 174.785 65.8457 166.263V152.819H100.063V153.571H66.5976V166.261C66.5976 174.366 73.1915 180.96 81.2967 180.96H84.9849C88.866 180.96 92.5262 179.461 95.2923 176.741L95.8207 177.277C92.9123 180.137 89.0642 181.715 84.9849 181.715V181.717Z" fill="#21111D"/>
    <path d="M83.3585 187.45C76.0254 187.45 74.9662 180.335 74.9561 180.262L75.7028 180.16C75.7409 180.434 76.7188 186.853 83.6049 186.693L83.6227 187.445C83.5337 187.445 83.4474 187.447 83.361 187.447L83.3585 187.45Z" fill="#21111D"/>
    <path d="M117.956 115.661L117.507 115.056C124.205 110.086 125.259 101.79 125.269 101.706L126.016 101.795C126.006 101.881 124.921 110.494 117.954 115.663L117.956 115.661Z" fill="#21111D"/>
    <path d="M116.476 112.044L116.026 111.439C120.908 107.817 121.68 101.764 121.688 101.703L122.435 101.792C122.404 102.054 121.625 108.224 116.476 112.044Z" fill="#21111D"/>
    <path d="M64.6668 159.964L64.6592 159.212C64.9462 159.21 93.4784 158.839 102.516 155.471L102.78 156.177C93.6206 159.591 65.8479 159.952 64.6693 159.967L64.6668 159.964Z" fill="#21111D"/>
    <path d="M64.6699 166.324L64.6572 165.573C64.9697 165.568 95.9327 164.953 101.721 161.851L102.077 162.514C96.1308 165.7 65.9526 166.299 64.6699 166.324Z" fill="#21111D"/>
    <path d="M66.2234 172.85L66.2158 172.098C66.4952 172.095 94.2807 171.803 101.723 167.958L102.068 168.626C94.4661 172.555 67.3715 172.84 66.2209 172.85H66.2234Z" fill="#21111D"/>
    <path d="M19.4572 79.2571C19.4242 79.2571 19.3937 79.2571 19.3607 79.2521L1.40011 77.7229C0.777803 77.6696 0.318056 77.1235 0.371397 76.5012C0.424738 75.8789 0.970845 75.4217 1.59315 75.4725L19.5537 77.0016C20.176 77.0549 20.6358 77.601 20.5825 78.2233C20.5317 78.8126 20.0389 79.2571 19.4572 79.2571Z" fill="#FECC86"/>
    <path d="M28.7462 50.6411C28.5278 50.6411 28.3042 50.5776 28.1087 50.4429L13.2317 40.2625C12.716 39.9094 12.5865 39.2084 12.937 38.6928C13.2901 38.1771 13.9911 38.045 14.5068 38.3981L29.3838 48.5786C29.8994 48.9316 30.0289 49.6327 29.6784 50.1483C29.46 50.4683 29.1043 50.6411 28.7462 50.6411Z" fill="#FECC86"/>
    <path d="M55.6346 30.115C55.1876 30.115 54.7659 29.8483 54.5881 29.4114L47.8037 12.7107C47.5675 12.1341 47.8469 11.4737 48.426 11.24C49.0026 11.0064 49.663 11.2832 49.8967 11.8623L56.6811 28.5631C56.9173 29.1397 56.6379 29.8001 56.0588 30.0338C55.9191 30.0896 55.7769 30.1176 55.6346 30.1176V30.115Z" fill="#FECC86"/>
    <path d="M145.946 82.5109C145.357 82.5109 144.859 82.0537 144.821 81.4568C144.78 80.8345 145.25 80.296 145.872 80.2553L163.861 79.0666C164.478 79.026 165.022 79.4959 165.062 80.1182C165.103 80.7405 164.633 81.279 164.011 81.3196L146.022 82.5084C145.997 82.5084 145.971 82.5084 145.946 82.5084V82.5109Z" fill="#FECC86"/>
    <path d="M137.198 53.7247C136.83 53.7247 136.469 53.5443 136.253 53.2141C135.91 52.6934 136.055 51.9924 136.578 51.6495L151.646 41.7535C152.167 41.4106 152.868 41.5554 153.211 42.0786C153.553 42.5993 153.409 43.3004 152.885 43.6433L137.818 53.5393C137.627 53.6637 137.412 53.7247 137.198 53.7247Z" fill="#FECC86"/>
    <path d="M114.182 30.049C114.035 30.049 113.883 30.0185 113.738 29.9576C113.164 29.7112 112.9 29.0482 113.143 28.4742L120.243 11.9055C120.489 11.3315 121.152 11.0673 121.726 11.3112C122.3 11.5575 122.564 12.2205 122.321 12.7945L115.221 29.3632C115.038 29.7924 114.619 30.049 114.182 30.049Z" fill="#FECC86"/>
    <path d="M85.2291 21.2783C85.2291 21.2783 85.2164 21.2783 85.2113 21.2783C84.5865 21.2681 84.0886 20.755 84.0988 20.1327L84.3756 2.10863C84.3858 1.4914 84.8887 0.996094 85.506 0.996094C85.511 0.996094 85.5187 0.996094 85.5237 0.996094C86.1486 1.00625 86.6464 1.51934 86.6363 2.14165L86.3594 20.1657C86.3493 20.783 85.8463 21.2783 85.2291 21.2783Z" fill="#FECC86"/>
    <g opacity="0.5">
        <path d="M117.218 62.7768C118.995 60.0199 115.755 54.7689 109.982 51.0483C104.209 47.3278 98.0884 46.5465 96.3117 49.3034C94.535 52.0603 97.7748 57.3113 103.548 61.0319C109.321 64.7525 115.442 65.5337 117.218 62.7768Z" fill="#F3FFFE"/>
    </g>
    <path d="M191.004 147.472C191.004 147.472 204.527 181.496 193.186 207.234L453.169 209.416L477.159 207.234L498.305 194.133V174.082L492.427 157.505L473.235 147.472H191.004Z" fill="white"/>
    <g style="mix-blend-mode:multiply" opacity="0.3">
        <path d="M336.971 206.101L462.223 208.591L477.158 207.232L498.304 194.13V174.079L492.426 157.503L473.234 147.47H334.865C336.176 148.445 336.973 149.037 336.973 149.037C336.973 149.037 349.968 179.596 336.973 206.099L336.971 206.101Z" fill="#4CB7D8"/>
    </g>
    <path d="M465.345 212.726H184.461C182.632 212.726 181.148 211.242 181.148 209.414C181.148 207.585 182.632 206.101 184.461 206.101H465.345C482.3 206.101 496.092 193.302 496.092 177.569C496.092 161.836 482.3 149.039 465.345 149.039H184.461C182.632 149.039 181.148 147.556 181.148 145.727C181.148 143.898 182.632 142.415 184.461 142.415H465.345C485.953 142.415 502.719 158.186 502.719 177.572C502.719 196.957 485.953 212.728 465.345 212.728V212.726Z" fill="#3AA1C9"/>
    <g style="mix-blend-mode:multiply">
        <path d="M332.663 178.364H194.821C194.381 178.364 194.028 178.009 194.028 177.572C194.028 177.135 194.384 176.779 194.821 176.779H332.663C333.103 176.779 333.456 177.135 333.456 177.572C333.456 178.009 333.1 178.364 332.663 178.364Z" fill="#AAC9F8"/>
    </g>
    <g style="mix-blend-mode:multiply">
        <path d="M485.992 178.364H352.077C351.637 178.364 351.284 178.009 351.284 177.572C351.284 177.135 351.64 176.779 352.077 176.779H485.992C486.432 176.779 486.785 177.135 486.785 177.572C486.785 178.009 486.429 178.364 485.992 178.364Z" fill="#AAC9F8"/>
    </g>
    <g style="mix-blend-mode:multiply">
        <path d="M482.394 191.552H413.683C413.244 191.552 412.891 191.196 412.891 190.76C412.891 190.323 413.246 189.967 413.683 189.967H482.394C482.833 189.967 483.186 190.323 483.186 190.76C483.186 191.196 482.83 191.552 482.394 191.552Z" fill="#AAC9F8"/>
    </g>
    <g style="mix-blend-mode:multiply">
        <path d="M482.412 165.169H201.242C200.813 165.169 200.468 164.813 200.468 164.376C200.468 163.939 200.816 163.584 201.242 163.584H482.412C482.841 163.584 483.186 163.939 483.186 164.376C483.186 164.813 482.838 165.169 482.412 165.169Z" fill="#AAC9F8"/>
    </g>
    <path d="M465.345 213.521H184.46C182.197 213.521 180.355 211.679 180.355 209.414C180.355 207.148 182.197 205.309 184.46 205.309C184.9 205.309 185.253 205.664 185.253 206.101C185.253 206.538 184.897 206.894 184.46 206.894C183.071 206.894 181.94 208.024 181.94 209.414C181.94 210.803 183.071 211.933 184.46 211.933H465.345C485.515 211.933 501.926 196.518 501.926 177.569C501.926 158.62 485.515 143.208 465.345 143.208H184.46C183.071 143.208 181.94 144.338 181.94 145.727C181.94 147.117 183.071 148.247 184.46 148.247C184.9 148.247 185.253 148.603 185.253 149.039C185.253 149.476 184.897 149.832 184.46 149.832C182.197 149.832 180.355 147.99 180.355 145.725C180.355 143.459 182.197 141.62 184.46 141.62H465.345C486.389 141.62 503.511 157.747 503.511 177.569C503.511 197.392 486.389 213.518 465.345 213.518V213.521Z" fill="#21111D"/>
    <g style="mix-blend-mode:multiply">
        <path d="M403.602 191.552H194.821C194.381 191.552 194.028 191.196 194.028 190.76C194.028 190.323 194.384 189.967 194.821 189.967H403.604C404.043 189.967 404.397 190.323 404.397 190.76C404.397 191.196 404.041 191.552 403.604 191.552H403.602Z" fill="#AAC9F8"/>
    </g>
    <g style="mix-blend-mode:multiply">
        <g opacity="0.5">
            <path d="M181.148 145.727C181.148 147.556 182.632 149.039 184.461 149.039H331.153C332.982 149.039 334.465 147.556 334.465 145.727C334.465 143.898 332.982 142.415 331.153 142.415H184.461C182.632 142.415 181.148 143.898 181.148 145.727Z" fill="#258D8C"/>
        </g>
        <path d="M334.465 209.414C334.465 207.585 332.982 206.101 331.153 206.101H184.461C182.632 206.101 181.148 207.585 181.148 209.414C181.148 211.242 182.632 212.726 184.461 212.726H331.153C332.982 212.726 334.465 211.242 334.465 209.414Z" fill="#258D8C"/>
    </g>
    <path d="M393.503 165.169C393.503 165.169 401.77 185.761 397.005 200.922L390.262 192.372C390.262 192.372 386.573 195.949 382.893 200.922C382.893 200.922 377.765 167.064 367.82 165.169H393.505H393.503Z" fill="#49263E"/>
    <path d="M436.301 89.5088C436.301 89.5088 425.35 117.058 434.535 137.899L224.022 139.664L204.596 137.899L187.474 127.289V111.053L192.234 97.6318L207.776 89.5088H436.303H436.301Z" fill="white"/>
    <g style="mix-blend-mode:multiply" opacity="0.3">
        <path d="M318.105 136.985L216.686 138.999L204.593 137.899L187.471 127.289V111.053L192.231 97.6318L207.773 89.5088H319.814C318.752 90.2987 318.107 90.7788 318.107 90.7788C318.107 90.7788 307.586 115.521 318.107 136.982L318.105 136.985Z" fill="#4CB7D8"/>
    </g>
    <path d="M214.158 142.349H441.598C443.079 142.349 444.281 141.148 444.281 139.667C444.281 138.186 443.079 136.985 441.598 136.985H214.158C200.43 136.985 189.261 126.621 189.261 113.883C189.261 101.145 200.43 90.7813 214.158 90.7813H441.598C443.079 90.7813 444.281 89.5799 444.281 88.099C444.281 86.6182 443.079 85.4167 441.598 85.4167H214.158C197.473 85.4167 183.896 98.188 183.896 113.883C183.896 129.578 197.473 142.349 214.158 142.349Z" fill="#FFB357"/>
    <g style="mix-blend-mode:multiply">
        <path d="M321.595 114.523H433.209C433.565 114.523 433.852 114.236 433.852 113.88C433.852 113.525 433.565 113.238 433.209 113.238H321.595C321.239 113.238 320.952 113.525 320.952 113.88C320.952 114.236 321.239 114.523 321.595 114.523Z" fill="#AAC9F8"/>
    </g>
    <g style="mix-blend-mode:multiply">
        <path d="M207.6 114.523H305.938C306.26 114.523 306.519 114.236 306.519 113.88C306.519 113.525 306.258 113.238 305.938 113.238H207.6C207.278 113.238 207.019 113.525 207.019 113.88C207.019 114.236 207.28 114.523 207.6 114.523Z" fill="#AAC9F8"/>
    </g>
    <g style="mix-blend-mode:multiply">
        <path d="M200.356 125.201H255.993C256.349 125.201 256.636 124.914 256.636 124.559C256.636 124.203 256.349 123.916 255.993 123.916H200.356C200.001 123.916 199.714 124.203 199.714 124.559C199.714 124.914 200.001 125.201 200.356 125.201Z" fill="#AAC9F8"/>
    </g>
    <g style="mix-blend-mode:multiply">
        <path d="M200.356 103.84H433.212C433.567 103.84 433.854 103.553 433.854 103.197C433.854 102.841 433.567 102.554 433.212 102.554H200.356C200.001 102.554 199.714 102.841 199.714 103.197C199.714 103.553 200.001 103.84 200.356 103.84Z" fill="#AAC9F8"/>
    </g>
    <g style="mix-blend-mode:multiply">
        <path d="M264.154 125.201H433.209C433.565 125.201 433.852 124.914 433.852 124.559C433.852 124.203 433.565 123.916 433.209 123.916H264.154C263.799 123.916 263.512 124.203 263.512 124.559C263.512 124.914 263.799 125.201 264.154 125.201Z" fill="#AAC9F8"/>
    </g>
    <g opacity="0.5">
        <path d="M444.281 88.0965C444.281 89.5773 443.079 90.7787 441.599 90.7787H322.819C321.338 90.7787 320.137 89.5773 320.137 88.0965C320.137 86.6156 321.338 85.4142 322.819 85.4142H441.599C443.079 85.4142 444.281 86.6156 444.281 88.0965Z" fill="#F99247"/>
    </g>
    <path d="M320.137 139.667C320.137 138.186 321.338 136.984 322.819 136.984H441.599C443.079 136.984 444.281 138.186 444.281 139.667C444.281 141.148 443.079 142.349 441.599 142.349H322.819C321.338 142.349 320.137 141.148 320.137 139.667Z" fill="#F99247"/>
    <path d="M247.075 103.84C247.075 103.84 239.112 115.892 243.562 130.048L249.833 120.357C249.833 120.357 254.116 125.496 256.739 130.048C256.739 130.048 261.771 105.607 271.055 103.84H247.075Z" fill="#FF424D"/>
    <path d="M214.159 142.992H441.598C443.43 142.992 444.923 141.501 444.923 139.667C444.923 137.833 443.432 136.342 441.598 136.342C441.243 136.342 440.956 136.629 440.956 136.985C440.956 137.34 441.243 137.627 441.598 137.627C442.724 137.627 443.638 138.542 443.638 139.667C443.638 140.792 442.724 141.706 441.598 141.706H214.159C197.826 141.706 184.539 129.225 184.539 113.88C184.539 98.536 197.826 86.0569 214.159 86.0569H441.598C442.724 86.0569 443.638 86.9713 443.638 88.0965C443.638 89.2218 442.724 90.1362 441.598 90.1362C441.243 90.1362 440.956 90.4232 440.956 90.7788C440.956 91.1344 441.243 91.4214 441.598 91.4214C443.43 91.4214 444.923 89.9304 444.923 88.0965C444.923 86.2626 443.432 84.7716 441.598 84.7716H214.159C197.117 84.7716 183.254 97.8299 183.254 113.88C183.254 129.931 197.117 142.989 214.159 142.989V142.992Z" fill="#21111D"/>
    <path d="M551.234 131.936L547.208 136.685L609.264 189.293L613.29 184.545L551.234 131.936Z" fill="#FF424D"/>
    <path d="M543.441 130.401C540.594 133.812 536.354 147.256 539.766 150.101C543.177 152.949 552.948 144.119 555.796 140.708C558.643 137.297 558.186 132.224 554.775 129.377C551.363 126.53 546.291 126.987 543.443 130.398L543.441 130.401Z" fill="#FECC86"/>
    <path d="M541.455 150.856C540.762 150.856 540.139 150.678 539.634 150.256L539.89 149.949C541.648 151.417 545.202 149.476 547.871 147.589C550.934 145.425 554.097 142.425 555.636 140.581C558.407 137.261 557.96 132.303 554.64 129.532L554.897 129.225C558.387 132.138 558.857 137.348 555.943 140.838C554.386 142.702 551.193 145.732 548.102 147.917C546.035 149.377 543.446 150.856 541.452 150.856H541.455Z" fill="black"/>
    <path d="M546.35 275.162H557.079C557.932 275.162 558.628 275.856 558.628 276.712V277.504H544.803V276.712C544.803 275.858 545.496 275.162 546.352 275.162H546.35Z" fill="#FF424D"/>
    <path d="M533.098 175.521C539.053 173.206 542.005 166.501 539.69 160.545C537.375 154.59 530.67 151.638 524.715 153.953C518.759 156.268 515.807 162.973 518.122 168.928C520.437 174.884 527.142 177.836 533.098 175.521Z" fill="#FDFFDC"/>
    <path d="M550.409 139.017C564.641 150.894 566.551 172.06 554.674 186.292L503.134 143.281C515.011 129.049 536.177 127.139 550.409 139.017Z" fill="#4CB7D8"/>
    <path d="M607.598 188.918L577.31 278.4L583.207 280.396L613.495 190.914L607.598 188.918Z" fill="#FF424D"/>
    <path d="M545.356 276.943H592.804C599.07 276.943 604.15 282.023 604.15 288.289V289.501H532.801C532.801 282.567 538.422 276.943 545.359 276.943H545.356Z" fill="#4CB7D8"/>
    <path d="M503.133 143.281L554.673 186.292L552.021 188.926L500.921 145.572L503.133 143.281Z" fill="#FF424D"/>
    <path d="M511.764 155.034L500.646 145.603L500.758 145.453C500.84 145.344 508.904 134.592 520.916 131.978C533.41 129.26 540.929 133.04 544.541 134.856C548.734 136.964 555.115 142.446 557.373 146.626L557.02 146.817C554.795 142.7 548.501 137.297 544.36 135.214C540.789 133.418 533.357 129.682 521 132.369C509.907 134.782 502.211 144.236 501.193 145.542L512.021 154.729L511.762 155.037L511.764 155.034Z" fill="black"/>
    <path d="M503.239 143.085L502.981 143.393L554.525 186.399L554.782 186.091L503.239 143.085Z" fill="black"/>
    <path d="M554.127 162.217H553.726V166.741H554.127V162.217Z" fill="black"/>
    <path d="M552.102 163.525H551.701V168.524H552.102V163.525Z" fill="black"/>
    <path d="M557.773 137.216L557.514 137.522L609.582 181.664L609.841 181.358L557.773 137.216Z" fill="black"/>
    <path d="M568.059 154.096L567.8 154.403L588.494 171.946L588.754 171.64L568.059 154.096Z" fill="black"/>
    <path d="M613.288 190.841L584.202 276.871L584.582 276.999L613.668 190.969L613.288 190.841Z" fill="black"/>
    <path d="M603.411 200.708L586.424 250.864L586.804 250.993L603.791 200.837L603.411 200.708Z" fill="black"/>
    <path d="M538.732 279.061L538.438 278.787C538.529 278.688 540.79 276.369 549.395 276.742C557.904 277.113 592.197 276.745 592.543 276.742L592.548 277.144C592.202 277.146 557.899 277.514 549.38 277.144C541.003 276.778 538.755 279.038 538.732 279.061Z" fill="black"/>
    <path d="M594.501 280.519L594.273 280.85L597.13 282.814L597.358 282.483L594.501 280.519Z" fill="black"/>
    <path d="M594.998 282.84L594.785 283.18L597.165 284.668L597.378 284.327L594.998 282.84Z" fill="black"/>
    <path d="M616.623 187.728C616.831 184.47 614.359 181.66 611.101 181.452C607.844 181.243 605.034 183.715 604.826 186.973C604.617 190.231 607.089 193.041 610.347 193.249C613.605 193.457 616.414 190.985 616.623 187.728Z" fill="#FECC86"/>
    <path d="M287.19 25.0528C278.833 24.6108 250.192 23.4043 230.605 26.3076C228.065 26.6835 226.447 23.6405 228.205 21.766C229.234 20.6712 230.986 19.7797 233.935 19.5714C233.935 19.5714 232.919 1.28569 246.732 0.0766356C262.572 -1.31276 262.765 16.6504 262.765 16.6504C262.765 16.6504 269.963 9.81513 275.158 18.4817C275.158 18.4817 284.132 13.295 288.658 22.876C289.151 23.9199 288.346 25.1138 287.192 25.0528H287.19Z" fill="white"/>
</svg>
