<svg width="594" height="374" viewBox="0 0 594 374" fill="none" xmlns="http://www.w3.org/2000/svg">
    <path d="M488.095 51.9666L518.604 58.9637L297.1 253.996L218.235 190.222L55.6416 373.603H87.3098L217.749 227.222L299.048 289.535L538.077 78.2542L548.463 105.841L566.96 31.1949L488.095 51.9666Z" fill="#F07162"/>
    <path d="M288.085 282.486C288.085 282.486 310.178 244.227 323.339 266.878C323.339 266.878 347.826 222.803 367.721 238.412C387.615 254.023 357.315 334.826 357.315 334.826C357.315 334.826 390.064 303.3 379.352 350.131C379.352 350.131 393.127 339.689 402.002 343.074C410.878 346.458 403.226 372.794 403.226 372.794H306.198L288.085 282.489V282.486Z" fill="#258D8C"/>
    <path d="M70.0869 342.92C70.0869 342.92 129.479 285.8 139.539 321.176C139.539 321.176 153.169 309.494 157.064 317.281C157.064 317.281 189.518 245.555 229.114 246.854C229.114 246.854 243.071 247.179 237.552 284.176C232.034 321.174 238.842 363.041 238.842 363.041C238.842 363.041 200.228 372.452 198.931 372.779C197.632 373.103 96.3745 367.911 95.4019 367.911C94.4293 367.911 70.0869 342.92 70.0869 342.92Z" fill="#7FC6A6"/>
    <path d="M88.492 228.024C85.6007 229.192 72.8389 253.698 72.8389 253.698L79.9582 257.7L95.9977 237.679C95.9977 237.679 91.3832 226.856 88.492 228.024Z" fill="#FE9F73"/>
    <path d="M68.0149 261.682C68.3058 261.981 68.7876 261.984 69.1052 261.713L71.0815 260.027C71.1437 259.974 71.2325 259.967 71.3014 260.009C71.4035 260.072 71.4257 260.211 71.3458 260.3L68.7832 263.152C68.4901 263.478 68.5589 263.929 68.9364 264.153C69.3139 264.377 69.8624 264.293 70.1578 263.967L72.7692 261.058C72.8292 260.991 72.9291 260.975 73.0068 261.022L73.0623 261.055C73.1534 261.109 73.1822 261.226 73.1289 261.315L70.9172 265.046C70.704 265.405 70.7884 265.878 71.1326 266.114C71.5101 266.371 72.0209 266.254 72.2496 265.867L74.4769 262.115C74.5302 262.023 74.6478 261.995 74.7367 262.048L74.9121 262.152C74.9943 262.201 75.0276 262.303 74.9898 262.392L73.391 266.118C73.2266 266.502 73.3732 266.96 73.7441 267.149C74.1526 267.355 74.6434 267.173 74.8188 266.76C74.8188 266.76 77.5613 261.211 78.0609 260.378L79.0202 262.43C79.1268 262.85 79.5532 263.103 79.9729 262.994C80.3926 262.887 80.6457 262.461 80.5391 262.041L79.8685 257.043C79.7997 256.77 79.3134 256.481 78.8692 256.341C75.0853 253.685 74.4813 253.308 73.3932 252.686L71.0171 257.018C70.331 258.268 69.425 259.383 68.3391 260.307L68.0659 260.54C67.724 260.831 67.6951 261.355 68.0126 261.684L68.0149 261.682Z" fill="#FE9F73"/>
    <path d="M95.9971 296.381L97.5804 335.49H107.904L112.347 296.381H95.9971Z" fill="#FE9F73"/>
    <path d="M78.918 281.94L74.1792 286.159L48.4023 293.925L45.2246 295.532L45.7309 301.97L49.1285 304.57C49.1285 304.57 82.6331 299.752 84.4184 298.373C86.2038 296.994 89.628 292.65 89.628 292.65C89.628 292.65 95.6326 283.643 95.1462 281.94C94.6599 280.237 89.7102 276.819 89.3038 276.824C88.8974 276.828 78.918 281.94 78.918 281.94Z" fill="#FE9F73"/>
    <path d="M87.2744 227.537C87.2744 227.537 89.4662 234.23 95.3064 235.936L106.243 211.02C106.243 211.02 100.662 210.174 95.3064 217.396C89.9525 224.617 87.2744 227.537 87.2744 227.537Z" fill="#F2A5B7"/>
    <path d="M116.849 261.251C116.849 261.251 114.901 293.625 113.44 302.021C113.44 302.021 102.486 304.821 80.9458 291.067L85.5713 283.399L78.27 288.633L74.375 281.751C74.375 281.751 82.6512 270.011 84.3544 268.186C84.3544 268.186 83.746 260.518 88.2494 254.311C88.2494 254.311 104.435 251.391 104.802 251.391C105.168 251.391 116.851 261.248 116.851 261.248L116.849 261.251Z" fill="#3F9896"/>
    <path d="M122.343 228.781C122.343 228.781 134.361 229.609 137.33 228.659C140.299 227.711 154.464 205.365 154.464 205.365L147.662 200.843L133.195 217.143L121.279 216.967L122.343 228.781Z" fill="#FE9F73"/>
    <path d="M159.868 197.763C159.6 197.443 159.12 197.403 158.785 197.65L156.689 199.182C156.622 199.231 156.533 199.231 156.467 199.184C156.369 199.116 156.358 198.973 156.444 198.891L159.211 196.238C159.529 195.933 159.493 195.478 159.133 195.227C158.774 194.976 158.219 195.019 157.903 195.323L155.081 198.03C155.016 198.092 154.914 198.101 154.841 198.047L154.788 198.01C154.701 197.95 154.681 197.83 154.741 197.745L157.226 194.19C157.466 193.848 157.415 193.369 157.091 193.109C156.733 192.822 156.216 192.902 155.958 193.271L153.458 196.848C153.398 196.935 153.278 196.955 153.193 196.895L153.027 196.777C152.949 196.722 152.922 196.617 152.967 196.533L154.839 192.936C155.032 192.565 154.921 192.096 154.563 191.881C154.173 191.643 153.669 191.79 153.462 192.189C153.462 192.189 150.315 197.521 149.756 198.314L148.952 196.198C148.876 195.771 148.47 195.487 148.044 195.563C147.617 195.638 147.333 196.044 147.409 196.471L147.706 201.505C147.755 201.783 148.217 202.107 148.65 202.28C152.225 205.209 152.8 205.631 153.837 206.333L156.529 202.189C157.306 200.994 158.294 199.951 159.444 199.107L159.733 198.896C160.095 198.629 160.164 198.11 159.871 197.759L159.868 197.763Z" fill="#FE9F73"/>
    <path d="M115.326 198.05C115.326 198.05 115.355 207.625 113.954 207.88C112.552 208.136 116.256 215.801 119.379 209.95C120.473 207.9 118.941 198.603 115.506 196.3C112.073 193.997 115.324 198.05 115.324 198.05H115.326Z" fill="#FECC86"/>
    <path d="M115.568 195.618C115.568 195.618 117.888 204.401 116.9 206.126C116.9 206.126 116.425 207.037 115.035 207.241L115.745 212.477H109.352L107.434 197.572C107.434 197.572 108.81 193.675 108.83 193.828C108.85 193.979 115.568 195.618 115.568 195.618Z" fill="#FE9F73"/>
    <path d="M114.592 203.277C114.566 203.281 114.539 203.266 114.53 203.239C114.519 203.21 114.535 203.177 114.566 203.166C114.923 203.039 115.096 202.558 115.143 202.402C114.586 202.191 114.221 201.869 114.059 201.447C113.795 200.759 114.161 200.057 114.179 200.028C114.195 199.999 114.228 199.991 114.257 200.004C114.286 200.019 114.295 200.053 114.281 200.082C114.277 200.088 113.922 200.768 114.168 201.405C114.324 201.807 114.681 202.111 115.234 202.311L115.283 202.329L115.27 202.38C115.263 202.409 115.087 203.104 114.606 203.275C114.601 203.275 114.597 203.275 114.594 203.277H114.592Z" fill="#F07162"/>
    <path d="M115.263 209.022L115.034 207.239C115.034 207.239 111.999 207.45 109.998 206.521C109.998 206.521 112.818 208.611 115.263 209.022Z" fill="#F07162"/>
    <path d="M110.715 200.723C110.686 200.728 110.657 200.721 110.633 200.701C110.582 200.663 110.571 200.592 110.608 200.541C110.622 200.523 111.89 198.842 113.364 199.746C113.417 199.78 113.435 199.851 113.402 199.904C113.369 199.957 113.298 199.975 113.244 199.942C111.95 199.149 110.842 200.615 110.795 200.677C110.775 200.703 110.746 200.719 110.717 200.723H110.715Z" fill="#FECC86"/>
    <path d="M114.644 199.964C114.613 199.968 114.579 199.959 114.553 199.935C114.506 199.893 114.502 199.819 114.544 199.773C114.581 199.731 115.485 198.731 116.198 199.2C116.251 199.235 116.267 199.307 116.231 199.36C116.196 199.413 116.125 199.429 116.071 199.393C115.523 199.033 114.721 199.917 114.715 199.926C114.695 199.948 114.67 199.959 114.644 199.964Z" fill="#FECC86"/>
    <path d="M113.076 201.065C113.098 201.241 112.974 201.401 112.799 201.423C112.623 201.445 112.463 201.321 112.441 201.145C112.419 200.97 112.543 200.81 112.719 200.788C112.894 200.766 113.054 200.89 113.076 201.065Z" fill="black"/>
    <path d="M116.062 200.681C116.085 200.857 115.96 201.017 115.785 201.039C115.609 201.061 115.45 200.937 115.427 200.761C115.405 200.586 115.53 200.426 115.705 200.404C115.88 200.381 116.04 200.506 116.062 200.681Z" fill="black"/>
    <path d="M112.102 203.448C112.137 203.453 114.291 204.072 114.291 204.072C114.291 204.072 113.745 204.872 112.945 204.643C112.144 204.414 112.104 203.448 112.104 203.448H112.102Z" fill="#FBFDFC"/>
    <path d="M109.388 202.919C109.515 203.903 108.82 204.803 107.838 204.929C106.854 205.056 105.955 204.361 105.828 203.379C105.702 202.395 106.397 201.496 107.378 201.369C108.362 201.243 109.261 201.938 109.388 202.919Z" fill="#FE9F73"/>
    <path d="M107.618 204.263C107.245 204.312 106.958 204.063 106.841 203.792C106.701 203.473 106.772 203.135 107.018 202.933C107.371 202.644 107.738 202.74 107.944 202.835C107.844 202.655 107.709 202.531 107.542 202.467C107.169 202.32 106.756 202.515 106.752 202.518C106.723 202.531 106.69 202.518 106.674 202.491C106.661 202.462 106.674 202.429 106.701 202.413C106.719 202.404 107.163 202.193 107.582 202.36C107.824 202.455 108.007 202.655 108.124 202.955L108.2 203.146L108.035 203.022C108.015 203.006 107.545 202.653 107.089 203.022C106.838 203.226 106.854 203.539 106.943 203.746C107.038 203.961 107.267 204.194 107.609 204.148C107.64 204.143 107.669 204.165 107.673 204.196C107.678 204.228 107.656 204.256 107.625 204.261C107.62 204.261 107.618 204.261 107.613 204.261L107.618 204.263Z" fill="#F07162"/>
    <path d="M112.85 196.105L111.073 194.153C111.073 194.153 113.711 195.412 113.514 195.498C113.316 195.585 112.848 196.102 112.848 196.102L112.85 196.105Z" fill="#FE9F73"/>
    <path d="M108.138 195.623C108.138 195.623 108.957 198.902 117.014 198.663C117.014 198.663 118.304 193.522 112.322 192.536C106.339 191.55 106.322 196.053 106.433 196C106.546 195.947 108.136 195.623 108.136 195.623H108.138Z" fill="#FECC86"/>
    <path d="M88.25 254.314L100.299 216.463C100.299 216.463 102.855 210.134 108.453 210.987C114.051 211.84 127.562 214.638 127.562 214.638C127.562 214.638 127.439 224.739 125.25 230.095C125.25 230.095 121.193 230.096 119.083 229.689C119.083 229.689 118.597 260.034 118.353 262.143C118.353 262.143 100.828 264.171 88.25 254.314Z" fill="#FEBAC7"/>
    <path d="M100.749 340.176L115.067 339.949C115.196 339.929 115.303 339.905 115.378 339.88C116.719 339.445 116.266 338.597 116.266 338.597L108.152 333.307L104.455 334.98C104.455 334.98 98.3927 335.992 97.5244 334.273L97.6466 338.77C97.6466 338.77 97.2046 340.211 100.747 340.178L100.749 340.176Z" fill="#FEBAC7"/>
    <path d="M42.4265 297.014L42.3311 311.334C42.3488 311.463 42.3688 311.57 42.3932 311.648C42.7974 312.998 43.6568 312.565 43.6568 312.565L49.1284 304.57L47.5384 300.835C47.5384 300.835 46.6613 294.753 48.4 293.925L43.9033 293.947C43.9033 293.947 42.4732 293.474 42.4265 297.016V297.014Z" fill="#FEBAC7"/>
    <path d="M76.6756 291.011C76.5624 291.011 76.4536 290.949 76.3958 290.843L74.0931 286.43C74.0131 286.277 74.0731 286.086 74.2263 286.006C74.3795 285.926 74.5705 285.986 74.6504 286.139L76.9532 290.552C77.0331 290.705 76.9732 290.896 76.82 290.976C76.7733 291 76.7245 291.011 76.6756 291.011Z" fill="#F07162"/>
    <path d="M125.374 230.282H125.248C115.606 230.24 109.875 227.655 109.819 227.628C109.724 227.584 109.684 227.473 109.726 227.38C109.77 227.284 109.881 227.244 109.977 227.287C110.032 227.313 115.644 229.84 125.121 229.905C125.441 229.056 127.337 223.665 127.373 214.791L121.244 213.55C121.142 213.53 121.075 213.43 121.097 213.328C121.117 213.226 121.217 213.159 121.32 213.181L127.75 214.485V214.64C127.733 224.462 125.448 230.113 125.423 230.169L125.374 230.287V230.282Z" fill="black"/>
    <path d="M110.62 229.918C110.534 229.918 110.454 229.858 110.436 229.769C110.414 229.667 110.48 229.567 110.582 229.547L114.509 228.725C114.608 228.705 114.711 228.77 114.731 228.872C114.753 228.974 114.686 229.074 114.584 229.094L110.658 229.916C110.645 229.918 110.631 229.92 110.62 229.92V229.918Z" fill="black"/>
    <path d="M118.35 262.33H118.345C118.241 262.328 118.159 262.241 118.161 262.137L118.892 229.683C118.894 229.578 118.983 229.494 119.085 229.498C119.189 229.5 119.271 229.587 119.269 229.691L118.539 262.146C118.536 262.248 118.452 262.33 118.35 262.33Z" fill="black"/>
    <path d="M92.3293 241.683C92.3116 241.683 92.2916 241.68 92.2716 241.674C92.1717 241.643 92.1184 241.536 92.1495 241.436L99.7884 217.438C100.908 213.923 102.26 213.501 102.318 213.483C102.418 213.454 102.522 213.512 102.551 213.612C102.58 213.712 102.522 213.814 102.424 213.845C102.398 213.854 101.187 214.289 100.148 217.551L92.5092 241.549C92.4826 241.629 92.4093 241.68 92.3293 241.68V241.683Z" fill="black"/>
    <path d="M91.3935 233.924C91.3446 233.924 91.298 233.906 91.2603 233.868C91.1004 233.708 87.3608 229.949 87.0899 227.557L87.0811 227.479L87.1299 227.417L96.8251 215.284C96.8895 215.202 97.0094 215.188 97.0894 215.255C97.1715 215.319 97.1849 215.439 97.1182 215.519L87.4719 227.591C87.8028 229.858 91.4868 233.562 91.5245 233.599C91.5978 233.673 91.5978 233.793 91.5245 233.866C91.4868 233.904 91.4401 233.921 91.3913 233.921L91.3935 233.924Z" fill="black"/>
    <path d="M85.1832 271.055C85.1033 271.055 85.0277 271.004 85.0033 270.921L84.1662 268.197C83.7043 259.945 88.0567 254.253 88.1011 254.196C88.1655 254.114 88.2832 254.098 88.3653 254.162C88.4475 254.227 88.463 254.344 88.3986 254.427C88.3565 254.482 84.0973 260.058 84.5414 268.152L85.3631 270.808C85.3942 270.908 85.3386 271.012 85.2387 271.043C85.2209 271.05 85.201 271.052 85.1832 271.052V271.055Z" fill="black"/>
    <path d="M74.3746 281.94C74.3369 281.94 74.2969 281.929 74.2636 281.902C74.1792 281.84 74.1614 281.722 74.2236 281.638L84.2031 268.072C84.2652 267.988 84.3829 267.97 84.4673 268.032C84.5517 268.095 84.5695 268.212 84.5073 268.297L74.5278 281.862C74.4901 281.913 74.4346 281.94 74.3768 281.94H74.3746Z" fill="black"/>
    <path d="M110.391 302.501C104.729 302.501 97.8735 299.969 92.7417 297.629C86.1398 294.615 80.8947 291.26 80.8436 291.227L80.6904 291.127L85.4092 283.304C85.4625 283.215 85.578 283.186 85.669 283.239C85.7579 283.292 85.7867 283.408 85.7334 283.499L81.2034 291.009C82.1161 291.584 86.957 294.575 92.9038 297.289C98.9594 300.051 107.431 303.085 113.402 301.839C113.504 301.817 113.604 301.883 113.624 301.986C113.647 302.088 113.58 302.188 113.478 302.208C112.505 302.41 111.468 302.503 110.389 302.503L110.391 302.501Z" fill="black"/>
    <path d="M124.04 218.944C123.975 218.944 123.911 218.91 123.875 218.848L122.803 216.974C122.752 216.883 122.783 216.767 122.872 216.716C122.963 216.665 123.078 216.696 123.129 216.785L124.202 218.659C124.253 218.75 124.222 218.866 124.133 218.917C124.104 218.935 124.071 218.941 124.04 218.941V218.944Z" fill="black"/>
    <path d="M123.952 220.038C123.889 220.038 123.827 220.007 123.792 219.95L122.593 218.053C122.537 217.964 122.564 217.849 122.65 217.793C122.739 217.738 122.855 217.764 122.91 217.851L124.109 219.747C124.165 219.836 124.138 219.952 124.051 220.007C124.02 220.027 123.985 220.036 123.952 220.036V220.038Z" fill="black"/>
    <path d="M90.0613 263.167C89.9969 263.167 89.9325 263.134 89.897 263.071L88.8244 261.197C88.7733 261.106 88.8044 260.991 88.8932 260.94C88.9843 260.889 89.0998 260.92 89.1508 261.008L90.2234 262.883C90.2745 262.974 90.2434 263.089 90.1546 263.14C90.1257 263.158 90.0924 263.165 90.0613 263.165V263.167Z" fill="black"/>
    <path d="M89.9701 264.262C89.9079 264.262 89.8457 264.23 89.8102 264.173L88.6111 262.276C88.5556 262.187 88.5822 262.072 88.6688 262.016C88.7576 261.961 88.8731 261.988 88.9286 262.074L90.1278 263.971C90.1833 264.059 90.1566 264.175 90.07 264.23C90.0389 264.25 90.0034 264.259 89.9701 264.259V264.262Z" fill="black"/>
    <path d="M109.554 197.352C109.554 197.352 109.527 198.392 109.025 200.05C109.025 200.05 115.303 210.467 106.627 214.851L105.666 214.946C100.907 215.424 99.9763 208.351 104.702 207.616C104.757 207.607 104.813 207.598 104.868 207.592C104.962 207.581 104.944 207.31 104.984 207.394C105.088 207.607 103.016 204.765 102.474 199.298C102.135 195.876 105.885 191.932 108.823 193.704C111.761 195.478 109.554 197.35 109.554 197.35V197.352Z" fill="#FECC86"/>
    <path d="M115.277 197.976C111.826 197.976 109.756 195.967 109.665 195.876C109.592 195.802 109.592 195.683 109.665 195.609C109.739 195.536 109.858 195.534 109.932 195.609C109.954 195.631 112.272 197.877 115.983 197.572C116.085 197.566 116.178 197.641 116.185 197.746C116.194 197.85 116.116 197.941 116.012 197.95C115.759 197.97 115.514 197.981 115.275 197.981L115.277 197.976Z" fill="black"/>
    <path d="M438.615 183.132L447.617 183.949L448.856 180.918L448.836 171.362L438.377 171.891L438.615 183.132Z" fill="#FE9F73"/>
    <path d="M445.738 186.875L431.417 186.9C431.288 186.882 431.182 186.86 431.104 186.838C429.754 186.427 430.193 185.57 430.193 185.57L437.044 181.302L437.173 180.68C437.382 179.681 438.614 179.325 439.538 179.998L441.94 181.746C441.94 181.746 448.021 182.652 448.855 180.918L448.811 185.414C448.811 185.414 449.277 186.847 445.735 186.875H445.738Z" fill="#49263E"/>
    <path d="M527.576 161.565L531.431 158.263L528.36 151.508L527.618 151.084L518.282 149.05L516.546 159.376L527.576 161.565Z" fill="#FE9F73"/>
    <path d="M532.765 155.414L529.705 169.404C529.658 169.526 529.616 169.626 529.576 169.695C528.883 170.925 528.142 170.31 528.142 170.31L525.448 162.7L524.869 162.44C523.938 162.023 523.856 160.741 524.711 159.984L526.936 158.014C526.936 158.014 529.13 152.274 527.615 151.082L531.999 152.092C531.999 152.092 533.498 151.945 532.763 155.41L532.765 155.414Z" fill="#49263E"/>
    <path d="M448.036 102.428L443.599 109.598L433.948 125.191C433.948 125.191 430.495 131.906 431.758 139.188C433.022 146.469 437.143 173.419 437.143 173.419C437.143 173.419 445.271 174.087 450.285 173.19C450.285 173.19 449.663 142.201 449.686 138.915C449.71 135.628 464.288 113.098 465.241 111.985L472.771 138.877C472.771 138.877 476.555 153.418 483.628 154.146C490.7 154.874 517.352 161.469 517.352 161.469C517.352 161.469 520.601 152.283 519.779 147.064L495.064 139.827C495.064 139.827 488.844 111.33 486.508 102.974C484.172 94.6157 464.348 95.6927 464.348 95.6927L448.033 102.43L448.036 102.428Z" fill="#61A3C5"/>
    <path d="M487.038 112.487C483.358 112.487 481.08 110.511 479.77 108.715C478.142 106.483 477.64 104.111 477.618 104.011C477.598 103.909 477.662 103.809 477.764 103.789C477.864 103.767 477.967 103.834 477.987 103.936C477.991 103.96 478.495 106.336 480.081 108.504C482.19 111.388 485.115 112.554 488.776 111.968C488.881 111.952 488.976 112.021 488.992 112.123C489.007 112.225 488.939 112.323 488.836 112.339C488.204 112.441 487.602 112.487 487.038 112.487Z" fill="black"/>
    <path d="M490.623 63.2983C490.623 63.2983 501.145 69.7292 503.134 72.1275C505.124 74.528 505.015 100.984 505.015 100.984L496.85 101.127L493.446 79.5999L483.315 73.3266L490.626 63.2983H490.623Z" fill="#FE9F73"/>
    <path d="M505.47 110.302C505.072 110.429 504.646 110.202 504.495 109.814L503.555 107.393C503.527 107.318 503.451 107.269 503.371 107.271C503.251 107.275 503.167 107.389 503.194 107.506L504.095 111.233C504.197 111.659 503.924 112.023 503.484 112.041C503.045 112.059 502.603 111.723 502.498 111.297L501.579 107.497C501.557 107.409 501.477 107.349 501.386 107.353H501.322C501.217 107.36 501.135 107.449 501.139 107.553L501.317 111.885C501.335 112.303 501.035 112.678 500.62 112.723C500.165 112.771 499.772 112.425 499.754 111.976L499.576 107.617C499.572 107.513 499.483 107.431 499.378 107.435L499.174 107.444C499.079 107.449 499.001 107.522 498.992 107.617L498.63 111.654C498.592 112.07 498.246 112.405 497.831 112.394C497.373 112.383 497.029 111.99 497.069 111.541C497.069 111.541 497.291 105.355 497.247 104.384L495.428 105.734C495.135 106.052 494.64 106.072 494.322 105.779C494.005 105.486 493.985 104.99 494.278 104.673L497.242 100.591C497.433 100.385 497.997 100.358 498.455 100.447C503.045 99.9074 503.758 99.8608 505.008 99.8297L505.043 104.771C505.052 106.196 505.323 107.609 505.838 108.936L505.967 109.27C506.129 109.689 505.907 110.162 505.472 110.3L505.47 110.302Z" fill="#FE9F73"/>
    <path d="M443.454 93.1702C443.454 93.1702 439.504 104.551 437.468 106.909C435.431 109.267 409.321 113.542 409.321 113.542L407.829 105.512L428.494 98.5907L433.004 87.5609L443.454 93.1702Z" fill="#FE9F73"/>
    <path d="M400.207 115.534C400.019 115.163 400.17 114.706 400.529 114.493L402.761 113.167C402.83 113.125 402.868 113.045 402.85 112.965C402.825 112.847 402.699 112.783 402.59 112.829L399.064 114.335C398.66 114.508 398.255 114.297 398.164 113.866C398.073 113.436 398.331 112.943 398.735 112.772L402.33 111.237C402.415 111.202 402.461 111.113 402.441 111.024L402.428 110.962C402.406 110.86 402.306 110.793 402.204 110.815L397.96 111.708C397.551 111.795 397.13 111.561 397.019 111.159C396.896 110.72 397.172 110.273 397.611 110.18L401.882 109.283C401.984 109.261 402.05 109.161 402.028 109.059L401.986 108.859C401.966 108.766 401.882 108.701 401.786 108.708L397.745 109.019C397.329 109.05 396.941 108.766 396.883 108.353C396.819 107.9 397.15 107.493 397.598 107.46C397.598 107.46 403.736 106.654 404.686 106.45L403.054 104.88C402.692 104.642 402.59 104.158 402.825 103.796C403.063 103.434 403.547 103.332 403.909 103.567L408.424 105.814C408.659 105.968 408.777 106.521 408.766 106.987C410.058 111.426 410.22 112.119 410.46 113.349L405.592 114.202C404.189 114.448 402.841 114.948 401.615 115.676L401.306 115.858C400.92 116.089 400.416 115.947 400.207 115.539V115.534Z" fill="#FE9F73"/>
    <path d="M438.967 64.1622L452.466 56.812C457.578 54.0296 463.347 52.6395 469.161 52.8948C471.262 52.9881 473.429 53.2945 475.468 53.9496C483.628 56.5655 493.168 63.8647 493.168 63.8647C493.168 63.8647 487.494 73.5399 484.434 74.8922L475.257 72.0787C475.257 72.0787 486.18 91.1716 486.508 102.974C486.508 102.974 470.32 109.951 448.034 102.43C448.034 102.43 445.434 93.6986 445.074 91.7578L444.641 94.7956C444.641 94.7956 433.804 93.8496 430.231 90.5564C430.231 90.5564 433.9 71.7834 434.524 69.9247C435.372 67.3932 437.579 64.8728 438.967 64.1667V64.1622Z" fill="#FD7583"/>
    <path d="M432.784 101.453C432.731 101.453 432.676 101.44 432.627 101.411L428.325 98.9082C428.177 98.8216 428.126 98.6284 428.212 98.4797C428.299 98.3287 428.492 98.2798 428.641 98.3664L432.942 100.869C433.091 100.956 433.142 101.149 433.055 101.298C432.998 101.398 432.891 101.453 432.784 101.453Z" fill="#F07162"/>
    <path d="M462.196 105.752C462.196 105.752 462.179 105.752 462.17 105.752C453.64 104.595 448.027 102.626 447.971 102.606L447.878 102.572L447.851 102.477C447.8 102.29 442.802 83.6726 441.549 79.5112C439.873 73.9463 442.033 69.8137 442.055 69.7738C442.104 69.6827 442.217 69.6472 442.311 69.696C442.402 69.7449 442.437 69.8581 442.388 69.9514C442.366 69.9914 440.281 73.9952 441.911 79.4023C443.119 83.4128 447.798 100.818 448.191 102.281C448.955 102.541 454.331 104.307 462.221 105.377C462.323 105.39 462.396 105.486 462.383 105.59C462.37 105.686 462.29 105.752 462.196 105.752Z" fill="black"/>
    <path d="M444.643 94.9799C444.643 94.9799 444.63 94.9799 444.621 94.9799C432.141 93.5787 430.154 90.7763 430.074 90.6586L430.029 90.5942L430.045 90.5165L434.106 70.7419C434.115 70.6997 435.039 66.7293 438.565 64.1778C438.65 64.1156 438.767 64.1356 438.83 64.22C438.892 64.3044 438.872 64.4221 438.787 64.4842C435.381 66.9491 434.486 70.7841 434.477 70.8241L430.433 90.5076C430.789 90.9029 433.396 93.3433 444.663 94.6091C444.767 94.6202 444.841 94.7135 444.83 94.8178C444.819 94.9133 444.736 94.9844 444.643 94.9844V94.9799Z" fill="black"/>
    <path d="M444.642 94.9799C444.642 94.9799 444.625 94.9799 444.616 94.9799C444.514 94.9666 444.44 94.8711 444.454 94.7667L444.9 91.5046C444.913 91.4025 445.007 91.3292 445.113 91.3425C445.215 91.3558 445.289 91.4513 445.275 91.5557L444.829 94.8178C444.816 94.9133 444.736 94.9799 444.642 94.9799Z" fill="black"/>
    <path d="M484.472 75.0987L469.587 70.5376C469.487 70.5065 469.432 70.4021 469.463 70.3022C469.494 70.2022 469.598 70.1467 469.698 70.1778L484.399 74.6834C484.985 74.2216 488.938 70.9528 493.006 63.7736C493.057 63.6825 493.172 63.6514 493.263 63.7025C493.354 63.7536 493.385 63.869 493.334 63.9601C488.904 71.7767 484.592 75.0143 484.55 75.0454L484.474 75.1009L484.472 75.0987Z" fill="black"/>
    <path d="M481.475 85.0027C481.402 85.0027 481.333 84.9605 481.302 84.8917C481.258 84.7918 476.83 74.8634 475.04 72.1631C474.982 72.0765 475.007 71.9588 475.093 71.9011C475.18 71.8434 475.298 71.8678 475.355 71.9544C477.163 74.6813 481.467 84.3277 481.649 84.7385C481.691 84.834 481.649 84.945 481.553 84.9872C481.529 84.9983 481.502 85.0027 481.478 85.0027H481.475Z" fill="black"/>
    <path d="M471.953 136.139C471.871 136.139 471.796 136.084 471.771 136.001L465.067 112.056L462.864 107.808C462.815 107.715 462.853 107.602 462.944 107.555C463.037 107.506 463.151 107.544 463.197 107.635L465.418 111.919L465.422 111.937L472.133 135.899C472.162 135.999 472.102 136.104 472.002 136.132C471.984 136.137 471.969 136.139 471.951 136.139H471.953Z" fill="black"/>
    <path d="M447.258 138.695C447.156 138.695 447.072 138.613 447.069 138.511C447.069 138.406 447.151 138.32 447.254 138.32C449.114 138.286 449.643 137.949 449.727 137.882L454.517 128.611C454.566 128.518 454.679 128.482 454.77 128.531C454.864 128.58 454.899 128.693 454.853 128.784L450.038 138.104L450.025 138.12C449.949 138.209 449.465 138.657 447.26 138.697H447.256L447.258 138.695Z" fill="black"/>
    <path d="M448.588 139.728C448.515 139.728 448.446 139.685 448.415 139.614C448.373 139.519 448.415 139.408 448.51 139.366C449.556 138.906 449.692 137.982 449.694 137.973C449.707 137.871 449.803 137.798 449.907 137.811C450.009 137.824 450.083 137.92 450.069 138.024C450.063 138.071 449.9 139.168 448.664 139.712C448.639 139.723 448.612 139.728 448.588 139.728Z" fill="black"/>
    <path d="M442.688 173.938C442.195 173.938 441.727 173.925 441.303 173.896C441.198 173.89 441.121 173.798 441.127 173.696C441.134 173.592 441.225 173.514 441.329 173.521C444.218 173.719 449.13 173.143 450.096 173.026L449.541 138.468C449.541 138.364 449.623 138.28 449.726 138.278C449.83 138.273 449.914 138.36 449.917 138.464L450.478 173.359L450.312 173.381C450.263 173.388 445.944 173.941 442.688 173.941V173.938Z" fill="black"/>
    <path d="M443.379 171.98C439.675 171.98 436.591 171.538 436.54 171.531C436.438 171.516 436.364 171.42 436.38 171.318C436.396 171.216 436.491 171.145 436.593 171.158C436.671 171.169 444.547 172.297 450.208 170.923C450.308 170.898 450.41 170.96 450.437 171.06C450.461 171.162 450.399 171.262 450.297 171.289C448.127 171.815 445.638 171.98 443.377 171.98H443.379Z" fill="black"/>
    <path d="M493.072 141.979C493.008 141.979 492.946 141.946 492.91 141.888C492.857 141.799 492.886 141.684 492.974 141.631C494.125 140.94 494.724 140.032 494.866 139.796L491.391 124.179C491.369 124.077 491.433 123.977 491.533 123.954C491.635 123.932 491.735 123.997 491.758 124.097L495.264 139.854L495.231 139.916C495.206 139.965 494.587 141.102 493.168 141.955C493.137 141.973 493.103 141.981 493.07 141.981L493.072 141.979Z" fill="black"/>
    <path d="M518.844 156.54C518.826 156.54 518.811 156.538 518.793 156.533C518.693 156.504 518.635 156.402 518.662 156.302C519.588 152.965 519.599 148.086 519.592 147.206L495.257 140.081C495.246 140.445 495.172 141.164 494.822 142.152C494.786 142.25 494.679 142.301 494.582 142.268C494.484 142.232 494.433 142.126 494.466 142.028C494.946 140.678 494.877 139.854 494.877 139.847L494.853 139.572L495.119 139.65L519.966 146.924V147.062C519.97 147.118 520.057 152.687 519.026 156.404C519.004 156.489 518.926 156.542 518.844 156.542V156.54Z" fill="black"/>
    <path d="M515.065 161.296C515.052 161.296 515.036 161.296 515.023 161.292C514.921 161.267 514.859 161.168 514.883 161.065C514.905 160.965 517.199 151.037 517.017 146.316C517.013 146.212 517.095 146.125 517.199 146.121C517.304 146.116 517.39 146.198 517.395 146.303C517.579 151.073 515.274 161.052 515.252 161.152C515.232 161.239 515.154 161.299 515.068 161.299L515.065 161.296Z" fill="black"/>
    <path d="M445.899 110.458C444.504 110.458 443.538 109.789 443.487 109.751C443.403 109.691 443.383 109.574 443.443 109.489C443.503 109.405 443.62 109.385 443.705 109.445C443.72 109.456 445.206 110.478 447.082 109.902C449.081 109.29 450.782 107.169 452.139 103.603C452.176 103.505 452.285 103.456 452.381 103.494C452.478 103.531 452.527 103.64 452.49 103.736C451.091 107.422 449.305 109.618 447.185 110.264C446.729 110.404 446.296 110.458 445.897 110.458H445.899Z" fill="black"/>
    <path d="M443.802 65.6146C443.773 65.6146 443.744 65.6079 443.715 65.5946C443.622 65.548 443.586 65.4325 443.633 65.3414L444.619 63.4206C444.665 63.3273 444.781 63.2918 444.872 63.3384C444.965 63.3851 445.001 63.5005 444.954 63.5916L443.968 65.5124C443.935 65.5768 443.868 65.6146 443.799 65.6146H443.802Z" fill="black"/>
    <path d="M442.835 66.1341C442.809 66.1341 442.782 66.1297 442.757 66.1164C442.662 66.072 442.622 65.9609 442.664 65.8654L443.601 63.8269C443.646 63.7314 443.757 63.6915 443.85 63.7337C443.946 63.7781 443.985 63.8891 443.943 63.9846L443.006 66.0231C442.975 66.0919 442.906 66.1319 442.835 66.1319V66.1341Z" fill="black"/>
    <path d="M484.007 101.054C484.007 101.054 483.99 101.054 483.983 101.054C483.881 101.04 483.808 100.945 483.821 100.843L484.107 98.7019C484.121 98.5997 484.216 98.5264 484.318 98.5398C484.42 98.5531 484.494 98.6486 484.48 98.7507L484.194 100.891C484.181 100.987 484.101 101.056 484.007 101.056V101.054Z" fill="black"/>
    <path d="M483.27 101.866C483.27 101.866 483.258 101.866 483.252 101.866C483.147 101.857 483.072 101.766 483.081 101.662L483.283 99.4279C483.292 99.3236 483.385 99.2481 483.487 99.2569C483.592 99.2658 483.667 99.3569 483.658 99.4612L483.456 101.695C483.447 101.793 483.365 101.866 483.27 101.866Z" fill="black"/>
    <path d="M441.376 48.4069L443.839 55.4507C443.839 55.4507 444.574 57.8667 446.732 57.4448L447.243 59.7654C447.716 61.9194 449.954 63.194 452.044 62.4878C452.066 62.4789 452.091 62.4723 452.115 62.4634C454.465 61.6418 455.113 59.4123 454.995 58.4508C454.88 57.4892 452.799 53.4299 452.799 53.4299L452.137 51.3093L449.028 43.2817L441.374 48.4091L441.376 48.4069Z" fill="#FE9F73"/>
    <path d="M448.279 49.9436C448.304 49.9347 448.326 49.917 448.337 49.8926C448.364 49.8415 448.341 49.7771 448.29 49.7504C448.273 49.7416 446.438 48.8156 445.559 50.2501C445.528 50.2989 445.543 50.3633 445.592 50.3944C445.641 50.4255 445.706 50.41 445.734 50.3611C446.514 49.0909 448.128 49.9014 448.195 49.937C448.222 49.9503 448.25 49.9525 448.277 49.9436H448.279Z" fill="#49263E"/>
    <path d="M444.037 50.7608C444.063 50.7519 444.088 50.7297 444.099 50.7008C444.119 50.6475 444.095 50.5853 444.041 50.5654C443.99 50.5454 442.773 50.0613 442.363 50.7808C442.334 50.8318 442.351 50.894 442.4 50.9251C442.449 50.954 442.514 50.9384 442.542 50.8873C442.864 50.3233 443.955 50.7563 443.966 50.7608C443.99 50.7696 444.015 50.7696 444.039 50.7608H444.037Z" fill="#49263E"/>
    <path d="M446.44 51.0383C446.498 51.2026 446.675 51.2892 446.838 51.2337C447 51.176 447.084 50.9983 447.026 50.834C446.969 50.6697 446.791 50.5831 446.629 50.6386C446.467 50.6963 446.382 50.874 446.44 51.0383Z" fill="black"/>
    <path d="M443.215 51.831C443.273 51.9954 443.451 52.082 443.613 52.0265C443.775 51.9687 443.859 51.7911 443.802 51.6267C443.744 51.4624 443.566 51.3758 443.404 51.4313C443.242 51.4891 443.158 51.6667 443.215 51.831Z" fill="black"/>
    <path d="M446.106 53.4078C446.126 53.4011 446.141 53.3811 446.141 53.3567C446.141 53.3278 446.117 53.3034 446.088 53.3056L444.991 53.319L444.482 50.8696C444.476 50.8407 444.449 50.823 444.42 50.8296C444.391 50.8341 444.374 50.863 444.38 50.8918L444.907 53.4255L446.088 53.41C446.088 53.41 446.099 53.41 446.104 53.4078H446.106Z" fill="#F07162"/>
    <path d="M447.277 54.025C447.241 54.0317 445.189 54.7556 445.189 54.7556C445.189 54.7556 445.769 55.5128 446.533 55.2441C447.297 54.9777 447.279 54.025 447.279 54.025H447.277Z" fill="#FBFDFC"/>
    <path d="M448.893 43.766L448.078 46.6905C448.078 46.6905 442.433 49.4152 439.078 47.9918C435.722 46.5684 436.93 44.0169 438.398 43.6771C439.866 43.3374 441.267 43.7171 441.831 42.4669C442.395 41.2167 443.508 40.7015 445.155 41.0168C446.803 41.3322 448.902 42.1405 448.911 42.7467C448.919 43.3529 448.893 43.766 448.893 43.766Z" fill="#49263E"/>
    <path d="M448.446 42.8087C448.446 42.8087 450.667 41.9072 452.07 43.8924C453.472 45.8754 453.027 47.3277 453.236 47.9917C453.445 48.6556 455.435 52.9325 452.248 53.6764L448.859 46.6482L448.908 43.3617L448.446 42.811V42.8087Z" fill="#49263E"/>
    <path d="M448.829 50.0856C449.174 51.0715 450.244 51.5956 451.216 51.2558C452.189 50.9161 452.698 49.8391 452.353 48.8531C452.009 47.8672 450.941 47.3431 449.966 47.6829C448.994 48.0226 448.485 49.0996 448.829 50.0856Z" fill="#FE9F73"/>
    <path d="M451.105 50.5186C451.471 50.3898 451.618 50.0256 451.6 49.7192C451.58 49.3572 451.358 49.0752 451.036 48.9997C450.561 48.8909 450.261 49.1729 450.123 49.3572C450.128 49.1285 450.197 48.9398 450.325 48.7932C450.605 48.4779 451.085 48.469 451.089 48.469C451.118 48.469 451.14 48.4446 451.14 48.4157C451.14 48.3868 451.116 48.3646 451.087 48.3646C451.065 48.3646 450.558 48.3735 450.248 48.7221C450.068 48.9242 449.994 49.1951 450.025 49.5304L450.043 49.7192L450.123 49.5504C450.134 49.526 450.41 48.9664 451.014 49.1041C451.349 49.1796 451.482 49.486 451.496 49.7259C451.509 49.9746 451.405 50.3032 451.069 50.4209C451.067 50.4209 451.063 50.4209 451.06 50.4254C451.034 50.4342 451.02 50.4631 451.029 50.492C451.038 50.5186 451.067 50.5342 451.096 50.5253C451.1 50.5253 451.103 50.5231 451.107 50.5208L451.105 50.5186Z" fill="#F07162"/>
    <path d="M450.791 53.7542C450.791 53.7542 451.866 56.9607 447.09 59.0592L446.734 57.4426C446.734 57.4426 450.145 56.9763 450.791 53.7542Z" fill="#F07162"/>
    <path d="M454.027 63.918C453.958 63.918 453.889 63.878 453.858 63.8114C453.812 63.7181 453.852 63.6049 453.945 63.5582C457.294 61.9217 455.695 57.0319 455.677 56.983C455.644 56.8853 455.697 56.7765 455.795 56.7454C455.893 56.7121 456.001 56.7654 456.035 56.8631C456.052 56.9164 457.758 62.1148 454.109 63.898C454.083 63.9113 454.054 63.918 454.027 63.918Z" fill="black"/>
    <path d="M493.36 79.9154C493.256 79.9154 493.154 79.8643 493.094 79.7688C493.001 79.6222 493.045 79.429 493.191 79.3358L497.404 76.6844C497.551 76.5911 497.744 76.6355 497.837 76.7821C497.93 76.9286 497.886 77.1218 497.739 77.2151L493.527 79.8665C493.476 79.8998 493.418 79.9154 493.36 79.9154Z" fill="#F07162"/>
    <path d="M273.243 163.821C273.243 163.821 265.697 170.143 264.48 170.792C261.729 172.26 235.423 179.181 235.423 179.181L233.587 171.225L253.937 163.422L266.123 155.347L273.245 163.821H273.243Z" fill="#FE9F73"/>
    <path d="M226.402 181.564C226.198 181.2 226.329 180.738 226.678 180.509L228.849 179.088C228.918 179.043 228.949 178.961 228.929 178.881C228.9 178.766 228.772 178.706 228.663 178.757L225.205 180.411C224.81 180.6 224.397 180.407 224.288 179.983C224.179 179.556 224.415 179.055 224.81 178.864L228.336 177.176C228.419 177.136 228.461 177.045 228.439 176.958L228.423 176.896C228.396 176.794 228.294 176.734 228.192 176.758L223.991 177.831C223.587 177.935 223.156 177.72 223.027 177.322C222.885 176.887 223.142 176.43 223.578 176.319L227.806 175.239C227.908 175.213 227.97 175.111 227.943 175.009L227.892 174.811C227.868 174.718 227.779 174.658 227.686 174.669L223.662 175.153C223.247 175.202 222.849 174.933 222.772 174.524C222.687 174.076 223 173.656 223.447 173.601C223.447 173.601 229.544 172.533 230.484 172.288L228.785 170.789C228.412 170.57 228.29 170.088 228.512 169.717C228.732 169.344 229.214 169.222 229.584 169.444L234.192 171.496C234.434 171.64 234.576 172.186 234.585 172.652C236.069 177.032 236.26 177.718 236.551 178.935L231.725 179.996C230.333 180.302 229.007 180.86 227.815 181.639L227.515 181.835C227.137 182.081 226.629 181.961 226.402 181.564Z" fill="#FE9F73"/>
    <path d="M325.535 156.471C325.535 156.471 336.816 160.697 339.931 160.637C343.047 160.575 363.008 143.209 363.008 143.209L357.783 136.934L339.261 148.419L327.891 144.846L325.535 156.471Z" fill="#FE9F73"/>
    <path d="M370.358 137.467C370.193 137.083 369.745 136.91 369.352 137.05L366.907 137.92C366.831 137.947 366.745 137.922 366.694 137.86C366.618 137.767 366.649 137.627 366.756 137.574L370.167 135.822C370.558 135.622 370.653 135.175 370.38 134.831C370.107 134.487 369.563 134.369 369.174 134.571L365.697 136.359C365.617 136.401 365.517 136.379 365.461 136.308L365.421 136.257C365.357 136.175 365.37 136.055 365.452 135.99L368.848 133.295C369.174 133.035 369.263 132.562 369.025 132.22C368.766 131.844 368.246 131.771 367.893 132.051L364.475 134.765C364.393 134.829 364.273 134.816 364.209 134.733L364.082 134.574C364.022 134.498 364.029 134.391 364.096 134.323L366.916 131.411C367.207 131.112 367.233 130.632 366.954 130.321C366.647 129.984 366.123 129.979 365.81 130.301C365.81 130.301 361.271 134.511 360.507 135.111L360.341 132.853C360.389 132.422 360.081 132.035 359.652 131.984C359.221 131.936 358.835 132.244 358.784 132.673L357.629 137.583C357.596 137.862 357.947 138.306 358.313 138.595C360.902 142.423 361.333 142.992 362.128 143.96L365.892 140.76C366.978 139.836 368.224 139.119 369.567 138.64L369.905 138.52C370.329 138.369 370.542 137.891 370.362 137.471L370.358 137.467Z" fill="#FE9F73"/>
    <path d="M338.482 153.662C338.464 153.662 338.446 153.662 338.431 153.658C338.26 153.629 338.145 153.467 338.173 153.296L338.995 148.388C339.024 148.217 339.186 148.102 339.357 148.13C339.528 148.159 339.643 148.321 339.615 148.492L338.793 153.4C338.766 153.553 338.633 153.662 338.484 153.662H338.482Z" fill="#F07162"/>
    <path d="M262.983 267.324L273.998 267.53L277.588 258.046L266.194 255.865L262.983 267.324Z" fill="#FE9F73"/>
    <path d="M271.424 270.966H257.23C257.101 270.946 256.994 270.926 256.919 270.901C255.571 270.479 255.986 269.604 255.986 269.604L262.672 265.252L262.786 264.617C262.968 263.598 264.18 263.236 265.113 263.924L267.538 265.716C267.538 265.716 273.975 265.741 274.921 265.097L274.439 269.478C274.439 269.478 274.937 270.943 271.426 270.966H271.424Z" fill="#49263E"/>
    <path d="M346.86 252.699L335.482 252.448L334.107 242.275L345.297 241.332L346.86 252.699Z" fill="#FE9F73"/>
    <path d="M338.096 255.917L352.756 256.501C352.889 256.487 352.998 256.47 353.078 256.45C354.475 256.092 354.057 255.219 354.057 255.219L347.205 250.687L347.096 250.061C346.92 249.055 345.672 248.651 344.702 249.288L342.175 250.943C342.175 250.943 335.917 251.611 335.127 249.846L335 254.342C335 254.342 334.467 255.757 338.093 255.923L338.096 255.917Z" fill="#49263E"/>
    <path d="M280.544 187.75C280.544 187.75 269.347 226.898 264.478 256.474C264.478 256.474 270.442 259.516 278.474 259.03L300.423 201.463C300.423 201.463 319.733 207.792 326.386 208.44L332.553 244.141C332.553 244.141 344.4 244.627 346.671 243.168C346.671 243.168 343.589 200.652 342.29 197.57C340.991 194.488 315.947 182.723 315.947 182.723L280.544 187.753V187.75Z" fill="#7FC6A6"/>
    <path d="M322.642 188.024C319.176 188.024 315.065 184.912 314.843 184.742C314.761 184.679 314.745 184.559 314.808 184.477C314.87 184.395 314.99 184.38 315.072 184.442C315.138 184.493 321.8 189.536 325.082 186.849C325.162 186.782 325.282 186.796 325.347 186.876C325.413 186.955 325.4 187.075 325.32 187.14C324.547 187.773 323.619 188.021 322.642 188.021V188.024Z" fill="black"/>
    <path d="M279.882 196.642C278.763 196.642 278.005 196.342 277.954 196.32C277.859 196.28 277.812 196.171 277.852 196.073C277.892 195.978 278.001 195.931 278.099 195.971C278.128 195.982 280.131 196.768 282.411 195.694C284.678 194.628 286.437 192.161 287.638 188.361C287.67 188.261 287.776 188.206 287.876 188.239C287.976 188.27 288.029 188.377 287.998 188.477C286.761 192.385 284.934 194.93 282.562 196.04C281.574 196.504 280.644 196.644 279.882 196.644V196.642Z" fill="black"/>
    <path d="M296.041 138.337C296.041 138.337 286.468 139.148 283.06 139.961C279.651 140.773 261.964 154.566 261.964 154.566C261.964 154.566 264.966 164.951 271.701 167.141L281.032 158.134L280.546 187.748C280.546 187.748 302.372 193.346 318.194 183.773L316.329 153.509L326.066 158.134C326.066 158.134 331.258 149.696 330.61 144.26C330.61 144.26 316.655 138.5 312.76 138.337C308.865 138.175 296.046 138.337 296.046 138.337H296.041Z" fill="#61A3C5"/>
    <path d="M295.985 189.525C287.985 189.525 280.594 187.955 280.503 187.935L280.352 187.902V187.746L280.834 158.585L271.75 167.354L271.641 167.319C268.103 166.168 265.61 162.769 264.142 160.122C262.559 157.266 261.79 154.641 261.784 154.617L261.748 154.495L261.848 154.417C262.572 153.853 279.606 140.589 283.015 139.779H283.028L287.796 139.008C287.898 138.993 287.996 139.061 288.011 139.163C288.027 139.266 287.958 139.363 287.856 139.379L283.095 140.145C279.884 140.922 263.631 153.506 262.181 154.635C262.543 155.794 265.55 164.849 271.65 166.926L281.225 157.683L280.734 187.597C282.098 187.875 292.366 189.869 301.424 188.867C301.528 188.856 301.619 188.93 301.632 189.034C301.644 189.138 301.57 189.232 301.466 189.243C299.661 189.443 297.806 189.525 295.985 189.525Z" fill="black"/>
    <path d="M281.032 158.325C280.981 158.325 280.93 158.305 280.892 158.263C280.821 158.185 280.828 158.068 280.903 157.997L282.66 156.391C282.738 156.32 282.855 156.327 282.926 156.402C282.998 156.48 282.991 156.598 282.915 156.669L281.159 158.274C281.123 158.307 281.077 158.323 281.032 158.323V158.325Z" fill="black"/>
    <path d="M297.861 145.244C293.453 145.244 293.089 139.577 293.086 139.519C293.08 139.414 293.16 139.326 293.264 139.321C293.368 139.315 293.457 139.394 293.462 139.499C293.462 139.512 293.546 140.909 294.159 142.264C294.963 144.042 296.26 144.919 298.007 144.866C298.114 144.864 298.198 144.944 298.2 145.048C298.203 145.153 298.123 145.239 298.018 145.241C297.965 145.241 297.912 145.244 297.858 145.244H297.861Z" fill="black"/>
    <path d="M317.102 166.293C317.004 166.293 316.92 166.215 316.913 166.115C316.404 157.89 315.454 145.686 315.445 145.563C315.436 145.459 315.514 145.368 315.618 145.361C315.725 145.353 315.814 145.43 315.82 145.535C315.829 145.657 316.782 157.863 317.288 166.091C317.295 166.195 317.215 166.284 317.113 166.291C317.108 166.291 317.104 166.291 317.102 166.291V166.293Z" fill="black"/>
    <path d="M326.14 158.381L316.245 153.682C316.151 153.638 316.111 153.524 316.156 153.431C316.2 153.338 316.314 153.298 316.407 153.342L325.984 157.892C326.406 157.135 328.285 153.706 329.329 150.833C329.364 150.735 329.473 150.684 329.571 150.72C329.668 150.755 329.719 150.864 329.684 150.962C328.498 154.228 326.251 158.192 326.226 158.232L326.14 158.385V158.381Z" fill="black"/>
    <path d="M318.123 153.538C318.057 153.538 317.99 153.502 317.957 153.438L316.937 151.535C316.889 151.444 316.922 151.328 317.015 151.279C317.106 151.23 317.222 151.264 317.271 151.357L318.29 153.26C318.339 153.351 318.305 153.467 318.212 153.515C318.183 153.531 318.152 153.538 318.123 153.538Z" fill="black"/>
    <path d="M319.098 154.039C319.027 154.039 318.96 153.999 318.927 153.933L317.954 151.912C317.91 151.819 317.947 151.706 318.043 151.661C318.136 151.617 318.249 151.654 318.294 151.75L319.266 153.771C319.311 153.864 319.273 153.977 319.178 154.022C319.151 154.035 319.124 154.039 319.095 154.039H319.098Z" fill="black"/>
    <path d="M284.998 184.782C284.933 184.782 284.869 184.748 284.833 184.686L283.761 182.812C283.71 182.721 283.741 182.605 283.83 182.554C283.921 182.503 284.036 182.534 284.087 182.623L285.16 184.497C285.211 184.588 285.18 184.704 285.091 184.755C285.062 184.773 285.029 184.779 284.998 184.779V184.782Z" fill="black"/>
    <path d="M284.907 185.876C284.844 185.876 284.782 185.845 284.747 185.787L283.548 183.891C283.492 183.802 283.519 183.687 283.605 183.631C283.694 183.576 283.81 183.602 283.865 183.689L285.064 185.585C285.12 185.674 285.093 185.79 285.007 185.845C284.975 185.865 284.94 185.874 284.907 185.874V185.876Z" fill="black"/>
    <path d="M296.313 212.43C296.29 212.43 296.266 212.426 296.244 212.417C296.146 212.379 296.099 212.268 296.137 212.173L301.98 197.428V191.743C301.98 191.639 302.064 191.554 302.168 191.554C302.273 191.554 302.357 191.639 302.357 191.743V197.499L296.488 212.313C296.459 212.386 296.388 212.433 296.313 212.433V212.43Z" fill="black"/>
    <path d="M267.189 257.742C267.173 257.742 267.158 257.742 267.14 257.735C267.04 257.709 266.98 257.607 267.004 257.504L271.432 240.619C271.459 240.519 271.561 240.459 271.663 240.483C271.763 240.51 271.823 240.612 271.799 240.714L267.371 257.6C267.349 257.684 267.273 257.74 267.189 257.74V257.742Z" fill="black"/>
    <path d="M335.358 244.378C335.267 244.378 335.187 244.312 335.171 244.219L332.398 225.97C332.382 225.867 332.453 225.77 332.555 225.754C332.657 225.739 332.755 225.81 332.771 225.912L335.544 244.161C335.56 244.263 335.489 244.361 335.387 244.376C335.378 244.376 335.367 244.376 335.358 244.376V244.378Z" fill="black"/>
    <path d="M293.188 125.425V133.03C293.188 133.03 293.082 135.602 295.331 135.924L294.911 139.355C294.756 140.629 295.518 141.851 296.744 142.239C297.343 142.428 298.058 142.568 298.869 142.568C301.44 142.568 302.832 140.64 303.046 139.674C303.259 138.711 302.617 134.103 302.617 134.103L302.695 131.84L302.402 123.069L293.188 125.425Z" fill="#FE9F73"/>
    <path d="M299.398 129.226C299.424 129.226 299.451 129.218 299.471 129.198C299.513 129.158 299.516 129.089 299.473 129.047C299.458 129.031 297.986 127.523 296.638 128.609C296.591 128.647 296.584 128.713 296.622 128.76C296.66 128.807 296.726 128.813 296.773 128.776C297.966 127.814 299.265 129.138 299.318 129.195C299.338 129.218 299.367 129.229 299.396 129.229L299.398 129.226Z" fill="#49263E"/>
    <path d="M294.981 128.585C295.009 128.585 295.041 128.571 295.061 128.547C295.098 128.502 295.094 128.434 295.049 128.396C295.007 128.358 293.984 127.485 293.337 128.038C293.293 128.076 293.286 128.145 293.326 128.189C293.364 128.234 293.433 128.24 293.477 128.2C293.984 127.767 294.898 128.549 294.91 128.558C294.93 128.576 294.954 128.585 294.981 128.585Z" fill="#49263E"/>
    <path d="M297.23 129.659C297.23 129.837 297.375 129.981 297.552 129.981C297.73 129.981 297.874 129.837 297.874 129.659C297.874 129.482 297.73 129.337 297.552 129.337C297.375 129.337 297.23 129.482 297.23 129.659Z" fill="black"/>
    <path d="M293.814 129.339C293.814 129.517 293.959 129.661 294.136 129.661C294.314 129.661 294.458 129.517 294.458 129.339C294.458 129.162 294.314 129.017 294.136 129.017C293.959 129.017 293.814 129.162 293.814 129.339Z" fill="black"/>
    <path d="M302.102 123.49L300.308 126.031C300.308 126.031 294.874 128.14 292.089 125.642C289.305 123.142 290.162 121.943 290.977 120.69C291.379 120.073 293.302 118.818 295.658 119.864C296.944 120.435 297.896 118.732 299.395 119.589C300.894 120.446 302.664 121.929 302.466 122.518C302.269 123.104 302.102 123.493 302.102 123.493V123.49Z" fill="#49263E"/>
    <path d="M301.993 122.418C301.993 122.418 304.467 122.298 305.158 124.679C305.848 127.059 304.92 128.307 304.896 129.015C304.871 129.726 305.353 134.509 301.993 134.154L301.085 126.251L302.255 123.104L301.993 122.418Z" fill="#49263E"/>
    <path d="M299.884 129.548C299.884 130.614 300.748 131.476 301.811 131.476C302.875 131.476 303.739 130.612 303.739 129.548C303.739 128.485 302.875 127.621 301.811 127.621C300.748 127.621 299.884 128.485 299.884 129.548Z" fill="#FE9F73"/>
    <path d="M301.956 130.73C302.356 130.73 302.624 130.428 302.713 130.128C302.818 129.773 302.698 129.426 302.409 129.246C301.983 128.982 301.594 129.151 301.396 129.282C301.479 129.062 301.61 128.904 301.785 128.807C302.165 128.598 302.636 128.749 302.64 128.751C302.669 128.76 302.698 128.744 302.709 128.718C302.718 128.689 302.702 128.66 302.675 128.651C302.655 128.645 302.156 128.482 301.734 128.713C301.49 128.847 301.325 129.084 301.241 129.415L301.194 129.602L301.33 129.466C301.35 129.446 301.807 129.002 302.349 129.337C302.649 129.524 302.675 129.864 302.607 130.097C302.536 130.339 302.322 130.621 301.954 130.621C301.949 130.621 301.947 130.621 301.943 130.621C301.914 130.621 301.889 130.645 301.889 130.674C301.889 130.703 301.912 130.727 301.943 130.727C301.947 130.727 301.949 130.727 301.954 130.727L301.956 130.73Z" fill="#F07162"/>
    <path d="M300.547 133.739C300.547 133.739 300.396 138.042 295.022 138.453L295.333 135.924C295.333 135.924 298.82 136.623 300.55 133.739H300.547Z" fill="#F07162"/>
    <path d="M292.816 131.82C292.816 131.82 292.116 136.972 295.536 137.154C300.43 137.416 300.903 134.622 301.194 132.337L301.243 127.621L301.085 126.253C300.739 126.644 300.528 127.135 300.481 127.654C300.379 128.784 300.128 131.833 299.846 131.967C299.447 132.158 293.575 131.323 292.814 131.82H292.816Z" fill="#49263E"/>
    <path d="M296.098 131.829C296.12 131.829 296.142 131.816 296.149 131.791C296.158 131.762 296.142 131.734 296.115 131.725L295.041 131.369L295.38 128.842C295.385 128.813 295.365 128.787 295.334 128.782C295.305 128.778 295.278 128.8 295.274 128.829L294.923 131.445L296.082 131.827C296.082 131.827 296.093 131.829 296.1 131.829H296.098Z" fill="#F07162"/>
    <path d="M296.928 132.87C296.895 132.864 294.808 132.815 294.808 132.815C294.808 132.815 295.07 133.679 295.847 133.699C296.624 133.719 296.931 132.87 296.931 132.87H296.928Z" fill="#FBFDFC"/>
    <path d="M172.904 339.689H34.6484V372.792H172.904V339.689Z" fill="#FEC786"/>
    <path d="M172.906 339.689H149.294V372.792H172.906V339.689Z" fill="#F99247"/>
    <path d="M347.188 270.318H208.931V372.792H347.188V270.318Z" fill="#FEC786"/>
    <path d="M529.907 186.585H391.649V372.792H529.907V186.585Z" fill="#FEC786"/>
    <path d="M347.189 270.318H323.577V372.792H347.189V270.318Z" fill="#F99247"/>
    <path d="M529.908 186.585H506.296V372.792H529.908V186.585Z" fill="#F99247"/>
    <path d="M34.6487 372.981C34.5443 372.981 34.46 372.897 34.46 372.792V339.501H162.585C162.689 339.501 162.774 339.585 162.774 339.689C162.774 339.794 162.689 339.878 162.585 339.878H34.8375V372.794C34.8375 372.899 34.7531 372.983 34.6487 372.983V372.981Z" fill="black"/>
    <path d="M149.293 362.266C149.189 362.266 149.104 362.182 149.104 362.078V339.689C149.104 339.585 149.189 339.501 149.293 339.501C149.398 339.501 149.482 339.585 149.482 339.689V362.078C149.482 362.182 149.398 362.266 149.293 362.266Z" fill="black"/>
    <path d="M46.4156 352.966C46.3512 352.966 46.2868 352.933 46.2512 352.871L42.8537 346.942C42.8026 346.851 42.8337 346.735 42.9225 346.684C43.0136 346.633 43.1291 346.664 43.1801 346.753L46.5777 352.682C46.6287 352.773 46.5977 352.886 46.5088 352.94C46.48 352.958 46.4467 352.964 46.4156 352.964V352.966Z" fill="black"/>
    <path d="M46.1265 356.428C46.0644 356.428 46.0022 356.397 45.9667 356.34L42.1716 350.335C42.1161 350.246 42.1428 350.131 42.2294 350.075C42.3182 350.02 42.4337 350.046 42.4892 350.133L46.2842 356.137C46.3397 356.226 46.3131 356.342 46.2265 356.397C46.1954 356.417 46.1599 356.426 46.1265 356.426V356.428Z" fill="black"/>
    <path d="M160.349 358.358C160.249 358.358 160.167 358.28 160.16 358.18L159.789 351.356C159.783 351.252 159.863 351.163 159.967 351.159C160.067 351.15 160.16 351.232 160.165 351.336L160.536 358.16C160.542 358.265 160.462 358.354 160.358 358.358C160.353 358.358 160.351 358.358 160.347 358.358H160.349Z" fill="black"/>
    <path d="M158.537 361.323C158.441 361.323 158.359 361.25 158.35 361.152L157.657 354.084C157.646 353.979 157.724 353.888 157.826 353.877C157.928 353.866 158.021 353.941 158.033 354.046L158.725 361.114C158.734 361.218 158.659 361.309 158.557 361.321C158.55 361.321 158.543 361.321 158.539 361.321L158.537 361.323Z" fill="black"/>
    <path d="M220.924 285.26C220.86 285.26 220.796 285.227 220.76 285.164L217.362 279.235C217.311 279.144 217.342 279.031 217.431 278.978C217.522 278.927 217.638 278.958 217.689 279.047L221.086 284.976C221.138 285.067 221.106 285.18 221.018 285.233C220.989 285.251 220.955 285.258 220.924 285.258V285.26Z" fill="black"/>
    <path d="M220.638 288.722C220.576 288.722 220.514 288.691 220.478 288.633L216.683 282.628C216.628 282.54 216.654 282.424 216.741 282.369C216.83 282.313 216.945 282.34 217.001 282.426L220.796 288.431C220.851 288.52 220.825 288.635 220.738 288.691C220.707 288.711 220.672 288.72 220.638 288.72V288.722Z" fill="black"/>
    <path d="M334.86 290.652C334.76 290.652 334.678 290.574 334.671 290.474L334.3 283.65C334.294 283.546 334.373 283.457 334.478 283.452C334.582 283.443 334.671 283.526 334.675 283.63L335.046 290.454C335.053 290.558 334.973 290.647 334.869 290.652C334.864 290.652 334.862 290.652 334.858 290.652H334.86Z" fill="black"/>
    <path d="M333.045 293.616C332.95 293.616 332.868 293.543 332.859 293.445L332.166 286.377C332.155 286.273 332.231 286.181 332.335 286.17C332.437 286.159 332.53 286.235 332.541 286.339L333.234 293.407C333.243 293.512 333.168 293.603 333.065 293.614C333.059 293.614 333.052 293.614 333.048 293.614L333.045 293.616Z" fill="black"/>
    <path d="M405.852 200.968C405.788 200.968 405.723 200.934 405.688 200.872L402.29 194.943C402.239 194.852 402.27 194.737 402.359 194.685C402.45 194.634 402.566 194.666 402.617 194.754L406.014 200.683C406.065 200.774 406.034 200.89 405.945 200.941C405.916 200.959 405.883 200.965 405.852 200.965V200.968Z" fill="black"/>
    <path d="M405.564 204.429C405.502 204.429 405.44 204.398 405.404 204.341L401.609 198.336C401.554 198.247 401.58 198.132 401.667 198.076C401.756 198.021 401.871 198.047 401.927 198.134L405.722 204.139C405.777 204.227 405.751 204.343 405.664 204.398C405.633 204.418 405.597 204.427 405.564 204.427V204.429Z" fill="black"/>
    <path d="M548.61 72.7915C548.659 72.8337 548.688 72.9004 548.674 72.9692L547.471 79.6977C547.453 79.7998 547.355 79.8686 547.251 79.8509C547.149 79.8331 547.08 79.7354 547.098 79.6333L548.301 72.9048C548.319 72.8026 548.417 72.7338 548.521 72.7516C548.554 72.7582 548.585 72.7716 548.61 72.7915Z" fill="black"/>
    <path d="M551.053 70.3222C551.102 70.3622 551.128 70.4243 551.119 70.491L550.173 77.5303C550.16 77.6347 550.065 77.7057 549.962 77.6924C549.86 77.6791 549.787 77.5836 549.8 77.4815L550.746 70.4421C550.76 70.34 550.855 70.2667 550.957 70.28C550.995 70.2844 551.026 70.3 551.053 70.3222Z" fill="black"/>
    <path d="M161.791 260.889C161.811 260.951 161.8 261.022 161.753 261.075L157.221 266.19C157.152 266.267 157.032 266.274 156.955 266.205C156.877 266.136 156.87 266.016 156.939 265.939L161.471 260.825C161.54 260.747 161.66 260.74 161.738 260.809C161.762 260.831 161.782 260.86 161.791 260.889Z" fill="black"/>
    <path d="M165.164 260.056C165.184 260.116 165.175 260.183 165.131 260.236L160.654 265.75C160.589 265.83 160.47 265.843 160.39 265.777C160.31 265.71 160.296 265.592 160.363 265.512L164.84 259.999C164.906 259.919 165.024 259.905 165.104 259.972C165.133 259.996 165.153 260.025 165.164 260.058V260.056Z" fill="black"/>
    <path d="M363.868 207.15C363.888 207.212 363.877 207.283 363.831 207.337L359.298 212.451C359.229 212.528 359.11 212.535 359.032 212.466C358.954 212.397 358.947 212.277 359.016 212.2L363.549 207.086C363.617 207.008 363.737 207.001 363.815 207.07C363.842 207.092 363.859 207.121 363.868 207.15Z" fill="black"/>
    <path d="M367.241 206.317C367.261 206.377 367.25 206.444 367.208 206.497L362.731 212.011C362.664 212.091 362.547 212.104 362.467 212.037C362.387 211.971 362.373 211.853 362.44 211.773L366.917 206.259C366.981 206.179 367.101 206.166 367.181 206.233C367.21 206.257 367.23 206.286 367.241 206.319V206.317Z" fill="black"/>
    <path d="M519.787 206.362C519.687 206.362 519.604 206.284 519.598 206.184L519.227 199.36C519.22 199.256 519.3 199.167 519.405 199.162C519.507 199.156 519.598 199.236 519.602 199.34L519.973 206.164C519.98 206.268 519.9 206.357 519.795 206.362C519.791 206.362 519.789 206.362 519.784 206.362H519.787Z" fill="black"/>
    <path d="M517.974 209.324C517.878 209.324 517.796 209.251 517.787 209.153L517.094 202.085C517.086 201.98 517.161 201.889 517.263 201.878C517.365 201.867 517.459 201.945 517.47 202.047L518.163 209.115C518.174 209.22 518.096 209.311 517.994 209.322C517.987 209.322 517.98 209.322 517.976 209.322L517.974 209.324Z" fill="black"/>
    <path d="M208.931 340.364C208.827 340.364 208.742 340.28 208.742 340.176V270.129H335.382C335.486 270.129 335.57 270.213 335.57 270.317C335.57 270.422 335.486 270.506 335.382 270.506H209.12V340.176C209.12 340.28 209.035 340.364 208.931 340.364Z" fill="black"/>
    <path d="M323.576 321.742C323.472 321.742 323.388 321.658 323.388 321.554V270.315C323.388 270.211 323.472 270.126 323.576 270.126C323.681 270.126 323.765 270.211 323.765 270.315V321.554C323.765 321.658 323.681 321.742 323.576 321.742Z" fill="black"/>
    <path d="M391.65 288.722C391.545 288.722 391.461 288.637 391.461 288.533V186.396L519.784 186.713C519.888 186.713 519.972 186.798 519.972 186.902C519.972 187.007 519.888 187.091 519.784 187.091L391.838 186.776V288.535C391.838 288.64 391.754 288.724 391.65 288.724V288.722Z" fill="black"/>
    <path d="M506.295 263.758C506.191 263.758 506.106 263.673 506.106 263.569V186.583C506.106 186.478 506.191 186.394 506.295 186.394C506.4 186.394 506.484 186.478 506.484 186.583V263.569C506.484 263.673 506.4 263.758 506.295 263.758Z" fill="black"/>
    <path d="M163.22 373.292C164.843 371.668 177.501 348.951 186.263 360.634C186.263 360.634 200.584 327.694 218.717 334.142C218.717 334.142 230.28 340.835 221.882 357.51C221.882 357.51 249.875 355.724 249.508 373.292H163.22Z" fill="#258D8C"/>
    <path d="M414.741 373.602C415.552 372.954 428.86 346.991 437.622 359.16C437.622 359.16 450.766 314.534 468.78 316.644C486.791 318.753 471.538 351.856 471.538 351.856C471.538 351.856 486.953 345.527 483.385 362.242C483.385 362.242 503.02 358.671 501.558 372.79L414.741 373.6V373.602Z" fill="#7FC6A6"/>
    <path d="M488.503 330.783C486.101 333.68 485.412 337.074 486.965 338.359C488.517 339.645 491.723 338.339 494.126 335.441C496.529 332.543 497.217 329.15 495.665 327.865C494.113 326.579 490.906 327.885 488.503 330.783Z" fill="#7FC6A6"/>
    <path d="M492.17 342.185C490.749 343.902 490.341 345.909 491.26 346.671C492.179 347.433 494.076 346.66 495.499 344.943C496.92 343.227 497.329 341.219 496.409 340.458C495.49 339.696 493.591 340.469 492.17 342.185Z" fill="#7FC6A6"/>
    <path d="M551.068 371.982H12.7266V373.605H551.068V371.982Z" fill="#49263E"/>
    <path d="M210.048 256.052C209.988 256.052 209.93 256.023 209.892 255.972C209.832 255.888 209.854 255.77 209.939 255.71C209.963 255.695 212.355 254.04 215.719 252.61C218.832 251.287 223.445 249.888 227.73 250.736C227.833 250.756 227.899 250.856 227.879 250.958C227.859 251.06 227.759 251.127 227.657 251.107C219.627 249.517 210.248 255.957 210.154 256.021C210.121 256.043 210.083 256.054 210.048 256.054V256.052Z" fill="black"/>
    <path d="M215.282 256.052C215.222 256.052 215.162 256.023 215.126 255.97C215.067 255.883 215.089 255.768 215.175 255.708C215.218 255.679 219.574 252.739 227.218 253.074C227.322 253.079 227.402 253.168 227.398 253.27C227.393 253.374 227.307 253.454 227.2 253.45C219.694 253.123 215.431 255.99 215.389 256.019C215.355 256.041 215.32 256.052 215.282 256.052Z" fill="black"/>
    <path d="M349.21 241.749C349.15 241.749 349.092 241.72 349.054 241.669C348.994 241.585 349.017 241.467 349.101 241.407C349.168 241.361 355.798 236.808 361.514 237.939C361.616 237.959 361.683 238.059 361.663 238.161C361.643 238.263 361.543 238.33 361.441 238.31C355.883 237.208 349.381 241.672 349.314 241.718C349.281 241.74 349.243 241.751 349.208 241.751L349.21 241.749Z" fill="black"/>
    <path d="M353.625 242.162C353.565 242.162 353.505 242.133 353.469 242.08C353.412 241.994 353.432 241.878 353.518 241.818C353.64 241.734 356.594 239.744 361.925 239.977C362.03 239.982 362.11 240.071 362.105 240.173C362.101 240.277 362.016 240.357 361.91 240.353C356.711 240.126 353.762 242.109 353.731 242.129C353.698 242.151 353.662 242.162 353.625 242.162Z" fill="black"/>
    <path d="M461.978 323.341C461.931 323.341 461.885 323.324 461.847 323.288C461.772 323.215 461.769 323.097 461.843 323.022C461.974 322.886 465.102 319.686 468.458 319.686C468.562 319.686 468.647 319.771 468.647 319.875C468.647 319.979 468.562 320.064 468.458 320.064C465.262 320.064 462.145 323.252 462.114 323.286C462.076 323.324 462.027 323.344 461.978 323.344V323.341Z" fill="black"/>
    <path d="M464.492 323.084C464.445 323.084 464.396 323.066 464.361 323.03C464.285 322.957 464.285 322.839 464.356 322.764C464.416 322.702 465.866 321.245 468.902 320.781C469.006 320.765 469.102 320.836 469.117 320.939C469.133 321.041 469.062 321.138 468.96 321.154C466.049 321.598 464.643 323.013 464.627 323.028C464.59 323.066 464.541 323.086 464.492 323.086V323.084Z" fill="black"/>
    <path d="M426.54 362.693C426.493 362.693 426.446 362.675 426.409 362.639C426.333 362.566 426.331 362.448 426.404 362.373C426.535 362.238 429.664 359.038 433.019 359.038C433.128 359.04 433.21 359.122 433.21 359.226C433.21 359.331 433.126 359.415 433.022 359.415C429.824 359.415 426.708 362.604 426.677 362.635C426.64 362.673 426.591 362.693 426.542 362.693H426.54Z" fill="black"/>
    <path d="M429.054 362.435C429.008 362.435 428.959 362.417 428.923 362.382C428.85 362.308 428.848 362.191 428.921 362.115C428.981 362.053 430.431 360.596 433.464 360.132C433.569 360.117 433.664 360.188 433.68 360.29C433.695 360.392 433.624 360.49 433.522 360.505C430.622 360.947 429.205 362.364 429.19 362.38C429.152 362.417 429.103 362.435 429.054 362.435Z" fill="black"/>
    <path d="M367.785 330.29C367.738 330.29 367.692 330.272 367.656 330.239C367.581 330.168 367.576 330.048 367.647 329.972C367.789 329.821 371.163 326.27 374.831 326.219H374.833C374.935 326.219 375.02 326.301 375.022 326.406C375.022 326.51 374.94 326.595 374.835 326.597C371.329 326.646 367.956 330.194 367.923 330.23C367.885 330.27 367.836 330.29 367.785 330.29Z" fill="black"/>
    <path d="M370.534 329.968C370.487 329.968 370.441 329.95 370.405 329.916C370.33 329.845 370.327 329.726 370.398 329.65C370.463 329.581 372.024 327.967 375.335 327.412C375.437 327.394 375.535 327.463 375.552 327.567C375.57 327.669 375.501 327.767 375.397 327.785C372.219 328.315 370.687 329.894 370.672 329.91C370.634 329.95 370.585 329.968 370.534 329.968Z" fill="black"/>
    <path d="M187.894 313.464C187.843 313.464 187.794 313.444 187.757 313.404C187.686 313.328 187.69 313.208 187.766 313.137L193.541 307.739C193.617 307.668 193.737 307.672 193.808 307.748C193.879 307.823 193.874 307.943 193.799 308.014L188.023 313.413C187.988 313.446 187.941 313.464 187.894 313.464Z" fill="black"/>
    <path d="M187.262 316.426C187.202 316.426 187.142 316.397 187.105 316.342C187.047 316.255 187.071 316.138 187.158 316.08C188.328 315.3 192.867 311.285 192.914 311.246C192.991 311.177 193.111 311.183 193.18 311.261C193.249 311.339 193.242 311.459 193.165 311.528C192.978 311.694 188.561 315.598 187.369 316.393C187.338 316.415 187.3 316.424 187.264 316.424L187.262 316.426Z" fill="black"/>
    <path d="M87.1544 335C87.0811 335 87.0145 334.957 86.9812 334.889C86.939 334.793 86.9812 334.682 87.0767 334.64L91.2026 332.799C91.2981 332.757 91.4091 332.799 91.4513 332.894C91.4935 332.99 91.4513 333.101 91.3558 333.143L87.2299 334.984C87.2055 334.995 87.1788 335 87.1522 335H87.1544Z" fill="black"/>
    <path d="M86.2626 336.481C86.1782 336.481 86.1027 336.425 86.0805 336.341C86.0539 336.241 86.1138 336.136 86.216 336.11C86.9888 335.908 90.182 334.586 90.2153 334.573C90.3108 334.533 90.4218 334.58 90.4618 334.675C90.5018 334.771 90.4552 334.882 90.3597 334.922C90.2264 334.977 87.1087 336.265 86.3115 336.474C86.2959 336.478 86.2804 336.481 86.2626 336.481Z" fill="black"/>
    <path d="M205.101 340.364C205.045 340.364 204.99 340.34 204.952 340.293C204.887 340.211 204.901 340.094 204.983 340.029C205.169 339.883 209.615 336.416 213.677 335.928C213.781 335.914 213.874 335.99 213.885 336.092C213.899 336.196 213.823 336.29 213.721 336.301C209.764 336.776 205.26 340.289 205.214 340.324C205.178 340.351 205.138 340.364 205.098 340.364H205.101Z" fill="black"/>
    <path d="M205.1 342.55C205.045 342.55 204.992 342.525 204.954 342.481C204.887 342.401 204.9 342.281 204.98 342.216C205.012 342.192 208.056 339.745 211.942 338.612C212.042 338.584 212.146 338.641 212.175 338.741C212.204 338.841 212.146 338.946 212.046 338.974C208.236 340.087 205.245 342.485 205.216 342.51C205.18 342.538 205.138 342.552 205.098 342.552L205.1 342.55Z" fill="black"/>
    <path d="M270.646 15.2687C267.63 20.5715 261.235 25.4924 262.694 31.9833C264.155 38.4741 274.052 45.6134 291.415 36.8509C308.778 28.0883 312.997 10.0769 305.696 4.55869C298.395 -0.959534 280.057 -1.28374 270.646 15.2687Z" fill="#FEEFDC"/>
    <path d="M221.813 31.1816C221.206 27.1979 223.793 23.3962 227.704 22.428C228.348 22.2681 229.056 22.1504 229.836 22.0838C236.651 21.5153 239.653 27.0335 236.975 30.5221C234.297 34.0107 227.158 36.4445 224.075 34.5792C222.534 33.6465 222.006 32.4496 221.813 31.1816Z" fill="#FEEFDC"/>
    <path d="M202.456 113.198C212.26 111.512 245.902 106.092 269.427 106.789C272.478 106.88 273.964 103.061 271.628 101.093C270.262 99.9431 268.068 99.1348 264.557 99.3035C264.557 99.3035 263.207 77.577 246.735 78.0745C227.842 78.6429 230.12 99.8764 230.12 99.8764C230.12 99.8764 220.667 92.8127 215.746 103.765C215.746 103.765 204.43 98.8927 200.422 110.833C199.984 112.134 201.101 113.431 202.456 113.2V113.198Z" fill="white"/>
    <path d="M44.0944 205.1C50.0168 203.781 63.9312 200.892 76.28 199.926C81.3896 199.526 85.0825 194.79 84.1432 189.751C83.759 187.688 82.6221 185.403 80.2549 182.989C71.1415 173.694 59.9252 185.83 60.92 191.141C60.92 191.141 57.0073 183.538 49.344 186.234C41.6784 188.93 46.3817 200.15 46.3817 200.15C46.3817 200.15 43.7458 200.028 42.178 201.523C40.6347 202.993 42.0159 205.564 44.0967 205.1H44.0944Z" fill="white"/>
    <path d="M392.236 27.7775C403.217 25.9344 430.042 21.8262 446.53 22.6568C448.913 22.7767 450.201 19.8699 448.484 18.2155C447.245 17.0208 445.164 16.1193 441.676 16.3036C441.676 16.3036 443.419 0.910278 428.694 0.910278C413.969 0.910278 414.9 16.7921 414.9 16.7921C414.9 16.7921 405.327 9.32863 402.08 20.0387C402.08 20.0387 392.429 16.8898 388.721 22.3259C386.973 24.8863 389.178 28.2949 392.236 27.7797V27.7775Z" fill="white"/>
    <path d="M19.6211 233.735C19.6211 236.826 17.1141 239.333 14.023 239.333C10.9319 239.333 8.4248 236.826 8.4248 233.735C8.4248 230.644 10.9319 228.137 14.023 228.137C17.1141 228.137 19.6211 230.644 19.6211 233.735Z" fill="#FEC787"/>
    <path d="M332.584 81.9627C332.584 85.0538 330.077 87.5608 326.986 87.5608C323.895 87.5608 321.388 85.0538 321.388 81.9627C321.388 78.8716 323.895 76.3645 326.986 76.3645C330.077 76.3645 332.584 78.8716 332.584 81.9627Z" fill="#FEC787"/>
    <path d="M341.32 64.3973C341.692 62.8206 340.716 61.2407 339.139 60.8685C337.562 60.4964 335.983 61.4729 335.61 63.0497C335.238 64.6264 336.215 66.2064 337.792 66.5785C339.368 66.9507 340.948 65.9741 341.32 64.3973Z" fill="#FEC787"/>
    <path d="M576.163 149.869C573.083 147.866 572.208 143.747 574.209 140.667C576.21 137.587 580.331 136.712 583.411 138.713C586.491 140.716 587.366 144.835 585.365 147.915C583.365 150.995 579.243 151.87 576.163 149.869Z" fill="#FEC787"/>
    <path d="M588.614 170.474C587 169.426 586.542 167.265 587.59 165.651C588.638 164.037 590.799 163.579 592.413 164.627C594.028 165.675 594.485 167.836 593.437 169.45C592.389 171.065 590.228 171.522 588.614 170.474Z" fill="#FEC787"/>
    <path d="M35.8473 244.79C36.1832 243.375 35.3082 241.955 33.893 241.62C32.4778 241.284 31.0582 242.159 30.7224 243.574C30.3865 244.989 31.2615 246.409 32.6768 246.745C34.092 247.08 35.5115 246.205 35.8473 244.79Z" fill="#FEC787"/>
    <path d="M2.9623 265.554C2.9623 266.371 2.29834 267.035 1.48115 267.035C0.663963 267.035 0 266.371 0 265.554C0 264.737 0.663963 264.073 1.48115 264.073C2.29834 264.073 2.9623 264.737 2.9623 265.554Z" fill="#FEC787"/>
    <path d="M508.47 56.8609C508.454 56.8609 508.439 56.8609 508.421 56.8564L487.092 52.1421L566.807 31.0351C566.925 31.004 567.047 31.0751 567.078 31.1928C567.109 31.3105 567.038 31.4326 566.921 31.4637L488.973 52.1043L508.516 56.4234C508.636 56.4501 508.712 56.5678 508.685 56.6877C508.663 56.792 508.57 56.8609 508.467 56.8609H508.47Z" fill="black"/>
    <path d="M364.081 195.35C364.019 195.35 363.959 195.325 363.915 195.274C363.832 195.183 363.841 195.041 363.935 194.961L417.194 147.959C417.285 147.879 417.427 147.886 417.507 147.979C417.589 148.07 417.58 148.213 417.487 148.292L364.228 195.294C364.186 195.332 364.132 195.35 364.081 195.35Z" fill="black"/>
    <path d="M368.735 228.159C368.672 228.159 368.61 228.132 368.568 228.084C368.488 227.99 368.497 227.85 368.59 227.77L391.691 207.607C391.782 207.525 391.924 207.536 392.004 207.629C392.084 207.723 392.075 207.863 391.982 207.943L368.881 228.106C368.839 228.144 368.788 228.161 368.735 228.161V228.159Z" fill="black"/>
    <path d="M181.248 232.161C181.195 232.161 181.144 232.143 181.102 232.105C181.011 232.023 181.002 231.883 181.084 231.792L218.201 189.94L218.366 190.073L241.995 209.153C242.091 209.231 242.106 209.371 242.029 209.466C241.951 209.562 241.811 209.577 241.715 209.499L218.25 190.553L181.412 232.087C181.368 232.136 181.308 232.163 181.246 232.163L181.248 232.161Z" fill="black"/>
    <path d="M237.59 242.651C237.543 242.651 237.497 242.635 237.455 242.607L217.647 227.506C217.549 227.433 217.531 227.293 217.605 227.195C217.678 227.098 217.818 227.078 217.915 227.153L237.723 242.253C237.821 242.327 237.839 242.467 237.766 242.564C237.721 242.622 237.657 242.651 237.588 242.651H237.59Z" fill="black"/>
</svg>
