<svg width="554" height="304" viewBox="0 0 554 304" fill="none" xmlns="http://www.w3.org/2000/svg">
    <path d="M383.686 35.5441C383.686 35.5441 380.31 29.4515 387.08 23.4891C393.848 17.5267 395.842 26.4411 398.726 27.027C401.611 27.613 406.597 26.1471 408.943 31.2295C411.289 36.3119 410.566 40.2583 413.597 40.8196C416.627 41.3808 426.987 48.0525 425.326 58.1208C423.665 68.1891 414.025 68.4697 414.025 68.4697C414.025 68.4697 376.5 73.2715 373.124 63.6926C369.747 54.1137 373.029 49.5656 377.528 45.8526C380.294 43.5695 386.052 41.383 383.688 35.5419L383.686 35.5441Z" fill="#E23E3D"/>
    <path d="M452.776 94.4901H452.926C452.926 94.4901 451.139 83.8471 449.4 80.2463C442.618 66.1979 429.052 65.6726 429.052 65.6726C416.779 63.5332 393.525 64.7432 393.525 64.7432C393.525 64.7432 374.479 64.9363 363.558 66.6559C360.33 67.1654 355.818 70.196 354.733 72.0884L354.051 72.2972C354.051 72.2972 353.49 73.2962 353.214 73.808L313.722 145.159H408.716L421.393 146.225C445.074 146.641 452.574 141.228 455.346 139.388C460.878 135.713 455.692 110.112 452.774 94.4923L452.776 94.4901ZM353.33 133.048L367.843 104.525L368.654 104.812L369.498 106.282L368.892 129.84C368.892 129.84 373.983 130.85 378.664 131.517L377.674 138.074L353.33 133.048Z" fill="#FECC86"/>
    <path d="M370.091 65.7983C380.563 64.8667 392.771 64.7432 392.771 64.7432C392.771 64.7432 415.963 63.5354 428.249 65.6636C424.489 69.1993 412.519 78.8971 395.153 77.9049C382.314 77.1708 374.365 70.7505 370.091 65.8005V65.7983Z" fill="#FE9F73"/>
    <path d="M387.848 38.2784C387.848 38.2784 385.812 51.9474 388.108 54.978C388.108 54.978 389.233 56.5898 391.92 56.6392V65.1922H403.991V37.1312L387.848 38.2784Z" fill="#FE9F73"/>
    <path d="M391.79 49.009C391.841 49.009 391.886 48.9731 391.897 48.9214C391.911 48.8631 391.873 48.8047 391.812 48.7912C391.105 48.6386 390.658 47.7676 390.528 47.4825C391.534 46.9459 392.147 46.2478 392.353 45.406C392.688 44.0343 391.819 42.7929 391.781 42.7413C391.745 42.6919 391.677 42.6807 391.628 42.7166C391.579 42.7525 391.567 42.8199 391.603 42.8693C391.612 42.8805 392.452 44.0815 392.14 45.3543C391.945 46.1558 391.338 46.8202 390.34 47.3343L390.252 47.3792L390.288 47.4713C390.308 47.5251 390.809 48.8002 391.769 49.0067C391.776 49.0067 391.785 49.009 391.792 49.009H391.79Z" fill="#F07162"/>
    <path d="M391.921 60.0784V56.637C391.921 56.637 397.737 56.2958 401.304 54.0464C401.304 54.0464 396.462 58.7023 391.921 60.0761V60.0784Z" fill="#F07162"/>
    <path d="M398.53 43.2126C398.584 43.2126 398.64 43.1924 398.683 43.152C398.77 43.0667 398.772 42.9297 398.689 42.8422C398.66 42.813 395.843 39.9306 393.266 42.0071C393.171 42.0834 393.156 42.2226 393.232 42.3169C393.308 42.4112 393.448 42.4269 393.542 42.3506C395.805 40.5277 398.27 43.0397 398.373 43.1475C398.415 43.1924 398.474 43.2148 398.532 43.2148L398.53 43.2126Z" fill="#E23E3D"/>
    <path d="M390.885 42.7322C390.946 42.7322 391.009 42.7075 391.051 42.6559C391.13 42.5639 391.121 42.4247 391.029 42.3461C390.946 42.2743 388.988 40.5996 387.747 41.6659C387.655 41.7445 387.644 41.8837 387.722 41.9757C387.801 42.0678 387.94 42.079 388.032 42.0004C388.986 41.1833 390.721 42.6649 390.739 42.6806C390.782 42.7165 390.831 42.7345 390.883 42.7345L390.885 42.7322Z" fill="#E23E3D"/>
    <path d="M394.744 45.0513C395.082 45.0513 395.357 44.7769 395.357 44.4384C395.357 44.0999 395.082 43.8256 394.744 43.8256C394.405 43.8256 394.131 44.0999 394.131 44.4384C394.131 44.7769 394.405 45.0513 394.744 45.0513Z" fill="black"/>
    <path d="M388.369 44.4384C388.369 44.7774 388.643 45.0513 388.982 45.0513C389.321 45.0513 389.595 44.7774 389.595 44.4384C389.595 44.0994 389.321 43.8256 388.982 43.8256C388.643 43.8256 388.369 44.0994 388.369 44.4384Z" fill="black"/>
    <path d="M405.808 50.4203C407.655 49.9846 408.798 48.1347 408.362 46.2885C407.927 44.4424 406.077 43.299 404.231 43.7347C402.384 44.1704 401.241 46.0203 401.677 47.8665C402.112 49.7127 403.962 50.8561 405.808 50.4203Z" fill="#FE9F73"/>
    <path d="M405.273 49.1773C405.994 49.1773 406.476 48.6363 406.634 48.0952C406.822 47.4555 406.607 46.8336 406.086 46.5104C405.345 46.0502 404.672 46.3195 404.306 46.5485C404.454 46.1826 404.678 45.9155 404.977 45.7516C405.65 45.3834 406.481 45.6528 406.488 45.6551C406.546 45.6753 406.607 45.6438 406.627 45.5855C406.647 45.5271 406.616 45.4665 406.557 45.4463C406.519 45.4328 405.626 45.1432 404.871 45.5585C404.434 45.7987 404.137 46.223 403.989 46.8202L403.893 47.2018L404.173 46.9234C404.207 46.8897 405.017 46.104 405.971 46.6967C406.499 47.0244 406.546 47.6216 406.425 48.0346C406.299 48.4679 405.917 48.9663 405.257 48.9595C405.197 48.9595 405.147 49.0067 405.145 49.0673C405.145 49.1279 405.192 49.1773 405.253 49.1795C405.26 49.1795 405.266 49.1795 405.273 49.1795V49.1773Z" fill="#F07162"/>
    <path d="M369.339 129.342L369.779 105.988L369.7 105.896C365.66 101.169 364.591 96.2433 366.528 91.2552C367.981 87.5152 370.675 85.1334 370.702 85.111L370.284 84.6328C370.169 84.7338 367.46 87.1246 365.947 91.0038C364.551 94.5799 363.978 100.116 369.141 106.215L368.706 129.328L369.339 129.34V129.342Z" fill="#21111D"/>
    <path d="M355.396 145.491C356.359 145.134 362.595 145.482 364.892 145.758C364.899 145.75 364.903 145.743 364.903 145.743L376.475 147.399L375.836 132.601C375.836 132.601 362.212 130.873 360.211 130.794C358.211 130.716 351.411 132.684 349.306 134.35C345.487 137.374 347.788 137.643 347.788 137.643C344.118 141.156 347.9 141.141 347.9 141.141C344.336 143.999 347.9 144.674 347.9 144.674C346.145 146.405 346.495 147.267 347.09 147.685C347.526 147.99 348.089 148.048 348.594 147.878C349.773 147.483 352.725 146.481 355.396 145.494V145.491Z" fill="#FE9F73"/>
    <path d="M352.218 142.223C352.319 142.221 352.415 142.281 352.451 142.382C352.496 142.508 352.431 142.645 352.305 142.69C350.552 143.321 348.051 144.861 348.027 144.876C347.914 144.946 347.766 144.91 347.694 144.798C347.625 144.685 347.658 144.537 347.773 144.465C347.876 144.4 350.343 142.883 352.144 142.234C352.168 142.225 352.193 142.221 352.218 142.221V142.223Z" fill="#F07162"/>
    <path d="M352.121 139.177C352.235 139.172 352.339 139.251 352.363 139.365C352.393 139.495 352.31 139.623 352.179 139.652C349.966 140.137 348.047 141.332 348.029 141.343C347.916 141.415 347.768 141.379 347.696 141.267C347.627 141.154 347.66 141.006 347.773 140.934C347.853 140.883 349.777 139.686 352.076 139.181C352.092 139.179 352.105 139.177 352.121 139.177Z" fill="#F07162"/>
    <path d="M351.474 135.719C351.584 135.715 351.688 135.789 351.715 135.901C351.746 136.029 351.667 136.162 351.54 136.193C349.64 136.667 347.941 137.827 347.923 137.841C347.813 137.917 347.665 137.888 347.589 137.778C347.514 137.668 347.541 137.52 347.651 137.443C347.723 137.394 349.441 136.222 351.423 135.726C351.441 135.722 351.456 135.719 351.474 135.719Z" fill="#F07162"/>
    <path d="M387.524 146.225L366.297 145.159L366.328 129.858L379.899 126.792L387.524 146.225Z" fill="#FECC86"/>
    <path d="M366.329 146.497C366.311 146.497 366.293 146.497 366.273 146.492C366.174 146.472 366.093 146.396 366.064 146.299C366.006 146.102 365.992 141.662 365.994 137.969C365.994 129.804 366.03 129.768 366.136 129.663C366.313 129.488 383.177 125.748 393.898 123.507C406.842 120.802 422.967 117.675 426.278 118.12C432.595 118.97 436.809 123.121 436.852 123.164C436.957 123.269 436.957 123.442 436.852 123.55C436.746 123.655 436.573 123.655 436.465 123.55C436.425 123.509 432.333 119.487 426.206 118.661C420.159 117.848 369.903 129.283 366.587 130.071C366.529 131.795 366.531 145.449 366.594 146.156C366.603 146.194 366.605 146.237 366.596 146.277C366.569 146.405 366.457 146.495 366.329 146.495V146.497Z" fill="#21111D"/>
    <path d="M426.239 118.665C426.095 118.665 425.976 118.553 425.967 118.409L424.232 89.8252C424.223 89.6748 424.337 89.5469 424.488 89.5357C424.638 89.5312 424.766 89.6412 424.777 89.7916L426.513 118.376C426.522 118.526 426.407 118.654 426.257 118.663C426.252 118.663 426.246 118.663 426.241 118.663L426.239 118.665Z" fill="#21111D"/>
    <path d="M424.843 95.6507C424.764 95.6507 424.688 95.617 424.634 95.5542L421.188 91.4393C421.092 91.3248 421.108 91.152 421.222 91.0554C421.337 90.9589 421.509 90.9746 421.606 91.0891L425.052 95.204C425.148 95.3185 425.133 95.4913 425.018 95.5878C424.966 95.6305 424.906 95.6507 424.843 95.6507Z" fill="#21111D"/>
    <path d="M329.402 117.107C329.357 117.107 329.312 117.096 329.269 117.074C329.137 117.002 329.09 116.836 329.164 116.703L351.051 77.1597C357.29 65.8904 362.925 66.4292 363.16 66.4561C363.311 66.4741 363.416 66.611 363.398 66.7592C363.38 66.9096 363.243 67.0173 363.098 66.9971C363.037 66.9904 357.562 66.5234 351.53 77.4223L329.642 116.966C329.593 117.056 329.498 117.107 329.404 117.107H329.402Z" fill="#21111D"/>
    <path d="M402.705 107.261H386.411C386.261 107.261 386.14 107.14 386.14 106.989C386.14 106.839 386.261 106.718 386.411 106.718H402.705C402.855 106.718 402.976 106.839 402.976 106.989C402.976 107.14 402.855 107.261 402.705 107.261Z" fill="#21111D"/>
    <path d="M399.898 109.037H389.217C389.067 109.037 388.945 108.916 388.945 108.765C388.945 108.615 389.067 108.494 389.217 108.494H399.898C400.048 108.494 400.17 108.615 400.17 108.765C400.17 108.916 400.048 109.037 399.898 109.037Z" fill="#21111D"/>
    <path d="M442.307 77.4718C442.224 77.4718 442.143 77.4336 442.089 77.3618C439.505 73.9159 435.28 72.5151 435.238 72.5016C435.094 72.4545 435.015 72.3018 435.063 72.1581C435.11 72.0145 435.262 71.9382 435.406 71.9831C435.586 72.0414 439.833 73.4467 442.525 77.0363C442.614 77.1575 442.59 77.3281 442.471 77.4179C442.421 77.4538 442.365 77.4718 442.307 77.4718Z" fill="#21111D"/>
    <path d="M441.802 79.9502C441.719 79.9502 441.638 79.912 441.584 79.8402C439 76.3943 434.775 74.9935 434.733 74.98C434.589 74.9329 434.51 74.7802 434.558 74.6366C434.605 74.4929 434.757 74.4165 434.901 74.4614C435.081 74.5198 439.33 75.9251 442.02 79.5147C442.109 79.6359 442.085 79.8065 441.966 79.8963C441.916 79.9322 441.86 79.9502 441.802 79.9502Z" fill="#21111D"/>
    <path d="M350.1 145.159H269.004C267.506 145.159 266.202 144.14 265.838 142.69L251.069 83.7348C250.553 81.674 252.111 79.6783 254.235 79.6783H335.331C336.828 79.6783 338.132 80.6975 338.496 82.1477L353.265 141.103C353.781 143.163 352.223 145.159 350.1 145.159Z" fill="#4CB7D8"/>
    <path d="M300.627 115.448C302.301 115.448 303.658 114.091 303.658 112.418C303.658 110.744 302.301 109.387 300.627 109.387C298.954 109.387 297.597 110.744 297.597 112.418C297.597 114.091 298.954 115.448 300.627 115.448Z" fill="#E2F2F1"/>
    <path d="M542.684 146.225H197.503V303.701H542.684V146.225Z" fill="#49263E"/>
    <path d="M542.684 216.389H197.503V221.615H542.684V216.389Z" fill="#F99247"/>
    <path d="M542.684 298.473H197.503V303.699H542.684V298.473Z" fill="#F99247"/>
    <g style="mix-blend-mode:multiply" opacity="0.3">
        <path d="M542.681 146.225H452.28V303.701H542.681V146.225Z" fill="#49263E"/>
    </g>
    <path d="M545.782 141.747H194.304V146.973H545.782V141.747Z" fill="#F99247"/>
    <path d="M541.13 91.3113C541.13 91.3113 540.129 77.3549 534.712 80.0645C529.295 82.774 524.879 100.556 524.289 101.085C523.701 101.615 523.876 117.868 523.876 117.868L530.177 114.689C530.177 114.689 531.854 75.8441 541.13 91.3113Z" fill="#258D8C"/>
    <path d="M535.057 62.4175C535.057 62.4175 522.919 73.2782 519.606 91.8994C516.294 110.521 526.76 116.003 526.76 116.003C526.76 116.003 528.248 76.8475 535.057 62.4175Z" fill="#7FC6A6"/>
    <path d="M512.541 118.517C512.541 118.517 510.509 78.8748 500.264 61.688C500.264 61.688 518.252 72.4185 524.216 100.587C524.553 102.172 524.751 103.937 525.007 105.634C525.272 107.4 525.429 108.963 525.388 110.525C525.316 113.284 524.935 115.653 524.823 117.395C523.851 132.444 512.543 118.519 512.543 118.519L512.541 118.517Z" fill="#258D8C"/>
    <path d="M512.887 101.683C512.189 96.0301 510.045 90.6424 506.595 86.1122C504.103 82.8392 501.219 80.3519 498.967 82.1253C493.961 86.0695 492.962 110.566 492.962 110.566C492.962 110.566 498.614 93.6078 501.088 94.7258C503.562 95.8437 505.859 118.867 505.859 118.867L515.103 119.633L512.89 101.68L512.887 101.683Z" fill="#7FC6A6"/>
    <path d="M525.497 117.132C525.876 108.478 524.792 100.17 522.271 92.4428C520.255 86.2604 517.321 80.4327 513.55 75.1213C507.13 66.0767 500.413 61.6072 500.346 61.5623L500.182 61.8114C500.249 61.8563 506.925 66.3012 513.314 75.3031C519.207 83.6092 526.054 97.606 525.199 117.118L525.497 117.132Z" fill="#21111D"/>
    <path d="M526.911 116.009C526.915 115.911 527.297 106.092 528.507 94.6359C529.623 84.0715 531.688 69.9176 535.194 62.4826L534.923 62.3546C531.398 69.8278 529.326 84.0177 528.208 94.6067C526.998 106.071 526.617 115.899 526.612 115.998L526.911 116.009Z" fill="#21111D"/>
    <path d="M530.326 114.696C530.328 114.633 530.613 108.247 531.552 101.779C532.786 93.2734 534.569 88.4873 536.708 87.9373C537.972 87.614 539.415 88.7746 541.003 91.3899L541.258 91.235C539.595 88.494 538.039 87.2863 536.634 87.6477C534.335 88.2359 532.526 92.977 531.255 101.739C530.315 108.222 530.03 114.62 530.027 114.685L530.326 114.698V114.696Z" fill="#21111D"/>
    <path d="M514.955 119.653L515.251 119.617L513.038 101.665C512.33 95.9357 510.146 90.5278 506.716 86.0223C504.545 83.1691 502.617 81.6178 500.985 81.4113C500.215 81.3125 499.505 81.5146 498.877 82.0107C496.769 83.6719 495.11 88.9878 493.94 97.8079C493.074 104.356 492.816 110.5 492.813 110.563L493.112 110.574C493.121 110.33 494.167 86.1031 499.061 82.2442C499.624 81.7997 500.257 81.6201 500.947 81.7076C502.496 81.9052 504.357 83.416 506.478 86.2041C509.874 90.6669 512.041 96.0277 512.741 101.703L514.955 119.655V119.653Z" fill="#21111D"/>
    <path d="M505.348 97.5345L505.083 97.6714L507.025 101.436L507.29 101.299L505.348 97.5345Z" fill="#21111D"/>
    <path d="M505.335 100.034L505.073 100.178L507.015 103.703L507.277 103.559L505.335 100.034Z" fill="#21111D"/>
    <path d="M526.891 75.0791L525.23 78.7236L525.502 78.8474L527.162 75.2029L526.891 75.0791Z" fill="#21111D"/>
    <path d="M526.618 77.9031L525.205 80.4539L525.466 80.5986L526.88 78.0478L526.618 77.9031Z" fill="#21111D"/>
    <path d="M536.135 81.3622L533.309 82.8027L533.444 83.0687L536.27 81.6282L536.135 81.3622Z" fill="#21111D"/>
    <path d="M534.992 83.0944L533.319 84.1117L533.474 84.3668L535.147 83.3495L534.992 83.0944Z" fill="#21111D"/>
    <path d="M533.386 113.682C533.386 113.682 532.858 142.663 525.095 141.983H511.907C504.144 142.663 503.616 113.682 503.616 113.682C510.961 112.57 526.038 112.57 533.386 113.682Z" fill="#F75553"/>
    <path d="M506.747 117.428L506.53 117.633L515.011 126.591L515.227 126.386L506.747 117.428Z" fill="#21111D"/>
    <path d="M509.242 123.206L509.017 123.402L513.686 128.772L513.912 128.576L509.242 123.206Z" fill="#21111D"/>
    <path d="M465.489 115.738V139.913C465.489 140.901 466.291 141.704 467.281 141.704H481.073C482.061 141.704 482.865 140.903 482.865 139.913V138.671C488.329 138.671 492.773 134.227 492.773 128.765C492.773 123.303 488.329 118.858 482.865 118.858V115.738H465.492H465.489ZM482.862 136.229V121.301C486.979 121.301 490.327 124.65 490.327 128.765C490.327 132.88 486.977 136.229 482.862 136.229Z" fill="#FEBAC7"/>
    <path d="M475.274 128.583L472.711 132.855L473.123 133.102L475.686 128.83L475.274 128.583Z" fill="#49263E"/>
    <path d="M472.338 129.367L469.917 133.569L470.333 133.809L472.754 129.607L472.338 129.367Z" fill="#49263E"/>
    <path d="M259.36 127.488H219.675V135.033H259.36V127.488Z" fill="#F75553"/>
    <path d="M226.868 127.487H224.158V135.032H226.868V127.487Z" fill="#E24444"/>
    <path d="M255.088 127.487H252.379V135.032H255.088V127.487Z" fill="#E24444"/>
    <path d="M247.986 129.185L244.915 130.783L245.148 131.231L248.219 129.634L247.986 129.185Z" fill="#21111D"/>
    <path d="M250.134 129.623L246.887 131.447L247.134 131.887L250.381 130.063L250.134 129.623Z" fill="#21111D"/>
    <path d="M255.395 135.032H203.377V141.747H255.395V135.032Z" fill="#7FC6A6"/>
    <g style="mix-blend-mode:multiply">
        <path d="M212.809 135.032H209.255V141.747H212.809V135.032Z" fill="#61A3C5"/>
    </g>
    <g style="mix-blend-mode:multiply">
        <path d="M250.613 135.032H247.06V141.747H250.613V135.032Z" fill="#61A3C5"/>
    </g>
    <path d="M214.444 139.347L214.211 138.725L217.282 136.509L217.515 137.131L214.444 139.347Z" fill="#21111D"/>
    <path d="M216.43 140.265L216.183 139.652L219.429 137.127L219.676 137.737L216.43 140.265Z" fill="#21111D"/>
    <path d="M242.485 191.96C242.415 191.96 242.343 191.933 242.292 191.879L223.441 172.744C223.336 172.636 223.338 172.464 223.444 172.358C223.551 172.253 223.724 172.255 223.83 172.36L242.68 191.496C242.785 191.603 242.783 191.776 242.678 191.882C242.624 191.933 242.556 191.96 242.487 191.96H242.485Z" fill="#21111D"/>
    <path d="M237.64 195.837C237.568 195.837 237.496 195.81 237.445 195.754L223.439 181.221C223.333 181.113 223.338 180.94 223.446 180.835C223.553 180.729 223.726 180.734 223.832 180.841L237.838 195.375C237.943 195.483 237.939 195.655 237.831 195.761C237.777 195.813 237.71 195.837 237.642 195.837H237.64Z" fill="#21111D"/>
    <path d="M435.081 276.053C435.012 276.053 434.94 276.026 434.888 275.973L419.187 260.034C419.082 259.926 419.084 259.753 419.19 259.648C419.297 259.542 419.47 259.545 419.576 259.65L435.276 275.589C435.382 275.696 435.38 275.869 435.274 275.975C435.22 276.026 435.153 276.053 435.083 276.053H435.081Z" fill="#21111D"/>
    <path d="M431.045 279.282C430.973 279.282 430.901 279.255 430.85 279.199L419.183 267.092C419.078 266.984 419.082 266.811 419.19 266.706C419.298 266.6 419.47 266.605 419.576 266.713L431.243 278.819C431.348 278.927 431.344 279.1 431.236 279.205C431.182 279.257 431.115 279.282 431.047 279.282H431.045Z" fill="#21111D"/>
    <path d="M387.848 38.2785C387.848 38.2785 388.892 32.9918 395.965 32.4104C403.039 31.829 403.991 37.1314 403.991 37.1314L395.92 38.7679L388.371 38.2403L387.85 38.2762L387.848 38.2785Z" fill="#FE9F73"/>
    <path d="M387.847 33.7998C387.847 33.7998 392.245 38.1077 397.953 37.1312C397.953 37.1312 399.857 44.1038 403.988 43.7828C408.118 43.4618 405.871 33.8021 405.871 33.8021C405.871 33.8021 398.149 30.657 397.659 30.657C397.17 30.657 388.978 30.1676 388.978 30.1676L387.845 33.8021L387.847 33.7998Z" fill="#E23E3D"/>
    <path d="M393.577 46.3914C393.752 46.3914 393.752 46.1198 393.577 46.1198C393.402 46.1198 393.402 46.3914 393.577 46.3914Z" fill="#EA5942"/>
    <path d="M394.405 46.8831C394.58 46.8831 394.58 46.6115 394.405 46.6115C394.23 46.6115 394.23 46.8831 394.405 46.8831Z" fill="#EA5942"/>
    <path d="M395.907 45.8998C396.082 45.8998 396.082 45.6282 395.907 45.6282C395.732 45.6282 395.732 45.8998 395.907 45.8998Z" fill="#EA5942"/>
    <path d="M397.196 46.8831C397.371 46.8831 397.371 46.6115 397.196 46.6115C397.021 46.6115 397.021 46.8831 397.196 46.8831Z" fill="#EA5942"/>
    <path d="M398.544 45.563C398.72 45.563 398.72 45.2914 398.544 45.2914C398.369 45.2914 398.369 45.563 398.544 45.563Z" fill="#EA5942"/>
    <path d="M399.034 47.525C399.209 47.525 399.209 47.2534 399.034 47.2534C398.859 47.2534 398.859 47.525 399.034 47.525Z" fill="#EA5942"/>
    <path d="M390.849 45.5945C391.024 45.5945 391.024 45.3229 390.849 45.3229C390.674 45.3229 390.674 45.5945 390.849 45.5945Z" fill="#EA5942"/>
    <path d="M389.836 46.699C390.012 46.699 390.012 46.4274 389.836 46.4274C389.661 46.4274 389.661 46.699 389.836 46.699Z" fill="#EA5942"/>
    <path d="M388.611 46.2073C388.786 46.2073 388.786 45.9357 388.611 45.9357C388.436 45.9357 388.436 46.2073 388.611 46.2073Z" fill="#EA5942"/>
    <path d="M388.519 48.138C388.694 48.138 388.694 47.8663 388.519 47.8663C388.344 47.8663 388.344 48.138 388.519 48.138Z" fill="#EA5942"/>
    <path d="M387.598 47.0043C387.773 47.0043 387.773 46.7327 387.598 46.7327C387.423 46.7327 387.423 47.0043 387.598 47.0043Z" fill="#EA5942"/>
    <path d="M387.814 45.3184C387.989 45.3184 387.989 45.0468 387.814 45.0468C387.639 45.0468 387.639 45.3184 387.814 45.3184Z" fill="#EA5942"/>
    <path d="M395.385 47.7405C395.56 47.7405 395.56 47.4689 395.385 47.4689C395.21 47.4689 395.21 47.7405 395.385 47.7405Z" fill="#EA5942"/>
    <path d="M394.353 50.3648C392.986 51.5994 391.655 50.7127 391.642 50.7037C391.599 50.6746 391.59 50.6162 391.621 50.5735C391.653 50.5309 391.711 50.5174 391.754 50.5466C391.803 50.5803 392.979 51.357 394.23 50.2301C394.252 50.2099 394.275 50.1897 394.297 50.1672C394.333 50.1336 394.396 50.1291 394.432 50.1672C394.468 50.2031 394.463 50.2638 394.425 50.2997C394.4 50.3221 394.378 50.3446 394.353 50.367V50.3648Z" fill="#F07162"/>
    <path d="M206.031 39.2669C219.678 32.202 227.673 20.5481 223.889 13.2374C220.104 5.92657 205.973 5.72729 192.326 12.7922C178.678 19.8572 170.683 31.511 174.468 38.8218C178.253 46.1326 192.384 46.3319 206.031 39.2669Z" fill="#FEEFDC"/>
    <path d="M166.448 14.2586C171.643 12.0589 174.899 8.0203 173.721 5.23804C172.543 2.45578 167.377 1.98347 162.182 4.1831C156.987 6.38274 153.731 10.4214 154.91 13.2036C156.088 15.9859 161.254 16.4582 166.448 14.2586Z" fill="#FEEFDC"/>
    <path d="M174.658 139.769C174.755 138.844 174.074 138.016 173.159 137.859L167.461 136.882C167.281 136.851 167.142 136.712 167.115 136.532C167.073 136.267 167.281 136.032 167.549 136.041L176.081 136.355C177.058 136.391 177.731 135.63 177.576 134.664C177.422 133.699 176.494 132.88 175.516 132.842L166.815 132.521C166.612 132.514 166.444 132.363 166.413 132.164L166.39 132.022C166.352 131.791 166.509 131.573 166.74 131.537L176.277 130.004C177.195 129.856 177.884 129.037 177.796 128.112C177.7 127.097 176.773 126.392 175.783 126.551L166.188 128.094C165.957 128.132 165.739 127.975 165.703 127.743L165.631 127.294C165.598 127.083 165.726 126.881 165.928 126.821L174.58 124.241C175.471 123.977 176.048 123.072 175.839 122.167C175.612 121.175 174.6 120.596 173.639 120.881C173.639 120.881 160.235 124.105 158.098 124.439L160.239 119.873C160.803 119.092 160.628 118.001 159.849 117.437C159.067 116.874 157.976 117.049 157.413 117.828L149.819 126.105C149.45 126.614 149.646 127.856 150.043 128.817C150.898 139.076 151.114 140.649 151.599 143.395L162.399 141.282C165.515 140.674 168.716 140.636 171.845 141.172L172.631 141.307C173.619 141.475 174.555 140.779 174.66 139.767L174.658 139.769Z" fill="#FE9F73"/>
    <path d="M113.205 126.21L151.761 120.636C151.761 120.636 156.599 135.398 155.474 144.755C155.474 144.755 120.241 156.48 112.727 155.524C105.216 154.567 97.554 143.812 97.554 143.812C97.554 143.812 96.3619 87.7712 97.4844 88.6378C98.609 89.5043 113.203 126.208 113.203 126.208L113.205 126.21Z" fill="#EF3A4C"/>
    <path d="M184.562 296.414L155.525 294.057L155.228 287.953L154.943 266.423L184.928 269.467L184.562 296.414Z" fill="#FE9F73"/>
    <path d="M106.244 144.088C106.244 144.088 168.876 151.945 177.631 163.17C181.948 168.703 190.743 242.941 187.095 273.826C187.095 273.826 164.723 275.366 154.024 272.774L151.42 197.469L103.325 182.925L78.6318 144.986L106.244 144.088Z" fill="#258D8C"/>
    <path d="M169.343 274.675C160.261 274.675 153.988 273.187 153.926 273.171L153.623 273.097L150.989 196.955L154.352 199.663L153.838 200.302L151.874 198.72L154.424 272.441C155.816 272.742 161.877 273.939 170.143 273.851L170.152 274.673C169.882 274.675 169.613 274.677 169.348 274.677L169.343 274.675Z" fill="#21111D"/>
    <path d="M164.106 303.883L203.755 303.874C204.112 303.816 204.406 303.755 204.617 303.688C207.16 302.877 207.374 301.391 207.253 300.532C207.199 300.15 206.979 299.813 206.651 299.6L184.748 285.419L177.512 288.62C175.209 289.644 172.756 290.297 170.239 290.54C165.103 291.033 156.864 291.301 155.228 288.111L155.486 300.352C155.486 300.352 154.287 303.98 164.102 303.885L164.106 303.883Z" fill="#EF3A4C"/>
    <path d="M101.096 297.191H76.8759V214.342H71.4949V297.191H47.9035C44.6125 297.191 41.9434 299.86 41.9434 303.151H107.058C107.058 299.86 104.389 297.191 101.098 297.191H101.096Z" fill="#683D46"/>
    <path d="M4.14648 86.1392H59.8104L89.2587 214.342L25.4706 207.692L4.14648 86.1392Z" fill="#FEC786"/>
    <path d="M131.651 201.283C131.651 201.283 58.4974 201.283 36.666 201.283C33.1438 201.283 30.1222 198.769 29.4824 195.305L10.0709 90.2181C9.55014 87.394 6.79119 85.551 3.96265 86.1773C1.2688 86.7744 -0.412616 89.475 0.0879907 92.1868L22.0765 211.235C22.2472 212.157 22.6602 212.972 23.2327 213.635C24.6469 216.263 27.4238 218.05 30.6183 218.05H131.649C136.278 218.05 140.031 214.297 140.031 209.668C140.031 205.039 136.278 201.286 131.649 201.286L131.651 201.283Z" fill="#F99247"/>
    <path d="M36.6656 201.692C32.9459 201.692 29.7559 199.036 29.0802 195.379L9.66875 90.2922C9.43528 89.0328 8.71917 87.9485 7.65061 87.2414C6.58205 86.5342 5.30471 86.2985 4.04983 86.5769C3.82983 86.6263 3.61208 86.4871 3.56269 86.2671C3.5133 86.0471 3.65249 85.8293 3.87248 85.78C5.34512 85.4545 6.84694 85.7328 8.10183 86.5634C9.35672 87.394 10.1985 88.6669 10.4724 90.1462L29.8839 195.233C30.4877 198.504 33.341 200.877 36.6656 200.877C36.8924 200.877 37.0742 201.061 37.0742 201.285C37.0742 201.51 36.8924 201.694 36.6656 201.694V201.692Z" fill="#21111D"/>
    <path d="M107.074 202.082C107.074 202.082 83.0693 202.478 66.2439 201.901C60.8428 201.716 56.0365 202.096 53.1922 201.465C41.4807 198.866 38.596 162.312 51.8947 139.917C65.1911 117.522 111.714 186.281 111.714 186.281L107.074 202.082Z" fill="#7FC6A6"/>
    <path d="M150.286 296.825L125.523 295.492C122.842 295.348 120.723 293.166 120.656 290.481L120.052 266.104L150.039 269.148L150.288 296.825H150.286Z" fill="#FE9F73"/>
    <path d="M86.938 151.946C86.938 151.946 150.068 164.883 151.77 171.691C153.472 178.5 158.318 243.103 154.67 273.988C154.67 273.988 130.614 275.367 119.915 272.771L117.033 201.737L106.655 202.098L81.4941 157.832L86.9402 151.946H86.938Z" fill="#7FC6A6"/>
    <path d="M134.347 274.828C123.718 274.828 119.926 273.227 119.747 273.149L119.511 273.045L116.721 201.593L121.114 203.665L120.764 204.408L117.594 202.913L120.313 272.486C121.462 272.884 126.975 274.475 139.996 273.874L140.034 274.693C137.953 274.79 136.06 274.83 134.347 274.83V274.828Z" fill="#21111D"/>
    <path d="M124.38 259.419C123.246 255.044 122.921 212.362 122.907 210.546L123.729 210.539C123.731 210.983 124.066 254.934 125.175 259.212L124.38 259.419Z" fill="#21111D"/>
    <path d="M89.0115 202.848C78.5369 202.848 65.9813 202.493 51.8633 201.429L51.9239 200.614C93.9839 203.784 122.193 200.648 122.474 200.614L122.566 201.427C122.379 201.447 109.806 202.846 89.0115 202.846V202.848Z" fill="#21111D"/>
    <path d="M129.509 303.883L169.158 303.874C169.515 303.816 169.809 303.755 170.021 303.688C172.564 302.877 172.777 301.391 172.656 300.532C172.602 300.15 172.382 299.813 172.054 299.6L150.151 285.419L142.916 288.62C140.613 289.644 138.159 290.297 135.642 290.54C130.506 291.033 122.191 291.298 120.555 288.108L120.889 300.352C120.889 300.352 119.69 303.98 129.505 303.885L129.509 303.883Z" fill="#FF424D"/>
    <path d="M62.1184 177.811C62.1184 177.811 77.3117 170.573 91.441 159.912C105.57 149.252 114.101 142.517 114.101 142.517C114.101 142.517 112.136 138.175 110.242 134.543L106.917 128.15L98.7885 92.6785C98.7885 92.6785 96.245 75.6197 73.244 71.5587C74.124 71.9673 71.3628 71.2422 71.3628 71.2422C71.3628 71.2422 50.5326 71.9965 42.6396 73.0897C30.3714 74.7891 29.1143 106.493 29.1143 106.493C29.112 127.55 31.6016 156.37 38.9199 165.756C48.2181 177.678 58.9374 178.06 62.1251 177.878C62.1207 177.836 62.1184 177.811 62.1184 177.811Z" fill="#EF3A4C"/>
    <path d="M56.0833 70.5822C56.0833 70.5822 42.1943 70.0973 35.5629 73.853C25.6675 79.4584 29.192 111.562 29.192 111.562C29.192 111.562 37.6013 106.976 38.1109 105.447C38.6204 103.919 56.0833 70.5822 56.0833 70.5822Z" fill="#EF3A4C"/>
    <path d="M52.5217 176.653C53.4196 176.991 54.2637 177.256 55.0427 177.463C59.721 178.704 62.9895 178.188 63.1264 178.166C63.3352 178.132 63.4744 177.934 63.4407 177.728C63.4071 177.519 63.2095 177.38 63.003 177.414C62.9715 177.418 59.7277 177.925 55.1998 176.715C51.0221 175.602 44.8577 172.753 39.2208 165.522C32.1449 156.446 29.5588 128.504 29.496 107.335C29.496 107.124 29.3231 106.954 29.1121 106.954C28.9011 106.954 28.7305 107.126 28.7305 107.337C28.7933 128.628 31.4221 156.765 38.6169 165.992C43.3513 172.064 48.4629 175.119 52.5217 176.653Z" fill="#21111D"/>
    <path d="M63.8803 141.695C63.9499 141.722 64.0262 141.727 64.1025 141.709C64.309 141.659 64.4348 141.455 64.3876 141.249C64.3248 140.979 57.9987 114.092 55.3071 97.1727C55.2734 96.9639 55.0781 96.8225 54.8693 96.8562C54.6606 96.8898 54.5191 97.0851 54.5528 97.2939C57.2489 114.243 63.5795 141.157 63.6446 141.426C63.676 141.554 63.7658 141.653 63.8825 141.695H63.8803Z" fill="#21111D"/>
    <path d="M63.9768 85.6857C64.2731 85.7172 64.574 85.7419 64.8793 85.7643C65.0544 85.7756 65.207 85.6454 65.2182 85.4703C65.2295 85.2951 65.1037 85.1447 64.9242 85.1313C51.7625 84.2064 49.3178 74.5714 49.2998 74.4748C49.2684 74.3065 49.1045 74.1875 48.9339 74.2167C48.7633 74.2459 48.6466 74.4008 48.6713 74.5714C48.6847 74.6701 51.1137 84.3568 63.9768 85.6857Z" fill="#21111D"/>
    <path d="M73.0289 218.528L33.4023 218.457C22.728 219.42 21.4574 210.285 21.3968 209.782L19.0419 197.027C19.0015 196.805 19.1474 196.592 19.3696 196.551C19.5919 196.511 19.8051 196.657 19.8455 196.879L22.2094 209.679C22.2453 210.043 23.2308 218.562 33.3485 217.639H33.3866L73.0311 217.709C73.2579 217.709 73.4397 217.893 73.4397 218.118C73.4397 218.342 73.2556 218.526 73.0311 218.526L73.0289 218.528Z" fill="#21111D"/>
    <path d="M25.5914 86.5477L6.11267 86.5186C5.88594 86.5186 5.7041 86.3345 5.7041 86.11C5.7041 85.8833 5.88818 85.7014 6.11267 85.7014L25.5914 85.7306C25.8182 85.7306 26 85.9147 26 86.1392C26 86.3637 25.8159 86.5477 25.5914 86.5477Z" fill="#21111D"/>
    <path d="M97.5245 124.511C94.9452 115.812 92.1593 105.952 91.1895 100.861C91.1491 100.655 90.9493 100.518 90.7427 100.558C90.5362 100.598 90.3993 100.798 90.4397 101.005C91.4185 106.145 94.2335 116.101 96.8286 124.85C97.0598 124.738 97.2955 124.623 97.5245 124.511Z" fill="#21111D"/>
    <path d="M90.3055 161.037C90.1977 161.037 90.09 160.986 90.0249 160.887C89.9216 160.732 89.9642 160.523 90.1191 160.42C94.5213 157.486 111.726 143.958 113.708 142.398C110.994 134.294 103.344 124.316 102.109 122.737L64.889 141.457L59.9727 145.034C59.8223 145.144 59.6113 145.11 59.5013 144.96C59.3913 144.809 59.425 144.598 59.5754 144.49L64.5612 140.869L102.295 121.889L102.466 122.102C102.556 122.214 111.517 133.477 114.422 142.412L114.494 142.636L114.31 142.782C114.119 142.932 95.1634 157.868 90.4918 160.981C90.4334 161.019 90.3706 161.037 90.3055 161.037Z" fill="#21111D"/>
    <path d="M155.536 139.226C155.363 139.226 155.217 139.094 155.202 138.918C154.519 131.288 152.057 122.74 151.574 121.112L112.987 126.495L106.14 109.555C99.7084 91.3249 94.3589 83.8247 94.305 83.7506C85.7655 72.8675 71.4769 71.5834 71.3332 71.5722C71.1469 71.5565 71.0099 71.3948 71.0256 71.2085C71.0414 71.0222 71.203 70.883 71.3893 70.901C71.5352 70.9122 86.1112 72.2142 94.8438 83.3443C94.9044 83.4296 100.306 90.9904 106.771 109.315L113.416 125.752L152.05 120.362L152.135 120.636C152.164 120.733 155.114 130.352 155.873 138.853C155.889 139.04 155.752 139.201 155.568 139.219C155.556 139.219 155.547 139.219 155.536 139.219V139.226Z" fill="#21111D"/>
    <path d="M74.506 42.5751L74.937 59.2074C74.937 59.2074 75.2985 64.548 70.6381 65.3382L71.6977 72.45C72.0905 75.0922 70.5707 77.6738 68.0453 78.5448C66.8106 78.9713 65.3312 79.2968 63.6453 79.3417C58.298 79.4809 55.2989 75.5456 54.8005 73.5522C54.3021 71.5587 55.3909 61.9439 55.3909 61.9439L55.1058 57.2409L55.2405 38.9856L74.506 42.5751Z" fill="#FE9F73"/>
    <path d="M59.6738 61.0774C59.6738 61.0774 60.2193 70.0187 71.419 70.5822L70.6378 65.3382C70.6378 65.3382 63.4273 66.9837 59.6738 61.0774Z" fill="#F07162"/>
    <path d="M61.8217 51.6333C61.7656 51.6333 61.7095 51.6154 61.6668 51.575C61.577 51.4919 61.5703 51.3505 61.6511 51.2607C61.6803 51.227 64.6637 48.0146 67.5215 50.1966C67.6202 50.2707 67.6382 50.4121 67.5641 50.5087C67.49 50.6074 67.3486 50.6254 67.2521 50.5513C64.7199 48.6162 62.0911 51.4403 61.9811 51.5615C61.9385 51.6086 61.8801 51.6333 61.8217 51.6333Z" fill="black"/>
    <path d="M54.084 49.4938L58.9172 50.3693L59.8107 51.2471C59.8107 51.2471 59.1843 43.1969 58.2393 41.6367C57.2919 40.0766 54.084 49.4938 54.084 49.4938Z" fill="black"/>
    <path d="M70.9721 50.0572C70.9092 50.0572 70.8464 50.0348 70.8015 49.9854C70.7184 49.8956 70.7251 49.7541 70.8149 49.6711C70.9025 49.5903 72.9812 47.718 74.3551 48.836C74.4516 48.9146 74.4651 49.0537 74.3865 49.1503C74.308 49.2468 74.1688 49.2603 74.0723 49.1817C72.997 48.3062 71.1337 49.9831 71.1158 50.0011C71.0753 50.0392 71.0237 50.0572 70.9721 50.0594V50.0572Z" fill="black"/>
    <path d="M66.3525 52.4167C66.3615 52.7849 66.0696 53.0924 65.7015 53.1014C65.3333 53.1104 65.0258 52.8185 65.0168 52.4504C65.0078 52.0822 65.2997 51.7747 65.6678 51.7657C66.036 51.7567 66.3435 52.0486 66.3525 52.4167Z" fill="black"/>
    <path d="M73.4394 51.5636C73.4484 51.9317 73.1566 52.2393 72.7884 52.2483C72.4202 52.2572 72.1127 51.9654 72.1037 51.5972C72.0947 51.2291 72.3866 50.9215 72.7547 50.9126C73.1229 50.9036 73.4304 51.1954 73.4394 51.5636Z" fill="black"/>
    <path d="M60.0683 54.7776C61.3649 52.9811 60.9597 50.4737 59.1632 49.177C57.3667 47.8804 54.8592 48.2856 53.5626 50.0821C52.266 51.8786 52.6712 54.3861 54.4677 55.6827C56.2642 56.9793 58.7716 56.5741 60.0683 54.7776Z" fill="#FE9F73"/>
    <path d="M56.1721 54.675C55.3392 54.6975 54.7668 54.0846 54.567 53.465C54.3313 52.731 54.5602 52.0059 55.1529 51.6153C56.0261 51.0406 56.841 51.3728 57.2608 51.6355C57.0767 51.1842 56.7961 50.861 56.4257 50.6702C55.6243 50.2549 54.6523 50.5983 54.6433 50.6006C54.5849 50.6208 54.5221 50.5916 54.4996 50.5332C54.4794 50.4749 54.5086 50.412 54.567 50.3896C54.6096 50.3738 55.6378 50.0102 56.5268 50.4681C57.0408 50.733 57.3978 51.2157 57.5886 51.9026L57.6963 52.2887L57.4045 52.0148C57.3641 51.9767 56.3853 51.0742 55.2764 51.8016C54.6635 52.2057 54.6253 52.9128 54.7802 53.3954C54.9419 53.8983 55.3998 54.4707 56.1676 54.4528C56.1743 54.4528 56.1833 54.4528 56.19 54.4528C56.2506 54.4528 56.3023 54.4977 56.3045 54.5605C56.3068 54.6211 56.2596 54.6728 56.1968 54.6773C56.19 54.6773 56.181 54.6773 56.1721 54.6773V54.675Z" fill="#F07162"/>
    <path d="M68.8261 56.8638C68.7789 56.8638 68.734 56.8369 68.7183 56.7897C68.6981 56.7313 68.7273 56.6685 68.7856 56.646L70.9991 55.8491L70.1573 50.6118C70.1483 50.5512 70.1887 50.4928 70.2493 50.4839C70.3099 50.4726 70.3683 50.5153 70.3773 50.5759L71.2483 55.995L68.8597 56.8548C68.8485 56.8593 68.8373 56.8615 68.8238 56.8615L68.8261 56.8638Z" fill="#F07162"/>
    <path d="M67.1543 59.0794C67.2216 59.0637 71.5632 58.8505 71.5632 58.8505C71.5632 58.8505 71.0649 60.6598 69.4508 60.7451C67.839 60.8282 67.1543 59.0817 67.1543 59.0817V59.0794Z" fill="#FBFDFC"/>
    <path d="M54.0838 49.4939C54.0838 49.4939 52.5281 41.7198 54.8426 38.7476C57.1571 35.7754 70.7475 30.3249 72.4469 31.7369C74.1485 33.1489 72.53 34.9583 72.53 34.9583C72.53 34.9583 77.994 33.0479 79.3679 37.9013C80.7417 42.7547 68.9449 45.141 61.8174 43.0376C61.8174 43.0376 57.1773 44.5215 54.0816 49.4916L54.0838 49.4939Z" fill="black"/>
    <path d="M120.721 131.403L130.365 130.886C131.292 130.837 132.067 130.094 132.076 129.164C132.087 128.145 131.238 127.346 130.237 127.4L120.533 127.919C120.299 127.932 120.099 127.752 120.086 127.519L120.061 127.065C120.05 126.852 120.198 126.666 120.407 126.625L129.283 124.975C130.197 124.805 130.866 123.968 130.756 123.045C130.635 122.035 129.69 121.35 128.704 121.534C128.704 121.534 115.033 123.323 112.873 123.429L115.486 119.114C116.13 118.398 116.072 117.294 115.354 116.651C114.638 116.007 113.533 116.066 112.891 116.784L104.464 124.21C104.392 124.291 104.336 124.394 104.291 124.518C106.852 128.011 111.461 134.718 113.827 140.768L115.369 140.633C118.532 140.357 121.72 140.658 124.775 141.522L125.543 141.74C126.506 142.014 127.512 141.419 127.725 140.425C127.921 139.516 127.33 138.62 126.437 138.368L120.874 136.795C120.699 136.745 120.575 136.59 120.566 136.409C120.553 136.141 120.786 135.928 121.049 135.966L129.501 137.181C130.469 137.32 131.218 136.635 131.167 135.659C131.115 134.682 130.28 133.769 129.31 133.629L120.692 132.39C120.492 132.361 120.34 132.195 120.328 131.993L120.322 131.849C120.308 131.616 120.488 131.416 120.721 131.403Z" fill="#FE9F73"/>
    <path d="M553.644 301.717H7.63477V303.885H553.644V301.717Z" fill="black"/>
</svg>
