<svg width="484" height="363" viewBox="0 0 484 363" fill="none" xmlns="http://www.w3.org/2000/svg">
    <g clip-path="url(#clip0_120_30298)">
        <path d="M406.28 37.9968C403.957 36.4256 401.428 35.2767 398.8 34.5531L397.837 27.8739L393.224 27.6937L388.611 27.5135L387.133 34.0997C384.458 34.6178 381.847 35.5696 379.408 36.955L374.001 32.9143L370.614 36.0483L367.226 39.1823L370.836 44.8843C369.265 47.2074 368.116 49.736 367.392 52.3632L360.712 53.3262L360.532 57.9385L360.352 62.5509L366.938 64.0292C367.457 66.7042 368.409 69.3145 369.794 71.753L365.753 77.1594L368.887 80.5468L372.022 83.9343L377.724 80.3244C380.048 81.8956 382.576 83.0445 385.204 83.7682L386.167 90.4473L390.78 90.6275L395.393 90.8077L396.871 84.2215C399.546 83.7034 402.157 82.7516 404.596 81.3663L410.003 85.407L413.391 82.2729L416.778 79.1389L413.168 73.4369C414.74 71.1138 415.888 68.5852 416.612 65.958L423.292 64.995L423.472 60.3827L423.653 55.7703L417.066 54.292C416.547 51.617 415.596 49.0067 414.21 46.5682L418.251 41.1618L415.117 37.7744L411.983 34.3869L406.28 37.9968ZM403.762 71.8656C396.744 78.3589 385.79 77.9338 379.293 70.9167C372.799 63.8997 373.224 52.9461 380.242 46.45C387.26 39.9566 398.214 40.3818 404.711 47.3989C411.205 54.4159 410.78 65.3695 403.762 71.8656Z" fill="#FECC86"/>
        <path d="M196.411 329.877C196.411 329.877 178.585 300.41 135.822 308.052C135.822 308.052 164.612 350.743 196.411 329.877Z" fill="#3F9896"/>
        <path d="M224.248 337.655C224.248 337.655 218.937 278.587 146.99 258.096C146.99 258.096 159.271 345.908 224.248 337.655Z" fill="#7FC6A6"/>
        <path d="M423.41 278.776C423.41 278.776 441.236 249.308 483.999 256.95C483.999 256.95 455.21 299.641 423.41 278.776Z" fill="#3F9896"/>
        <path d="M395.576 286.553C395.576 286.553 400.887 227.485 472.834 206.995C472.834 206.995 460.553 294.806 395.576 286.553Z" fill="#7FC6A6"/>
        <path d="M431.205 116.305H178.979V327.996H431.205V116.305Z" fill="#AEEAFF"/>
        <g style="mix-blend-mode:multiply">
            <path d="M340.093 192.817H197.661C196.783 192.817 196.07 192.104 196.07 191.226C196.07 190.347 196.783 189.635 197.661 189.635H340.093C340.972 189.635 341.684 190.347 341.684 191.226C341.684 192.104 340.972 192.817 340.093 192.817Z" fill="#D4EEF4"/>
        </g>
        <g style="mix-blend-mode:multiply">
            <path d="M340.093 202.478H197.661C196.783 202.478 196.07 201.765 196.07 200.887C196.07 200.008 196.783 199.296 197.661 199.296H340.093C340.972 199.296 341.684 200.008 341.684 200.887C341.684 201.765 340.972 202.478 340.093 202.478Z" fill="#D4EEF4"/>
        </g>
        <g style="mix-blend-mode:multiply">
            <path d="M340.093 212.139H197.661C196.783 212.139 196.07 211.427 196.07 210.548C196.07 209.67 196.783 208.957 197.661 208.957H340.093C340.972 208.957 341.684 209.67 341.684 210.548C341.684 211.427 340.972 212.139 340.093 212.139Z" fill="#D4EEF4"/>
        </g>
        <g style="mix-blend-mode:multiply">
            <path d="M340.093 231.461H197.661C196.783 231.461 196.07 230.749 196.07 229.87C196.07 228.992 196.783 228.279 197.661 228.279H340.093C340.972 228.279 341.684 228.992 341.684 229.87C341.684 230.749 340.972 231.461 340.093 231.461Z" fill="#D4EEF4"/>
        </g>
        <g style="mix-blend-mode:multiply">
            <path d="M340.093 241.122H197.661C196.783 241.122 196.07 240.41 196.07 239.531C196.07 238.653 196.783 237.94 197.661 237.94H340.093C340.972 237.94 341.684 238.653 341.684 239.531C341.684 240.41 340.972 241.122 340.093 241.122Z" fill="#D4EEF4"/>
        </g>
        <g style="mix-blend-mode:multiply">
            <path d="M340.093 250.784H197.661C196.783 250.784 196.07 250.071 196.07 249.193C196.07 248.314 196.783 247.602 197.661 247.602H340.093C340.972 247.602 341.684 248.314 341.684 249.193C341.684 250.071 340.972 250.784 340.093 250.784Z" fill="#D4EEF4"/>
        </g>
        <path d="M179.098 109.657V116.432H431.339V109.657C431.339 105.915 428.306 102.882 424.563 102.882H185.873C182.131 102.882 179.098 105.915 179.098 109.657Z" fill="#4CB7D8"/>
        <path d="M431.205 333.541V326.766H178.979V333.541C178.979 337.283 182.011 340.316 185.754 340.316H424.43C428.172 340.316 431.205 337.283 431.205 333.541Z" fill="#AEEAFF"/>
        <path d="M423.636 112.121C424.997 112.121 426.1 111.018 426.1 109.657C426.1 108.296 424.997 107.193 423.636 107.193C422.275 107.193 421.172 108.296 421.172 109.657C421.172 111.018 422.275 112.121 423.636 112.121Z" fill="#D4EEF4"/>
        <path d="M414.4 112.121C415.761 112.121 416.864 111.018 416.864 109.657C416.864 108.296 415.761 107.193 414.4 107.193C413.039 107.193 411.936 108.296 411.936 109.657C411.936 111.018 413.039 112.121 414.4 112.121Z" fill="#D4EEF4"/>
        <path d="M405.159 112.121C406.52 112.121 407.624 111.018 407.624 109.657C407.624 108.296 406.52 107.193 405.159 107.193C403.799 107.193 402.695 108.296 402.695 109.657C402.695 111.018 403.799 112.121 405.159 112.121Z" fill="#D4EEF4"/>
        <path d="M351.703 42.9499H99.4766V254.641H351.703V42.9499Z" fill="#DCF4FF"/>
        <g style="mix-blend-mode:multiply">
            <path d="M109.911 64.5135L309.695 64.5135V54.5004L109.911 54.5004V64.5135Z" fill="#D4EEF4"/>
        </g>
        <path d="M109.913 243.307L340.715 243.307V107.458L109.913 107.458L109.913 243.307Z" fill="#EBFAFC"/>
        <g style="mix-blend-mode:multiply">
            <path d="M321.349 64.3976C324.041 63.7624 325.708 61.0659 325.072 58.3748C324.437 55.6837 321.74 54.0171 319.049 54.6522C316.358 55.2874 314.691 57.9838 315.326 60.6749C315.961 63.366 318.658 65.0327 321.349 64.3976Z" fill="#D4EEF4"/>
        </g>
        <g style="mix-blend-mode:multiply">
            <path d="M340.336 61.4254C341.394 58.8708 340.181 55.9421 337.626 54.884C335.071 53.8258 332.142 55.0389 331.084 57.5935C330.026 60.1481 331.239 63.0767 333.794 64.1349C336.349 65.193 339.278 63.9799 340.336 61.4254Z" fill="#D4EEF4"/>
        </g>
        <g style="mix-blend-mode:multiply">
            <path d="M333.663 81.7661H153.402V85.207H333.663V81.7661Z" fill="#D4EEF4"/>
        </g>
        <g style="mix-blend-mode:multiply">
            <path d="M333.663 92.8773H153.402V96.3183H333.663V92.8773Z" fill="#D4EEF4"/>
        </g>
        <g style="mix-blend-mode:multiply">
            <path d="M260.591 119.459H118.159C117.281 119.459 116.568 118.746 116.568 117.868C116.568 116.989 117.281 116.277 118.159 116.277H260.591C261.47 116.277 262.182 116.989 262.182 117.868C262.182 118.746 261.47 119.459 260.591 119.459Z" fill="#D4EEF4"/>
        </g>
        <g style="mix-blend-mode:multiply">
            <path d="M260.591 129.12H118.159C117.281 129.12 116.568 128.408 116.568 127.529C116.568 126.65 117.281 125.938 118.159 125.938H260.591C261.47 125.938 262.182 126.65 262.182 127.529C262.182 128.408 261.47 129.12 260.591 129.12Z" fill="#D4EEF4"/>
        </g>
        <g style="mix-blend-mode:multiply">
            <path d="M260.591 138.781H118.159C117.281 138.781 116.568 138.069 116.568 137.19C116.568 136.312 117.281 135.599 118.159 135.599H260.591C261.47 135.599 262.182 136.312 262.182 137.19C262.182 138.069 261.47 138.781 260.591 138.781Z" fill="#D4EEF4"/>
        </g>
        <g style="mix-blend-mode:multiply">
            <path d="M260.591 158.103H118.159C117.281 158.103 116.568 157.391 116.568 156.512C116.568 155.634 117.281 154.921 118.159 154.921H260.591C261.47 154.921 262.182 155.634 262.182 156.512C262.182 157.391 261.47 158.103 260.591 158.103Z" fill="#D4EEF4"/>
        </g>
        <g style="mix-blend-mode:multiply">
            <path d="M260.591 167.764H118.159C117.281 167.764 116.568 167.052 116.568 166.173C116.568 165.295 117.281 164.582 118.159 164.582H260.591C261.47 164.582 262.182 165.295 262.182 166.173C262.182 167.052 261.47 167.764 260.591 167.764Z" fill="#D4EEF4"/>
        </g>
        <g style="mix-blend-mode:multiply">
            <path d="M260.591 177.425H118.159C117.281 177.425 116.568 176.713 116.568 175.835C116.568 174.956 117.281 174.244 118.159 174.244H260.591C261.47 174.244 262.182 174.956 262.182 175.835C262.182 176.713 261.47 177.425 260.591 177.425Z" fill="#D4EEF4"/>
        </g>
        <g style="mix-blend-mode:multiply">
            <path d="M260.591 196.748H118.159C117.281 196.748 116.568 196.035 116.568 195.157C116.568 194.278 117.281 193.566 118.159 193.566H260.591C261.47 193.566 262.182 194.278 262.182 195.157C262.182 196.035 261.47 196.748 260.591 196.748Z" fill="#D4EEF4"/>
        </g>
        <g style="mix-blend-mode:multiply">
            <path d="M260.591 206.412H118.159C117.281 206.412 116.568 205.699 116.568 204.821C116.568 203.942 117.281 203.23 118.159 203.23H260.591C261.47 203.23 262.182 203.942 262.182 204.821C262.182 205.699 261.47 206.412 260.591 206.412Z" fill="#D4EEF4"/>
        </g>
        <g style="mix-blend-mode:multiply">
            <path d="M271.398 170.684H332.061V116.28H271.398V170.684Z" fill="#D4EEF4"/>
        </g>
        <g style="mix-blend-mode:multiply">
            <path d="M271.398 206.412H332.061V184.961H271.398V206.412Z" fill="#D4EEF4"/>
        </g>
        <g style="mix-blend-mode:multiply">
            <path d="M327.814 158.103L317.493 141.045L302.243 147.55L292.038 125.941L276.67 158.103H327.814Z" fill="#D4EEF4"/>
        </g>
        <g style="mix-blend-mode:multiply">
            <path d="M312.137 134.893C314.32 133.544 314.996 130.681 313.647 128.498C312.298 126.316 309.434 125.64 307.251 126.989C305.068 128.338 304.393 131.201 305.742 133.384C307.091 135.567 309.955 136.242 312.137 134.893Z" fill="#D4EEF4"/>
        </g>
        <path d="M99.5957 36.2989V43.0738H351.837V36.2989C351.837 32.5566 348.804 29.524 345.061 29.524H106.371C102.629 29.524 99.5957 32.5566 99.5957 36.2989Z" fill="#4CB7D8"/>
        <path d="M351.703 260.183V253.408H99.4766V260.183C99.4766 263.925 102.51 266.958 106.252 266.958H344.928C348.67 266.958 351.703 263.925 351.703 260.183Z" fill="#DCF4FF"/>
        <path d="M344.136 38.7627C345.497 38.7627 346.6 37.6596 346.6 36.2989C346.6 34.9381 345.497 33.835 344.136 33.835C342.775 33.835 341.672 34.9381 341.672 36.2989C341.672 37.6596 342.775 38.7627 344.136 38.7627Z" fill="#D4EEF4"/>
        <path d="M334.898 38.7627C336.259 38.7627 337.362 37.6596 337.362 36.2989C337.362 34.9381 336.259 33.835 334.898 33.835C333.537 33.835 332.434 34.9381 332.434 36.2989C332.434 37.6596 333.537 38.7627 334.898 38.7627Z" fill="#D4EEF4"/>
        <path d="M325.657 38.7627C327.018 38.7627 328.122 37.6596 328.122 36.2989C328.122 34.9381 327.018 33.835 325.657 33.835C324.297 33.835 323.193 34.9381 323.193 36.2989C323.193 37.6596 324.297 38.7627 325.657 38.7627Z" fill="#D4EEF4"/>
        <path d="M99.9979 36.2989H99.0742V141.388H99.9979V36.2989Z" fill="black"/>
        <path d="M352.297 134.304H351.374C351.374 133.403 351.559 44.3718 351.374 36.3101C351.329 34.3278 350.664 32.7819 349.405 31.7091C346.617 29.3381 341.796 29.9745 341.745 29.983L341.681 29.9886H126.328V29.065H341.652C342.14 29.0002 346.997 28.4511 350.005 31.0079C351.475 32.2581 352.247 34.0349 352.3 36.2904C352.486 44.3634 352.3 133.406 352.3 134.304H352.297Z" fill="black"/>
        <path d="M121.429 73.1692L109.738 86.6922L110.437 87.2962L122.128 73.7732L121.429 73.1692Z" fill="black"/>
        <path d="M129.745 73.169L118.055 86.692L118.753 87.296L130.444 73.773L129.745 73.169Z" fill="black"/>
        <path d="M290.163 266.327H216.771V267.25H290.163V266.327Z" fill="black"/>
        <path d="M167.087 248.452C167.087 223.718 147.034 203.669 122.299 203.669C97.5654 203.669 77.5117 223.721 77.5117 248.452C77.5117 260.721 82.4484 271.835 90.4378 279.922C90.4378 279.922 103.992 294.415 108.568 310.214C108.568 310.214 116.394 312.873 122.299 313.019C128.205 312.873 136.031 310.214 136.031 310.214C140.607 294.418 154.161 279.922 154.161 279.922C162.153 271.832 167.087 260.718 167.087 248.452Z" fill="#FECC86"/>
        <path d="M107.357 306.644V318.62C107.357 324.018 110.686 328.636 115.403 330.542C115.876 333.927 118.774 336.531 122.289 336.531C125.803 336.531 128.701 333.924 129.174 330.542C133.891 328.636 137.22 324.018 137.22 318.62V306.644H107.357Z" fill="#4CB7D8"/>
        <g style="mix-blend-mode:multiply" opacity="0.3">
            <path d="M167.087 248.452C167.087 239.289 164.333 230.769 159.61 223.673C146.509 255.945 125.619 277.652 95.5234 286.071C99.314 291.041 104.338 298.529 107.374 306.644H137.213C142.584 292.3 154.158 279.925 154.158 279.925C162.15 271.835 167.084 260.721 167.084 248.452H167.087Z" fill="#FECC86"/>
        </g>
        <path d="M129.616 306.821L128.334 306.472C128.377 306.32 132.553 290.963 135.451 275.233C140.477 247.942 137.588 242.153 135.417 241.134C133.198 240.089 131.455 240.278 130.23 241.691C130.139 241.795 130.055 241.902 129.973 242.015C133.105 243.862 133.862 246.698 134.043 247.844C134.538 251.012 133.122 254.177 130.883 254.895C130.342 255.069 129.297 255.156 128.396 253.794C126.963 251.628 126.515 246.213 128.12 242.604C126.58 241.973 124.704 241.638 122.558 241.638H121.266C119.12 241.638 117.244 241.973 115.704 242.604C117.306 246.213 116.861 251.628 115.428 253.794C114.527 255.156 113.485 255.069 112.941 254.895C110.703 254.174 109.286 251.012 109.782 247.844C109.962 246.695 110.719 243.859 113.851 242.015C113.769 241.902 113.685 241.793 113.595 241.691C112.372 240.278 110.626 240.092 108.407 241.134C106.236 242.156 103.347 247.942 108.374 275.233C111.271 290.963 115.448 306.317 115.49 306.472L114.209 306.821C114.166 306.666 109.976 291.264 107.07 275.481C103.057 253.692 103.31 242.063 107.844 239.931C111.361 238.276 113.46 239.5 114.603 240.821C114.763 241.007 114.913 241.204 115.053 241.412C116.619 240.745 118.647 240.311 121.269 240.311H122.561C125.183 240.311 127.211 240.745 128.776 241.412C128.917 241.204 129.067 241.007 129.227 240.821C130.368 239.5 132.466 238.276 135.986 239.931C140.52 242.066 140.773 253.695 136.76 275.481C133.854 291.264 129.664 306.669 129.621 306.821H129.616ZM114.51 243.189C112.62 244.293 111.423 245.949 111.094 248.049C110.66 250.814 111.908 253.169 113.347 253.63C113.479 253.673 113.837 253.788 114.318 253.062C115.543 251.209 115.867 246.309 114.51 243.189ZM129.314 243.189C127.954 246.309 128.278 251.206 129.506 253.062C129.987 253.791 130.342 253.673 130.477 253.63C131.916 253.169 133.164 250.814 132.73 248.049C132.401 245.949 131.204 244.293 129.314 243.189Z" fill="#F99247"/>
        <path d="M107.141 306.959C106.783 305.937 106.622 305.565 106.27 304.746L106.079 304.298C100.486 291.241 90.2972 280.262 90.193 280.153L90.1621 280.119C81.7897 271.623 77.1797 260.383 77.1797 248.455C77.1797 223.577 97.422 203.34 122.3 203.34C137.574 203.34 151.697 210.979 160.075 223.774L159.521 224.137C151.266 211.531 137.352 204.004 122.3 204.004C97.7853 204.004 77.8443 223.946 77.8443 248.455C77.8443 260.225 82.4008 271.317 90.6746 279.691L91.1083 280.13L91.0773 280.136C93.0289 282.315 101.686 292.348 106.69 304.036L106.881 304.481C107.242 305.315 107.405 305.695 107.769 306.74L107.141 306.959Z" fill="#21111D"/>
        <path d="M91.0173 227.778L90.3809 227.592C90.4118 227.483 93.7236 216.459 104.867 212.314L105.098 212.936C94.2784 216.96 91.0511 227.668 91.0173 227.775V227.778Z" fill="#21111D"/>
        <path d="M93.072 231.763L92.4355 231.577C92.4665 231.467 95.7783 220.443 106.922 216.298L107.153 216.92C96.3303 220.944 93.1058 231.653 93.072 231.76V231.763Z" fill="#21111D"/>
        <path d="M123.917 331.809H120.661C113.142 331.809 107.025 325.693 107.025 318.175V306.314H137.22V306.979H107.69V318.175C107.69 325.327 113.508 331.144 120.661 331.144H123.917C127.341 331.144 130.571 329.821 133.013 327.422L133.477 327.895C130.912 330.418 127.516 331.809 123.917 331.809Z" fill="#21111D"/>
        <path d="M122.479 336.866C116.008 336.866 115.073 330.59 115.064 330.525L115.723 330.435C115.757 330.677 116.622 336.34 122.696 336.199L122.71 336.863C122.631 336.863 122.555 336.863 122.479 336.863V336.866Z" fill="#21111D"/>
        <path d="M153.012 273.524L152.615 272.989C158.526 268.605 159.456 261.284 159.467 261.208L160.126 261.287C160.117 261.363 159.16 268.962 153.012 273.521V273.524Z" fill="#21111D"/>
        <path d="M151.704 270.334L151.307 269.799C155.615 266.603 156.294 261.264 156.302 261.211L156.961 261.289C156.933 261.52 156.246 266.963 151.701 270.334H151.704Z" fill="#21111D"/>
        <path d="M105.985 312.616L105.977 311.952C106.23 311.949 131.409 311.622 139.382 308.652L139.612 309.274C131.53 312.287 107.021 312.605 105.982 312.616H105.985Z" fill="#21111D"/>
        <path d="M105.988 318.225L105.977 317.561C106.253 317.555 133.575 317.015 138.683 314.278L138.999 314.863C133.749 317.674 107.12 318.203 105.991 318.225H105.988Z" fill="#21111D"/>
        <path d="M107.361 323.984L107.355 323.319C107.603 323.319 132.121 323.057 138.688 319.664L138.992 320.256C132.284 323.722 108.375 323.975 107.358 323.984H107.361Z" fill="#21111D"/>
        <g opacity="0.5">
            <path d="M204.415 252.034C202.846 254.467 197.445 253.777 192.351 250.493C187.256 247.21 184.398 242.578 185.964 240.145C187.532 237.712 192.934 238.402 198.028 241.686C203.122 244.969 205.981 249.601 204.415 252.034Z" fill="#F3FFFE"/>
        </g>
        <path d="M424.717 340.777H243.533V339.851H424.146L430.744 326.656L430.876 112.121H431.8L431.668 326.873L424.717 340.777Z" fill="black"/>
        <path d="M345.487 245.861L355.045 238.946L355.673 238.492L365.231 231.577L451.374 334.701C453.796 337.601 453.255 341.946 450.191 344.162L425.865 361.761C422.804 363.977 418.504 363.132 416.507 359.925L345.484 245.861H345.487Z" fill="#FF424D"/>
        <path d="M369.107 232.284L345.108 249.648C343.915 250.511 342.243 250.243 341.38 249.05L332.949 237.4L361.273 216.906L369.704 228.556C370.568 229.749 370.3 231.42 369.107 232.284Z" fill="#F99247"/>
        <path d="M351.728 245.563L367.146 234.407C369.866 232.438 370.48 228.62 368.512 225.9L361.747 216.551L360.807 217.233L367.571 226.581C369.165 228.783 368.669 231.872 366.467 233.466L351.049 244.622L351.73 245.563H351.728Z" fill="#21111D"/>
        <g style="mix-blend-mode:multiply">
            <path d="M354.542 219.707C379.496 194.756 379.496 154.302 354.542 129.351C329.589 104.4 289.131 104.4 264.177 129.351C239.223 154.302 239.223 194.756 264.177 219.707C289.131 244.658 329.589 244.658 354.542 219.707Z" fill="#D4EEF4"/>
        </g>
        <g opacity="0.6">
            <path d="M281.169 169.048C283.268 155.961 279.902 144.539 273.652 143.537C267.402 142.535 260.633 152.332 258.535 165.419C256.436 178.506 259.801 189.928 266.051 190.93C272.302 191.932 279.07 182.135 281.169 169.048Z" fill="#F3FFFE"/>
        </g>
        <path d="M367.27 233.531L366.379 234.278L452.066 336.457L452.957 335.71L367.27 233.531Z" fill="#21111D"/>
        <path d="M318.407 119.954L318.737 118.839C318.596 118.797 304.606 114.785 291.82 120.408L292.288 121.472C304.676 116.024 318.272 119.915 318.407 119.954Z" fill="#21111D"/>
        <path d="M319.65 127.878L319.979 126.763C319.838 126.721 305.848 122.708 293.062 128.331L293.53 129.396C305.918 123.947 319.514 127.839 319.652 127.878H319.65Z" fill="#21111D"/>
        <path d="M346.817 226.291C318.228 246.977 278.281 240.57 257.594 211.981C236.906 183.395 243.313 143.452 271.905 122.767C300.494 102.082 340.441 108.488 361.129 137.077C381.816 165.664 375.409 205.606 346.817 226.291ZM369.36 131.122C345.384 97.9881 299.084 90.5628 265.946 114.537C232.809 138.511 225.383 184.806 249.359 217.94C273.336 251.074 319.636 258.499 352.773 234.525C385.911 210.551 393.337 164.256 369.36 131.122Z" fill="#49263E"/>
        <path d="M353.115 234.992C386.458 210.869 393.957 164.118 369.831 130.778C345.705 97.439 298.949 89.9405 265.606 114.064C249.974 125.372 239.444 142.047 235.955 161.012L237.098 161.223C240.534 142.551 250.9 126.138 266.288 115.004C299.112 91.2555 345.139 98.6386 368.891 131.46C392.642 164.281 385.258 210.303 352.433 234.052C337.198 245.076 318.541 249.812 299.901 247.388L299.752 248.539C318.687 251 337.637 246.191 353.115 234.992Z" fill="#21111D"/>
        <path d="M268.632 290.535L249.166 302.617L249.653 303.402L269.12 291.319L268.632 290.535Z" fill="black"/>
        <path d="M281.408 291.702L261.941 303.784L262.429 304.569L281.895 292.486L281.408 291.702Z" fill="black"/>
        <path d="M22.0632 3.79188L3.1543 22.7914L165.728 184.555L184.637 165.556L22.0632 3.79188Z" fill="#FEC786"/>
        <path d="M16.245 9.63801L8.97266 16.9452L171.546 178.709L178.819 171.402L16.245 9.63801Z" fill="#F99247"/>
        <path d="M34.2858 15.9525L15.377 34.9519L20.1618 39.7129L39.0706 20.7134L34.2858 15.9525Z" fill="#4CB7D8"/>
        <path d="M3.9034 4.63203C-1.31771 9.87792 -1.29518 18.3648 3.95127 23.5854L15.3763 34.9529L34.281 15.9517L22.856 4.58416C17.6095 -0.636389 9.1245 -0.613861 3.9034 4.63203Z" fill="#FC4963"/>
        <path d="M199.234 198.969L165.733 184.544C164.147 182.967 164.164 180.379 165.77 178.763C167.375 177.15 169.963 177.119 171.548 178.695C169.963 177.119 170.306 174.204 172.314 172.185C174.322 170.166 177.237 169.811 178.822 171.388C177.237 169.811 177.254 167.224 178.859 165.607C180.464 163.994 183.052 163.963 184.638 165.54L199.231 198.964L199.234 198.969Z" fill="#F7D6B2"/>
        <path d="M165.732 184.544C165.732 184.544 166.514 178.78 171.55 178.698L168.162 175.328L162.344 181.173L165.732 184.544Z" fill="#FEC786"/>
        <path d="M178.821 171.391C178.821 171.391 179.604 165.627 184.64 165.545L181.252 162.175L175.434 168.021L178.821 171.391Z" fill="#FEC786"/>
        <path d="M171.551 178.698C171.551 178.698 171.515 172.36 178.823 171.391L175.131 167.716L167.859 175.024L171.551 178.698Z" fill="#F99247"/>
        <path d="M188.107 194.177C188.107 194.177 188.719 189.038 194.387 187.867L199.234 198.969L188.107 194.177Z" fill="#FF424D"/>
        <path d="M3.58008 4.30823C8.6125 -0.701135 13.6844 -0.444894 17.0553 0.656095C20.6768 1.83593 23.0762 4.1618 23.1775 4.26036L185.023 165.281L185.057 165.36L200.115 199.842L178.541 190.553L178.901 189.714L198.355 198.091L184.257 165.805L22.5355 4.908C22.5157 4.88829 20.1671 2.62155 16.7427 1.51211C12.2031 0.0450602 7.99296 1.20237 4.22497 4.95587L3.58008 4.30823Z" fill="black"/>
        <path d="M40.3502 59.1558L39.707 59.803L133.328 152.828L133.971 152.181L40.3502 59.1558Z" fill="black"/>
        <path d="M37.8121 37.9314L36.9316 38.1708L39.5974 47.9744L40.4778 47.7351L37.8121 37.9314Z" fill="black"/>
        <path d="M10.5602 14.8025L9.67969 15.0418L11.1943 20.6121L12.0748 20.3727L10.5602 14.8025Z" fill="black"/>
        <path d="M6.51718 11.7949L5.63672 12.0342L7.15133 17.6045L8.03179 17.3651L6.51718 11.7949Z" fill="black"/>
        <path d="M32.9644 35.6284L32.084 35.8678L34.7497 45.6714L35.6302 45.4321L32.9644 35.6284Z" fill="black"/>
        <path d="M33.9596 15.6285L15.0176 34.5949L15.6632 35.2396L34.6052 16.2732L33.9596 15.6285Z" fill="black"/>
    </g>
    <defs>
        <clipPath id="clip0_120_30298">
            <rect width="484" height="363" fill="white"/>
        </clipPath>
    </defs>
</svg>
