<svg width="8" height="11" viewBox="0 0 8 11" fill="none" xmlns="http://www.w3.org/2000/svg">
    <path d="M7 0C7.26522 0 7.51957 0.115892 7.70711 0.322183C7.89464 0.528472 8 0.808262 8 1.1V9.9C8 10.1917 7.89464 10.4715 7.70711 10.6778C7.51957 10.8841 7.26522 11 7 11H1C0.734784 11 0.48043 10.8841 0.292893 10.6778C0.105357 10.4715 0 10.1917 0 9.9V1.1C0 0.808262 0.105357 0.528472 0.292893 0.322183C0.48043 0.115892 0.734784 0 1 0H7ZM7 1.1H4.5V5.5L3.25 4.2625L2 5.5V1.1H1V9.9H7V1.1Z" fill="black"/>
</svg>
