<svg width="657" height="268" viewBox="0 0 657 268" fill="none" xmlns="http://www.w3.org/2000/svg">
    <path d="M599.448 142.836C598.403 139.95 596.901 137.309 595.042 134.975L598.484 128.443L594.518 125.318L590.551 122.193L585.006 127.069C582.305 125.807 579.384 124.97 576.335 124.626L574.151 117.57L569.135 118.167L564.119 118.764L563.648 126.137C560.763 127.182 558.121 128.683 555.787 130.542L549.256 127.1L546.131 131.067L543.005 135.033L547.881 140.579C546.619 143.279 545.782 146.201 545.439 149.249L538.383 151.434L538.98 156.45L539.577 161.466L546.949 161.936C547.994 164.822 549.496 167.463 551.355 169.797L547.913 176.328L551.879 179.454L555.846 182.579L561.391 177.703C564.091 178.965 567.013 179.802 570.062 180.146L572.246 187.201L577.262 186.604L582.278 186.007L582.749 178.635C585.634 177.59 588.276 176.089 590.61 174.23L597.141 177.672L600.266 173.705L603.392 169.738L598.516 164.193C599.778 161.493 600.614 158.571 600.958 155.523L608.014 153.338L607.417 148.322L606.82 143.306L599.448 142.836ZM575.435 171.199C565.046 172.434 555.624 165.012 554.39 154.622C553.155 144.233 560.577 134.812 570.966 133.577C581.356 132.342 590.777 139.764 592.012 150.154C593.247 160.543 585.824 169.964 575.435 171.199Z" fill="#4CB7D8"/>
    <path d="M577.268 186.889C577.123 186.889 577.001 186.781 576.983 186.636C576.965 186.478 577.078 186.333 577.236 186.315L582.012 185.745L582.483 178.427L582.659 178.364C585.482 177.341 588.096 175.871 590.439 174.003L590.588 173.886L597.074 177.305L603.026 169.747L598.182 164.243L598.263 164.071C599.53 161.357 600.344 158.472 600.679 155.486C600.697 155.328 600.837 155.215 600.995 155.233C601.154 155.251 601.267 155.391 601.249 155.55C600.914 158.53 600.113 161.421 598.86 164.139L603.772 169.725L597.228 178.033L590.647 174.569C588.345 176.383 585.784 177.816 583.03 178.839L582.555 186.261L577.304 186.885C577.304 186.885 577.281 186.885 577.268 186.885V186.889ZM555.861 182.954L551.704 179.68C551.577 179.58 551.559 179.399 551.654 179.277C551.754 179.155 551.935 179.133 552.057 179.227L555.833 182.204L561.338 177.36L561.51 177.441C564.224 178.707 567.109 179.521 570.094 179.856C570.253 179.874 570.366 180.015 570.348 180.173C570.329 180.331 570.189 180.444 570.031 180.426C567.05 180.091 564.16 179.291 561.442 178.038L555.856 182.95L555.861 182.954ZM551.36 170.087C551.274 170.087 551.193 170.05 551.134 169.978C549.266 167.64 547.791 165.025 546.747 162.217L539.325 161.742L538.076 151.235L545.182 149.032C545.53 146.115 546.322 143.292 547.547 140.628L542.635 135.047L549.18 126.738L555.761 130.203C558.063 128.389 560.623 126.955 563.378 125.933L563.853 118.511L569.104 117.887C569.262 117.864 569.407 117.982 569.425 118.14C569.443 118.298 569.33 118.443 569.172 118.461L564.395 119.027L563.929 126.345L563.753 126.408C560.931 127.43 558.317 128.9 555.974 130.768L555.824 130.886L549.338 127.467L543.386 135.024L548.23 140.529L548.149 140.701C546.882 143.415 546.068 146.3 545.734 149.285L545.711 149.471L538.705 151.642L539.84 161.194L547.158 161.66L547.222 161.837C548.244 164.659 549.714 167.273 551.582 169.612C551.681 169.734 551.659 169.919 551.537 170.014C551.482 170.055 551.419 170.078 551.356 170.078L551.36 170.087ZM554.391 154.912C554.246 154.912 554.124 154.803 554.106 154.659C552.853 144.129 560.402 134.545 570.931 133.292C576.033 132.686 581.063 134.102 585.102 137.281C589.136 140.461 591.691 145.02 592.302 150.122C592.32 150.28 592.207 150.425 592.049 150.443C591.89 150.461 591.746 150.348 591.728 150.19C591.14 145.242 588.661 140.818 584.744 137.734C580.827 134.649 575.947 133.274 570.999 133.867C560.786 135.079 553.463 144.378 554.675 154.595C554.694 154.754 554.58 154.898 554.422 154.916C554.409 154.916 554.4 154.916 554.386 154.916L554.391 154.912ZM607.413 148.611C607.269 148.611 607.147 148.503 607.128 148.358L606.559 143.582L599.24 143.116L599.177 142.94C598.155 140.117 596.685 137.503 594.817 135.16L594.699 135.011L598.119 128.525L590.561 122.573L585.056 127.417L584.884 127.335C582.171 126.069 579.285 125.255 576.3 124.92C576.142 124.902 576.028 124.762 576.047 124.603C576.065 124.445 576.205 124.332 576.363 124.35C579.344 124.685 582.234 125.485 584.952 126.738L590.534 121.826L598.842 128.371L595.378 134.952C597.191 137.254 598.625 139.814 599.647 142.569L607.07 143.044L607.694 148.295C607.712 148.453 607.599 148.598 607.44 148.616C607.427 148.616 607.418 148.616 607.404 148.616L607.413 148.611Z" fill="black"/>
    <path d="M456.036 51.5982C456.036 51.5982 446.846 36.4055 424.801 40.345C424.801 40.345 439.641 62.3538 456.036 51.5982Z" fill="#3F9896"/>
    <path d="M470.388 55.6055C470.388 55.6055 467.652 25.1523 430.559 14.5866C430.559 14.5866 436.891 59.8616 470.388 55.6055Z" fill="#7FC6A6"/>
    <path d="M546.302 89.3017C547.085 83.6841 546.922 78.0666 545.891 72.6526L557.162 64.95L553.376 56.4196L549.59 47.8893L536.315 51.0735C532.991 46.6771 528.939 42.7874 524.253 39.5942L526.777 26.1745L518.065 22.8184L509.354 19.4624L502.217 31.1C496.599 30.3175 490.982 30.4803 485.568 31.5116L477.865 20.2403L469.335 24.0261L460.804 27.8118L463.984 41.0867C459.588 44.4111 455.698 48.4637 452.505 53.1495L439.085 50.6257L435.729 59.3369L432.373 68.0482L444.011 75.1854C443.228 80.803 443.391 86.4205 444.422 91.8345L433.151 99.5372L436.937 108.067L440.722 116.598L453.997 113.418C457.322 117.815 461.374 121.704 466.06 124.897L463.536 138.317L472.248 141.673L480.959 145.029L488.096 133.392C493.714 134.174 499.331 134.011 504.745 132.98L512.448 144.251L520.978 140.466L529.508 136.68L526.329 123.405C530.725 120.081 534.615 116.028 537.808 111.342L551.228 113.866L554.584 105.155L557.94 96.4434L546.302 89.3062V89.3017ZM499.259 117.014C480.054 119.28 462.645 105.544 460.384 86.3391C458.118 67.1346 471.854 49.7256 491.059 47.4641C510.263 45.1981 527.672 58.9344 529.934 78.139C532.2 97.3435 518.463 114.752 499.259 117.014Z" fill="#F7AB48"/>
    <path d="M481.072 145.378L463.206 138.489L465.739 125.02C461.144 121.867 457.118 118.018 453.762 113.581C453.667 113.454 453.69 113.273 453.816 113.178C453.943 113.083 454.124 113.106 454.219 113.233C457.57 117.67 461.609 121.51 466.214 124.649L466.368 124.753L463.853 138.118L480.823 144.663L487.933 133.071L488.119 133.098C493.641 133.867 499.209 133.726 504.673 132.691C504.831 132.663 504.98 132.763 505.007 132.921C505.039 133.08 504.935 133.229 504.777 133.256C499.313 134.292 493.745 134.441 488.223 133.695L481.058 145.378H481.072ZM520.974 140.746C520.865 140.746 520.756 140.683 520.711 140.574C520.648 140.429 520.711 140.258 520.856 140.194L529.169 136.508L525.999 123.283L526.148 123.17C530.585 119.818 534.425 115.779 537.564 111.175L537.668 111.021L551.033 113.531L557.578 96.561L545.986 89.4509L546.013 89.2655C546.782 83.7429 546.641 78.1751 545.606 72.7114L545.57 72.5259L556.795 64.8504L549.323 48.0069C549.26 47.8621 549.324 47.6903 549.468 47.6269C549.613 47.5636 549.785 47.6269 549.848 47.7717L557.515 65.054L546.203 72.7883C547.207 78.1932 547.342 83.6977 546.605 89.1569L558.288 96.3213L551.4 114.187L537.93 111.654C534.814 116.195 531.015 120.185 526.641 123.518L529.834 136.843L521.082 140.723C521.046 140.741 521.005 140.746 520.964 140.746H520.974ZM436.932 108.343C436.823 108.343 436.715 108.28 436.67 108.172L432.789 99.4195L444.101 91.6853C443.097 86.2803 442.961 80.7758 443.698 75.3166L432.016 68.1522L438.904 50.2865L452.374 52.8193C455.49 48.2783 459.289 44.289 463.663 40.9555L460.47 27.6309L469.222 23.7502C469.366 23.6868 469.538 23.7502 469.601 23.8949C469.665 24.0396 469.602 24.2115 469.457 24.2748L461.144 27.961L464.314 41.1862L464.165 41.2993C459.728 44.6508 455.888 48.6899 452.749 53.2942L452.645 53.448L439.28 50.9332L432.735 67.9035L444.327 75.0136L444.3 75.199C443.531 80.7216 443.671 86.2893 444.707 91.7531L444.743 91.9386L433.517 99.614L437.203 107.927C437.267 108.072 437.203 108.244 437.059 108.307C437.023 108.325 436.982 108.33 436.941 108.33L436.932 108.343ZM460.375 86.6241C460.23 86.6241 460.108 86.5155 460.09 86.3708C457.81 67.035 471.687 49.4542 491.018 47.1746C500.38 46.071 509.616 48.6808 517.02 54.52C524.425 60.3637 529.11 68.7357 530.214 78.1028C530.232 78.2611 530.119 78.4058 529.961 78.4239C529.802 78.442 529.658 78.3289 529.639 78.1706C528.554 68.9573 523.945 60.721 516.663 54.9723C509.381 49.2281 500.294 46.659 491.086 47.7445C472.067 49.9879 458.421 67.2838 460.664 86.3029C460.682 86.4612 460.569 86.606 460.411 86.6241C460.397 86.6241 460.388 86.6241 460.375 86.6241ZM524.248 39.8746C524.248 39.8746 524.212 39.8746 524.194 39.8701C524.036 39.8429 523.936 39.6891 523.963 39.5354L526.442 26.3554L509.472 19.8106L502.361 31.403L502.176 31.3759C496.653 30.607 491.086 30.7472 485.622 31.783C485.468 31.8146 485.314 31.7106 485.287 31.5523C485.256 31.394 485.36 31.2447 485.518 31.2176C490.982 30.1818 496.549 30.0326 502.072 30.7789L509.236 19.096L527.102 25.9845L524.533 39.6394C524.506 39.7796 524.388 39.8746 524.248 39.8746Z" fill="black"/>
    <path d="M641.34 83.1459C639.92 81.6262 638.283 80.3733 636.501 79.4145L636.912 74.4256L633.606 73.5301L630.3 72.6345L628.138 77.153C626.116 77.0851 624.071 77.3384 622.077 77.9354L618.838 74.118L615.871 75.8232L612.9 77.5284L614.564 82.2504C613.044 83.6706 611.792 85.3079 610.833 87.0899L605.844 86.6784L604.948 89.9847L604.053 93.2909L608.571 95.4529C608.503 97.4747 608.757 99.5191 609.354 101.514L605.536 104.752L607.241 107.719L608.947 110.691L613.669 109.026C615.089 110.546 616.726 111.799 618.508 112.758L618.097 117.747L621.403 118.642L624.709 119.538L626.871 115.019C628.893 115.087 630.937 114.834 632.932 114.237L636.17 118.054L639.138 116.349L642.109 114.644L640.445 109.922C641.964 108.502 643.217 106.864 644.176 105.082L649.165 105.494L650.06 102.188L650.956 98.8813L646.438 96.7194C646.505 94.6976 646.252 92.6532 645.655 90.6586L649.473 87.4201L647.767 84.4485L646.062 81.4815L641.34 83.1459ZM633.904 107.222C627.753 110.754 619.901 108.628 616.369 102.477C612.836 96.3259 614.962 88.474 621.113 84.9415C627.265 81.4091 635.117 83.5349 638.649 89.6861C642.181 95.8374 640.056 103.689 633.904 107.222Z" fill="#FD7583"/>
    <path d="M537.432 114.162L533.816 118.426L589.545 165.67L593.16 161.406L537.432 114.162Z" fill="#FF424D"/>
    <path d="M530.459 112.808C527.904 115.87 524.096 127.941 527.158 130.501C530.22 133.057 538.994 125.128 541.554 122.066C544.11 119.004 543.698 114.445 540.636 111.889C537.574 109.334 533.015 109.745 530.459 112.808Z" fill="#FECC86"/>
    <path d="M528.678 131.18C528.054 131.18 527.497 131.017 527.045 130.642L527.276 130.366C528.854 131.682 532.043 129.941 534.445 128.244C537.195 126.3 540.035 123.608 541.419 121.953C543.907 118.972 543.504 114.522 540.523 112.03L540.754 111.754C543.889 114.368 544.309 119.049 541.695 122.184C540.297 123.857 537.43 126.58 534.653 128.538C532.798 129.85 530.473 131.18 528.682 131.18H528.678Z" fill="black"/>
    <path d="M541.992 242.807H533.783C532.621 242.807 531.68 243.748 531.68 244.91H544.095C544.095 243.748 543.155 242.807 541.992 242.807Z" fill="#FF424D"/>
    <path d="M509.423 137.028C505.746 141.433 506.338 147.987 510.743 151.664C515.149 155.342 521.703 154.749 525.38 150.344C529.057 145.938 528.464 139.385 524.059 135.707C519.654 132.03 513.1 132.623 509.423 137.028Z" fill="#FDFFDC"/>
    <path d="M536.714 120.546C549.496 131.212 551.211 150.222 540.545 162.999L494.262 124.373C504.927 111.591 523.937 109.877 536.714 120.542V120.546Z" fill="#49263E"/>
    <path d="M588.065 165.355L560.865 245.714L566.161 247.506L593.36 167.147L588.065 165.355Z" fill="#FF424D"/>
    <path d="M532.178 244.408H574.789C580.416 244.408 584.979 248.967 584.979 254.598V255.688H520.902C520.902 249.46 525.95 244.413 532.178 244.413V244.408Z" fill="#49263E"/>
    <path d="M494.261 124.377L540.545 162.999L538.166 165.365L492.275 126.431L494.261 124.377Z" fill="#FF424D"/>
    <path d="M502.01 134.929L492.027 126.458L492.127 126.322C492.199 126.223 499.441 116.566 510.232 114.223C521.454 111.781 528.207 115.178 531.45 116.806C535.217 118.701 540.943 123.622 542.974 127.376L542.658 127.548C540.658 123.853 535.009 118.999 531.287 117.127C528.08 115.512 521.404 112.161 510.309 114.571C500.35 116.738 493.434 125.228 492.52 126.399L502.245 134.649L502.01 134.925V134.929Z" fill="black"/>
    <path d="M494.328 124.164L494.096 124.442L540.383 163.062L540.614 162.784L494.328 124.164Z" fill="black"/>
    <path d="M540.055 141.379H539.693V145.441H540.055V141.379Z" fill="black"/>
    <path d="M538.239 142.555H537.877V147.042H538.239V142.555Z" fill="black"/>
    <path d="M543.308 118.899L543.074 119.175L589.833 158.815L590.067 158.539L543.308 118.899Z" fill="black"/>
    <path d="M552.541 134.062L552.307 134.338L570.892 150.094L571.126 149.818L552.541 134.062Z" fill="black"/>
    <path d="M593.226 167.124L567.105 244.382L567.448 244.498L593.568 167.24L593.226 167.124Z" fill="black"/>
    <path d="M584.368 175.993L569.105 221.031L569.448 221.148L584.711 176.109L584.368 175.993Z" fill="black"/>
    <path d="M526.229 246.312L525.967 246.068C526.048 245.977 528.079 243.897 535.809 244.232C543.453 244.566 574.245 244.232 574.557 244.232V244.593C574.25 244.593 543.448 244.928 535.795 244.593C528.274 244.263 526.252 246.294 526.234 246.317L526.229 246.312Z" fill="black"/>
    <path d="M576.305 247.607L576.1 247.905L578.664 249.668L578.869 249.37L576.305 247.607Z" fill="black"/>
    <path d="M576.678 249.573L576.486 249.88L578.623 251.215L578.815 250.908L576.678 249.573Z" fill="black"/>
    <path d="M587.906 159.593C585.491 161.253 584.876 164.555 586.531 166.975C588.191 169.39 591.493 170.005 593.912 168.345C596.328 166.685 596.943 163.383 595.283 160.964C593.623 158.548 590.321 157.933 587.901 159.593H587.906Z" fill="#FECC86"/>
    <path d="M368.558 68.0527C368.558 68.0527 362.57 57.2428 374.578 46.659C386.591 36.0752 390.128 51.8966 395.244 52.9369C400.364 53.9772 409.21 51.3765 413.372 60.3953C417.533 69.4141 416.253 76.4202 421.631 77.4152C427.008 78.4148 445.394 90.2514 442.445 108.117C439.496 125.983 422.39 126.485 422.39 126.485C422.39 126.485 355.794 135.006 349.806 118.004C343.817 101.003 349.638 92.9336 357.621 86.3436C362.529 82.2955 372.746 78.4103 368.553 68.0481L368.558 68.0527Z" fill="#FECC86"/>
    <path d="M491.168 172.665H491.435C491.435 172.665 488.264 153.777 485.18 147.386C473.144 122.451 449.068 121.523 449.068 121.523C427.286 117.724 386.018 119.877 386.018 119.877C386.018 119.877 352.218 120.216 332.837 123.274C327.106 124.178 319.101 129.556 317.178 132.912L315.966 133.283C315.966 133.283 314.971 135.056 314.483 135.965L244.395 262.59H412.979L435.477 264.481C477.5 265.218 490.811 255.611 495.732 252.346C505.547 245.828 496.347 200.39 491.164 172.669L491.168 172.665ZM314.686 241.093L340.444 190.476L341.883 190.983L343.384 193.592L342.308 235.398C342.308 235.398 351.34 237.194 359.649 238.374L357.89 250.012L314.686 241.093Z" fill="#258D8C"/>
    <path d="M382.698 85.6253C383.187 81.1557 380.44 77.188 376.561 76.7632C372.683 76.3384 369.141 79.6174 368.652 84.087C368.162 88.5566 370.91 92.5243 374.789 92.9491C378.667 93.3739 382.208 90.0949 382.698 85.6253Z" fill="#3E8EDD"/>
    <path d="M375.945 72.9058C375.945 72.9058 372.331 97.1626 376.406 102.54C376.406 102.54 378.4 105.403 383.172 105.489V120.668H404.593V70.8705L375.945 72.9058Z" fill="#FE9F73"/>
    <path d="M382.941 91.9521C383.031 91.9521 383.113 91.8888 383.131 91.7983C383.153 91.6943 383.086 91.5903 382.982 91.5676C381.724 91.2963 380.933 89.7494 380.707 89.2474C382.493 88.293 383.579 87.0537 383.945 85.5611C384.537 83.1278 382.995 80.9251 382.927 80.8346C382.864 80.7487 382.742 80.7261 382.656 80.7894C382.57 80.8527 382.547 80.9748 382.611 81.0608C382.624 81.0834 384.117 83.2137 383.565 85.4707C383.217 86.8909 382.14 88.0759 380.367 88.985L380.209 89.0664L380.272 89.2293C380.308 89.3243 381.195 91.5857 382.9 91.9521C382.914 91.9521 382.927 91.9521 382.941 91.9521Z" fill="#F07162"/>
    <path d="M383.172 111.595V105.489C383.172 105.489 393.493 104.883 399.826 100.894C399.826 100.894 391.232 109.157 383.172 111.595Z" fill="#F07162"/>
    <path d="M394.9 81.6623C394.999 81.6623 395.094 81.6261 395.171 81.5538C395.325 81.4045 395.33 81.1557 395.18 81.002C395.131 80.9522 390.128 75.8322 385.555 79.5184C385.388 79.6541 385.361 79.8984 385.497 80.0657C385.632 80.2331 385.877 80.2602 386.044 80.1245C390.06 76.8906 394.434 81.3502 394.615 81.5402C394.692 81.6216 394.796 81.6623 394.895 81.6623H394.9Z" fill="#FECC86"/>
    <path d="M381.332 80.812C381.441 80.812 381.549 80.7668 381.626 80.6763C381.767 80.5135 381.749 80.2693 381.586 80.1245C381.441 79.9979 377.963 77.0263 375.76 78.9169C375.597 79.0571 375.579 79.3013 375.719 79.4687C375.86 79.6315 376.104 79.6541 376.271 79.5094C377.963 78.0575 381.047 80.6899 381.075 80.717C381.147 80.7803 381.237 80.812 381.328 80.812H381.332Z" fill="#FECC86"/>
    <path d="M387.094 83.8379C387.094 84.4394 387.582 84.9234 388.179 84.9234C388.776 84.9234 389.265 84.4349 389.265 83.8379C389.265 83.2408 388.776 82.7524 388.179 82.7524C387.582 82.7524 387.094 83.2408 387.094 83.8379Z" fill="black"/>
    <path d="M376.867 83.8379C376.867 84.4394 377.356 84.9234 377.953 84.9234C378.55 84.9234 379.038 84.4349 379.038 83.8379C379.038 83.2408 378.55 82.7524 377.953 82.7524C377.356 82.7524 376.867 83.2408 376.867 83.8379Z" fill="black"/>
    <path d="M406.916 94.5744C410.271 94.2973 412.767 91.3523 412.49 87.9964C412.213 84.6406 409.268 82.1447 405.912 82.4218C402.556 82.6989 400.061 85.644 400.338 88.9998C400.615 92.3557 403.56 94.8515 406.916 94.5744Z" fill="#FE9F73"/>
    <path d="M406.867 92.2506C408.147 92.2506 409.002 91.2918 409.283 90.3284C409.617 89.1931 409.233 88.0895 408.31 87.5151C406.994 86.7009 405.8 87.1758 405.149 87.5829C405.411 86.9361 405.809 86.4612 406.343 86.1672C407.537 85.5114 409.011 85.9908 409.025 85.9953C409.129 86.027 409.238 85.9727 409.274 85.8732C409.31 85.7692 409.251 85.6606 409.152 85.6245C409.084 85.6018 407.501 85.0862 406.157 85.8235C405.384 86.2486 404.855 86.9994 404.588 88.0623L404.416 88.7408L404.914 88.2478C404.972 88.189 406.411 86.7914 408.107 87.8453C409.043 88.4242 409.124 89.4871 408.912 90.2198C408.686 90.9887 408.012 91.8752 406.84 91.8617C406.736 91.8617 406.646 91.9476 406.641 92.0561C406.641 92.1647 406.727 92.2506 406.836 92.2552C406.849 92.2552 406.858 92.2552 406.872 92.2552L406.867 92.2506Z" fill="#F07162"/>
    <path d="M343.1 234.516L343.883 193.072L343.742 192.91C336.569 184.519 334.678 175.776 338.116 166.93C340.694 160.29 345.47 156.065 345.52 156.025L344.778 155.179C344.575 155.355 339.767 159.598 337.08 166.486C334.601 172.832 333.588 182.656 342.747 193.484L341.974 234.503L343.1 234.525V234.516Z" fill="#21111D"/>
    <path d="M318.353 263.174C320.063 262.541 331.126 263.156 335.201 263.649C335.215 263.631 335.224 263.622 335.224 263.622L355.758 266.562L354.623 240.297C354.623 240.297 330.443 237.226 326.897 237.09C323.346 236.95 311.279 240.441 307.543 243.399C300.768 248.764 304.852 249.243 304.852 249.243C298.334 255.476 305.051 255.449 305.051 255.449C298.723 260.523 305.051 261.718 305.051 261.718C301.935 264.789 302.554 266.317 303.613 267.059C304.386 267.602 305.386 267.706 306.281 267.403C308.371 266.702 313.613 264.924 318.353 263.169V263.174Z" fill="#FE9F73"/>
    <path d="M312.714 257.371C312.895 257.366 313.067 257.475 313.13 257.651C313.211 257.873 313.094 258.117 312.872 258.199C309.76 259.316 305.323 262.052 305.278 262.079C305.079 262.201 304.817 262.143 304.69 261.939C304.568 261.74 304.627 261.473 304.83 261.351C305.016 261.238 309.39 258.542 312.587 257.394C312.633 257.38 312.673 257.371 312.719 257.366L312.714 257.371Z" fill="#F07162"/>
    <path d="M312.537 251.966C312.74 251.961 312.921 252.097 312.966 252.301C313.016 252.531 312.871 252.757 312.641 252.807C308.71 253.671 305.309 255.788 305.273 255.806C305.074 255.933 304.807 255.869 304.685 255.67C304.558 255.471 304.621 255.209 304.82 255.082C304.965 254.992 308.38 252.866 312.46 251.97C312.487 251.966 312.514 251.961 312.537 251.961V251.966Z" fill="#F07162"/>
    <path d="M311.391 245.833C311.59 245.828 311.771 245.959 311.821 246.158C311.88 246.389 311.74 246.62 311.509 246.674C308.139 247.515 305.123 249.573 305.091 249.596C304.896 249.732 304.63 249.682 304.498 249.487C304.363 249.293 304.413 249.026 304.607 248.895C304.734 248.809 307.782 246.728 311.301 245.846C311.333 245.837 311.36 245.833 311.391 245.833Z" fill="#F07162"/>
    <path d="M375.369 264.476L337.697 262.581L337.752 235.43L361.836 229.989L375.369 264.476Z" fill="#258D8C"/>
    <path d="M337.753 264.96C337.722 264.96 337.69 264.96 337.654 264.951C337.477 264.915 337.337 264.78 337.283 264.612C337.179 264.264 337.156 256.38 337.156 249.831C337.156 235.339 337.22 235.276 337.405 235.091C337.717 234.779 367.646 228.143 386.674 224.168C409.646 219.369 438.258 213.815 444.138 214.606C455.346 216.117 462.827 223.48 462.9 223.557C463.09 223.747 463.09 224.05 462.9 224.24C462.71 224.43 462.407 224.43 462.217 224.24C462.144 224.168 454.885 217.03 444.012 215.565C433.279 214.122 344.095 234.417 338.21 235.814C338.106 238.872 338.111 263.106 338.224 264.359C338.242 264.427 338.242 264.499 338.228 264.576C338.183 264.807 337.979 264.96 337.753 264.96Z" fill="#21111D"/>
    <path d="M444.079 215.565C443.826 215.565 443.613 215.366 443.595 215.113L440.515 164.388C440.497 164.121 440.7 163.89 440.967 163.876C441.234 163.872 441.465 164.062 441.478 164.329L444.558 215.054C444.576 215.321 444.373 215.551 444.106 215.565C444.097 215.565 444.088 215.565 444.074 215.565H444.079Z" fill="#21111D"/>
    <path d="M441.595 174.723C441.455 174.723 441.319 174.664 441.224 174.551L435.109 167.251C434.937 167.047 434.965 166.74 435.168 166.568C435.372 166.396 435.679 166.423 435.851 166.626L441.966 173.927C442.138 174.13 442.111 174.438 441.907 174.609C441.817 174.686 441.708 174.723 441.595 174.723Z" fill="#21111D"/>
    <path d="M272.219 212.801C272.142 212.801 272.061 212.783 271.984 212.743C271.749 212.612 271.667 212.318 271.794 212.087L310.637 141.908C321.705 121.908 331.71 122.867 332.126 122.916C332.393 122.948 332.578 123.188 332.546 123.455C332.515 123.721 332.271 123.911 332.013 123.875C331.904 123.862 322.189 123.034 311.483 142.379L272.64 212.557C272.549 212.716 272.386 212.806 272.214 212.806L272.219 212.801Z" fill="#21111D"/>
    <path d="M402.31 195.325H373.394C373.127 195.325 372.91 195.108 372.91 194.841C372.91 194.574 373.127 194.357 373.394 194.357H402.31C402.576 194.357 402.793 194.574 402.793 194.841C402.793 195.108 402.576 195.325 402.31 195.325Z" fill="#21111D"/>
    <path d="M397.328 198.477H378.373C378.106 198.477 377.889 198.26 377.889 197.993C377.889 197.726 378.106 197.509 378.373 197.509H397.328C397.595 197.509 397.812 197.726 397.812 197.993C397.812 198.26 397.595 198.477 397.328 198.477Z" fill="#21111D"/>
    <path d="M472.587 142.46C472.438 142.46 472.293 142.392 472.198 142.266C467.612 136.151 460.117 133.663 460.04 133.64C459.787 133.559 459.647 133.288 459.728 133.03C459.81 132.776 460.081 132.636 460.339 132.718C460.655 132.822 468.195 135.318 472.972 141.682C473.13 141.895 473.089 142.198 472.876 142.361C472.791 142.424 472.687 142.456 472.587 142.456V142.46Z" fill="#21111D"/>
    <path d="M471.692 146.861C471.543 146.861 471.398 146.793 471.303 146.667C466.717 140.551 459.223 138.064 459.146 138.041C458.892 137.96 458.752 137.684 458.834 137.431C458.915 137.177 459.186 137.037 459.444 137.119C459.761 137.223 467.301 139.719 472.077 146.083C472.235 146.296 472.194 146.599 471.982 146.762C471.896 146.825 471.792 146.857 471.692 146.857V146.861Z" fill="#21111D"/>
    <path d="M308.955 262.581H165.038C162.384 262.581 160.068 260.772 159.421 258.199L133.21 153.573C132.292 149.919 135.06 146.373 138.828 146.373H282.744C285.399 146.373 287.715 148.182 288.362 150.755L314.573 255.381C315.486 259.035 312.723 262.581 308.955 262.581Z" fill="#49263E"/>
    <path d="M223.641 209.306C226.275 207.934 227.299 204.687 225.928 202.052C224.556 199.418 221.309 198.394 218.674 199.765C216.04 201.137 215.016 204.384 216.388 207.019C217.759 209.653 221.006 210.677 223.641 209.306Z" fill="#E2F2F1"/>
    <path d="M113.499 188.029C113.499 188.029 112.161 169.372 104.919 172.995C97.6781 176.618 91.7712 200.391 90.9842 201.101C90.1972 201.811 90.4323 223.535 90.4323 223.535L98.8541 219.283C98.8541 219.283 101.097 167.35 113.495 188.029H113.499Z" fill="#258D8C"/>
    <path d="M105.381 149.398C105.381 149.398 89.1524 163.917 84.7244 188.816C80.2964 213.711 94.2905 221.038 94.2905 221.038C94.2905 221.038 96.2806 168.689 105.381 149.398Z" fill="#7FC6A6"/>
    <path d="M75.2791 224.398C75.2791 224.398 72.5653 171.398 58.8652 148.422C58.8652 148.422 82.9139 162.768 90.8879 200.427C91.3357 202.548 91.6025 204.904 91.9418 207.17C92.2946 209.531 92.5071 211.621 92.4529 213.711C92.3579 217.397 91.8468 220.568 91.6975 222.897C90.3994 243.02 75.2791 224.398 75.2791 224.398Z" fill="#258D8C"/>
    <path d="M75.7419 201.892C74.8102 194.334 71.9426 187.134 67.3292 181.077C64.0003 176.699 60.1421 173.375 57.1298 175.749C50.4404 181.023 49.1016 213.774 49.1016 213.774C49.1016 213.774 56.6595 191.1 59.9658 192.597C63.2721 194.095 66.3431 224.873 66.3431 224.873L78.7045 225.896L75.7419 201.897V201.892Z" fill="#7FC6A6"/>
    <path d="M92.599 222.549C93.1055 210.979 91.6536 199.87 88.284 189.54C85.5883 181.272 81.667 173.483 76.6238 166.382C68.0392 154.288 59.0611 148.313 58.9706 148.254L58.749 148.589C58.8395 148.648 67.7678 154.591 76.3072 166.626C84.1862 177.73 93.3407 196.446 92.1964 222.53L92.5944 222.549H92.599Z" fill="#21111D"/>
    <path d="M94.4895 221.047C94.494 220.916 95.0051 207.786 96.6198 192.471C98.1124 178.346 100.871 159.421 105.562 149.484L105.2 149.312C100.487 159.304 97.7189 178.273 96.2217 192.43C94.6025 207.758 94.0914 220.898 94.0869 221.029L94.4849 221.042L94.4895 221.047Z" fill="#21111D"/>
    <path d="M99.0568 219.292C99.0568 219.206 99.4413 210.671 100.694 202.023C102.345 190.653 104.729 184.253 107.587 183.52C109.274 183.086 111.206 184.642 113.327 188.138L113.671 187.93C111.45 184.266 109.369 182.651 107.488 183.135C104.417 183.922 101.997 190.259 100.296 201.974C99.0388 210.644 98.6588 219.197 98.6543 219.283L99.0523 219.301L99.0568 219.292Z" fill="#21111D"/>
    <path d="M78.5049 225.918L78.903 225.868L75.945 201.869C74.9997 194.212 72.0778 186.98 67.496 180.955C64.5923 177.142 62.0142 175.066 59.8341 174.79C58.8028 174.659 57.8575 174.931 57.0163 175.591C54.1985 177.812 51.9777 184.917 50.4173 196.709C49.2594 205.461 48.9157 213.679 48.9111 213.76L49.3092 213.778C49.3227 213.453 50.7203 181.064 57.2605 175.903C58.0113 175.311 58.8616 175.071 59.7798 175.184C61.8513 175.446 64.339 177.468 67.1749 181.195C71.716 187.161 74.6107 194.325 75.5469 201.915L78.5095 225.914L78.5049 225.918Z" fill="#21111D"/>
    <path d="M65.6565 196.314L65.3027 196.497L67.8991 201.529L68.2528 201.347L65.6565 196.314Z" fill="#21111D"/>
    <path d="M65.6553 199.703L65.3066 199.895L67.9037 204.609L68.2523 204.417L65.6553 199.703Z" fill="#21111D"/>
    <path d="M94.4474 166.318L92.2275 171.191L92.5898 171.356L94.8097 166.483L94.4474 166.318Z" fill="#21111D"/>
    <path d="M94.0966 170.081L92.207 173.491L92.5552 173.684L94.4448 170.274L94.0966 170.081Z" fill="#21111D"/>
    <path d="M106.842 174.72L103.062 176.646L103.243 177.001L107.023 175.074L106.842 174.72Z" fill="#21111D"/>
    <path d="M105.277 177.045L103.04 178.406L103.247 178.746L105.484 177.385L105.277 177.045Z" fill="#21111D"/>
    <path d="M103.147 217.935C103.147 217.935 102.441 256.679 92.0654 255.77H74.4348C64.0591 256.679 63.3535 217.935 63.3535 217.935C73.1729 216.452 93.3318 216.452 103.151 217.935H103.147Z" fill="#EF3A4C"/>
    <path d="M67.5029 222.861L67.2139 223.135L78.5528 235.109L78.8418 234.835L67.5029 222.861Z" fill="#21111D"/>
    <path d="M70.8414 230.622L70.541 230.883L76.7826 238.061L77.0829 237.8L70.8414 230.622Z" fill="#21111D"/>
    <path d="M375.945 72.9059C375.945 72.9059 377.8 63.5252 390.351 62.494C402.902 61.4627 404.594 70.8705 404.594 70.8705L390.27 73.7743L376.868 72.838L375.945 72.9059Z" fill="#FE9F73"/>
    <path d="M375.945 64.9589C375.945 64.9589 383.752 72.6028 393.883 70.8705C393.883 70.8705 397.262 83.2454 404.594 82.6755C411.926 82.1056 407.936 64.9635 407.936 64.9635C407.936 64.9635 394.232 59.3821 393.363 59.3821C392.495 59.3821 377.958 58.5137 377.958 58.5137L375.945 64.9635V64.9589Z" fill="#FECC86"/>
    <path d="M386.113 87.3025C386.425 87.3025 386.425 86.8185 386.113 86.8185C385.801 86.8185 385.801 87.3025 386.113 87.3025Z" fill="#EA5942"/>
    <path d="M387.582 88.1754C387.894 88.1754 387.894 87.6915 387.582 87.6915C387.27 87.6915 387.27 88.1754 387.582 88.1754Z" fill="#EA5942"/>
    <path d="M390.246 86.4341C390.558 86.4341 390.558 85.9501 390.246 85.9501C389.934 85.9501 389.934 86.4341 390.246 86.4341Z" fill="#EA5942"/>
    <path d="M392.531 88.1754C392.843 88.1754 392.843 87.6915 392.531 87.6915C392.219 87.6915 392.219 88.1754 392.531 88.1754Z" fill="#EA5942"/>
    <path d="M394.929 85.837C395.241 85.837 395.241 85.3531 394.929 85.3531C394.617 85.3531 394.617 85.837 394.929 85.837Z" fill="#EA5942"/>
    <path d="M395.797 89.3197C396.109 89.3197 396.109 88.8358 395.797 88.8358C395.484 88.8358 395.484 89.3197 395.797 89.3197Z" fill="#EA5942"/>
    <path d="M381.267 85.8913C381.579 85.8913 381.579 85.4073 381.267 85.4073C380.955 85.4073 380.955 85.8913 381.267 85.8913Z" fill="#EA5942"/>
    <path d="M379.472 87.8497C379.784 87.8497 379.784 87.3658 379.472 87.3658C379.16 87.3658 379.16 87.8497 379.472 87.8497Z" fill="#EA5942"/>
    <path d="M377.297 86.9768C377.609 86.9768 377.609 86.4929 377.297 86.4929C376.984 86.4929 376.984 86.9768 377.297 86.9768Z" fill="#EA5942"/>
    <path d="M377.134 90.4053C377.447 90.4053 377.447 89.9213 377.134 89.9213C376.822 89.9213 376.822 90.4053 377.134 90.4053Z" fill="#EA5942"/>
    <path d="M375.502 88.3925C375.814 88.3925 375.814 87.9085 375.502 87.9085C375.19 87.9085 375.19 88.3925 375.502 88.3925Z" fill="#EA5942"/>
    <path d="M375.883 85.3983C376.195 85.3983 376.195 84.9143 375.883 84.9143C375.57 84.9143 375.57 85.3983 375.883 85.3983Z" fill="#EA5942"/>
    <path d="M389.324 89.6996C389.636 89.6996 389.636 89.2157 389.324 89.2157C389.012 89.2157 389.012 89.6996 389.324 89.6996Z" fill="#EA5942"/>
    <path d="M387.488 94.3538C385.063 96.5429 382.698 94.9734 382.675 94.9554C382.603 94.9056 382.585 94.8016 382.639 94.7247C382.693 94.6478 382.797 94.6252 382.874 94.6795C382.965 94.7383 385.05 96.1178 387.266 94.1141C387.307 94.0779 387.347 94.0417 387.388 94.001C387.451 93.9377 387.565 93.9332 387.623 94.001C387.687 94.0643 387.682 94.1729 387.61 94.2362C387.569 94.2769 387.524 94.3176 387.483 94.3538H387.488Z" fill="#F07162"/>
    <path d="M359.643 120.768L379.037 160.321L427.822 119.565C427.822 119.565 372.954 118.344 359.643 120.768Z" fill="#FE9F73"/>
    <path d="M362 125.571L379.043 160.321L419.691 126.363C392.521 130.058 370.761 127.15 362 125.571Z" fill="white"/>
    <path d="M278.284 145.382H140.355V147.372H278.284V145.382Z" fill="black"/>
    <path d="M656.225 256.53H0.175781V265.806H656.225V256.53Z" fill="#4CB7D8"/>
    <path d="M656.225 255.928H0.175781V257.122H656.225V255.928Z" fill="black"/>
    <path d="M656.225 265.205H84.041V266.399H656.225V265.205Z" fill="black"/>
    <path d="M400.192 98.4335C399.848 98.4335 399.505 98.4064 399.156 98.3521L393.091 97.4023C392.783 97.3526 392.571 97.0631 392.621 96.7555C392.67 96.4479 392.96 96.2354 393.267 96.2851L399.333 97.2349C402.236 97.6872 404.991 95.7966 405.611 92.9246C405.678 92.617 405.977 92.4225 406.284 92.4903C406.592 92.5582 406.786 92.8567 406.719 93.1643C406.049 96.2761 403.29 98.4335 400.196 98.4335H400.192Z" fill="#3E8EDD"/>
    <path d="M413.348 88.1087C413.838 83.639 411.09 79.6713 407.212 79.2466C403.333 78.8218 399.792 82.1008 399.302 86.5704C398.813 91.04 401.56 95.0077 405.439 95.4325C409.318 95.8573 412.859 92.5783 413.348 88.1087Z" fill="#3E8EDD"/>
    <path d="M407.398 84.2269C407.33 84.2269 407.263 84.2269 407.199 84.2133C406.362 84.1048 405.775 83.3359 405.883 82.4991C405.892 82.4358 406.39 78.347 405.092 74.0638C403.418 68.5457 399.614 65.253 393.78 64.2806C392.947 64.1403 392.386 63.3533 392.522 62.5211C392.662 61.6889 393.449 61.128 394.282 61.2637C403.142 62.7473 406.657 68.6136 408.045 73.2768C409.506 78.1887 408.936 82.7026 408.913 82.8926C408.814 83.6615 408.154 84.2224 407.398 84.2224V84.2269Z" fill="#3E8EDD"/>
    <path d="M393.173 98.7864C394.244 98.7864 395.113 97.9176 395.113 96.846C395.113 95.7744 394.244 94.9056 393.173 94.9056C392.101 94.9056 391.232 95.7744 391.232 96.846C391.232 97.9176 392.101 98.7864 393.173 98.7864Z" fill="#305777"/>
    <path d="M407.412 93.4809C407.271 93.4809 407.127 93.4718 406.986 93.4583C405.697 93.3181 404.562 92.5582 403.78 91.3234C403.011 90.1022 402.681 88.5644 402.857 86.9814C403.219 83.6977 405.657 81.2643 408.294 81.5538C410.931 81.8433 412.785 84.747 412.423 88.0307C412.084 91.1335 409.881 93.4809 407.412 93.4809ZM407.864 81.9835C405.625 81.9835 403.621 84.159 403.305 87.0311C403.142 88.5101 403.445 89.9484 404.164 91.0792C404.87 92.1964 405.887 92.8793 407.036 93.006C409.424 93.2683 411.641 91.0113 411.971 87.981C412.301 84.946 410.632 82.2684 408.244 82.0061C408.117 81.9925 407.991 81.9835 407.864 81.9835Z" fill="#305777"/>
    <path d="M353.386 0H258.525C256.484 0 254.83 1.65444 254.83 3.69528V59.355C254.83 61.3959 256.484 63.0503 258.525 63.0503H353.386C355.427 63.0503 357.081 61.3959 357.081 59.355V3.69528C357.081 1.65444 355.427 0 353.386 0Z" fill="white"/>
    <path d="M347.48 11.4793H262.222C261.634 11.4793 261.154 10.9999 261.154 10.4119C261.154 9.82389 261.634 9.34445 262.222 9.34445H347.48C348.068 9.34445 348.547 9.82389 348.547 10.4119C348.547 10.9999 348.068 11.4793 347.48 11.4793Z" fill="#61A3C5"/>
    <path d="M347.48 23.6145H262.222C261.634 23.6145 261.154 23.135 261.154 22.547C261.154 21.959 261.634 21.4796 262.222 21.4796H347.48C348.068 21.4796 348.547 21.959 348.547 22.547C348.547 23.135 348.068 23.6145 347.48 23.6145Z" fill="#61A3C5"/>
    <path d="M317.613 35.7496H262.216C261.628 35.7496 261.148 35.2701 261.148 34.6822C261.148 34.0942 261.628 33.6147 262.216 33.6147H317.613C318.201 33.6147 318.681 34.0942 318.681 34.6822C318.681 35.2701 318.201 35.7496 317.613 35.7496Z" fill="#61A3C5"/>
    <path d="M348.111 35.7496H326.003C325.415 35.7496 324.936 35.2701 324.936 34.6822C324.936 34.0942 325.415 33.6147 326.003 33.6147H348.111C348.699 33.6147 349.179 34.0942 349.179 34.6822C349.179 35.2701 348.699 35.7496 348.111 35.7496Z" fill="#61A3C5"/>
    <path d="M297.038 47.8847H262.216C261.628 47.8847 261.148 47.4053 261.148 46.8173C261.148 46.2293 261.628 45.7499 262.216 45.7499H297.038C297.626 45.7499 298.106 46.2293 298.106 46.8173C298.106 47.4053 297.626 47.8847 297.038 47.8847Z" fill="#61A3C5"/>
    <path d="M348.113 47.8847H304.851C304.263 47.8847 303.783 47.4053 303.783 46.8173C303.783 46.2293 304.263 45.7499 304.851 45.7499H348.113C348.701 45.7499 349.18 46.2293 349.18 46.8173C349.18 47.4053 348.701 47.8847 348.113 47.8847Z" fill="#61A3C5"/>
    <path d="M325.814 60.2596C325.918 60.6802 342.382 82.1011 342.486 81.4678C342.59 80.8346 340.587 58.464 340.587 58.464L325.814 60.2596Z" fill="white"/>
    <path d="M189.757 129.045C190.001 129.045 190.223 128.887 190.295 128.642C190.309 128.602 190.603 127.616 191.01 125.874C191.082 125.571 190.892 125.268 190.589 125.196C190.286 125.124 189.983 125.314 189.911 125.617C189.517 127.317 189.219 128.303 189.214 128.312C189.124 128.611 189.291 128.927 189.589 129.018C189.644 129.036 189.698 129.04 189.752 129.04L189.757 129.045Z" fill="#21111D"/>
    <path d="M191.47 120.655C191.162 120.605 190.95 120.316 190.999 120.008C191.298 118.127 191.538 116.218 191.714 114.332C191.741 114.02 192.017 113.794 192.329 113.821C192.641 113.848 192.867 114.124 192.84 114.436C192.664 116.344 192.42 118.28 192.117 120.185C192.071 120.46 191.832 120.659 191.56 120.659C191.529 120.659 191.502 120.659 191.47 120.65V120.655ZM192.601 109.203C192.289 109.194 192.04 108.936 192.049 108.624C192.062 108.045 192.067 107.461 192.067 106.891C192.067 105.553 192.031 104.214 191.958 102.911C191.94 102.599 192.18 102.332 192.492 102.314C192.809 102.296 193.071 102.536 193.089 102.848C193.162 104.169 193.198 105.53 193.198 106.887C193.198 107.466 193.193 108.058 193.18 108.646C193.171 108.954 192.922 109.198 192.614 109.198C192.614 109.198 192.605 109.198 192.601 109.198V109.203ZM191.402 97.2349C191.126 95.3172 190.76 93.4356 190.312 91.6445C190.235 91.3415 190.421 91.0339 190.724 90.9615C191.027 90.8846 191.334 91.0701 191.407 91.3731C191.863 93.2004 192.234 95.1227 192.519 97.0766C192.564 97.3842 192.347 97.6737 192.04 97.7144C192.013 97.7144 191.986 97.7189 191.958 97.7189C191.682 97.7189 191.443 97.5153 191.402 97.2349ZM140.532 91.6355C138.456 91.2375 136.656 90.3283 135.191 88.9307C134.964 88.7181 134.955 88.3563 135.168 88.1302C135.385 87.904 135.742 87.895 135.964 88.1075C137.276 89.3514 138.881 90.1655 140.745 90.5228C141.052 90.5816 141.251 90.8756 141.192 91.1832C141.143 91.4546 140.903 91.64 140.641 91.64C140.604 91.64 140.568 91.64 140.532 91.631V91.6355ZM145.801 91.0565C145.697 90.7625 145.851 90.4414 146.141 90.3329C147.66 89.7901 148.954 88.5417 149.886 86.7235C150.026 86.4476 150.37 86.3345 150.645 86.4793C150.921 86.6195 151.034 86.9632 150.89 87.2391C149.822 89.3152 148.312 90.7535 146.521 91.3957C146.457 91.4184 146.394 91.4274 146.331 91.4274C146.1 91.4274 145.883 91.2827 145.797 91.052L145.801 91.0565ZM188.625 86.2169C187.946 84.4168 187.164 82.6754 186.291 81.0426C186.146 80.7667 186.25 80.4275 186.522 80.2783C186.798 80.129 187.141 80.2376 187.286 80.5089C188.182 82.187 188.987 83.9735 189.679 85.8189C189.787 86.1129 189.643 86.4386 189.349 86.5471C189.281 86.5697 189.217 86.5833 189.15 86.5833C188.923 86.5833 188.706 86.4431 188.62 86.2169H188.625ZM132.052 83.8514C131.468 82.1101 131.174 80.1968 131.174 78.157V77.9987C131.174 77.6866 131.427 77.4379 131.739 77.4379C132.052 77.4379 132.305 77.6957 132.3 78.0078V78.157C132.3 80.0747 132.576 81.8658 133.119 83.4896C133.218 83.7836 133.06 84.1047 132.762 84.2042C132.703 84.2223 132.64 84.2313 132.581 84.2313C132.346 84.2313 132.124 84.0821 132.047 83.8469L132.052 83.8514ZM151.876 82.0332C151.564 81.997 151.342 81.7166 151.378 81.409C151.473 80.5723 151.523 79.6948 151.523 78.7947C151.523 77.8178 151.469 76.8091 151.356 75.787C151.319 75.4749 151.546 75.199 151.858 75.1628C152.165 75.1311 152.446 75.3528 152.482 75.6649C152.599 76.7232 152.658 77.7771 152.658 78.7947C152.658 79.7355 152.608 80.6582 152.509 81.5357C152.477 81.8251 152.233 82.0377 151.948 82.0377C151.925 82.0377 151.907 82.0377 151.885 82.0377L151.876 82.0332ZM183.279 76.2347C182.166 74.7105 180.931 73.2586 179.606 71.9198C179.389 71.6982 179.389 71.3409 179.611 71.1192C179.832 70.9021 180.19 70.9021 180.411 71.1238C181.773 72.5033 183.044 74.0004 184.192 75.5653C184.378 75.8186 184.324 76.1714 184.07 76.3523C183.971 76.4247 183.853 76.4609 183.736 76.4609C183.564 76.4609 183.392 76.3795 183.279 76.2302V76.2347ZM132.404 72.8606C132.106 72.7792 131.929 72.4671 132.011 72.164C132.545 70.2418 133.318 68.419 134.308 66.741C134.467 66.4741 134.815 66.3837 135.082 66.542C135.349 66.7003 135.439 67.0486 135.281 67.3154C134.345 68.903 133.607 70.6398 133.101 72.4671C133.033 72.7159 132.802 72.8787 132.558 72.8787C132.508 72.8787 132.459 72.8742 132.404 72.8561V72.8606ZM150.252 70.2418C149.741 68.4642 149.081 66.6732 148.285 64.9273C148.153 64.6423 148.285 64.3077 148.565 64.181C148.85 64.0544 149.185 64.181 149.311 64.4614C150.13 66.2616 150.808 68.1024 151.338 69.9342C151.423 70.2327 151.252 70.5448 150.949 70.6308C150.899 70.6443 150.845 70.6534 150.795 70.6534C150.551 70.6534 150.324 70.4905 150.252 70.2463V70.2418ZM175.359 68.1476C173.866 66.9762 172.292 65.8907 170.678 64.9183C170.411 64.7554 170.325 64.4117 170.488 64.1448C170.651 63.878 170.994 63.792 171.261 63.9549C172.912 64.9499 174.522 66.0626 176.056 67.2612C176.3 67.4556 176.345 67.8084 176.151 68.0527C176.037 68.1929 175.875 68.2698 175.707 68.2698C175.585 68.2698 175.463 68.2291 175.359 68.1476ZM138.063 63.0277C137.864 62.7879 137.9 62.4306 138.139 62.2316C139.637 60.9968 141.364 60.0108 143.278 59.3007C143.567 59.1921 143.897 59.3414 144.006 59.6309C144.114 59.9249 143.965 60.246 143.676 60.3591C141.88 61.0285 140.261 61.9512 138.863 63.1045C138.759 63.1905 138.632 63.2357 138.506 63.2357C138.343 63.2357 138.18 63.1678 138.072 63.0322L138.063 63.0277ZM165.639 62.2949C163.875 61.517 162.084 60.8657 160.307 60.3591C160.008 60.2732 159.832 59.9611 159.918 59.6626C160.004 59.364 160.316 59.1876 160.614 59.2736C162.441 59.7937 164.287 60.4631 166.096 61.2592C166.381 61.3858 166.512 61.7205 166.385 62.0055C166.29 62.218 166.087 62.3402 165.87 62.3402C165.793 62.3402 165.716 62.3266 165.644 62.2904L165.639 62.2949ZM145.584 59.9339C144.589 58.3509 143.472 56.804 142.26 55.3295C142.061 55.0898 142.097 54.7325 142.337 54.5335C142.576 54.3345 142.934 54.3707 143.133 54.6104C144.372 56.121 145.521 57.7086 146.543 59.3324C146.711 59.5947 146.629 59.943 146.367 60.1103C146.272 60.1691 146.168 60.1963 146.068 60.1963C145.878 60.1963 145.697 60.1013 145.589 59.9339H145.584ZM154.757 59.251C152.817 59.0293 150.912 58.9977 149.126 59.1605C148.809 59.1921 148.542 58.9615 148.511 58.6494C148.484 58.3373 148.71 58.0659 149.022 58.0343C150.881 57.8669 152.866 57.8986 154.884 58.1293C155.196 58.1654 155.417 58.4459 155.381 58.7534C155.349 59.0429 155.105 59.2555 154.82 59.2555C154.798 59.2555 154.775 59.2555 154.757 59.2555V59.251ZM138.388 51.1775C137.04 49.9246 135.548 48.7396 133.951 47.6586C133.693 47.4822 133.626 47.1339 133.802 46.8761C133.978 46.6183 134.327 46.5504 134.584 46.7268C136.226 47.844 137.769 49.0607 139.157 50.3543C139.383 50.5668 139.397 50.9242 139.184 51.1503C139.071 51.2679 138.922 51.3312 138.773 51.3312C138.637 51.3312 138.497 51.2815 138.388 51.182V51.1775ZM129.048 44.791C127.411 43.9678 125.652 43.208 123.824 42.5295C123.53 42.421 123.381 42.0953 123.49 41.8058C123.598 41.5118 123.924 41.3626 124.218 41.4711C126.086 42.1631 127.881 42.9411 129.559 43.7824C129.84 43.9226 129.953 44.2618 129.813 44.5422C129.713 44.7412 129.514 44.8543 129.306 44.8543C129.22 44.8543 129.134 44.8362 129.053 44.7955L129.048 44.791ZM118.388 40.7972C116.601 40.3178 114.724 39.8926 112.815 39.5353C112.508 39.4765 112.309 39.1825 112.363 38.8749C112.422 38.5674 112.716 38.3639 113.023 38.4227C114.964 38.7845 116.868 39.2187 118.682 39.7072C118.985 39.7886 119.161 40.0962 119.08 40.3992C119.012 40.6525 118.786 40.8153 118.537 40.8153C118.487 40.8153 118.437 40.8108 118.388 40.7972ZM107.157 38.6805C105.285 38.4634 103.362 38.3005 101.454 38.201C101.142 38.1829 100.902 37.9206 100.92 37.6085C100.938 37.2964 101.205 37.0567 101.512 37.0748C103.448 37.1743 105.393 37.3417 107.288 37.5588C107.596 37.595 107.822 37.8754 107.786 38.1829C107.754 38.4724 107.51 38.6805 107.225 38.6805C107.202 38.6805 107.18 38.6805 107.157 38.6805Z" fill="#21111D"/>
    <path d="M92.8739 38.1875C92.8739 38.1875 92.901 38.1875 92.9191 38.1875C92.9282 38.1875 93.9594 38.1106 95.7053 38.0834C96.0174 38.0789 96.2661 37.8211 96.2616 37.509C96.2616 37.2015 96.0038 36.9527 95.6962 36.9527H95.6872C93.9006 36.9798 92.8739 37.0567 92.8332 37.0567C92.5211 37.0793 92.2904 37.3507 92.3131 37.6628C92.3357 37.9613 92.5844 38.1829 92.8739 38.1829V38.1875Z" fill="#21111D"/>
    <path d="M85.0944 43.3663L81.9057 39.7117C81.9057 39.7117 66.0843 37.993 65.8627 37.8845C65.6411 37.7714 57.5088 33.6917 57.5088 33.6917L67.7307 33.0992L84.4386 35.5054L85.0944 43.3663Z" fill="#EA2D3F"/>
    <path d="M88.2198 27.3278L57.5088 33.6916L84.434 35.5054L88.2198 27.3278Z" fill="#FF424D"/>
    <path d="M81.9057 39.7163L77.9345 48.423L57.5088 33.6917L81.9057 39.7163Z" fill="#FF424D"/>
</svg>
