<?xml version="1.0" encoding="UTF-8"?>
<svg fill="none" viewBox="0 0 537 364" xmlns="http://www.w3.org/2000/svg">
    <path d="m50.644 105.76s-14.72-24.362-50.033-18.043c0 0 23.772 35.292 50.033 18.043z" fill="#3F9896"/>
    <path d="m73.63 112.19s-4.3846-48.832-63.797-65.773c0 0 10.142 72.596 63.797 65.773z" fill="#7FC6A6"/>
    <path d="m379.07 78.47-0.664-0.0865 0.043-0.3336c0.158-1.2194 0.354-2.4567 0.577-3.6762l0.061-0.331 0.659 0.1222-0.061 0.331c-0.224 1.2067-0.414 2.4313-0.572 3.6406l-0.043 0.3335zm1.302-7.2507-0.651-0.1578 0.078-0.3259c0.293-1.2144 0.621-2.4237 0.975-3.5923l0.096-0.3207 0.641 0.1934-0.097 0.3208c-0.351 1.1559-0.673 2.3524-0.963 3.5541l-0.079 0.3259v0.0025zm45.165-3.8035c-0.549 0-1.114-0.0535-1.681-0.1579l-0.331-0.0611 0.123-0.6594 0.33 0.0611c0.527 0.0968 1.053 0.1451 1.562 0.1451 0.669 0 1.325-0.084 1.95-0.252l0.323-0.0866 0.173 0.6492-0.323 0.0866c-0.684 0.1833-1.399 0.275-2.123 0.275h-3e-3zm-4.974-1.3061-0.278-0.1884c-1.04-0.7027-1.79-1.7592-2.225-3.1365l-0.102-0.3208 0.639-0.2037 0.101 0.3208c0.389 1.2322 1.051 2.1666 1.964 2.7852l0.277 0.1884-0.374 0.555h-2e-3zm10.203-0.555-0.437-0.5092 0.254-0.2189c0.854-0.7383 1.61-1.6701 2.243-2.7725l0.168-0.2902 0.58 0.3335-0.168 0.2902c-0.672 1.1686-1.475 2.1589-2.388 2.9456l-0.255 0.219 3e-3 0.0025zm-48.294-1.3875-0.628-0.2342 0.117-0.3132c0.44-1.1813 0.918-2.3397 1.419-3.442l0.14-0.3055 0.611 0.2775-0.14 0.3055c-0.496 1.0896-0.967 2.2327-1.402 3.3987l-0.117 0.3132zm35.837-4.7888-0.669-0.0408 0.021-0.3335c0.071-1.1762 0.297-2.4237 0.671-3.7068l0.094-0.3208 0.644 0.1884-0.094 0.3208c-0.359 1.2348-0.578 2.4339-0.646 3.5592l-0.021 0.3335zm16.45-0.1553-0.646-0.1808 0.089-0.3233c0.32-1.1457 0.519-2.3499 0.593-3.5745l0.02-0.3335 0.669 0.0408-0.021 0.3335c-0.076 1.2729-0.282 2.5204-0.615 3.7144l-0.089 0.3234zm-49.283-1.7592-0.587-0.3234 0.162-0.2927c0.611-1.105 1.262-2.1742 1.938-3.1824l0.186-0.2775 0.557 0.3742-0.186 0.2775c-0.666 0.9929-1.307 2.0469-1.91 3.134l-0.163 0.2928 3e-3 -0.0025zm34.664-5.074-0.605-0.2902 0.145-0.303c0.524-1.0947 1.145-2.1895 1.844-3.2536l0.183-0.2801 0.56 0.3692-0.184 0.28c-0.684 1.0387-1.289 2.108-1.8 3.1773l-0.145 0.3029 2e-3 -0.0025zm14.548-0.5321-0.051-0.331c-0.071-0.471-0.16-0.9419-0.27-1.3951-0.17-0.718-0.399-1.4181-0.681-2.08l-0.133-0.3081 0.616-0.2622 0.132 0.3081c0.298 0.6975 0.537 1.4333 0.717 2.1869 0.112 0.471 0.206 0.9598 0.28 1.4511l0.051 0.331-0.661 0.0993zm-45.171-0.5041-0.516-0.4251 0.214-0.2597c0.798-0.97 1.643-1.8967 2.515-2.7547l0.239-0.2342 0.47 0.4786-0.239 0.2342c-0.854 0.8402-1.686 1.7491-2.467 2.7012l-0.213 0.2597h-3e-3zm34.543-5.1121-0.512-0.4328 0.216-0.2572c0.794-0.9369 1.656-1.8483 2.569-2.7088l0.244-0.2291 0.461 0.4888-0.245 0.2291c-0.892 0.8427-1.739 1.7363-2.517 2.6554l-0.216 0.2546zm-29.377-0.0535-0.412-0.5295 0.264-0.2063c0.982-0.7663 2.014-1.4791 3.072-2.1207l0.288-0.1731 0.346 0.5728-0.288 0.1731c-1.035 0.6263-2.045 1.3264-3.006 2.0749l-0.264 0.2063v0.0025zm37.355-0.9445-0.214-0.2597c-0.743-0.9038-1.63-1.7312-2.635-2.4542l-0.272-0.1961 0.392-0.5448 0.272 0.196c1.05 0.7562 1.981 1.6218 2.759 2.5714l0.214 0.2597-0.516 0.4251v0.0026zm-31.158-2.9023-0.279-0.6085 0.305-0.14c1.126-0.5169 2.289-0.9827 3.461-1.3875l0.318-0.1095 0.219 0.6339-0.316 0.1095c-1.149 0.3971-2.294 0.8554-3.4 1.362l-0.305 0.1401h-3e-3zm28.439-1.1737-0.407-0.5321 0.267-0.2037c0.977-0.7434 2.012-1.4537 3.075-2.1105l0.285-0.1757 0.351 0.5703-0.285 0.1757c-1.045 0.6441-2.06 1.3417-3.019 2.0723l-0.267 0.2037zm-2.971-0.2775-0.307-0.1349c-1.071-0.4659-2.231-0.8529-3.446-1.1508l-0.326-0.0789 0.16-0.6517 0.326 0.0789c1.254 0.308 2.451 0.7077 3.555 1.1889l0.308 0.1349-0.267 0.6136h-3e-3zm-18.573-0.9954-0.155-0.6518 0.326-0.0764c1.215-0.2902 2.449-0.5168 3.667-0.6797l0.333-0.0433 0.089 0.6645-0.333 0.0433c-1.195 0.1578-2.406 0.3818-3.599 0.667l-0.325 0.0764h-3e-3zm11.557-0.8631-0.334-0.0331c-1.182-0.1171-2.411-0.1629-3.652-0.1349l-0.335 0.0076-0.016-0.6696 0.336-0.0076c1.264-0.0305 2.523 0.0178 3.731 0.1375l0.333 0.0331-0.066 0.667h3e-3zm16.177-1.7516-0.285-0.6059 0.303-0.1426c1.104-0.5193 2.271-0.9827 3.474-1.3748l0.318-0.1043 0.208 0.6364-0.317 0.1044c-1.175 0.3844-2.317 0.8351-3.396 1.3443l-0.302 0.1425h-3e-3zm32.989-0.6772-0.323-0.0891c-1.178-0.3284-2.378-0.6288-3.569-0.8987l-0.325-0.0738 0.147-0.6543 0.326 0.0738c1.203 0.2699 2.413 0.5754 3.601 0.9064l0.323 0.0891-0.18 0.6466zm-7.17-1.6446-0.33-0.056c-1.224-0.2088-2.447-0.3819-3.642-0.5143l-0.334-0.0382 0.074-0.667 0.333 0.0382c1.206 0.1349 2.444 0.3106 3.678 0.5193l0.33 0.056-0.111 0.662h2e-3zm-18.911-0.0331-0.135-0.6569 0.328-0.0687c1.183-0.247 2.424-0.4404 3.683-0.5779l0.333-0.0357 0.073 0.6671-0.333 0.0356c-1.238 0.1349-2.457 0.3259-3.619 0.5677l-0.328 0.0688h-2e-3zm11.612-0.8173-0.336-0.0152c-1.238-0.0586-2.454-0.0739-3.672-0.0433l-0.336 0.0076-0.018-0.6695 0.336-0.0077c1.231-0.0305 2.464-0.0153 3.721 0.0433l0.333 0.0153-0.031 0.6695h3e-3z" fill="#3F9896"/>
    <path d="m479.86 47.958 3.833-3.3759s16.75 0.3896 16.997 0.3055c0.246-0.0865 9.298-3.2282 9.298-3.2282l-10.585-2.029-17.77 0.2062-1.77 8.1239-3e-3 -0.0025z" fill="#FF424D"/>
    <path d="m478.81 30.768 31.18 10.889-28.357-1.8228-2.823-9.0659z" fill="#FD7583"/>
    <path d="m483.69 44.582 2.945 9.6438 23.35-12.569-26.295 2.9253z" fill="#FD7583"/>
    <path d="m340.13 88.68c-3.202-1.7872-6.623-3.0041-10.127-3.6533l-2.002-8.6026-12.05 0.5652-1.19 8.7502c-3.426 0.9725-6.719 2.5077-9.741 4.5852l-7.492-4.6641-4.062 4.4655-4.061 4.4655 5.341 7.0319c-1.786 3.205-3.001 6.629-3.65 10.138l-8.594 2.003 0.283 6.031 0.282 6.032 8.741 1.191c0.972 3.429 2.505 6.726 4.58 9.751l-4.659 7.5 8.922 8.132 7.024-5.347c3.202 1.787 6.623 3.004 10.128 3.654l2.001 8.602 6.025-0.282 6.025-0.283 1.19-8.75c3.426-0.973 6.719-2.508 9.741-4.585l7.492 4.664 8.123-8.931-5.341-7.032c1.786-3.205 3.002-6.63 3.65-10.138l8.594-2.003-0.283-6.032-0.282-6.031-8.741-1.191c-0.972-3.43-2.505-6.727-4.58-9.7511l4.659-7.5002-8.922-8.1316-7.024 5.3464zm0.506 44.442c-8.416 9.251-22.729 9.923-31.971 1.499s-9.914-22.753-1.498-32.004c8.415-9.252 22.729-9.9242 31.971-1.5 9.242 8.425 9.913 22.753 1.498 32.005z" fill="#7FC6A6"/>
    <path d="m294.11 32.83c-1.918-1.2984-4.006-2.2505-6.178-2.8463l-0.796-5.522-7.614-0.2954-1.221 5.4432c-2.21 0.4277-4.364 1.2144-6.379 2.36l-4.463-3.3427-2.798 2.5917-2.797 2.5917 2.983 4.715c-1.297 1.9196-2.248 4.0098-2.843 6.184l-5.517 0.7968-0.147 3.8112-0.148 3.8112 5.438 1.2221c0.427 2.2123 1.213 4.3687 2.357 6.385l-3.339 4.4681 5.178 5.601 4.71-2.9864c1.918 1.2984 4.006 2.2506 6.178 2.8463l0.796 5.5221 3.807 0.1476 3.807 0.1477 1.221-5.4431c2.21-0.4277 4.364-1.2144 6.379-2.3601l4.463 3.3428 2.798-2.5917 2.797-2.5918-2.983-4.7149c1.297-1.9196 2.248-4.0098 2.843-6.184l5.516-0.7969 0.296-7.6224-5.438-1.222c-0.427-2.2124-1.213-4.3688-2.358-6.3851l3.34-4.468-5.178-5.601-4.71 2.9838v0.0025zm-2.081 28c-5.796 5.3693-14.842 5.018-20.206-0.7841-5.363-5.8021-5.013-14.858 0.784-20.227 5.796-5.3693 14.842-5.018 20.206 0.7841 5.363 5.8021 5.012 14.858-0.784 20.227z" fill="#F7AB48"/>
    <path d="m90.662 27.049c8.7818-0.4634 38.871-1.7338 59.448 1.3188 2.671 0.3971 4.369-2.8056 2.523-4.7761-1.081-1.1508-2.922-2.0902-6.02-2.3066 0 0 1.068-19.229-13.443-20.505-16.643-1.4613-16.844 17.432-16.844 17.432s-7.564-7.1896-13.019 1.9247c0 0-9.4278-5.4559-14.184 4.6208-0.5188 1.0998 0.3281 2.3549 1.5387 2.2913z" fill="#fff"/>
    <path d="m533.92 179.07c-5.964-0.341-19.941-0.94-32.096 0.086-5.027 0.426-9.369-3.597-9.254-8.645 0.045-2.068 0.786-4.471 2.703-7.195 7.378-10.489 20.204-0.471 20.082 4.852 0 0 2.594-8.017 10.467-6.614 7.877 1.403 5.092 13.066 5.092 13.066s2.541-0.537 4.303 0.667c1.732 1.184 0.799 3.905-1.294 3.783h-3e-3z" fill="#fff"/>
    <path d="m73.584 350.36v-210.47c0-10.001 6.9405-18.107 15.501-18.107h349.37c8.56 0 15.501 8.106 15.501 18.107v210.47h-380.37z" fill="#4CB7D8"/>
    <path d="m82.488 339.04v-190.24c0-13.649 3.7843-14.97 8.4512-14.97h345.66c4.667 0 8.451 3.656 8.451 8.167v197.04h-362.56v-3e-3z" fill="#DCF4FF"/>
    <path d="m82.033 314.51 0.908-0.909v-171.61c0-4.252 3.5885-7.711 7.9984-7.711v-0.909c-4.911 0-8.9064 3.867-8.9064 8.62v172.52-2e-3z" fill="#21111D"/>
    <path d="m445.37 339.04h-0.638v-197.04c0-4.325-3.649-7.846-8.133-7.846h-345.66v-0.639h345.66c4.837 0 8.771 3.806 8.771 8.485v197.04-3e-3z" fill="#21111D"/>
    <path d="m475.88 350.36h-439.01v12.088h439.01v-12.088z" fill="#128CB2"/>
    <path d="m159.46 47.24v155.78h-115.9v-130.15l24.952-25.635h90.943z" fill="#fff"/>
    <path d="m43.566 72.923 24.807-25.683v25.683h-24.807z" fill="#3AA1C9"/>
    <path d="m79.682 66.63h50.56c0.725 0 1.312-0.5881 1.312-1.3137s-0.587-1.3137-1.312-1.3137h-50.56c-0.7248 0-1.3123 0.5881-1.3123 1.3137s0.5875 1.3137 1.3123 1.3137z" fill="#3AA1C9"/>
    <path d="m72.788 76.818h64.349c0.725 0 1.312-0.5881 1.312-1.3137s-0.587-1.3137-1.312-1.3137h-64.349c-0.7248 0-1.3123 0.5881-1.3123 1.3137s0.5875 1.3137 1.3123 1.3137z" fill="#3AA1C9"/>
    <path d="m55.715 101.14h93.24c0.725 0 1.313-0.588 1.313-1.3136s-0.588-1.3137-1.313-1.3137h-93.24c-0.7248 0-1.3123 0.5881-1.3123 1.3137s0.5875 1.3136 1.3123 1.3136z" fill="#3AA1C9"/>
    <path d="m55.715 112.64h93.24c0.725 0 1.313-0.589 1.313-1.314 0-0.726-0.588-1.314-1.313-1.314h-93.24c-0.7248 0-1.3123 0.588-1.3123 1.314 0 0.725 0.5875 1.314 1.3123 1.314z" fill="#3AA1C9"/>
    <path d="m55.715 124.14h93.24c0.725 0 1.313-0.588 1.313-1.314s-0.588-1.314-1.313-1.314h-93.24c-0.7248 0-1.3123 0.588-1.3123 1.314s0.5875 1.314 1.3123 1.314z" fill="#3AA1C9"/>
    <path d="m55.715 137.26h93.24c0.725 0 1.313-0.588 1.313-1.313 0-0.726-0.588-1.314-1.313-1.314h-93.24c-0.7248 0-1.3123 0.588-1.3123 1.314 0 0.725 0.5875 1.313 1.3123 1.313z" fill="#3AA1C9"/>
    <path d="m55.715 148.77h93.24c0.725 0 1.313-0.588 1.313-1.314 0-0.725-0.588-1.313-1.313-1.313h-93.24c-0.7248 0-1.3123 0.588-1.3123 1.313 0 0.726 0.5875 1.314 1.3123 1.314z" fill="#3AA1C9"/>
    <path d="m55.715 188.23h93.24c0.725 0 1.313-0.588 1.313-1.314 0-0.725-0.588-1.313-1.313-1.313h-93.24c-0.7248 0-1.3123 0.588-1.3123 1.313 0 0.726 0.5875 1.314 1.3123 1.314z" fill="#3AA1C9"/>
    <path d="m55.715 178.84h93.24c0.725 0 1.313-0.588 1.313-1.313 0-0.726-0.588-1.314-1.313-1.314h-93.24c-0.7248 0-1.3123 0.588-1.3123 1.314 0 0.725 0.5875 1.313 1.3123 1.313z" fill="#3AA1C9"/>
    <path d="m397.47 151.35h-208.28v162.58h208.28v-162.58z" fill="#fff"/>
    <path d="m388.85 160.32h-164.98v8.277h164.98v-8.277z" fill="#D4EEF4"/>
    <path d="m388.85 181.65h-190.59v28.822h190.59v-28.822z" fill="#D4EEF4"/>
    <path d="m388.85 209.53h-190.59v95.211h190.59v-95.211z" fill="#DEF8FC"/>
    <path d="m219.22 165.4c0.524-2.225-0.852-4.455-3.075-4.98s-4.45 0.853-4.975 3.078 0.852 4.455 3.075 4.98 4.45-0.853 4.975-3.078z" fill="#D4EEF4"/>
    <path d="m203.98 168.28c2.11-0.875 3.112-3.297 2.238-5.409s-3.293-3.115-5.403-2.24-3.112 3.296-2.238 5.409c0.874 2.112 3.293 3.115 5.403 2.24z" fill="#D4EEF4"/>
    <path d="m352.94 188.3h-148.85v2.844h148.85v-2.844z" fill="#fff"/>
    <path d="m352.94 197.48h-148.85v2.843h148.85v-2.843z" fill="#fff"/>
    <g style="mix-blend-mode:multiply">
        <path d="m264.43 219.46h117.62c0.725 0 1.312-0.588 1.312-1.314 0-0.725-0.587-1.313-1.312-1.313h-117.62c-0.725 0-1.312 0.588-1.312 1.313 0 0.726 0.587 1.314 1.312 1.314z" fill="#D4EEF4"/>
    </g>
    <g style="mix-blend-mode:multiply">
        <path d="m264.43 227.44h117.62c0.725 0 1.312-0.588 1.312-1.313 0-0.726-0.587-1.314-1.312-1.314h-117.62c-0.725 0-1.312 0.588-1.312 1.314 0 0.725 0.587 1.313 1.312 1.313z" fill="#D4EEF4"/>
    </g>
    <g style="mix-blend-mode:multiply">
        <path d="m264.43 235.43h117.62c0.725 0 1.312-0.588 1.312-1.314 0-0.725-0.587-1.314-1.312-1.314h-117.62c-0.725 0-1.312 0.589-1.312 1.314 0 0.726 0.587 1.314 1.312 1.314z" fill="#D4EEF4"/>
    </g>
    <g style="mix-blend-mode:multiply">
        <path d="m264.43 251.4h117.62c0.725 0 1.312-0.588 1.312-1.313 0-0.726-0.587-1.314-1.312-1.314h-117.62c-0.725 0-1.312 0.588-1.312 1.314 0 0.725 0.587 1.313 1.312 1.313z" fill="#D4EEF4"/>
    </g>
    <g style="mix-blend-mode:multiply">
        <path d="m264.43 259.39h117.62c0.725 0 1.312-0.588 1.312-1.314s-0.587-1.314-1.312-1.314h-117.62c-0.725 0-1.312 0.588-1.312 1.314s0.587 1.314 1.312 1.314z" fill="#D4EEF4"/>
    </g>
    <g style="mix-blend-mode:multiply">
        <path d="m264.43 267.38h117.62c0.725 0 1.312-0.588 1.312-1.313 0-0.726-0.587-1.314-1.312-1.314h-117.62c-0.725 0-1.312 0.588-1.312 1.314 0 0.725 0.587 1.313 1.312 1.313z" fill="#D4EEF4"/>
    </g>
    <g style="mix-blend-mode:multiply">
        <path d="m264.43 283.35h117.62c0.725 0 1.312-0.588 1.312-1.314s-0.587-1.314-1.312-1.314h-117.62c-0.725 0-1.312 0.588-1.312 1.314s0.587 1.314 1.312 1.314z" fill="#D4EEF4"/>
    </g>
    <g style="mix-blend-mode:multiply">
        <path d="m264.43 291.34h117.62c0.725 0 1.312-0.588 1.312-1.313 0-0.726-0.587-1.314-1.312-1.314h-117.62c-0.725 0-1.312 0.588-1.312 1.314 0 0.725 0.587 1.313 1.312 1.313z" fill="#D4EEF4"/>
    </g>
    <path d="m255.5 216.83h-50.094v44.978h50.094v-44.978z" fill="#D4EEF4"/>
    <path d="m255.5 273.6h-50.094v17.735h50.094v-17.735z" fill="#D4EEF4"/>
    <g style="mix-blend-mode:multiply">
        <path d="m208.92 251.4 8.522-14.104 12.595 5.377 8.428-17.865 12.688 26.592h-42.233z" fill="#D4EEF4"/>
    </g>
    <g style="mix-blend-mode:multiply">
        <path d="m225.35 232.51c1.958-0.812 2.888-3.06 2.077-5.02s-3.056-2.891-5.015-2.079c-1.958 0.812-2.888 3.059-2.077 5.019 0.812 1.961 3.057 2.892 5.015 2.08z" fill="#D4EEF4"/>
    </g>
    <path d="m381.19 338.72h-254.09v0.639h254.09v-0.639z" fill="#21111D"/>
    <path d="m451 186.35 6.839-4.955 0.45-0.325 6.839-4.955 61.633 73.869c1.734 2.078 1.345 5.191-0.847 6.778l-17.404 12.604c-2.189 1.586-5.267 0.983-6.693-1.316l-50.814-81.703-3e-3 3e-3z" fill="#FF424D"/>
    <path d="m467.5 176.92-16.36 11.85c-1.078 0.781-2.587 0.539-3.367-0.54l-5.738-7.939 20.266-14.68 5.738 7.939c0.78 1.078 0.538 2.589-0.539 3.37z" fill="#F99247"/>
    <path d="m455.46 186.13 11.032-7.992c1.949-1.41 2.386-4.144 0.977-6.092l-4.84-6.696-0.674 0.489 4.84 6.696c1.14 1.578 0.786 3.788-0.791 4.931l-11.032 7.992 0.488 0.674v-2e-3z" fill="#21111D"/>
    <g style="mix-blend-mode:multiply">
        <path d="m457.48 167.61c17.853-17.873 17.853-46.849 0-64.722-17.854-17.872-46.801-17.872-64.654 0-17.854 17.873-17.854 46.849 0 64.722 17.853 17.872 46.8 17.872 64.654 0z" fill="#D4EEF4"/>
    </g>
    <path d="m404.97 131.32c1.502-9.374-0.907-17.555-5.38-18.273-4.472-0.718-9.315 6.299-10.817 15.673s0.907 17.555 5.38 18.273c4.472 0.718 9.315-6.299 10.817-15.673z" fill="#F3FFFE"/>
    <path d="m466.58 177.51-0.637 0.535 61.306 73.189 0.637-0.535-61.306-73.189z" fill="#21111D"/>
    <path d="m431.63 96.162 0.234-0.7994c-0.1-0.0305-10.112-2.9049-19.26 1.1227l0.335 0.7613c8.864-3.9029 18.591-1.1151 18.688-1.0871l3e-3 0.0025z" fill="#21111D"/>
    <path d="m432.51 101.84 0.234-0.8c-0.099-0.03-10.112-2.9045-19.26 1.123l0.335 0.761c8.864-3.9025 18.592-1.115 18.688-1.087l3e-3 3e-3z" fill="#21111D"/>
    <path d="m451.95 172.33c-20.455 14.817-49.036 10.226-63.838-10.25-14.801-20.477-10.216-49.088 10.239-63.905 20.456-14.817 49.037-10.227 63.838 10.25 14.802 20.477 10.216 49.087-10.239 63.905zm16.129-68.172c-17.154-23.733-50.279-29.051-73.99-11.879-23.708 17.172-29.021 50.332-11.867 74.068 17.154 23.732 50.28 29.051 73.991 11.879 23.708-17.172 29.02-50.332 11.866-74.068z" fill="#FECC86"/>
    <path d="m456.46 178.56c23.856-17.279 29.222-50.767 11.961-74.648-17.261-23.88-50.715-29.252-74.57-11.973-11.186 8.1011-18.719 20.044-21.216 33.629l0.816 0.15c2.457-13.374 9.876-25.131 20.885-33.104 23.485-17.012 56.417-11.724 73.408 11.788 16.994 23.509 11.712 56.476-11.775 73.485-10.9 7.894-24.25 11.288-37.584 9.552l-0.107 0.825c13.548 1.764 27.106-1.683 38.179-9.703h3e-3z" fill="#21111D"/>
    <path d="m184.48 87.776 3.219 1.3926 3.581 1.7006s5.562 0.9675 5.641 0.9497c0.013-0.0026-0.463 0.8274-0.463 0.8274 6.9 0.8528 28.647 1.7465 32.218 2.1462 2.152 0.2393 4.222 2.9201 5.524 5.0103l-1.768 1.1963s-18.993-0.837-18.954-0.438c0.012 0.128 0.546 2.014 1.381 4.484-11.73 0.784-28.157 0.71-31.209-4.13-2.502-3.9688-0.063-9.6665 0.827-13.137l3e-3 -0.0025z" fill="#FE9F73"/>
    <path d="m258.25 173.11-14.43 0.198-0.206-13.506 14.374-1.782 0.262 15.09z" fill="#FE9F73"/>
    <path d="m272.16 178.12-29.25-3.564 0.71-5.841s2.469-2.543 5.534-0.717c0 0 4.377 4.03 9.196 0.44l10.27 5.934s3.782 1.765 3.54 3.751v-3e-3z" fill="#3AA1C9"/>
    <path d="m272.87 180.29-30.222-3.682 0.248-2.045 30.222 3.683c0.164 0.02 0.285 0.17 0.264 0.337l-0.176 1.446c-0.02 0.164-0.17 0.284-0.337 0.264l1e-3 -3e-3z" fill="#472A31"/>
    <path d="m261.38 170.19c-1.167 1.4-3.507 4.216-4.997 6.006l-1.994-0.242c1.33-1.599 4.12-4.954 5.509-6.619l1.482 0.858v-3e-3z" fill="#D7E4F7"/>
    <path d="m259.58 176.59-1.994-0.241c1.083-1.301 3.194-3.84 4.69-5.637l1.482 0.858c-1.256 1.51-2.996 3.6-4.178 5.02z" fill="#D7E4F7"/>
    <path d="m213.37 124.95s-12.424 0.204-21.13-0.094c-2.795-0.097-5.282 0.102-6.755-0.227-6.06-1.347-7.553-20.283-0.671-31.887 6.882-11.602 30.959 24.02 30.959 24.02l-2.401 8.188h-2e-3z" fill="#FECC86"/>
    <path d="m235.85 173.11-14.431 0.198-0.208-13.506 14.374-1.782 0.265 15.09z" fill="#FE9F73"/>
    <path d="m248.71 179.59-28.883-5.84 1.164-5.766s2.661-2.342 5.573-0.283c0 0 4.048 4.361 9.135 1.156l9.774 6.719s3.631 2.054 3.237 4.014z" fill="#4CB7D8"/>
    <path d="m249.26 181.81-29.842-6.034 0.407-2.019 29.842 6.034c0.162 0.033 0.27 0.192 0.237 0.357l-0.288 1.428c-0.033 0.162-0.192 0.27-0.357 0.237l1e-3 -3e-3z" fill="#683D46"/>
    <path d="m238.6 170.85c-1.271 1.306-3.827 3.929-5.45 5.596l-1.968-0.397c1.452-1.492 4.494-4.616 6.009-6.169l1.412 0.97h-3e-3z" fill="#D7E4F7"/>
    <path d="m236.3 177.09-1.968-0.397c1.18-1.212 3.484-3.577 5.114-5.252l1.412 0.97c-1.371 1.405-3.268 3.355-4.558 4.679z" fill="#D7E4F7"/>
    <path d="m226.75 99.607s30.517 1.9524 31.397 5.4784c0.88 3.529 3.405 41.033 1.518 57.031 0 0-11.579 0.797-17.116-0.545l-1.348-39.013-9.14-1.049-20.939-25.197 15.626 3.2943h2e-3z" fill="#FFB357"/>
    <path d="m212.09 99.029s23.535 6.6474 24.415 10.175c0.88 3.529 3.388 36.997 1.501 52.998 0 0-12.449 0.713-17.988-0.629l-1.493-36.8-5.372 0.188-13.021-22.933 11.956-2.9944 2e-3 -5e-3z" fill="#FECC86"/>
    <path d="m227.48 162.64c-5.501 0-7.461-0.83-7.556-0.87l-0.122-0.054-1.444-37.017 2.273 1.074-0.18 0.385-1.641-0.774 1.407 36.044c0.595 0.207 3.449 1.032 10.188 0.718l0.02 0.426c-1.078 0.05-2.057 0.071-2.942 0.071l-3e-3 -3e-3z" fill="#21111D"/>
    <path d="m222.33 154.65c-0.588-2.266-0.755-24.38-0.763-25.319h0.425c0 0.227 0.175 22.997 0.747 25.212l-0.412 0.107h3e-3z" fill="#21111D"/>
    <path d="m244.2 123.39c-2.79-0.904-6.632-1.038-6.671-1.041l0.013-0.425c0.038 0 3.94 0.137 6.788 1.061l-0.13 0.405z" fill="#21111D"/>
    <path d="m250.48 162.56c-4.7 0-7.948-0.771-7.981-0.779l-0.158-0.038-1.363-39.446 1.74 1.403-0.267 0.331-1.018-0.82 1.32 38.193c0.72 0.156 3.858 0.777 8.136 0.731l5e-3 0.425h-0.414z" fill="#21111D"/>
    <path d="m244.56 155.48c-0.585-3.424-0.028-26.604-3e-3 -27.59l0.425 0.011c-5e-3 0.242-0.58 24.122-2e-3 27.508l-0.42 0.071z" fill="#21111D"/>
    <path d="m204.02 125.35c-5.419 0-11.92-0.184-19.224-0.734l0.033-0.422c21.767 1.642 36.366 0.018 36.511 0l0.048 0.42c-0.097 0.01-6.602 0.736-17.365 0.736h-3e-3z" fill="#21111D"/>
    <path d="m211.48 87.152c0.42-0.0076 17.325 7.2711 17.325 7.2711l-3.408 6.5248-9.487-2.0848-4.432-11.711h2e-3z" fill="#FD7583"/>
    <path d="m186.98 56.823s-7.187-0.252-10.621 1.6956c-5.122 2.9048-3.296 19.537-3.296 19.537s4.352-2.3754 4.616-3.1671c0.265-0.7918 9.301-18.063 9.301-18.063v-0.0026z" fill="#FD7583"/>
    <path d="m185.24 92.926s0.018 0.0051 0.026 0.0077l5.287 1.2118c0.107 0.0255 0.214-0.0432 0.237-0.1476 0.022-0.1044-0.041-0.2113-0.148-0.2368l-5.287-1.2118c-0.107-0.0255-0.214 0.0432-0.237 0.1476-0.023 0.0968 0.031 0.1961 0.122 0.2291z" fill="#21111D"/>
    <path d="m182.48 89.78 3.22 1.3926 3.581 1.7007s5.562 0.9674 5.641 0.9496c0.013-0.0025-0.463 0.8274-0.463 0.8274 6.9 0.8529 28.647 1.7465 32.218 2.1462 2.151 0.2393 4.222 2.9202 5.524 5.01l-1.768 1.197s-18.993-0.838-18.954-0.438c0.012 0.127 0.546 2.014 1.38 4.483-11.729 0.784-28.156 0.711-31.208-4.129-2.502-3.9692-0.063-9.6669 0.827-13.137l2e-3 -0.0026z" fill="#F9B59D"/>
    <path d="m180.02 58.121c4.084-0.5652 14.865-0.9572 14.865-0.9572s1.429 0.3742 0.974 0.1629c11.905 2.1055 13.22 10.942 13.22 10.942l5.811 25.535 6.468 0.3514c2.093 3.969 0.557 14.677 0.557 14.677l-31.323 3.534s-6.77 1.117-12.495-6.233c-3.787-4.862-5.076-19.794-5.074-30.703 0 0 0.651-16.426 6.999-17.307l-2e-3 -0.0026z" fill="#FD7583"/>
    <path d="m267.76 77.893h-29.824l-10.4 26.513h29.822l10.402-26.513z" fill="#E23E3D"/>
    <path d="m227.53 104.41h1.557l10.399-26.513h-1.556l-10.4 26.513z" fill="#CC2323"/>
    <path d="m248.26 90.304c-0.415 1.2169-0.109 2.4211 0.677 2.691 0.785 0.2673 1.759-0.5016 2.174-1.7211 0.415-1.2169 0.109-2.4211-0.676-2.691-0.786-0.2673-1.76 0.5016-2.175 1.7211z" fill="#E2F2F1"/>
    <path d="m217.67 102.26h11.142v2.141h-11.142c-0.59 0-1.071-0.479-1.071-1.072 0-0.591 0.478-1.072 1.071-1.072v3e-3z" fill="#CC2323"/>
    <path d="m220.49 103.34h7.037v-0.336h-7.037v0.336z" fill="#E23E3D"/>
    <path d="m190.55 94.245c0.035 0.0127 0.076 0.0178 0.114 0.0076 0.107-0.0254 0.173-0.1324 0.148-0.2393-0.033-0.14-3.306-14.069-4.7-22.834-0.018-0.1069-0.12-0.1808-0.226-0.1655-0.107 0.0178-0.181 0.1197-0.166 0.2266 1.396 8.7808 4.672 22.725 4.705 22.862 0.015 0.0662 0.064 0.1171 0.122 0.14l3e-3 0.0026z" fill="#21111D"/>
    <path d="m210.81 94.016c0.041 0.0153 0.087 0.0178 0.13 0.0025 0.104-0.0331 0.163-0.1451 0.13-0.2495-0.049-0.1553-4.906-15.581-5.921-20.914-0.02-0.1069-0.125-0.1782-0.232-0.1578-0.106 0.0204-0.178 0.1247-0.157 0.2317 1.02 5.3565 5.882 20.802 5.931 20.958 0.017 0.0611 0.063 0.1043 0.119 0.1247v0.0051z" fill="#21111D"/>
    <path d="m191.07 64.649c0.153 0.0153 0.308 0.0306 0.468 0.0408 0.092 0.0051 0.168-0.0611 0.176-0.1528 5e-3 -0.0916-0.059-0.168-0.153-0.1756-6.813-0.4787-8.077-5.4712-8.087-5.5221-0.018-0.0865-0.102-0.1476-0.188-0.1324-0.089 0.0153-0.148 0.0942-0.135 0.1833 7e-3 0.051 1.264 5.0689 7.922 5.7588h-3e-3z" fill="#21111D"/>
    <path d="m212.2 90.334c0.089 0.0331 0.19 0 0.241-0.0866l1.328-2.2786-0.018-0.0763-4.476-19.664c-0.028-0.1782-0.415-2.4695-2.355-4.9951-1.819-2.3676-5.407-5.382-12.167-6.2807-0.109-0.0152-0.209 0.0611-0.221 0.1706-0.016 0.1069 0.061 0.2088 0.17 0.2215 6.613 0.8809 10.117 3.8086 11.892 6.1127 1.923 2.495 2.289 4.8143 2.294 4.8372v0.0153l4.464 19.593-1.249 2.1437c-0.056 0.0942-0.023 0.2164 0.071 0.2698 0.01 0.0051 0.021 0.0102 0.031 0.0153l-5e-3 0.0026z" fill="#21111D"/>
    <path d="m219.2 90.408c0.102 0.0382 0.214-0.0102 0.254-0.112 0.041-0.1019-0.01-0.2164-0.109-0.2572l-5.715-2.2811c-0.104-0.0356-0.216 0.0077-0.257 0.1095-0.04 0.1018 0.011 0.2164 0.11 0.2571l5.714 2.2811h3e-3v0.0026z" fill="#21111D"/>
    <path d="m221.36 94.153s2.068 4.883 0.557 14.677l-7.558-4.058 2.246-7.3167 4.758-3.2994-3e-3 -0.0026z" fill="#FD7583"/>
    <path d="m183.72 94.421c0.022 0.0077 0.048 0.0128 0.076 0.0128 0.282-0.0077 28.268-0.8504 37.424-0.0942 0.226 0.6008 1.258 3.7094 0.969 9.3968-6e-3 0.11 0.078 0.204 0.188 0.209 0.109 5e-3 0.201-0.079 0.208-0.189 0.328-6.4458-0.986-9.5543-1.042-9.6841l-0.049-0.1095-0.117-0.0102c-9.049-0.7765-37.307 0.0738-37.591 0.0815-0.11 0.0025-0.196 0.0942-0.191 0.2037 0 0.0814 0.056 0.1527 0.127 0.1782l-2e-3 5e-3z" fill="#21111D"/>
    <path d="m196.52 42.314 0.223 8.6179s0.189 2.7674-2.225 3.1772l0.547 3.684c0.203 1.3696-0.583 2.7062-1.89 3.1569-0.638 0.2214-1.404 0.3895-2.276 0.4124-2.767 0.0713-4.321-1.968-4.578-2.9991-0.257-1.0336 0.305-6.0134 0.305-6.0134l-0.147-2.4364 0.071-9.458 9.97 1.8585z" fill="#FE9F73"/>
    <path d="m188.84 51.899s0.282 4.6309 6.078 4.9237l-0.404-2.7164s-3.731 0.8528-5.674-2.2073z" fill="#F07162"/>
    <path d="m189.95 47.006c-0.028 0-0.059-0.0102-0.082-0.0305-0.045-0.0433-0.051-0.1171-7e-3 -0.163 0.015-0.0178 1.559-1.6828 3.039-0.5499 0.051 0.0382 0.061 0.112 0.023 0.163-0.038 0.0509-0.112 0.0611-0.163 0.0229-1.31-1.0031-2.67 0.4608-2.729 0.5219-0.023 0.0229-0.051 0.0356-0.081 0.0382v-0.0026z" fill="#49263E"/>
    <path d="m185.95 45.898 2.503 0.4532 0.463 0.4557s-0.323-4.1702-0.814-4.9797c-0.491-0.8096-2.149 4.0708-2.149 4.0708h-3e-3z" fill="#4C222E"/>
    <path d="m194.69 46.189c-0.033 0-0.064-0.0128-0.089-0.0382-0.043-0.0458-0.041-0.1197 8e-3 -0.163 0.045-0.0407 1.121-1.0107 1.831-0.4328 0.048 0.0408 0.056 0.1121 0.018 0.163-0.041 0.0484-0.112 0.056-0.163 0.0178-0.557-0.4532-1.521 0.415-1.531 0.4252-0.021 0.0203-0.049 0.0305-0.074 0.0305v-0.0025z" fill="#49263E"/>
    <path d="m192.3 47.411c5e-3 0.191-0.145 0.3514-0.336 0.3565s-0.351-0.1451-0.356-0.3361c-5e-3 -0.1909 0.145-0.3513 0.336-0.3564s0.351 0.1451 0.356 0.336z" fill="#000"/>
    <path d="m195.96 46.97c5e-3 0.191-0.145 0.3514-0.335 0.3564-0.191 0.0051-0.351-0.1451-0.356-0.336-5e-3 -0.191 0.145-0.3513 0.335-0.3564 0.191-0.0051 0.351 0.1451 0.356 0.336z" fill="#000"/>
    <path d="m189.44 47.365c0.031 1.1482-0.875 2.1029-2.022 2.1309-1.147 0.0306-2.1-0.8758-2.128-2.024-0.028-1.1481 0.875-2.1029 2.022-2.1309 1.147-0.0305 2.1 0.8758 2.128 2.024z" fill="#FE9F73"/>
    <path d="m187.03 48.582c-0.433 0.0102-0.728-0.3055-0.832-0.6263-0.122-0.3793-2e-3 -0.7561 0.303-0.9572 0.452-0.2979 0.875-0.1248 1.091 0.0102-0.097-0.2343-0.242-0.4023-0.433-0.5016-0.414-0.2138-0.918-0.0382-0.923-0.0356-0.03 0.0102-0.063-0.0051-0.073-0.0357-0.011-0.0305 5e-3 -0.0636 0.035-0.0738 0.023-0.0076 0.555-0.196 1.015 0.0407 0.264 0.1375 0.45 0.387 0.549 0.7434l0.056 0.1986-0.15-0.1426c-0.02-0.0203-0.526-0.4888-1.101-0.1094-0.318 0.2087-0.336 0.5753-0.257 0.8248 0.084 0.2597 0.32 0.5576 0.717 0.5474h0.013c0.03 0 0.058 0.0229 0.058 0.056 0 0.0306-0.022 0.0586-0.056 0.0611h-0.012z" fill="#F07162"/>
    <path d="m193.58 49.715c-0.026 0-0.049-0.0153-0.056-0.0382-0.01-0.0306 5e-3 -0.0637 0.035-0.0738l1.147-0.4125-0.435-2.7139c-5e-3 -0.0306 0.016-0.0611 0.049-0.0662 0.03-0.0051 0.061 0.0153 0.066 0.0484l0.45 2.8081-1.236 0.4455s-0.013 0.0026-0.018 0.0026h-2e-3z" fill="#F07162"/>
    <path d="m192.71 50.863c0.036-0.0076 2.282-0.1196 2.282-0.1196s-0.257 0.9369-1.094 0.9801c-0.834 0.0433-1.188-0.863-1.188-0.863v0.0025z" fill="#FBFDFC"/>
    <path d="m185.95 45.898s-0.806-4.0276 0.392-5.5678c1.198-1.5403 8.23-4.3637 9.11-3.6305 0.88 0.7307 0.043 1.6701 0.043 1.6701s2.828-0.9903 3.537 1.525c0.713 2.5154-5.394 3.7501-9.081 2.6605 0 0-2.401 0.7688-4.004 3.3427h3e-3z" fill="#4C222E"/>
    <path d="m185.14 111.78c0.466 0.176 0.903 0.313 1.305 0.42 2.421 0.644 4.112 0.377 4.183 0.364 0.107-0.018 0.181-0.12 0.163-0.226-0.018-0.107-0.119-0.181-0.226-0.163-0.018 2e-3 -1.694 0.264-4.039-0.362-2.162-0.578-5.351-2.052-8.27-5.799-3.663-4.703-5-19.179-5.034-30.146 0-0.1095-0.089-0.1986-0.198-0.1986s-0.198 0.0891-0.198 0.1986c0.033 11.029 1.393 25.606 5.117 30.387 2.449 3.145 5.094 4.728 7.195 5.522l2e-3 3e-3z" fill="#21111D"/>
    <path d="m247.13 325.06c-0.155-0.117-3.614-2.91-3.886-3.04-2.543 1.719-2.205 6.37-5.008 8.259 1.819 0.384 3.108 0.629 3.625 0.703l1.556 3.459 0.214 0.907c0.101 0.43 0.605 0.741 1.126 0.697 0.522-0.043 0.86-0.427 0.761-0.858l0.089 0.38c0.101 0.43 0.605 0.741 1.126 0.697 0.522-0.043 0.86-0.427 0.761-0.858 0.102 0.431 0.605 0.741 1.126 0.698 0.522-0.043 0.86-0.428 0.761-0.858l-0.089-0.379c0.102 0.43 0.605 0.741 1.127 0.697 0.03-2e-3 0.061-7e-3 0.089-0.01 0.033-5e-3 0.066-0.013 0.099-0.02 0.493-0.117 0.702-0.339 0.753-0.576 0.104-0.491-0.644-3.205-0.969-4.488-0.481-2.004-1.392-4.002-3.256-5.415l-5e-3 5e-3z" fill="#F9956E"/>
    <path d="m249.39 335.28c0.017 0 0.033-2e-3 0.05-0.01 0.077-0.028 0.115-0.112 0.087-0.186l-2.05-5.512c-0.028-0.076-0.112-0.112-0.186-0.086-0.076 0.028-0.114 0.112-0.086 0.186l2.05 5.512c0.023 0.058 0.076 0.094 0.135 0.094v2e-3z" fill="#F07162"/>
    <path d="m247.52 335.72c0.018 0 0.033-2e-3 0.051-0.01 0.076-0.028 0.114-0.112 0.086-0.186l-1.859-5c-0.028-0.076-0.112-0.112-0.185-0.087-0.077 0.028-0.115 0.112-0.087 0.186l1.859 5c0.023 0.059 0.077 0.095 0.135 0.095v2e-3z" fill="#F07162"/>
    <path d="m239.39 318.83c2.741 2.236 7.67 6.263 8.688 7.177 1.421 1.281-5.222 6.813-5.222 6.813s-7.691-4.076-11.92-6.986l8.454-7.004z" fill="#F9956E"/>
    <path d="m245.58 335.62c0.018 0 0.033-3e-3 0.051-0.01 0.076-0.028 0.114-0.112 0.086-0.186l-1.495-4.018c-0.028-0.076-0.112-0.112-0.186-0.086-0.076 0.028-0.114 0.112-0.086 0.186l1.495 4.017c0.023 0.059 0.076 0.094 0.135 0.094v3e-3z" fill="#F07162"/>
    <path d="m267.19 331.05c0.048 0 0.096-0.018 0.137-0.051l3.057-2.65c0.086-0.076 0.096-0.206 0.02-0.295-0.076-0.087-0.206-0.097-0.295-0.021l-3.057 2.651c-0.086 0.076-0.096 0.206-0.02 0.295 0.041 0.048 0.099 0.071 0.158 0.071z" fill="#21111D"/>
    <path d="m205.33 336.02s2.434-7.376 28.347-6.006c29.624 1.566 49.802-3.554 55.046 6.006l-41.05 15.255-42.34-15.255h-3e-3z" fill="#FF424D"/>
    <path d="m251.93 349.16s-23.505-14.176-31.75-16.304-13.952 0.68-14.85 3.162c-0.895 2.485-1.739 9.188 3.744 13.142 2.373 1.711 29.486 9.784 36.656 11.668 0 0 6.653-2.803 6.2-11.668z" fill="#FF424D"/>
    <path d="m246.95 346.44c0.071 0 0.14-0.036 0.178-0.102 0.059-0.099 0.028-0.227-0.071-0.285-22.508-13.468-29.881-14.132-30.186-14.155-0.117-0.011-0.213 0.079-0.224 0.193-7e-3 0.115 0.079 0.214 0.194 0.224 0.074 5e-3 7.622 0.705 30 14.097 0.033 0.02 0.071 0.03 0.107 0.03l2e-3 -2e-3z" fill="#21111D"/>
    <path d="m240.95 363.12 10.63-5.42-5.112-10.048-8.672 4.422s-14.339-0.122-15.023 0.55c-0.687 0.672 14.848 12.197 18.179 10.499l-2e-3 -3e-3z" fill="#FE9F73"/>
    <path d="m244.6 361.26c-3.052-3.368-4.712-8.251-5.231-9.987l-1.574 0.802s-14.339-0.122-15.023 0.55c-0.687 0.672 14.847 12.197 18.179 10.499l3.652-1.861-3e-3 -3e-3z" fill="#472A31"/>
    <path d="m242.12 349.16s23.504-14.176 31.75-16.304c8.245-2.128 13.952 0.68 14.85 3.162 0.895 2.485 1.739 9.188-3.744 13.142-2.373 1.711-31.386 10.298-38.556 12.182 0 0-4.753-3.317-4.3-12.182z" fill="#FF424D"/>
    <path d="m246.42 361.55c0.069 0 0.135-0.034 0.173-0.095 0.064-0.096 0.036-0.226-0.058-0.287-3.968-2.62-4.194-10.808-4.207-11.89 1.646-0.957 22.068-12.803 30.211-15.861 0.107-0.04 0.163-0.16 0.122-0.267-0.04-0.107-0.16-0.163-0.267-0.122-8.479 3.18-30.16 15.823-30.379 15.95l-0.101 0.061v0.12c-6e-3 0.384-0.026 9.44 4.392 12.357 0.035 0.023 0.076 0.036 0.114 0.036v-2e-3z" fill="#21111D"/>
    <path d="m207.76 335.8c0.064 0 0.13-0.03 0.171-0.086 0.012-0.018 0.839-1.09 3.53-1.057 0.119 3e-3 0.208-0.092 0.211-0.206 0-0.115-0.092-0.209-0.206-0.212-2.94-0.035-3.838 1.179-3.874 1.23-0.066 0.094-0.043 0.224 0.051 0.29 0.036 0.026 0.079 0.039 0.12 0.039l-3e-3 2e-3z" fill="#21111D"/>
    <path d="m209.1 336.84c0.053 0 0.109-0.02 0.15-0.063 0.015-0.015 0.989-0.955 3.647-0.527 0.114 0.018 0.221-0.059 0.239-0.173 0.018-0.115-0.058-0.222-0.173-0.24-2.907-0.466-3.97 0.604-4.013 0.65-0.079 0.084-0.076 0.216 8e-3 0.295 0.04 0.038 0.091 0.058 0.144 0.058h-2e-3z" fill="#21111D"/>
    <path d="m252.48 274.82s-1.236 11.12-2.894 11.23c-1.658 0.112 1.145 13.134 5.542 6.754 1.541-2.235 1.472-16.864-2.205-19.993-3.678-3.129-0.443 2.009-0.443 2.009z" fill="#49263E"/>
    <path d="m253.08 272.03s1.526 10.505 0.153 12.376c0 0-0.672 0.996-2.31 1.046l0.13 6.174-7.416-0.848-0.247-17.559s2.114-4.34 2.116-4.162c0 0.178 7.576 2.973 7.576 2.973h-2e-3z" fill="#FE9F73"/>
    <path d="m250.82 280.8c-0.023 0-0.043-0.02-0.048-0.053-5e-3 -0.036 0.01-0.072 0.035-0.082 0.305-0.097 0.491-0.631 0.544-0.807-0.44-0.321-0.712-0.743-0.806-1.258-0.155-0.835 0.209-1.598 0.224-1.629s0.043-0.038 0.066-0.018 0.028 0.064 0.013 0.094c-3e-3 8e-3 -0.356 0.746-0.211 1.52 0.091 0.489 0.358 0.891 0.796 1.197l0.038 0.028-0.015 0.056c-8e-3 0.033-0.214 0.815-0.628 0.944h-0.011l3e-3 8e-3z" fill="#F07162"/>
    <path d="m250.95 287.55-0.031-2.101s-3.55-0.157-5.745-1.499c0 0 2.993 2.8 5.773 3.6h3e-3z" fill="#F07162"/>
    <path d="m245.91 277.31c-0.033 0-0.066-0.012-0.094-0.035-0.054-0.051-0.056-0.135-8e-3 -0.191 0.018-0.018 1.712-1.803 3.301-0.558 0.059 0.046 0.069 0.13 0.023 0.189-0.045 0.058-0.129 0.068-0.188 0.022-1.396-1.092-2.876 0.461-2.94 0.53-0.025 0.028-0.061 0.043-0.097 0.043h3e-3z" fill="#49263E"/>
    <path d="m251.43 276.95c-0.038 0-0.076-0.015-0.102-0.045-0.048-0.056-0.043-0.14 0.01-0.189 0.051-0.043 1.229-1.084 1.997-0.443 0.056 0.049 0.063 0.133 0.018 0.189-0.049 0.056-0.133 0.066-0.189 0.017-0.59-0.491-1.635 0.431-1.645 0.438-0.025 0.023-0.056 0.033-0.087 0.033h-2e-3z" fill="#49263E"/>
    <path d="m248.61 278.02c3e-3 0.206-0.163 0.376-0.369 0.379-0.206 2e-3 -0.376-0.163-0.379-0.369-2e-3 -0.207 0.163-0.377 0.369-0.38 0.206-2e-3 0.377 0.163 0.379 0.37z" fill="#000"/>
    <path d="m252.98 277.97c2e-3 0.206-0.163 0.376-0.369 0.379s-0.377-0.163-0.379-0.369c-3e-3 -0.206 0.163-0.377 0.369-0.379 0.206-3e-3 0.376 0.162 0.379 0.369z" fill="#000"/>
    <path d="m248.98 281.42c0.043 0 2.64 0.287 2.64 0.287s-0.471 1.029-1.437 0.925c-0.967-0.105-1.206-1.212-1.206-1.212h3e-3z" fill="#FBFDFC"/>
    <path d="m249.86 272.23-1.801-2.5s2.894 1.813 2.653 1.887c-0.239 0.074-0.852 0.613-0.852 0.613z" fill="#FE9F73"/>
    <path d="m244.46 271.05s0.516 3.918 9.89 4.707c0 0 2.177-5.797-4.628-7.734-6.808-1.938-7.427 3.289-7.289 3.241 0.137-0.049 2.027-0.214 2.027-0.214z" fill="#49263E"/>
    <path d="m245.88 273.24s-1.732 2.576-2.536 4.435c0 0 3.128 16.408-3.181 15.489l-1.13-0.015c-5.582-0.077-1.719-12.17-1.622-18.588 0.058-4.017 4.934-8.098 8.102-5.649 3.172 2.449 0.364 4.33 0.364 4.33l3e-3 -2e-3z" fill="#49263E"/>
    <path d="m244.94 279.69c0.015 1.158-0.908 2.11-2.065 2.125-1.158 0.016-2.109-0.908-2.124-2.067-0.015-1.158 0.908-2.11 2.065-2.126 1.157-0.015 2.108 0.909 2.124 2.068z" fill="#FE9F73"/>
    <path d="m242.71 281.01c-0.44 5e-3 -0.738-0.32-0.84-0.649-0.119-0.389 5e-3 -0.771 0.321-0.972 0.447-0.288 0.862-0.13 1.086 7e-3 -0.094-0.221-0.232-0.382-0.417-0.481-0.415-0.219-0.918-0.048-0.924-0.046-0.035 0.013-0.073-7e-3 -0.086-0.04-0.013-0.036 5e-3 -0.074 0.041-0.087 0.023-8e-3 0.564-0.194 1.03 0.053 0.269 0.143 0.452 0.4 0.549 0.762l0.061 0.231-0.173-0.168c-0.02-0.02-0.521-0.494-1.099-0.122-0.317 0.204-0.34 0.57-0.264 0.82 0.081 0.262 0.318 0.565 0.72 0.555 0.035 0 0.068 0.028 0.068 0.066s-0.028 0.069-0.066 0.069h-0.012l5e-3 2e-3z" fill="#F07162"/>
    <path d="m253.5 270.25s3.25 3.435 2.505 13.31l-2.241-9.743-0.264-3.567z" fill="#49263E"/>
    <path d="m251.32 308.98-4.517-18.99h-12.309c-1.308 0-3.108 0.863-3.185 0.899-4.939 2.632-18.527 17.625-17.851 27.073 0.616 8.577 12.951 6.871 25.24 8.859l2.731-11.372-4.443-1.192 14.331-5.277h3e-3z" fill="#7FC6A6"/>
    <path d="m247.25 311.78v-21.795h12.309c1.307 0 3.108 0.863 3.184 0.899 4.939 2.632 20.231 18.098 19.555 27.546-0.616 8.577-15.036 8.231-21.796 10.319l-3.756-13.598 0.333-0.692-9.829-2.681v2e-3z" fill="#7FC6A6"/>
    <path d="m267.2 314.74-0.158 23.768s-21.493 3.931-40.63-1.163c-0.471-0.125 0.897-19.644 0.897-19.644s0-3.786 1.994-4.957 18.271-8.399 18.662-8.399c0.392 0 19.235 10.395 19.235 10.395z" fill="#7FC6A6"/>
    <path d="m246.59 296.59c0.122 0 0.224-0.094 0.232-0.219 7e-3 -0.127-0.089-0.239-0.217-0.246-7.062-0.443-9.366-5.286-9.389-5.337-0.054-0.117-0.191-0.168-0.308-0.114-0.117 0.053-0.168 0.191-0.114 0.308 0.023 0.051 2.431 5.143 9.781 5.606h0.015v2e-3z" fill="#21111D"/>
    <path d="m254.38 289.99h-15.57s2.816 4.88 8.194 4.857c2.467-0.01 5.107-0.919 7.376-4.857z" fill="#FE9F73"/>
    <path d="m244.78 321.42c-0.987-1.001-0.074-2.273-0.074-2.273-0.366-1.515 0.038-2.18 0.038-2.18s4.153 1.232 6.513 2.108c1.331-0.201 1.801-0.85 1.801-0.85l0.033 0.056c0.026-1.156 0.059-2.599 0.059-2.762 0-0.275 0.44-0.718 1.129 0.155 0.686 0.873 2.017 3.213 2.017 3.213l3.438-2.019 2.798 9.685s-8.345 1.181-9.629 1.272c-1.284 0.092-5.753-0.962-7.083-2.064-1.33-1.103-1.043-2.088-1.043-2.088-0.987-1.189 0-2.253 0-2.253h3e-3z" fill="#F78C63"/>
    <path d="m253.84 315.01v3s-0.885 1.311-2.581 1.061l-1.29-0.478 1.015-4.362 2.856 0.777v2e-3z" fill="#FD7583"/>
    <path d="m247.53 320.63c0.066 0 0.127-0.041 0.147-0.107 0.026-0.081-0.018-0.168-0.099-0.196-1.139-0.369-2.78-1.311-2.795-1.319-0.074-0.043-0.168-0.017-0.211 0.056-0.043 0.074-0.018 0.168 0.056 0.212 0.068 0.038 1.683 0.967 2.856 1.344 0.015 5e-3 0.033 8e-3 0.048 8e-3l-2e-3 2e-3z" fill="#F07162"/>
    <path d="m247.53 322.59c0.073 0 0.137-0.051 0.152-0.127 0.016-0.084-0.04-0.165-0.124-0.181-1.435-0.267-2.691-0.995-2.704-1.003-0.074-0.043-0.168-0.018-0.211 0.056s-0.018 0.168 0.056 0.211c0.053 0.031 1.315 0.764 2.803 1.039 0.01 0 0.017 3e-3 0.028 3e-3v2e-3z" fill="#F07162"/>
    <path d="m247.19 324.83c0.071 0 0.135-0.048 0.15-0.122 0.018-0.084-0.035-0.166-0.119-0.184-1.231-0.267-2.348-0.977-2.358-0.985-0.071-0.046-0.168-0.025-0.214 0.046-0.045 0.071-0.025 0.168 0.046 0.214 0.049 0.03 1.175 0.748 2.46 1.028 0.01 0 0.022 3e-3 0.033 3e-3h2e-3z" fill="#F07162"/>
    <path d="m257.26 317.04 4.736-1.181s2.67 6.63 2.67 6.851c0 0.222-1.335 6.07-1.503 6.042s-1.684-1.599-1.684-1.599l-4.221-10.113h2e-3z" fill="#4CB7D8"/>
    <path d="m265.97 312.72 2.335-0.374c0.153-0.025 0.259-0.168 0.234-0.323-0.025-0.156-0.168-0.257-0.323-0.235l-1.973 0.316-4.395-6.777c-0.084-0.13-0.26-0.168-0.389-0.084-0.13 0.084-0.168 0.26-0.084 0.389l4.593 7.083 2e-3 5e-3z" fill="#21111D"/>
    <path d="m265.09 296.18c-0.074 0-0.145-0.036-0.191-0.099-1.749-2.516-3.242-2.523-3.242-2.521-0.128 0-0.232-0.104-0.232-0.231 0-0.128 0.102-0.232 0.232-0.235 0.084 0 1.757 0.036 3.624 2.722 0.074 0.104 0.048 0.25-0.059 0.323-0.04 0.028-0.086 0.041-0.132 0.041z" fill="#21111D"/>
    <path d="m264.59 298.54c-0.087 0-0.168-0.049-0.209-0.13-1.34-2.699-2.825-2.969-2.841-2.969-0.124-0.02-0.213-0.137-0.193-0.264 0.02-0.125 0.135-0.214 0.262-0.197 0.069 0.011 1.727 0.28 3.189 3.224 0.056 0.114 0.01 0.254-0.104 0.31-0.033 0.018-0.069 0.026-0.104 0.026z" fill="#21111D"/>
    <path d="m251.51 317.45c-0.063 0.013-0.132-0.015-0.165-0.073-0.043-0.074-0.018-0.168 0.058-0.212 1.041-0.598 2.449-1.856 2.465-1.868 0.063-0.056 0.163-0.051 0.218 0.012 0.056 0.064 0.051 0.163-0.012 0.219-0.059 0.054-1.45 1.294-2.516 1.907-0.015 8e-3 -0.03 0.013-0.045 0.018l-3e-3 -3e-3z" fill="#F07162"/>
    <path d="m251.91 319.37c-0.071 0.015-0.145-0.023-0.175-0.092-0.034-0.078 5e-3 -0.17 0.083-0.201 1.348-0.557 2.427-1.53 2.439-1.54 0.064-0.059 0.161-0.053 0.219 0.01 0.059 0.064 0.054 0.161-0.01 0.219-0.046 0.041-1.129 1.019-2.528 1.596-0.01 3e-3 -0.018 8e-3 -0.028 8e-3z" fill="#F07162"/>
    <path d="m252.71 321.49c-0.068 0.016-0.142-0.02-0.173-0.089-0.035-0.079 0-0.17 0.079-0.203 1.15-0.515 2.096-1.444 2.103-1.452 0.061-0.061 0.158-0.058 0.219 0 0.061 0.061 0.059 0.158 0 0.219-0.041 0.041-0.994 0.975-2.195 1.515-0.01 5e-3 -0.02 8e-3 -0.03 0.01h-3e-3z" fill="#F07162"/>
    <path d="m231.57 312.57-2.362 0.117c-0.156 8e-3 -0.288-0.112-0.295-0.267-8e-3 -0.156 0.111-0.288 0.267-0.296l1.996-0.099 2.899-7.538c0.056-0.145 0.219-0.219 0.364-0.163s0.219 0.219 0.163 0.364l-3.032 7.882z" fill="#21111D"/>
    <path d="m241.43 315.44-2.434 11.673s-5.008-4.081-5.008-4.527c0-0.445 1.585-5.873 1.752-5.977 0.168-0.105 5.69-1.169 5.69-1.169z" fill="#4CB7D8"/>
    <path d="m239.16 327.41-0.247-0.015c-0.059-3e-3 -5.895-0.375-12.643-3.211-0.142-0.061-0.211-0.226-0.15-0.369 0.061-0.142 0.227-0.211 0.369-0.15 5.88 2.472 11.043 3.045 12.213 3.149l2.085-10.996-9.509-3.256c-0.147-0.051-0.226-0.211-0.175-0.359 0.05-0.147 0.211-0.226 0.358-0.175l9.97 3.416-2.271 11.968v-2e-3z" fill="#21111D"/>
    <path d="m258.5 327.41 0.246-0.015c0.059-3e-3 5.895-0.375 12.643-3.211 0.142-0.061 0.211-0.226 0.15-0.369-0.061-0.142-0.227-0.211-0.369-0.15-5.88 2.472-11.043 3.045-12.213 3.149l-2.085-10.996 9.509-3.256c0.148-0.051 0.226-0.211 0.176-0.359-0.051-0.147-0.212-0.226-0.359-0.175l-9.97 3.416 2.272 11.968v-2e-3z" fill="#21111D"/>
    <path d="m270.57 340h-44.779c-0.883 0-1.6-0.718-1.6-1.602v-25.016c0-0.883 0.717-1.601 1.6-1.601h44.779c0.882 0 1.599 0.718 1.599 1.601v25.016c0 0.884-0.717 1.602-1.599 1.602z" fill="#49263E"/>
    <path d="m247.69 325.43c1.059 0 1.918-0.859 1.918-1.919 0-1.061-0.859-1.92-1.918-1.92s-1.918 0.859-1.918 1.92c0 1.06 0.859 1.919 1.918 1.919z" fill="#fff"/>
    <path d="m497.54 337.24s-5.244 13.205-0.847 23.195l-100.8 0.848-9.303-0.848-8.199-5.084v-7.783l2.278-6.433 7.442-3.895h109.43z" fill="#fff"/>
    <path d="m391.18 362.56h108.9c0.71 0 1.284-0.575 1.284-1.285 0-0.711-0.574-1.286-1.284-1.286h-108.9c-6.574 0-11.923-4.967-11.923-11.075 0-6.107 5.349-11.074 11.923-11.074h108.9c0.71 0 1.284-0.576 1.284-1.286s-0.574-1.286-1.284-1.286h-108.9c-7.991 0-14.491 6.121-14.491 13.646 0 7.526 6.5 13.646 14.491 13.646z" fill="#FF424D"/>
    <path d="m496.06 349.2h-53.443c-0.158 0-0.285-0.127-0.285-0.285s0.127-0.285 0.285-0.285h53.443c0.158 0 0.285 0.127 0.285 0.285s-0.127 0.285-0.285 0.285z" fill="#AAC9F8"/>
    <path d="m435.09 349.2h-51.923c-0.158 0-0.285-0.127-0.285-0.285s0.127-0.285 0.285-0.285h51.923c0.158 0 0.285 0.127 0.285 0.285s-0.127 0.285-0.285 0.285z" fill="#AAC9F8"/>
    <path d="m411.21 354.32h-26.641c-0.158 0-0.285-0.127-0.285-0.285s0.127-0.285 0.285-0.285h26.641c0.157 0 0.284 0.127 0.284 0.285s-0.127 0.285-0.284 0.285z" fill="#AAC9F8"/>
    <path d="m496.06 354.32h-80.949c-0.157 0-0.284-0.127-0.284-0.285s0.127-0.285 0.284-0.285h80.949c0.158 0 0.285 0.127 0.285 0.285s-0.127 0.285-0.285 0.285z" fill="#AAC9F8"/>
    <path d="m396.47 311.77s4.866 12.256 0.786 21.526l93.551 0.787 8.631-0.787 7.61-4.72v-7.223l-2.116-5.97-6.908-3.615h-101.56l2e-3 2e-3z" fill="#fff"/>
    <path d="m495.19 335.28h-101.07c-0.659 0-1.193-0.535-1.193-1.194 0-0.66 0.534-1.194 1.193-1.194h101.07c6.102 0 11.064-4.611 11.064-10.278s-4.965-10.278-11.064-10.278h-101.07c-0.659 0-1.193-0.534-1.193-1.194 0-0.659 0.534-1.194 1.193-1.194h101.07c7.417 0 13.449 5.68 13.449 12.663 0 6.984-6.032 12.664-13.449 12.664v5e-3z" fill="#258D8C"/>
    <path d="m447.44 322.9h-49.601c-0.157 0-0.284-0.128-0.284-0.285 0-0.158 0.127-0.286 0.284-0.286h49.601c0.158 0 0.285 0.128 0.285 0.286 0 0.157-0.127 0.285-0.285 0.285z" fill="#AAC9F8"/>
    <path d="m502.62 322.9h-48.187c-0.158 0-0.285-0.128-0.285-0.285 0-0.158 0.127-0.286 0.285-0.286h48.187c0.157 0 0.284 0.128 0.284 0.286 0 0.157-0.127 0.285-0.284 0.285z" fill="#AAC9F8"/>
    <path d="m501.32 327.65h-24.726c-0.157 0-0.285-0.127-0.285-0.285s0.128-0.285 0.285-0.285h24.726c0.157 0 0.285 0.127 0.285 0.285s-0.128 0.285-0.285 0.285z" fill="#AAC9F8"/>
    <path d="m501.32 318.14h-103.48c-0.157 0-0.284-0.127-0.284-0.285s0.127-0.285 0.284-0.285h103.48c0.157 0 0.285 0.127 0.285 0.285s-0.128 0.285-0.285 0.285z" fill="#AAC9F8"/>
    <path d="m500.08 362.85h-108.9c-8.148 0-14.776-6.25-14.776-13.931s6.628-13.931 14.776-13.931h108.9c0.865 0 1.569 0.705 1.569 1.571 0 0.865-0.704 1.571-1.569 1.571-0.157 0-0.285-0.128-0.285-0.285 0-0.158 0.128-0.286 0.285-0.286 0.552 0 1-0.448 1-1 0-0.553-0.448-1.001-1-1.001h-108.9c-7.833 0-14.204 5.993-14.204 13.359 0 7.365 6.373 13.358 14.204 13.358h108.9c0.552 0 1-0.448 1-1.001 0-0.552-0.448-1-1-1-0.157 0-0.285-0.127-0.285-0.285s0.128-0.285 0.285-0.285c0.865 0 1.569 0.705 1.569 1.57 0 0.866-0.704 1.571-1.569 1.571v5e-3z" fill="#21111D"/>
    <path d="m495.19 335.56h-101.07c-0.814 0-1.478-0.665-1.478-1.479 0-0.815 0.664-1.479 1.478-1.479 0.157 0 0.285 0.127 0.285 0.285 0 0.157-0.128 0.285-0.285 0.285-0.499 0-0.906 0.407-0.906 0.906s0.407 0.906 0.906 0.906h101.07c7.258 0 13.163-5.552 13.163-12.378 0-6.825-5.905-12.378-13.163-12.378h-101.07c-0.499 0-0.906 0.408-0.906 0.907s0.407 0.906 0.906 0.906c0.157 0 0.285 0.127 0.285 0.285s-0.128 0.285-0.285 0.285c-0.814 0-1.478-0.664-1.478-1.479s0.664-1.479 1.478-1.479h101.07c7.573 0 13.733 5.81 13.733 12.948 0 7.139-6.162 12.949-13.733 12.949v0.01z" fill="#21111D"/>
    <path d="m482.82 343.8s3.431 8.555 1.453 14.851l-2.788-4.311s-1.902 2.287-3.07 4.311c0 0-2.128-14.064-6.253-14.851h10.658z" fill="#7FC6A6"/>
    <path d="m456.98 327.36s-3.431 8.554-1.452 14.85l2.787-4.31s1.903 2.286 3.07 4.31c0 0 2.129-14.063 6.254-14.85h-10.659z" fill="#4CB7D8"/>
    <path d="m496.06 344.08h-111.5c-0.158 0-0.285-0.127-0.285-0.285s0.127-0.285 0.285-0.285h111.5c0.158 0 0.285 0.127 0.285 0.285s-0.127 0.285-0.285 0.285z" fill="#AAC9F8"/>
    <path d="m472.97 327.65h-75.128c-0.157 0-0.284-0.127-0.284-0.285s0.127-0.285 0.284-0.285h75.128c0.157 0 0.285 0.127 0.285 0.285s-0.128 0.285-0.285 0.285z" fill="#AAC9F8"/>
    <path d="m414.05 351.29 4.927 2.772 5.887-5.799 0.161-0.94-1.442-10.55-11.463 2.136 1.93 12.381z" fill="#FE9F73"/>
    <path d="m422.46 354.36-15.798 2.153c-0.145 0-0.265-7e-3 -0.354-0.023-1.549-0.254-1.193-1.265-1.193-1.265l6.926-5.733 0.05-0.705c0.082-1.133 1.389-1.709 2.508-1.103l2.91 1.574s6.841 0.099 7.507-1.943l0.618 4.975s0.728 1.515-3.176 2.07h2e-3z" fill="#3A1F33"/>
    <path d="m393.63 351.96 4.927 2.77 5.89-5.797 0.157-0.94-1.442-10.55-11.459 2.136 1.927 12.381z" fill="#FE9F73"/>
    <path d="m402.05 355.04-15.799 2.154c-0.145 0-0.264-8e-3 -0.353-0.023-1.549-0.255-1.193-1.265-1.193-1.265l6.925-5.734 0.051-0.705c0.081-1.133 1.389-1.708 2.508-1.102l2.909 1.573s6.841 0.099 7.508-1.942l0.618 4.974s0.727 1.515-3.177 2.07h3e-3z" fill="#3A1F33"/>
    <path d="m432.37 309.82s19.705 0.927 25.178-0.287c5.473-1.217 6.821-18.316 0.605-28.789-6.213-10.477-27.952 21.686-27.952 21.686l2.169 7.39z" fill="#49263E"/>
    <path d="m420.18 284.43s-27.441 4.274-28.237 7.459-3.075 37.045-1.371 51.491c0 0 10.453 0.72 15.453-0.494l1.416-33.094 8.413 0.155 18.543-25.981-14.219 0.464h2e-3z" fill="#3A1F33"/>
    <path d="m433.53 286.42s-21.249 6-22.045 9.188c-0.796 3.187-3.059 33.404-1.355 47.85 0 0 11.241 0.644 16.241-0.568l1.348-33.226 4.85 0.168 11.757-20.706-10.793-2.704-3e-3 -2e-3z" fill="#49263E"/>
    <path d="m446.7 245.89s9.393 0.157 11.575 1.448c2.182 1.288 12.182 17.783 14.341 24.779 0 0-5.643 4.95-12.914 5.138l-1.748-3.3 1 6.755-19.047 5.654c-6.462 1.92-13.372 1.693-19.697-0.641l-1.979-0.731s0.031-32.094 5.756-35.485c5.102-3.022 16.152-4.61 22.713-3.617z" fill="#FEBAC7"/>
    <path d="m434.9 230.12v9.086s-0.127 3.071 2.556 3.455l-0.501 4.097c-0.186 1.522 0.722 2.981 2.184 3.444 0.715 0.227 1.567 0.392 2.536 0.392 3.067 0 4.73-2.304 4.985-3.455 0.257-1.15-0.511-6.655-0.511-6.655l0.094-2.703-0.349-10.477-10.994 2.816z" fill="#FE9F73"/>
    <path d="m442.31 234.67c0.033 0 0.064-0.013 0.089-0.036 0.051-0.049 0.054-0.13 3e-3 -0.181-0.018-0.018-1.775-1.818-3.383-0.522-0.056 0.043-0.063 0.125-0.02 0.181s0.125 0.064 0.181 0.02c1.424-1.148 2.973 0.433 3.036 0.502 0.026 0.025 0.059 0.038 0.092 0.038l2e-3 -2e-3z" fill="#21111D"/>
    <path d="m437.04 233.9c0.035 0 0.071-0.015 0.096-0.044 0.046-0.053 0.041-0.134-0.012-0.18-0.051-0.046-1.272-1.09-2.042-0.428-0.054 0.046-0.061 0.127-0.013 0.181 0.046 0.053 0.127 0.061 0.18 0.013 0.603-0.52 1.697 0.417 1.709 0.425 0.023 0.02 0.054 0.03 0.084 0.03l-2e-3 3e-3z" fill="#21111D"/>
    <path d="m439.72 235.18c0 0.212 0.173 0.385 0.384 0.385s0.384-0.171 0.384-0.385c0-0.213-0.173-0.384-0.384-0.384s-0.384 0.173-0.384 0.384z" fill="#000"/>
    <path d="m435.64 234.8c0 0.211 0.173 0.384 0.384 0.384s0.384-0.173 0.384-0.384-0.173-0.384-0.384-0.384-0.384 0.17-0.384 0.384z" fill="#000"/>
    <path d="m445.54 227.82-2.139 3.032s-6.483 2.521-9.807-0.466c-3.324-2.986-2.302-4.419-1.327-5.914 0.48-0.736 2.772-2.238 5.584-0.988 1.537 0.683 2.671-1.354 4.461-0.331 1.791 1.024 3.902 2.796 3.665 3.498-0.236 0.701-0.435 1.166-0.435 1.166l-2e-3 3e-3z" fill="#21111D"/>
    <path d="m445.41 226.53s2.95-0.142 3.774 2.702c0.824 2.843-0.285 4.333-0.313 5.18-0.028 0.848 0.547 6.564-3.461 6.139l-1.084-9.441 1.397-3.757-0.313-0.82v-3e-3z" fill="#21111D"/>
    <path d="m446.82 236.68c0.899-0.9 0.899-2.359 0-3.259-0.899-0.899-2.356-0.899-3.255 0-0.899 0.9-0.899 2.359 0 3.259 0.899 0.899 2.356 0.899 3.255 0z" fill="#FE9F73"/>
    <path d="m445.36 236.46c0.478 0 0.796-0.359 0.903-0.718 0.124-0.425-0.018-0.837-0.364-1.051-0.508-0.316-0.971-0.115-1.208 0.043 0.099-0.262 0.254-0.45 0.466-0.567 0.452-0.25 1.014-0.069 1.022-0.067 0.033 0.011 0.069-7e-3 0.081-0.04 0.01-0.033-7e-3 -0.069-0.04-0.082-0.026-7e-3 -0.621-0.201-1.122 0.074-0.29 0.16-0.488 0.443-0.587 0.84l-0.056 0.224 0.162-0.163c0.023-0.023 0.57-0.555 1.216-0.152 0.359 0.221 0.389 0.628 0.308 0.908-0.084 0.291-0.341 0.627-0.778 0.627h-0.013c-0.036 0-0.064 0.028-0.064 0.063 0 0.036 0.028 0.064 0.064 0.064h0.013l-3e-3 -3e-3z" fill="#F07162"/>
    <path d="m443.68 240.06s-0.181 5.14-6.592 5.631l0.369-3.022s4.158 0.838 6.223-2.609z" fill="#F07162"/>
    <path d="m458.21 274.37c7.93-1.235 12.632-5.988 12.678-6.037l-0.275-0.267c-0.045 0.046-4.664 4.71-12.464 5.924l0.058 0.38h3e-3z" fill="#21111D"/>
    <path d="m419.62 343.85c4.967 0 6.737-0.748 6.821-0.786l0.109-0.049 1.305-33.422-2.052 0.97 0.162 0.346 1.481-0.7-1.269 32.544c-0.537 0.186-3.113 0.929-9.199 0.649l-0.018 0.385c0.974 0.045 1.856 0.063 2.658 0.063h2e-3z" fill="#21111D"/>
    <path d="m424.28 336.64c0.529-2.047 0.682-22.012 0.687-22.859h-0.384c0 0.203-0.158 20.764-0.676 22.765l0.371 0.097 2e-3 -3e-3z" fill="#21111D"/>
    <path d="m398.87 343.97c4.245 0 7.348-0.738 7.348-0.738l1.231-33.441-1.572 1.09 0.242 0.298 0.918-0.741-1.191 32.483c-0.651 0.14-3.481 0.7-7.344 0.66v0.384h0.371l-3e-3 5e-3z" fill="#21111D"/>
    <path d="m404.21 337.38c0.526-3.091 0.025-24.02 3e-3 -24.909l-0.384 0.01c5e-3 0.217 0.523 21.78 2e-3 24.835l0.379 0.064z" fill="#21111D"/>
    <path d="m423.17 288.07 2.172-3.381c1.196-1.935 3.128-4.473 5.14-4.697 3.286-0.366 23.299-1.189 29.647-1.973 0 0-0.435-0.764-0.425-0.761 0.074 0.018 5.191-0.873 5.191-0.873l3.296-1.564 2.963-1.283c0.819 3.193 3.064 8.435 0.76 12.088-4.255 6.749-36.801 3.427-39.69 2.544l-2.657 2.881-0.545 0.836c-0.257 0.394-0.786 0.506-1.18 0.249s-0.506-0.787-0.249-1.181l-0.226 0.349c-0.257 0.394-0.786 0.506-1.18 0.249-0.395-0.257-0.507-0.787-0.25-1.181-0.257 0.394-0.786 0.506-1.18 0.249s-0.506-0.786-0.249-1.181l0.226-0.349c-0.256 0.395-0.785 0.507-1.18 0.25-0.015-0.011-0.03-0.023-0.045-0.033-3e-3 0-8e-3 -6e-3 -0.011-8e-3 -7e-3 -5e-3 -0.015-0.01-0.02-0.018h-3e-3c-0.053-0.043-0.099-0.094-0.139-0.148-0.466-0.56-0.161-1.061-0.161-1.061l-5e-3 -3e-3z" fill="#FE9F73"/>
    <path d="m459.6 277.52h0.122c6.465-0.156 12.963-5.13 13.029-5.181l0.119-0.092-4.099-9.094-0.349 0.158 3.975 8.816c-0.905 0.67-6.742 4.812-12.561 5.003l-1.76-3.585-0.343 0.168 1.869 3.807h-2e-3z" fill="#21111D"/>
    <path d="m462.41 281.15c0.035 8e-3 0.076 0 0.106-0.023 0.056-0.043 0.066-0.124 0.023-0.18l-2.329-3.002c-0.044-0.056-0.125-0.066-0.181-0.023s-0.066 0.125-0.023 0.181l2.33 3.001c0.018 0.026 0.046 0.041 0.074 0.046z" fill="#F07162"/>
    <path d="m424.36 289.58c0.048 0.01 0.102-8e-3 0.132-0.049l3.049-4.19c0.041-0.056 0.028-0.138-0.028-0.179-0.055-0.04-0.137-0.028-0.178 0.028l-3.049 4.191c-0.041 0.056-0.028 0.137 0.028 0.178 0.015 0.01 0.031 0.018 0.048 0.021h-2e-3z" fill="#F07162"/>
    <path d="m425.7 290.81c0.05 0.01 0.104-8e-3 0.134-0.053l2.91-4.321c0.041-0.058 0.023-0.137-0.036-0.178-0.058-0.041-0.137-0.023-0.178 0.036l-2.909 4.32c-0.041 0.059-0.023 0.137 0.035 0.178 0.013 0.01 0.028 0.015 0.044 0.018z" fill="#F07162"/>
    <path d="m427.31 291.59c0.051 0.01 0.104-8e-3 0.135-0.054l2.421-3.661c0.038-0.058 0.023-0.137-0.036-0.178-0.058-0.038-0.137-0.023-0.178 0.036l-2.421 3.661c-0.038 0.058-0.023 0.137 0.036 0.178 0.013 7e-3 0.028 0.015 0.043 0.018z" fill="#F07162"/>
    <path d="m440.81 310.18c-9.717 0-15.592-0.654-15.679-0.664l0.044-0.382c0.129 0.015 13.311 1.482 32.965 0l0.028 0.382c-6.595 0.496-12.464 0.662-17.358 0.662v2e-3z" fill="#21111D"/>
    <path d="m427.19 258.71-0.514 16.298 0.384 0.012 0.514-16.298-0.384-0.012z" fill="#21111D"/>
    <path d="m452.28 259.9-0.352 0.153 7.612 17.541 0.352-0.153-7.612-17.541z" fill="#21111D"/>
    <path d="m457.93 272.87-0.379 0.061 0.848 5.258 0.38-0.061-0.849-5.258z" fill="#21111D"/>
    <path d="m438.37 237.78c0.028 0 0.051-0.018 0.061-0.044 0.01-0.033-8e-3 -0.068-0.041-0.081l-1.282-0.425 0.405-3.02c5e-3 -0.035-0.021-0.066-0.056-0.071-0.036-5e-3 -0.066 0.02-0.072 0.056l-0.419 3.124 1.381 0.458s0.013 3e-3 0.02 3e-3h3e-3z" fill="#F07162"/>
    <path d="m439.36 239.02c-0.039-8e-3 -2.531-0.067-2.531-0.067s0.313 1.031 1.239 1.057c0.925 0.023 1.292-0.99 1.292-0.99z" fill="#FBFDFC"/>
    <path d="m386.06 263.15h30.457l10.624 27.078h-30.458l-10.623-27.078z" fill="#FECC86"/>
    <path d="m427.14 290.23h-1.589l-10.623-27.078h1.589l10.623 27.078z" fill="#FFB357"/>
    <path d="m405.97 275.83c0.422 1.245 0.112 2.475-0.691 2.747-0.804 0.273-1.799-0.514-2.221-1.756-0.422-1.243-0.112-2.475 0.692-2.748 0.804-0.272 1.798 0.515 2.22 1.757z" fill="#E2F2F1"/>
    <path d="m437.21 288.04h-11.378v2.187h11.378c0.603 0 1.091-0.489 1.091-1.095 0-0.603-0.488-1.092-1.091-1.092z" fill="#FFB357"/>
    <path d="m434.32 288.79h-7.187v0.344h7.187v-0.344z" fill="#FECC86"/>
    <path d="m436.25 290.23h-13.402v4.794h13.402v-4.794z" fill="#49263E"/>
    <path d="m514.01 362.45h-501.9v1.556h501.9v-1.556z" fill="#21111D"/>
    <path d="m93.203 358.58-12.302 0.168-0.1781-11.614 12.256-1.533 0.2238 12.979z" fill="#FE9F73"/>
    <path d="m105.84 360.68h-25.12v-5.059s1.8261-2.428 4.6084-1.188c0 0 4.1175 2.986 7.8281-0.584l9.3004 3.998s3.383 1.112 3.383 2.833z" fill="#33192C"/>
    <path d="m106.43 362.45h-25.704v-1.772h25.704c0.28 0 0.507 0.227 0.507 0.507v0.756c0 0.28-0.227 0.507-0.507 0.507v2e-3z" fill="#472A31"/>
    <path d="m95.914 355.03c-0.8418 1.317-2.5356 3.964-3.6114 5.647h-1.7116c0.9614-1.504 2.9782-4.656 3.9802-6.225l1.3428 0.578z" fill="#D7E4F7"/>
    <path d="m95.049 360.68h-1.7116c0.7833-1.224 2.3067-3.61 3.3876-5.298l1.3428 0.578c-0.9079 1.418-2.1643 3.386-3.0188 4.723v-3e-3z" fill="#D7E4F7"/>
    <path d="m72.023 358.58-12.304 0.168-0.1754-11.614 12.253-1.533 0.2263 12.979z" fill="#FE9F73"/>
    <path d="m73.332 258.05c0.4069 11.993 2.1796 58.912 5.9054 89.607 0.2467 2.024 1.9583 3.549 3.9954 3.544 2.2534-5e-3 5.3892-0.275 8.8632-1.336 1.6786-0.515 2.8459-2.042 2.8739-3.799l1.5158-93.404c0.0025-0.226-0.0127-0.453-0.0458-0.677l-0.0712-0.461c-0.3891-2.543-3.0265-4.073-5.4247-3.151l-15.026 5.779c-1.6023 0.616-2.6399 2.179-2.5814 3.898h-0.0051z" fill="#33192C"/>
    <path d="m56.809 255.63s-1.0224 57.692 1.6429 93.281c0.1272 1.685 1.4624 3.014 3.1435 3.144 2.3804 0.181 6.0096 0.156 10.097-0.932 1.3861-0.369 2.3958-1.568 2.5204-2.999l7.1338-82.739 4.3921-22.971-28.932 13.216h0.0026z" fill="#49263E"/>
    <path d="m52.221 237.27c0.2518 2.304 1.6302 36.498 5.4629 39.318 3.8326 2.821 40.501 0.11 41.356-3.223 0.8545-3.332-4.1226-39.064-4.1226-39.064l-42.693 2.971-0.0025-2e-3z" fill="#FFB357"/>
    <path d="m93.622 221.16c0.4959 8e-3 20.104 9.257 20.104 9.257l-4.272 7.546-11.086-2.836-4.7483-13.967h0.0026z" fill="#FFB357"/>
    <path d="m66.005 184.47s-8.4512-0.585-12.571 1.568c-6.1445 3.213-4.6643 22.868-4.6643 22.868s5.2187-2.623 5.5595-3.544c0.3408-0.922 11.674-20.892 11.674-20.892h0.0025z" fill="#FFB357"/>
    <path d="m57.76 185.72c4.8322-0.501 17.538-0.529 17.538-0.529s1.6658 0.499 1.1394 0.231c13.929 2.956 15.125 13.412 15.125 13.412l5.8164 30.294 7.5993 0.672c2.304 4.758 0.066 17.299 0.066 17.299l-37.014 2.903s-8.0163 1.043-14.461-7.842c-4.265-5.876-5.1831-23.506-4.7432-36.35 0 0 1.4243-19.311 8.9344-20.092v2e-3z" fill="#FFB357"/>
    <path d="m68.706 228.66c0.0406 0.018 0.089 0.023 0.1347 0.013 0.1272-0.025 0.2086-0.147 0.1832-0.275-0.0331-0.165-3.3291-16.696-4.616-27.07-0.0153-0.128-0.1323-0.219-0.2594-0.204-0.1272 0.015-0.2187 0.132-0.2035 0.26 1.2894 10.392 4.588 26.938 4.6211 27.106 0.0152 0.079 0.0686 0.14 0.1399 0.17z" fill="#21111D"/>
    <path d="m91.55 229.06c-0.0382 0.033-0.0865 0.056-0.1399 0.059-0.1297 7e-3 -0.2391-0.092-0.2467-0.219-0.0102-0.191-1.1114-19.212-2.2228-25.508-0.0229-0.127 0.0636-0.247 0.1882-0.269 0.1272-0.023 0.2467 0.061 0.2696 0.188 1.1165 6.324 2.2177 25.37 2.2279 25.563 5e-3 0.074-0.0255 0.143-0.0789 0.189l0.0026-3e-3z" fill="#21111D"/>
    <path d="m94.35 224.93c0.1017 0.043 0.2238 8e-3 0.2874-0.091l1.6556-2.628-0.0178-0.091-4.4812-23.328c-0.0254-0.209-0.3891-2.923-2.5737-5.976-2.0474-2.861-6.1496-6.553-14.072-7.884-0.1272-0.021-0.2467 0.063-0.2696 0.191-0.0203 0.127 0.0636 0.247 0.1908 0.269 7.7492 1.304 11.757 4.891 13.754 7.674 2.1643 3.014 2.5026 5.761 2.5051 5.787v0.017l4.4659 23.247-1.5564 2.472c-0.0687 0.11-0.0356 0.252 0.0737 0.321 0.0102 7e-3 0.0229 0.013 0.0356 0.018l0.0026 2e-3z" fill="#21111D"/>
    <path d="m62.503 226.9s0.0204 7e-3 0.0305 0.01l6.1776 1.64c0.1246 0.033 0.2517-0.041 0.2848-0.166s-0.0407-0.252-0.1653-0.285l-6.1775-1.64c-0.1247-0.033-0.2518 0.041-0.2849 0.166-0.0305 0.114 0.0305 0.231 0.1348 0.275z" fill="#21111D"/>
    <path d="m102.59 225.3c0.117 0.048 0.251-5e-3 0.302-0.122 0.051-0.118 0-0.255-0.119-0.308l-6.6357-2.916c-0.122-0.045-0.2543 0-0.3077 0.12-0.0509 0.117 0 0.255 0.1195 0.308l6.6349 2.915h6e-3v3e-3z" fill="#21111D"/>
    <path d="m130.1 247.37-21.816-1.436c-1.035-0.069-1.908-0.988-1.786-1.887l4.347-32.159c0.089-0.65 0.681-1.077 1.432-1.026l21.815 1.435c1.036 0.069 1.908 0.988 1.786 1.887l-4.347 32.16c-0.089 0.649-0.681 1.077-1.431 1.026z" fill="#7FC6A6"/>
    <path d="m119.52 240.62c0.023-0.601-0.496-1.126-1.096-1.166l-3.708-0.25c-0.117-8e-3 -0.216-0.089-0.247-0.201-0.046-0.166 0.074-0.334 0.247-0.344l5.491-0.364c0.628-0.041 1.009-0.575 0.847-1.184-0.163-0.608-0.812-1.074-1.442-1.031l-5.598 0.372c-0.13 8e-3 -0.247-0.076-0.282-0.201l-0.023-0.089c-0.038-0.145 0.048-0.296 0.193-0.336l6.002-1.614c0.58-0.156 0.987-0.772 0.847-1.357-0.147-0.622-0.776-0.993-1.386-0.828l-6.048 1.627c-0.145 0.038-0.295-0.048-0.336-0.194l-0.076-0.282c-0.035-0.132 0.033-0.27 0.16-0.323l5.367-2.226c0.554-0.229 0.877-0.893 0.663-1.456-0.226-0.596-0.897-0.883-1.482-0.641 0 0-8.256 2.925-9.604 3.279l2.483-1.161c1.826 1.716-0.237-0.626-1.74-0.929-1.666-0.336-6.066 3.742-6.066 3.742-0.201 0.351 5e-3 1.136 0.323 1.726 1.229 6.528 1.47 7.521 1.964 9.252l6.783-2.072c1.955-0.599 4.005-0.835 6.047-0.698l0.514 0.033c0.631 0.043 1.175-0.445 1.198-1.082l5e-3 -2e-3z" fill="#FE9F73"/>
    <path d="m124.46 223.32c-5e-3 1.186-0.938 2.184-2.082 2.225-1.145 0.043-2.068-0.886-2.063-2.073 5e-3 -1.186 0.938-2.184 2.083-2.225 1.144-0.043 2.068 0.886 2.062 2.073z" fill="#fff"/>
    <path d="m108.84 229.27-0.307 2.396 2.546-0.85-0.034-1.734-2.205 0.188z" fill="#7FC6A6"/>
    <path d="m134.09 212.06-21.816-1.436c-0.86-0.056-1.557 0.456-1.661 1.215l-2.627 20.01 0.541-0.188 2.539-19.733c0.071-0.535 0.567-0.881 1.205-0.838l21.816 1.436c0.127 8e-3 0.229-0.089 0.229-0.219s-0.102-0.242-0.226-0.249v2e-3z" fill="#21111D"/>
    <path d="m104.98 229.8s2.238 5.833 0.066 17.299l-2.175-8.238-3.624-5.367 5.733-3.694z" fill="#FFB357"/>
    <path d="m60.66 228.6c0.028 0.01 0.0585 0.018 0.089 0.018 0.3332 0 33.314 0.135 44.061 1.395 0.242 0.718 1.333 4.42 0.763 11.103-0.01 0.127 0.084 0.242 0.211 0.252s0.242-0.084 0.252-0.211c0.644-7.574-0.781-11.289-0.839-11.444l-0.051-0.13-0.137-0.018c-10.624-1.278-43.925-1.413-44.26-1.415-0.1297 0-0.234 0.104-0.234 0.231 0 0.097 0.0585 0.181 0.1425 0.217l0.0025 2e-3z" fill="#21111D"/>
    <path d="m74.108 249.21c13.466 0 29.952-1.739 30.966-1.848 0.15-0.015 0.257-0.15 0.242-0.298-0.015-0.15-0.142-0.257-0.3-0.242-0.366 0.038-36.847 3.89-46.01 0.293-9.0565-3.554-9.6872-23.527-9.6923-23.728-0.0051-0.15-0.1297-0.272-0.2797-0.264-0.1501 5e-3 -0.2671 0.129-0.2645 0.277 0.0229 0.838 0.6485 20.535 10.038 24.219 3.0189 1.184 8.8098 1.589 15.3 1.589v2e-3z" fill="#21111D"/>
    <path d="m66.288 163.65s-3.1993 1.652-1.5997 8.116l1.2106-0.623-0.4094-3.435 0.7985-4.058z" fill="#21111D"/>
    <path d="m77.501 167.66v9.474s0.1323 3.202-2.65 3.602l0.5188 4.272c0.1933 1.589-0.7502 3.109-2.2635 3.592-0.7401 0.237-1.6251 0.408-2.6271 0.408-3.1791 0-4.9009-2.401-5.1654-3.603-0.2645-1.201 0.529-6.937 0.529-6.937l-0.0966-2.819 0.3611-10.924 11.391 2.935h0.0025z" fill="#FE9F73"/>
    <path d="m69.826 172.4c-0.033 0-0.0661-0.013-0.0915-0.038-0.0534-0.051-0.0534-0.135-0.0051-0.189 0.0178-0.02 1.8387-1.896 3.5046-0.545 0.0559 0.046 0.0661 0.13 0.0203 0.189-0.0458 0.058-0.1297 0.066-0.1856 0.02-1.4751-1.196-3.0799 0.451-3.1486 0.522-0.0254 0.028-0.061 0.041-0.0966 0.041h0.0025z" fill="#21111D"/>
    <path d="m75.286 171.6c-0.0382 0-0.0738-0.015-0.0992-0.045-0.0484-0.056-0.0407-0.14 0.0127-0.189 0.0534-0.046 1.3174-1.135 2.116-0.445 0.0559 0.048 0.061 0.132 0.0152 0.188-0.0483 0.056-0.1322 0.064-0.1856 0.015-0.6257-0.539-1.7574 0.436-1.7701 0.446-0.0255 0.023-0.056 0.033-0.0865 0.033l-0.0025-3e-3z" fill="#21111D"/>
    <path d="m72.504 172.94c0 0.221-0.1781 0.399-0.3968 0.399s-0.3967-0.178-0.3967-0.399c0-0.222 0.178-0.4 0.3967-0.4s0.3968 0.178 0.3968 0.4z" fill="#000"/>
    <path d="m76.728 172.54c0 0.221-0.1781 0.4-0.3968 0.4s-0.3967-0.179-0.3967-0.4c0-0.222 0.178-0.4 0.3967-0.4s0.3968 0.178 0.3968 0.4z" fill="#000"/>
    <path d="m65.484 175.48c1.3161 0 2.383-1.075 2.383-2.401s-1.0669-2.401-2.383-2.401-2.383 1.075-2.383 2.401 1.0669 2.401 2.383 2.401z" fill="#FE9F73"/>
    <path d="m65.308 174.55c-0.4959 0-0.8266-0.374-0.9359-0.749-0.1297-0.442 0.0178-0.873 0.3764-1.097 0.529-0.331 1.0071-0.117 1.2512 0.044-0.1017-0.273-0.2644-0.471-0.4806-0.591-0.4705-0.26-1.0529-0.071-1.058-0.069-0.0356 0.013-0.0712-8e-3 -0.0839-0.043-0.0128-0.036 0.0076-0.071 0.0406-0.084 0.0255-8e-3 0.6409-0.211 1.1623 0.079 0.3001 0.165 0.5061 0.461 0.6078 0.876l0.0585 0.231-0.1678-0.168c-0.0229-0.023-0.59-0.58-1.2615-0.16-0.3713 0.231-0.4043 0.654-0.3179 0.947 0.089 0.303 0.351 0.654 0.8062 0.654h0.0128c0.0356 0 0.0661 0.028 0.0661 0.066 0 0.036-0.028 0.067-0.0661 0.069h-0.0153l0.0051-5e-3z" fill="#F07162"/>
    <path d="m77.961 175.63s0.8672 6.416-3.3622 6.643c-6.0504 0.326-6.6379-3.152-6.9965-5.998l-0.061-5.876 0.1933-1.706c0.4273 0.486 0.6892 1.1 0.7477 1.746 0.1246 1.408 0.4349 5.204 0.7833 5.372 0.4934 0.237 7.7544-0.802 8.6954-0.183v2e-3z" fill="#21111D"/>
    <path d="m73.907 175.64c-0.0279 0-0.0534-0.018-0.0636-0.046-0.0127-0.035 0.0077-0.074 0.0433-0.084l1.3276-0.443-0.4197-3.146c-0.0051-0.036 0.0204-0.072 0.056-0.074 0.0356-5e-3 0.0686 0.02 0.0737 0.056l0.4349 3.256-1.4318 0.476s-0.0127 3e-3 -0.0204 3e-3v2e-3z" fill="#F07162"/>
    <path d="m72.877 176.94c0.0407-8e-3 2.6221-0.069 2.6221-0.069s-0.323 1.075-1.2843 1.1c-0.9588 0.026-1.3378-1.031-1.3378-1.031z" fill="#FBFDFC"/>
    <path d="m67.724 168.8-1.1979-1.092-1.2385 2.981s1.531 0.255 1.559 1.849-0.8316 4.083 1.9252 7.658c2.7569 3.577-0.2212-5.339-0.2492-5.65-0.0254-0.31-0.7986-5.746-0.7986-5.746z" fill="#21111D"/>
    <path d="m66.288 163.65c1.2767-1.268 5.7045-1.991 8.8657-0.086 3.5987 1.759 2.4669 5.346 2.3474 5.453l-0.0458-0.036c0.0178 0.082 0.0356 0.166 0.0458 0.25 0 0-0.15-0.242-0.473-0.578l-1.4141-1.085c-0.7935-0.445-1.8565-0.832-3.2324-0.921-1.3658-0.089-2.5585-0.013-3.5377 0.287-0.2594 0.815-0.4705 2.427-0.1653 5.601 0.4629 4.845-1.6505-1.031-2.4186-3.281-0.1653 0.42-0.2849 0.893-0.3459 1.436 0 0-2.1846-4.499 0.3739-7.04z" fill="#21111D"/>
    <path d="m77.501 170.32s0.0941-1.945 0-2.37c-0.0941-0.426-4.4176-1.65-6.7854-1.324-2.3677 0.326 2.2228 2.935 2.2762 2.935s4.5092 0.759 4.5092 0.759z" fill="#FE9F73"/>
    <path d="m69.294 167.13-2.2889-2.128 2.1567 3.116 0.1322-0.988z" fill="#FE9F73"/>
    <path d="m69.294 162.93s0.4654-4.595-2.088-3.595c-2.5534 0.998-2.9934 3.117-0.679 4.514 2.3143 1.398 2.767-0.919 2.767-0.919z" fill="#21111D"/>
    <path d="m59.874 194.3 4.5092-7.569 7.9222 2.396 3.2147-3.422s0.6841 3.159 0.6637 3.422c-0.0203 0.262-3.619 4.004-4.0819 3.966-0.4628-0.041-12.225 1.207-12.225 1.207h-0.0026z" fill="#FFB357"/>
    <path d="m60.514 277.66c0.1399 0 0.2594-0.109 0.2696-0.252 0.0102-0.15-0.1017-0.28-0.2518-0.29-3.8047-0.273-4.326-3.511-5.1907-8.875-0.1552-0.965-0.3154-1.96-0.5112-3.032-1.2869-7.124-1.854-24.385-1.8591-24.558-0.0051-0.148-0.1247-0.262-0.2722-0.262h-0.0076c-0.15 5e-3 -0.267 0.13-0.2619 0.28 5e-3 0.173 0.5747 17.475 1.8692 24.636 0.1933 1.067 0.3535 2.063 0.5087 3.022 0.8774 5.436 1.4573 9.028 5.6892 9.331h0.0204-0.0026z" fill="#21111D"/>
    <path d="m75.042 182.29 0.328 2.681s-1.9608 2.945-3.3011 3.885c-2.6602-1.846-6.7777-4.43-6.7777-4.43l0.2416-3.389c-4.939-0.562-10.562 2.544-9.2752 4.145 1.2869 1.602 7.9756 2.093 9.7508 2.676 1.7523 0.575 6.2258 1.935 6.2258 1.935 1.1776-0.873 4.3363-4.59 4.3363-4.59l3.1968 0.888c0.061-3.249-4.7202-3.801-4.7202-3.801h-0.0051z" fill="#FD7583"/>
    <path d="m84.662 360.68h-25.12v-5.059s1.826-2.428 4.6083-1.188c0 0 4.1175 2.986 7.8281-0.584l9.3006 3.998s3.3825 1.112 3.3825 2.833z" fill="#49263E"/>
    <path d="m85.247 362.45h-25.704v-1.772h25.704c0.2798 0 0.5061 0.227 0.5061 0.507v0.756c0 0.28-0.2263 0.507-0.5061 0.507v2e-3z" fill="#683D46"/>
    <path d="m74.731 355.03c-0.8418 1.317-2.5356 3.964-3.6114 5.647h-1.7116c0.9613-1.504 2.9781-4.656 3.9802-6.225l1.3428 0.578z" fill="#D7E4F7"/>
    <path d="m73.866 360.68h-1.7116c0.7833-1.224 2.3067-3.61 3.3876-5.298l1.3428 0.578c-0.9079 1.418-2.1643 3.386-3.0188 4.723v-3e-3z" fill="#D7E4F7"/>
    <path d="m72.231 189.98c0.0458 0 0.0941-0.018 0.1297-0.053l5.5799-5.675c0.0712-0.071 0.0686-0.186 0-0.257-0.0713-0.069-0.1857-0.069-0.2569 0l-5.5799 5.675c-0.0712 0.071-0.0687 0.185 0 0.257 0.0356 0.035 0.0814 0.051 0.1272 0.051v2e-3z" fill="#000"/>
    <path d="m218.29 237.62c0-15.059-12.195-27.269-27.24-27.269-15.046 0-27.241 12.208-27.241 27.269 0 7.47 3.001 14.237 7.861 19.163 0 0 8.243 8.824 11.028 18.445 0 0 4.758 1.62 8.352 1.709 3.591-0.089 8.352-1.709 8.352-1.709 2.784-9.618 11.027-18.445 11.027-18.445 4.86-4.926 7.861-11.693 7.861-19.163z" fill="#FECC86"/>
    <path d="m181.97 273.05v7.292c0 3.286 2.025 6.097 4.893 7.258 0.288 2.06 2.05 3.648 4.189 3.648s3.899-1.586 4.189-3.648c2.869-1.161 4.893-3.972 4.893-7.258v-7.292h-18.164z" fill="#4CB7D8"/>
    <g opacity=".3" style="mix-blend-mode:multiply">
        <path d="m218.29 237.62c0-5.578-1.673-10.766-4.547-15.087-7.968 19.652-20.674 32.868-38.975 37.993 2.304 3.027 5.361 7.584 7.208 12.526h18.148c3.266-8.733 10.305-16.271 10.305-16.271 4.86-4.926 7.861-11.693 7.861-19.163v2e-3z" fill="#FECC86"/>
    </g>
    <path d="m195.51 273.16-0.781-0.213c0.026-0.095 2.566-9.443 4.329-19.021 3.057-16.617 1.3-20.14-0.02-20.764-1.351-0.637-2.411-0.522-3.154 0.339-0.053 0.063-0.107 0.129-0.155 0.198 1.905 1.125 2.365 2.852 2.474 3.549 0.303 1.93-0.559 3.855-1.922 4.292-0.331 0.107-0.964 0.161-1.514-0.669-0.872-1.319-1.144-4.616-0.167-6.813-0.936-0.384-2.078-0.588-3.383-0.588h-0.786c-1.304 0-2.446 0.204-3.382 0.588 0.976 2.197 0.704 5.494-0.168 6.813-0.549 0.83-1.183 0.776-1.513 0.669-1.361-0.437-2.223-2.365-1.923-4.292 0.109-0.7 0.57-2.426 2.475-3.549-0.051-0.069-0.102-0.135-0.156-0.198-0.742-0.861-1.805-0.976-3.153-0.339-1.32 0.621-3.078 4.147-0.021 20.764 1.763 9.578 4.304 18.926 4.329 19.021l-0.781 0.213c-0.025-0.094-2.573-9.473-4.341-19.081-2.442-13.267-2.286-20.347 0.47-21.645 2.139-1.008 3.416-0.262 4.11 0.542 0.097 0.112 0.189 0.232 0.275 0.359 0.954-0.405 2.185-0.669 3.779-0.669h0.786c1.595 0 2.828 0.264 3.782 0.669 0.086-0.127 0.175-0.247 0.275-0.359 0.694-0.804 1.971-1.55 4.109-0.542 2.757 1.298 2.912 8.378 0.471 21.645-1.768 9.611-4.316 18.99-4.341 19.081h-3e-3zm-9.189-38.743c-1.149 0.672-1.877 1.68-2.077 2.958-0.265 1.683 0.495 3.117 1.37 3.399 0.082 0.026 0.298 0.097 0.59-0.346 0.746-1.128 0.944-4.112 0.117-6.011zm9.003 0c-0.826 1.899-0.63 4.881 0.117 6.011 0.293 0.443 0.509 0.372 0.59 0.346 0.875-0.282 1.636-1.713 1.371-3.399-0.201-1.278-0.928-2.288-2.078-2.958z" fill="#F99247"/>
    <path d="m181.84 273.24c-0.216-0.621-0.315-0.85-0.529-1.346l-0.117-0.273c-3.4-7.951-9.598-14.636-9.662-14.702l-0.02-0.021c-5.092-5.173-7.897-12.016-7.897-19.28 0-15.148 12.31-27.47 27.442-27.47 9.29 0 17.879 4.652 22.975 12.442l-0.338 0.221c-5.02-7.675-13.484-12.258-22.637-12.258-14.909 0-27.037 12.141-27.037 27.065 0 7.167 2.772 13.921 7.802 19.021l0.265 0.267-0.018 5e-3c1.185 1.327 6.452 7.437 9.496 14.552l0.117 0.273c0.219 0.506 0.318 0.738 0.54 1.375l-0.382 0.132v-3e-3z" fill="#21111D"/>
    <path d="m172.03 225.03-0.389-0.112c0.02-0.069 2.035-6.78 8.81-9.303l0.14 0.38c-6.582 2.451-8.543 8.971-8.563 9.035h2e-3z" fill="#21111D"/>
    <path d="m173.28 227.46-0.389-0.112c0.02-0.069 2.034-6.78 8.809-9.303l0.14 0.379c-6.582 2.452-8.542 8.972-8.563 9.036h3e-3z" fill="#21111D"/>
    <path d="m192.04 288.37h-1.981c-4.573 0-8.294-3.724-8.294-8.302v-7.223h18.362v0.405h-17.96v6.818c0 4.354 3.538 7.897 7.889 7.897h1.981c2.083 0 4.047-0.804 5.532-2.268l0.282 0.288c-1.561 1.537-3.626 2.383-5.814 2.383l3e-3 2e-3z" fill="#21111D"/>
    <path d="m191.17 291.45c-3.937 0-4.504-3.821-4.509-3.862l0.399-0.056c0.02 0.148 0.547 3.595 4.24 3.511l0.01 0.405h-0.14v2e-3z" fill="#21111D"/>
    <path d="m209.73 252.88-0.242-0.326c3.596-2.671 4.161-7.129 4.166-7.172l0.402 0.048c-5e-3 0.046-0.588 4.675-4.326 7.45z" fill="#21111D"/>
    <path d="m208.94 250.94-0.242-0.326c2.62-1.945 3.034-5.196 3.037-5.229l0.402 0.048c-0.016 0.14-0.435 3.455-3.2 5.507h3e-3z" fill="#21111D"/>
    <path d="m181.14 276.69-5e-3 -0.405c0.156 0 15.468-0.201 20.316-2.009l0.142 0.38c-4.916 1.833-19.822 2.029-20.453 2.034z" fill="#21111D"/>
    <path d="m181.14 280.1-8e-3 -0.405c0.168-3e-3 16.786-0.334 19.891-1.999l0.191 0.357c-3.192 1.71-19.387 2.034-20.076 2.047h2e-3z" fill="#21111D"/>
    <path d="m181.97 283.61v-0.404c0.148 0 15.059-0.158 19.054-2.225l0.186 0.358c-4.08 2.111-18.622 2.264-19.237 2.271h-3e-3z" fill="#21111D"/>
    <path d="m156.87 233.33h-0.051l-9.638-0.822c-0.334-0.028-0.58-0.324-0.552-0.657 0.028-0.334 0.323-0.581 0.656-0.553l9.639 0.823c0.333 0.028 0.58 0.323 0.552 0.657-0.028 0.315-0.293 0.555-0.603 0.555l-3e-3 -3e-3z" fill="#FECC86"/>
    <path d="m161.86 217.96c-0.117 0-0.237-0.036-0.341-0.107l-7.983-5.468c-0.278-0.189-0.346-0.568-0.158-0.843 0.188-0.278 0.567-0.346 0.842-0.158l7.983 5.469c0.277 0.188 0.346 0.567 0.158 0.842-0.117 0.171-0.308 0.265-0.501 0.265z" fill="#FECC86"/>
    <path d="m176.29 206.93c-0.239 0-0.466-0.142-0.562-0.379l-3.642-8.972c-0.127-0.311 0.023-0.664 0.333-0.789 0.31-0.127 0.664 0.023 0.788 0.333l3.642 8.972c0.128 0.311-0.023 0.665-0.333 0.789-0.074 0.031-0.152 0.046-0.229 0.046h3e-3z" fill="#FECC86"/>
    <path d="m224.75 235.08c-0.315 0-0.582-0.247-0.605-0.568-0.023-0.333 0.231-0.623 0.564-0.646l9.655-0.639c0.33-0.023 0.623 0.231 0.643 0.565 0.02 0.333-0.231 0.624-0.565 0.646l-9.654 0.639h-0.04l2e-3 3e-3z" fill="#FECC86"/>
    <path d="m220.06 219.61c-0.198 0-0.391-0.096-0.506-0.275-0.183-0.28-0.107-0.656 0.173-0.84l8.088-5.316c0.279-0.183 0.656-0.106 0.839 0.174s0.107 0.656-0.173 0.84l-8.088 5.316c-0.101 0.066-0.218 0.099-0.333 0.099v2e-3z" fill="#FECC86"/>
    <path d="m207.71 206.89c-0.078 0-0.16-0.016-0.239-0.049-0.307-0.132-0.45-0.489-0.318-0.797l3.81-8.903c0.132-0.308 0.489-0.45 0.796-0.318 0.308 0.132 0.45 0.489 0.318 0.797l-3.81 8.903c-0.099 0.229-0.323 0.369-0.557 0.369v-2e-3z" fill="#FECC86"/>
    <path d="m192.17 202.18h-0.01c-0.335-5e-3 -0.603-0.28-0.597-0.616l0.15-9.685c5e-3 -0.331 0.274-0.598 0.605-0.598h0.01c0.336 5e-3 0.603 0.28 0.598 0.616l-0.15 9.685c-5e-3 0.331-0.275 0.598-0.606 0.598z" fill="#FECC86"/>
    <g opacity=".5">
        <path d="m209.34 224.47c-0.954 1.482-4.24 1.062-7.337-0.937-3.098-1.999-4.838-4.819-3.884-6.301s4.24-1.062 7.337 0.937c3.098 1.998 4.838 4.819 3.884 6.301z" fill="#F3FFFE"/>
    </g>
    <path d="m200.91 34.426h46.208c1.148 0 2.078-0.9312 2.078-2.08v-26.928c0-1.1488-0.93-2.08-2.078-2.08h-46.208c-1.148 0-2.078 0.93124-2.078 2.08v26.928c0 1.1488 0.93 2.08 2.078 2.08z" fill="#fff"/>
    <path d="m203.56 8.9981h41.996c0.29 0 0.527-0.23677 0.527-0.527s-0.237-0.527-0.527-0.527h-41.996c-0.29 0-0.527 0.23677-0.527 0.527s0.237 0.527 0.527 0.527z" fill="#61A3C5"/>
    <path d="m203.56 14.981h41.996c0.29 0 0.527-0.2368 0.527-0.527s-0.237-0.527-0.527-0.527h-41.996c-0.29 0-0.527 0.2368-0.527 0.527s0.237 0.527 0.527 0.527z" fill="#61A3C5"/>
    <path d="m218.27 20.966h27.287c0.289 0 0.526-0.2368 0.526-0.527 0-0.2903-0.237-0.527-0.526-0.527h-27.287c-0.29 0-0.526 0.2367-0.526 0.527 0 0.2902 0.236 0.527 0.526 0.527z" fill="#61A3C5"/>
    <path d="m203.25 20.966h10.887c0.29 0 0.527-0.2368 0.527-0.527 0-0.2903-0.237-0.527-0.527-0.527h-10.887c-0.29 0-0.527 0.2367-0.527 0.527 0 0.2902 0.237 0.527 0.527 0.527z" fill="#61A3C5"/>
    <path d="m228.4 26.949h17.152c0.289 0 0.526-0.2368 0.526-0.527 0-0.2903-0.237-0.527-0.526-0.527h-17.152c-0.29 0-0.527 0.2367-0.527 0.527 0 0.2902 0.237 0.527 0.527 0.527z" fill="#61A3C5"/>
    <path d="m203.25 26.949h21.309c0.29 0 0.527-0.2368 0.527-0.527 0-0.2903-0.237-0.527-0.527-0.527h-21.309c-0.29 0-0.527 0.2367-0.527 0.527 0 0.2902 0.237 0.527 0.527 0.527z" fill="#61A3C5"/>
    <path d="m214.23 33.052c-0.051 0.2088-8.161 10.769-8.212 10.459s0.936-11.342 0.936-11.342l7.276 0.8834z" fill="#fff"/>
    <path d="m194.78 350.04h-81.056v0.639h81.056v-0.639z" fill="#21111D"/>
    <g opacity=".3">
        <path d="m126.72 311.73c2.312 1.598 4.832 2.777 7.457 3.531l0.897 6.708 4.619 0.227 4.618 0.226 1.549-6.588c2.686-0.492 5.311-1.421 7.765-2.783l5.374 4.109 6.851-6.217-3.558-5.756c1.597-2.314 2.775-4.837 3.528-7.465l6.701-0.899 0.226-4.623 0.227-4.623-6.582-1.551c-0.491-2.688-1.417-5.315-2.78-7.772l4.105-5.38-3.105-3.429-3.106-3.429-5.75 3.561c-2.312-1.598-4.832-2.777-7.457-3.528l-0.898-6.709-4.618-0.226-4.619-0.227-1.548 6.589c-2.686 0.491-5.311 1.418-7.765 2.783l-5.374-4.109-3.426 3.108-3.425 3.109 3.558 5.756c-1.597 2.314-2.775 4.837-3.528 7.464l-6.701 0.899-0.227 4.623-0.226 4.624 6.582 1.55c0.491 2.689 1.417 5.316 2.78 7.773l-4.105 5.379 3.105 3.43 3.106 3.429 5.75-3.562v-2e-3zm2.866-33.94c7.096-6.441 18.065-5.904 24.499 1.202 6.434 7.103 5.898 18.084-1.2 24.525-7.096 6.441-18.065 5.904-24.499-1.202-6.435-7.103-5.898-18.084 1.2-24.525z" fill="#4CB7D8"/>
    </g>
</svg>
