<svg width="544" height="358" viewBox="0 0 544 358" fill="none" xmlns="http://www.w3.org/2000/svg">
    <g clip-path="url(#clip0_117_24136)">
        <path d="M536.361 355.097H1.84375V357.822H536.361V355.097Z" fill="#4C222E"/>
        <path d="M325.18 354.539V184.872C325.18 180.808 328.478 177.513 332.545 177.513H452.163C456.231 177.513 459.528 180.808 459.528 184.872V354.539H325.178H325.18Z" fill="#F99247"/>
        <path d="M314.031 354.539V184.872C314.031 180.808 317.329 177.513 321.396 177.513H443.628C447.695 177.513 450.993 180.808 450.993 184.872V354.539H314.031Z" fill="#FEC786"/>
        <path d="M310.888 317.572H300.889C300.608 317.572 300.381 317.799 300.381 318.08V354.919C300.381 355.199 300.608 355.426 300.889 355.426H310.888C311.168 355.426 311.396 355.199 311.396 354.919V318.08C311.396 317.799 311.168 317.572 310.888 317.572Z" fill="#0E2E35"/>
        <path d="M380.471 289.763L392.928 283.862L404.129 279.024C407.223 291.067 415.71 310.851 407.004 324.634C396.391 341.435 339.249 341.696 298.444 338.97C301.339 330.397 303.203 323.842 303.246 323.405C303.379 322.018 237.312 324.931 237.312 324.931L228.053 324.755C232.588 317.496 242.894 304.214 250.382 303.379C262.803 301.995 338.454 298.891 362.459 295.93C362.459 295.93 360.811 293.045 360.851 293.053C361.13 293.115 380.476 289.76 380.476 289.76L380.471 289.763Z" fill="#F9956E"/>
        <path d="M261.78 324.755L249.928 302.098C249.928 302.098 308.735 276.827 310.197 276.852L294.78 317.517L261.778 324.755H261.78Z" fill="#4CB7D8"/>
        <path d="M401.381 296.93L382.983 301.135C382.614 301.221 382.244 300.989 382.158 300.617C382.073 300.248 382.304 299.881 382.677 299.793L401.074 295.588C401.444 295.503 401.814 295.737 401.899 296.106C401.977 296.445 401.789 296.782 401.472 296.903C401.442 296.913 401.411 296.923 401.381 296.93Z" fill="#21111D"/>
        <path d="M367.898 172.733C367.898 172.733 405.398 174.09 419.612 176.056C441.698 179.112 443.962 236.145 443.962 236.145C443.967 274.022 439.484 325.863 426.306 342.75C413.231 359.186 384.138 356.452 384.138 356.452L273.877 352.124C273.877 352.124 268.529 314.948 275.812 301.168L298.307 299.951L318.523 211.294C318.523 211.294 323.101 180.61 364.512 173.304C362.93 174.038 367.898 172.736 367.898 172.736V172.733Z" fill="#4CB7D8"/>
        <path d="M382.986 301.485C382.862 301.532 382.724 301.542 382.586 301.51C382.216 301.422 381.987 301.052 382.073 300.683C382.186 300.198 393.573 251.833 398.42 221.397C398.481 221.023 398.835 220.766 399.208 220.827C399.582 220.887 399.839 221.239 399.779 221.613C394.924 252.099 383.526 300.512 383.411 300.997C383.355 301.228 383.189 301.404 382.983 301.482L382.986 301.485Z" fill="#21111D"/>
        <path d="M312.51 300.688C312.372 300.741 312.213 300.748 312.06 300.7C311.698 300.587 311.496 300.2 311.61 299.838C311.781 299.301 328.674 245.741 332.203 227.226C332.274 226.851 332.636 226.607 333.008 226.678C333.381 226.748 333.627 227.107 333.557 227.482C330.012 246.077 313.094 299.713 312.923 300.253C312.857 300.462 312.699 300.617 312.51 300.69V300.688Z" fill="#21111D"/>
        <path d="M307.778 287.858C307.745 287.878 307.71 287.893 307.675 287.908C307.365 288.024 307.011 287.905 306.837 287.611L302.219 279.702L302.279 279.438L317.847 211.163C317.943 210.548 319.293 202.591 326.042 193.819C332.371 185.594 344.85 175.136 368.364 172.009C368.741 171.959 369.086 172.223 369.136 172.6C369.187 172.974 368.92 173.321 368.545 173.372C345.539 176.43 333.352 186.599 327.179 194.593C320.491 203.257 319.215 211.312 319.203 211.392L319.193 211.442L303.68 279.476L308.027 286.915C308.218 287.242 308.107 287.664 307.78 287.855L307.778 287.858Z" fill="#21111D"/>
        <path d="M283.324 288.152C283.324 288.152 283.316 288.154 283.311 288.157C282.961 288.29 282.569 288.117 282.428 287.77C282.287 287.418 282.458 287.018 282.813 286.875L302.695 278.951C303.06 278.825 303.447 278.981 303.588 279.335C303.729 279.687 303.558 280.087 303.203 280.227L283.321 288.152H283.324Z" fill="#21111D"/>
        <path d="M257.541 344.619L248.254 353.531L246.43 356.115C245.567 357.337 243.583 357.683 241.998 356.887C240.413 356.09 239.827 354.451 240.687 353.23L239.925 354.311C239.062 355.532 237.078 355.879 235.493 355.082C233.908 354.285 233.322 352.647 234.183 351.425C233.32 352.647 231.335 352.994 229.75 352.194C228.166 351.398 227.577 349.759 228.44 348.538L229.202 347.457C228.339 348.678 226.355 349.025 224.77 348.228C224.677 348.183 224.589 348.133 224.503 348.08C224.405 348.02 224.31 347.957 224.219 347.889C222.81 346.891 222.436 345.934 222.576 345.13C222.868 343.453 228.659 335.856 231.313 332.234C235.36 326.537 240.76 321.397 248.427 319.316C249.066 319.143 263.502 314.737 264.523 314.669C270.364 323.297 263.414 337.502 269.856 346.994C263.636 345.904 259.261 345.042 257.543 344.622L257.541 344.619Z" fill="#FE9F73"/>
        <path d="M228.358 348.616C228.306 348.595 228.255 348.563 228.21 348.523C228.009 348.339 227.994 348.027 228.177 347.826L241.612 333.081C241.796 332.88 242.105 332.867 242.309 333.048C242.51 333.232 242.525 333.544 242.342 333.745L228.907 348.49C228.763 348.646 228.545 348.691 228.358 348.616Z" fill="#F07162"/>
        <path d="M233.689 352.378C233.636 352.358 233.585 352.325 233.54 352.285C233.339 352.101 233.324 351.79 233.507 351.589L245.695 338.213C245.878 338.012 246.188 338 246.391 338.181C246.593 338.364 246.608 338.676 246.424 338.877L234.237 352.252C234.094 352.408 233.875 352.453 233.689 352.378Z" fill="#F07162"/>
        <path d="M244.237 321.111C248.594 319.517 269.23 313.081 280.7 309.522L298.489 342.259C281.483 346.065 252.075 349.158 252.075 349.158C252.075 349.158 238.127 323.342 244.234 321.111H244.237Z" fill="#FE9F73"/>
        <path d="M239.941 354.504C239.888 354.484 239.837 354.451 239.792 354.411C239.591 354.228 239.576 353.916 239.759 353.715L249.554 342.963C249.738 342.762 250.047 342.75 250.251 342.931C250.452 343.114 250.467 343.426 250.284 343.627L240.489 354.378C240.345 354.534 240.127 354.579 239.941 354.504Z" fill="#F07162"/>
        <path d="M275.812 301.165L292.361 312.626L303.637 342.805L273.878 352.122C268.62 318.12 275.812 301.165 275.812 301.165Z" fill="#4CB7D8"/>
        <path d="M272.273 335.167C271.893 335.187 271.569 334.893 271.551 334.516C270.412 312.138 274.987 301.339 275.181 300.891L275.344 300.517L275.752 300.482C307.232 297.788 405.534 300.736 406.525 300.766C406.905 300.778 407.205 301.095 407.192 301.474C407.182 301.761 407.001 302 406.747 302.095C406.666 302.125 406.576 302.143 406.483 302.14C405.499 302.11 308.145 299.192 276.295 301.816C275.513 303.905 271.918 314.699 272.925 334.448C272.945 334.828 272.655 335.152 272.273 335.17V335.167Z" fill="#21111D"/>
        <path d="M425.765 342.325C438.506 325.999 443.159 275.739 443.275 237.658C443.275 237.278 443.584 236.969 443.964 236.972C444.344 236.972 444.651 237.281 444.651 237.661C444.538 275.957 439.806 326.569 426.852 343.169C418.33 354.089 415.618 355.328 425.768 342.325H425.765Z" fill="#21111D"/>
        <path d="M126.613 259.056H219.487L251.878 341.465H159.004L126.613 259.056Z" fill="#FC4963"/>
        <path d="M214.641 259.056H219.488L251.879 341.465H247.032L214.641 259.056Z" fill="#CC193B"/>
        <path d="M178.455 300.648C177.167 296.863 178.111 293.118 180.563 292.286C183.013 291.454 186.044 293.849 187.332 297.634C188.62 301.419 187.677 305.164 185.224 305.996C182.774 306.828 179.743 304.433 178.455 300.648Z" fill="#E2F2F1"/>
        <path d="M247.883 341.465V334.81H282.578C284.417 334.81 285.908 336.301 285.908 338.138C285.908 339.975 284.417 341.465 282.578 341.465H247.883Z" fill="#CC193B"/>
        <path d="M273.796 337.095H251.879V338.138H273.796V337.095Z" fill="#FC4963"/>
        <path d="M367.669 151.65L370.494 123.277L405.551 117.884L403.378 150.707C403.378 150.707 400.938 176.267 399.786 179.785C398.634 183.304 397.746 189.801 385.192 189.308C382.171 189.19 379.585 188.23 377.432 187.3C373.032 185.402 370.658 180.567 371.709 175.867L374.542 163.226C366.314 161.197 367.667 151.647 367.667 151.647L367.669 151.65Z" fill="#FE9F73"/>
        <path d="M374.544 163.231C374.544 163.231 384.482 165.96 394.508 156.814C394.508 156.814 390.549 168.4 373.16 169.411L374.546 163.228L374.544 163.231Z" fill="#F07162"/>
        <path d="M405.341 114.612C412.261 122.988 404.368 135.806 404.368 135.806C404.347 134.165 404.131 132.715 403.761 131.405C402.35 134.492 399.787 139.925 397.787 143.26L395.161 142.579C395.254 141.976 395.37 141.3 395.526 140.516C397.385 131.096 397.234 126.203 396.701 123.69C393.851 122.496 390.294 121.91 386.169 121.769C382.013 121.629 378.705 122.466 376.192 123.566L371.622 126.394C370.553 127.301 370.027 127.98 370.027 127.98C370.088 127.733 370.163 127.49 370.241 127.248L370.09 127.341C369.763 126.987 367.441 115.906 378.763 111.704V111.714C388.815 106.946 401.887 110.435 405.341 114.614V114.612Z" fill="black"/>
        <path d="M407.72 139.4L402.463 137.048L406.523 127.005L405.338 114.612C405.338 114.612 414.446 120.518 407.718 139.4H407.72Z" fill="black"/>
        <path d="M391.839 139.601C391.658 139.37 387.334 133.954 382.55 137.098C382.364 137.218 382.117 137.168 381.997 136.982C381.876 136.796 381.929 136.547 382.112 136.427C387.51 132.876 392.418 139.043 392.466 139.106C392.602 139.279 392.571 139.533 392.398 139.669C392.312 139.737 392.212 139.762 392.111 139.754C392.008 139.744 391.907 139.691 391.837 139.604L391.839 139.601Z" fill="#21111D"/>
        <path d="M375.719 135.602C375.689 135.57 372.579 132.313 370.542 133.743C370.361 133.871 370.112 133.826 369.986 133.645C369.86 133.464 369.903 133.212 370.084 133.087C372.688 131.26 376.154 134.896 376.3 135.052C376.451 135.213 376.443 135.467 376.285 135.62C376.197 135.703 376.081 135.741 375.97 135.728C375.877 135.718 375.789 135.678 375.721 135.605L375.719 135.602Z" fill="#21111D"/>
        <path d="M383.914 140.569C383.98 139.908 384.568 139.423 385.225 139.488C385.884 139.553 386.364 140.144 386.299 140.805C386.233 141.466 385.645 141.951 384.988 141.886C384.329 141.82 383.849 141.23 383.914 140.569Z" fill="black"/>
        <path d="M371.359 138.111C371.425 137.45 372.014 136.965 372.67 137.03C373.329 137.095 373.809 137.686 373.744 138.347C373.679 139.008 373.09 139.493 372.434 139.428C371.775 139.362 371.294 138.772 371.359 138.111Z" fill="black"/>
        <path d="M404.222 150.272C400.27 149.88 397.387 146.342 397.785 142.368C398.18 138.395 401.704 135.494 405.655 135.886C409.607 136.278 412.49 139.817 412.092 143.791C411.697 147.764 408.173 150.664 404.222 150.272Z" fill="#FE9F73"/>
        <path d="M407.014 142.494C405.127 141.039 403.261 142.534 403.183 142.599L402.627 143.054L402.868 142.376C403.301 141.167 404.003 140.345 404.954 139.938C406.604 139.232 408.392 140.018 408.468 140.051C408.568 140.096 408.614 140.214 408.568 140.315C408.523 140.415 408.405 140.463 408.304 140.418C408.287 140.41 406.596 139.669 405.107 140.307C404.42 140.604 403.877 141.149 403.487 141.933C404.272 141.521 405.771 141.029 407.258 142.175C408.264 142.951 408.578 144.283 408.06 145.572C407.623 146.663 406.518 147.686 405.032 147.538C405.019 147.538 405.004 147.535 404.989 147.533C404.878 147.52 404.8 147.42 404.813 147.312C404.825 147.201 404.924 147.123 405.032 147.133C405.047 147.133 405.059 147.136 405.072 147.138C406.438 147.274 407.336 146.301 407.69 145.422C408.033 144.575 408.06 143.298 407.016 142.491L407.014 142.494Z" fill="#F07162"/>
        <path d="M379.107 148.118C379.071 148.199 378.988 148.244 378.905 148.237C378.885 148.237 378.865 148.229 378.845 148.221L374.689 146.367L376.963 136.741C376.989 136.633 377.097 136.562 377.205 136.593C377.313 136.618 377.378 136.726 377.353 136.834L375.155 146.135L379.006 147.857C379.107 147.902 379.152 148.02 379.107 148.121V148.118Z" fill="#F07162"/>
        <path d="M377.966 153.575C376.597 153.464 376.582 152.884 376.582 152.884C376.582 152.884 378.481 150.943 379.035 152.569C379.035 152.569 379.538 153.7 377.966 153.575Z" fill="#FBFDFC"/>
        <path d="M369.701 131.247C369.701 131.247 369.998 125.396 370.405 124.147C370.813 122.898 384.152 120.525 391.16 122.207C398.168 123.886 383.616 130.335 383.458 130.32C383.299 130.304 369.701 131.247 369.701 131.247Z" fill="#FE9F73"/>
        <path d="M402.784 118.424L395.386 127.115L395.283 124.124L402.784 118.424Z" fill="#FE9F73"/>
        <path d="M400.345 143.924L395.158 142.577L400.169 125.763C400.169 125.763 408.274 127.05 406.317 131.234C404.36 135.419 404.37 135.806 404.37 135.806L400.347 143.924H400.345Z" fill="black"/>
        <path d="M443.029 178.099H427.617V176.925H443.047C443.12 176.925 450.434 177.222 451.408 183.766L451.413 183.809L451.576 249.046H450.402L450.238 183.897C449.386 178.37 443.268 178.107 443.027 178.096L443.029 178.099Z" fill="black"/>
        <path d="M460.116 188.469H458.941V349.043H460.116V188.469Z" fill="black"/>
        <path d="M313.444 212.161C313.418 211.299 312.863 190.994 313.444 184.842C314.065 178.295 320.454 176.95 320.519 176.938L331.723 176.925V178.099H320.698C320.089 178.235 315.129 179.521 314.616 184.953C314.04 191.035 314.613 211.917 314.616 212.126L313.444 212.159V212.161Z" fill="black"/>
        <path d="M544 349.948H0V358H544V349.948Z" fill="#5C8F78"/>
        <path d="M544 341.453H0V352.411H544V341.453Z" fill="#7FC6A6"/>
        <path d="M340.289 115.217C336.763 116.142 333.022 114.295 331.664 110.819C331.241 109.741 327.564 100.02 328.152 90.4594C328.872 78.7879 336.494 69.1018 342.616 61.3183C344.83 58.5059 346.92 55.8469 347.941 53.9595C351.128 48.0609 348.266 41.7727 345.303 37.5379C343.557 35.0422 340.335 33.0341 336.458 32.0263C331.983 30.8627 326.98 31.1115 322.372 32.725C312.63 36.1355 308.779 41.2575 308.746 41.3078C306.53 44.663 302.012 45.5853 298.657 43.3711C295.299 41.157 294.376 36.6432 296.589 33.2905C297.2 32.3631 302.993 24.087 317.558 18.9901C324.87 16.4316 332.884 16.0596 340.128 17.9421C347.41 19.8345 353.488 23.8331 357.243 29.2014C360.626 34.0394 362.749 39.0358 363.554 44.0547C364.508 50.0162 363.569 55.676 360.76 60.8734C359.145 63.8617 356.68 66.9957 354.069 70.3132C349.196 76.5058 343.132 84.2115 342.692 91.3541C342.36 96.7275 344.415 103.41 345.235 105.534C346.699 109.276 344.847 113.491 341.102 114.954C340.833 115.059 340.564 115.147 340.289 115.217Z" fill="#7FC6A6"/>
        <path d="M352.067 129.953C352.901 125.748 350.166 121.664 345.958 120.831C341.75 119.998 337.662 122.731 336.828 126.935C335.994 131.14 338.73 135.223 342.938 136.057C347.146 136.89 351.233 134.157 352.067 129.953Z" fill="#7FC6A6"/>
        <path d="M340.932 115.212C340.736 115.283 340.537 115.343 340.338 115.396C336.679 116.356 332.878 114.416 331.494 110.887C331.072 109.806 327.379 100.052 327.97 90.4494C328.692 78.72 336.334 69.0088 342.472 61.2077C342.534 61.1273 342.65 61.1147 342.728 61.1775C342.809 61.2404 342.821 61.356 342.758 61.4339C336.651 69.1973 329.049 78.8557 328.332 90.472C327.746 99.9947 331.411 109.681 331.831 110.754C333.144 114.112 336.759 115.954 340.24 115.042C340.507 114.971 340.774 114.886 341.03 114.785C342.796 114.094 344.19 112.759 344.949 111.028C345.711 109.294 345.749 107.369 345.06 105.604C345.022 105.511 345.07 105.403 345.163 105.368C345.259 105.333 345.364 105.378 345.399 105.471C346.126 107.326 346.084 109.352 345.284 111.176C344.484 112.998 343.02 114.403 341.161 115.127C341.083 115.157 341.003 115.187 340.925 115.215L340.932 115.212Z" fill="black"/>
        <path d="M354.129 70.4841C354.071 70.5042 354.006 70.4967 353.956 70.4565C353.875 70.3936 353.86 70.2805 353.923 70.2026C356.529 66.8876 358.991 63.7612 360.596 60.788C363.386 55.6258 364.319 50.0061 363.371 44.0849C362.571 39.0936 360.458 34.1224 357.09 29.307C353.359 23.9764 347.32 20.0029 340.078 18.1205C339.98 18.0954 339.922 17.9949 339.947 17.8968C339.972 17.7988 340.073 17.741 340.171 17.7662C347.496 19.6687 353.611 23.6949 357.389 29.0959C360.79 33.9565 362.923 38.978 363.73 44.0246C364.691 50.0262 363.746 55.7238 360.916 60.9589C359.293 63.9597 356.823 67.0988 354.21 70.4213C354.187 70.4489 354.157 70.469 354.127 70.4816L354.129 70.4841Z" fill="black"/>
        <path d="M345.364 37.7113C345.288 37.739 345.2 37.7113 345.152 37.6435C343.432 35.183 340.245 33.2 336.414 32.2048C331.974 31.0512 327.009 31.2975 322.433 32.9009C322.401 32.911 322.368 32.9236 322.335 32.9361C312.759 36.3114 308.931 41.3681 308.895 41.4184C307.799 43.0771 306.118 44.2131 304.164 44.6127C302.209 45.0123 300.217 44.6278 298.554 43.5295C295.118 41.2625 294.168 36.6281 296.437 33.195C296.492 33.1095 296.605 33.0869 296.691 33.1422C296.776 33.1975 296.799 33.3106 296.743 33.3961C294.588 36.6608 295.491 41.069 298.758 43.2254C300.34 44.2684 302.235 44.6353 304.093 44.2533C305.952 43.8738 307.55 42.7931 308.596 41.2123C308.629 41.162 312.487 36.0224 322.217 32.5918C322.25 32.5793 322.282 32.5692 322.315 32.5566C326.958 30.9306 331.999 30.6817 336.51 31.8529C340.426 32.8708 343.686 34.9065 345.457 37.4374C345.515 37.5203 345.495 37.6334 345.412 37.6912C345.396 37.7013 345.384 37.7088 345.366 37.7138L345.364 37.7113Z" fill="black"/>
        <path d="M347.071 135.917C345.018 136.64 342.677 136.527 340.616 135.406C340.528 135.359 340.496 135.248 340.543 135.158C340.591 135.07 340.702 135.037 340.792 135.085C342.757 136.153 344.991 136.263 346.948 135.572C348.653 134.972 350.15 133.763 351.081 132.056C352.049 130.279 352.268 128.231 351.697 126.288C351.123 124.346 349.828 122.745 348.049 121.775C347.961 121.727 347.929 121.616 347.977 121.526C348.024 121.438 348.135 121.405 348.226 121.453C350.089 122.468 351.448 124.15 352.049 126.185C352.65 128.221 352.421 130.367 351.405 132.232C350.429 134.022 348.859 135.288 347.071 135.919V135.917Z" fill="black"/>
        <path d="M130.165 224.966C129.632 226.786 127.801 227.959 125.884 227.633C125.29 227.532 119.96 226.562 115.847 223.732C110.827 220.276 108.545 214.277 106.714 209.459C106.052 207.718 105.426 206.071 104.855 205.109C103.077 202.103 99.4998 201.691 96.8108 201.877C95.2261 201.985 93.4654 202.882 91.9737 204.34C90.2532 206.024 89.0206 208.321 88.505 210.809C87.4133 216.069 88.6659 219.163 88.681 219.191C89.5841 221.078 88.7842 223.343 86.8951 224.245C85.006 225.147 82.7396 224.348 81.8366 222.46C81.5876 221.938 79.4445 217.135 81.077 209.271C81.897 205.322 83.8816 201.648 86.6687 198.924C89.4684 196.184 92.8868 194.548 96.2927 194.314C99.3615 194.103 102.164 194.498 104.624 195.488C107.544 196.664 109.818 198.602 111.388 201.251C112.288 202.774 113.028 204.714 113.807 206.77C115.266 210.605 117.08 215.378 120.151 217.492C122.463 219.083 126 219.96 127.169 220.163C129.234 220.515 130.62 222.473 130.268 224.536C130.243 224.685 130.21 224.828 130.168 224.969L130.165 224.966Z" fill="#4CB7D8"/>
        <path d="M138.312 222.792C140.458 223.42 141.686 225.667 141.057 227.809C140.428 229.952 138.179 231.179 136.036 230.551C133.89 229.922 132.663 227.675 133.292 225.534C133.92 223.39 136.169 222.164 138.312 222.792Z" fill="#4CB7D8"/>
        <path d="M130.334 224.68C130.311 224.785 130.286 224.891 130.256 224.994C129.703 226.884 127.816 228.057 125.867 227.726C125.27 227.625 119.92 226.652 115.79 223.81C110.744 220.339 108.457 214.325 106.621 209.492C106.604 209.442 106.626 209.389 106.676 209.369C106.727 209.351 106.78 209.374 106.8 209.424C108.628 214.232 110.902 220.216 115.898 223.654C119.996 226.474 125.306 227.439 125.897 227.54C127.748 227.856 129.544 226.738 130.07 224.941C130.11 224.803 130.143 224.662 130.168 224.519C130.334 223.546 130.113 222.566 129.542 221.762C128.971 220.957 128.12 220.422 127.147 220.256C127.094 220.246 127.059 220.198 127.069 220.146C127.079 220.093 127.127 220.058 127.18 220.068C128.203 220.241 129.096 220.804 129.698 221.651C130.296 222.498 130.53 223.526 130.357 224.551C130.349 224.594 130.341 224.637 130.331 224.682L130.334 224.68Z" fill="black"/>
        <path d="M113.897 206.785C113.89 206.815 113.87 206.843 113.837 206.856C113.787 206.873 113.734 206.851 113.714 206.8C112.934 204.747 112.197 202.812 111.302 201.296C109.744 198.667 107.486 196.742 104.585 195.574C102.14 194.591 99.3533 194.196 96.2971 194.407C92.9139 194.639 89.5181 196.267 86.7335 198.989C86.6958 199.027 86.6354 199.024 86.5977 198.989C86.5599 198.951 86.5625 198.891 86.5977 198.853C89.4149 196.099 92.8535 194.453 96.282 194.216C99.3659 194.005 102.183 194.402 104.653 195.398C107.594 196.581 109.883 198.532 111.462 201.198C112.368 202.726 113.108 204.672 113.89 206.73C113.897 206.748 113.897 206.765 113.895 206.783L113.897 206.785Z" fill="black"/>
        <path d="M96.9035 201.894C96.8959 201.935 96.8607 201.967 96.8154 201.97C95.2534 202.078 93.5127 202.965 92.0387 204.408C90.3307 206.076 89.1082 208.358 88.5951 210.829C88.5926 210.847 88.5875 210.864 88.585 210.882C87.5235 216.059 88.7536 219.123 88.7661 219.153C89.2139 220.088 89.2692 221.141 88.9221 222.121C88.575 223.099 87.8706 223.885 86.9324 224.333C84.998 225.258 82.6713 224.436 81.7456 222.503C81.723 222.455 81.7431 222.4 81.7909 222.375C81.8387 222.352 81.8965 222.372 81.9192 222.42C82.7996 224.257 85.0106 225.039 86.8494 224.159C87.7398 223.735 88.4115 222.988 88.741 222.056C89.0705 221.126 89.0177 220.123 88.59 219.231C88.5775 219.203 87.3173 216.102 88.3964 210.842C88.3989 210.824 88.4039 210.806 88.4064 210.789C88.9271 208.281 90.1697 205.966 91.9028 204.269C93.4096 202.797 95.193 201.889 96.8003 201.779C96.8532 201.776 96.8984 201.814 96.901 201.867C96.901 201.877 96.901 201.884 96.901 201.892L96.9035 201.894Z" fill="black"/>
        <path d="M141.23 227.499C141.001 228.61 140.322 229.623 139.268 230.241C139.223 230.269 139.165 230.254 139.137 230.206C139.109 230.161 139.124 230.103 139.172 230.076C140.176 229.487 140.825 228.52 141.044 227.462C141.232 226.539 141.097 225.549 140.583 224.675C140.05 223.765 139.192 223.116 138.171 222.852C137.15 222.586 136.086 222.734 135.175 223.267C135.13 223.295 135.072 223.28 135.044 223.232C135.017 223.187 135.034 223.129 135.08 223.101C136.033 222.543 137.15 222.387 138.219 222.666C139.29 222.945 140.186 223.624 140.747 224.577C141.285 225.491 141.429 226.532 141.23 227.499Z" fill="black"/>
        <path d="M249.953 153.333C248.431 155.063 245.818 155.412 243.876 154.07C243.275 153.653 237.912 149.855 234.843 144.635C231.095 138.261 231.669 130.495 232.131 124.255C232.297 122.001 232.456 119.869 232.323 118.517C231.91 114.3 228.187 112.013 225.139 110.837C223.343 110.143 220.943 110.229 218.556 111.066C215.799 112.033 213.263 113.928 211.417 116.401C207.513 121.624 207.304 125.67 207.304 125.708C207.327 128.249 205.284 130.325 202.744 130.35C200.201 130.372 198.123 128.332 198.098 125.793C198.09 125.092 198.204 118.708 204.039 110.9C206.97 106.979 211.04 103.956 215.502 102.39C219.99 100.814 224.588 100.766 228.454 102.257C231.938 103.599 234.815 105.471 237.011 107.818C239.617 110.608 241.124 113.906 241.489 117.623C241.698 119.759 241.511 122.272 241.315 124.931C240.948 129.897 240.493 136.075 242.784 139.975C244.51 142.908 247.948 145.688 249.128 146.512C251.218 147.958 251.737 150.82 250.288 152.909C250.185 153.059 250.074 153.2 249.956 153.333H249.953Z" fill="#FD7583"/>
        <path d="M260.032 155.12C262.067 156.91 262.266 160.011 260.475 162.044C258.684 164.078 255.58 164.276 253.545 162.487C251.51 160.697 251.311 157.596 253.102 155.563C254.893 153.529 257.997 153.331 260.032 155.12Z" fill="#FD7583"/>
        <path d="M250.288 153.105C250.21 153.21 250.127 153.313 250.042 153.409C248.462 155.203 245.783 155.527 243.811 154.163C243.207 153.746 237.824 149.933 234.743 144.69C230.977 138.287 231.553 130.501 232.016 124.243C232.021 124.18 232.077 124.132 232.14 124.137C232.202 124.142 232.25 124.197 232.245 124.26C231.785 130.483 231.214 138.231 234.942 144.572C237.998 149.772 243.343 153.557 243.942 153.972C245.816 155.269 248.364 154.96 249.866 153.253C249.981 153.122 250.089 152.984 250.19 152.838C250.872 151.853 251.131 150.662 250.917 149.486C250.703 148.307 250.044 147.284 249.058 146.603C249.005 146.568 248.993 146.495 249.028 146.442C249.066 146.389 249.136 146.377 249.189 146.412C250.225 147.128 250.92 148.206 251.143 149.443C251.367 150.682 251.096 151.934 250.379 152.969C250.349 153.012 250.318 153.057 250.286 153.1L250.288 153.105Z" fill="black"/>
        <path d="M241.403 124.999C241.381 125.029 241.343 125.049 241.303 125.047C241.24 125.042 241.192 124.989 241.197 124.924C241.393 122.267 241.579 119.759 241.371 117.633C241.008 113.943 239.514 110.666 236.923 107.896C234.74 105.562 231.878 103.699 228.409 102.362C224.57 100.882 219.997 100.93 215.537 102.498C215.477 102.518 215.412 102.488 215.389 102.428C215.369 102.367 215.399 102.302 215.459 102.279C219.972 100.693 224.6 100.648 228.489 102.146C231.988 103.496 234.883 105.376 237.089 107.738C239.713 110.545 241.23 113.868 241.597 117.61C241.808 119.756 241.622 122.272 241.424 124.936C241.424 124.959 241.413 124.979 241.401 124.997L241.403 124.999Z" fill="black"/>
        <path d="M225.229 110.907C225.199 110.947 225.143 110.965 225.095 110.945C223.325 110.261 220.953 110.347 218.591 111.176C215.856 112.136 213.338 114.019 211.507 116.472C211.495 116.489 211.482 116.507 211.469 116.524C207.641 121.671 207.42 125.673 207.42 125.713C207.432 126.969 206.952 128.158 206.069 129.055C205.186 129.955 204.006 130.455 202.746 130.468C200.145 130.49 198.007 128.397 197.984 125.796C197.984 125.733 198.035 125.68 198.1 125.68C198.163 125.68 198.216 125.73 198.216 125.796C198.238 128.269 200.271 130.262 202.744 130.239C203.941 130.229 205.065 129.752 205.905 128.897C206.746 128.043 207.201 126.912 207.191 125.715C207.191 125.678 207.397 121.621 211.286 116.391C211.298 116.374 211.311 116.356 211.326 116.338C213.188 113.848 215.741 111.94 218.52 110.963C220.932 110.116 223.362 110.033 225.183 110.734C225.244 110.756 225.274 110.824 225.249 110.882C225.244 110.892 225.239 110.902 225.234 110.91L225.229 110.907Z" fill="black"/>
        <path d="M260.822 161.793C260.001 162.896 258.734 163.663 257.257 163.801C257.194 163.806 257.136 163.761 257.131 163.698C257.126 163.635 257.172 163.577 257.235 163.572C258.641 163.439 259.851 162.71 260.635 161.657C261.317 160.74 261.677 159.579 261.561 158.355C261.44 157.081 260.832 155.93 259.846 155.113C258.859 154.296 257.614 153.914 256.339 154.032C256.276 154.037 256.218 153.992 256.213 153.929C256.208 153.866 256.254 153.808 256.319 153.803C257.655 153.678 258.96 154.08 259.994 154.937C261.028 155.791 261.667 157 261.792 158.335C261.913 159.617 261.536 160.835 260.822 161.796V161.793Z" fill="black"/>
        <path d="M434.643 148.302C432.865 146.837 432.43 144.238 433.71 142.258C434.107 141.644 437.732 136.163 442.856 132.928C449.109 128.98 456.897 129.299 463.155 129.558C465.417 129.651 467.552 129.739 468.901 129.563C473.106 129.013 475.272 125.223 476.349 122.139C476.983 120.322 476.822 117.929 475.906 115.572C474.847 112.85 472.87 110.379 470.337 108.615C464.984 104.888 460.932 104.81 460.894 104.81C458.353 104.916 456.208 102.945 456.102 100.407C455.996 97.8685 457.969 95.7247 460.509 95.6191C461.211 95.589 467.598 95.4935 475.602 101.068C479.619 103.865 482.776 107.834 484.489 112.239C486.212 116.668 486.408 121.259 485.042 125.167C483.812 128.688 482.033 131.626 479.757 133.893C477.053 136.588 473.801 138.199 470.095 138.684C467.965 138.963 465.444 138.857 462.778 138.749C457.8 138.543 451.602 138.289 447.776 140.704C444.898 142.521 442.23 146.048 441.442 147.251C440.064 149.385 437.216 149.996 435.081 148.619C434.927 148.521 434.782 148.412 434.646 148.302H434.643Z" fill="#FEC786"/>
        <path d="M433.183 158.423C431.457 160.514 428.363 160.813 426.27 159.089C424.178 157.365 423.878 154.273 425.604 152.182C427.329 150.091 430.423 149.792 432.516 151.516C434.609 153.24 434.908 156.332 433.183 158.423Z" fill="#FEC786"/>
        <path d="M434.88 148.626C434.772 148.551 434.666 148.473 434.568 148.39C432.722 146.869 432.31 144.205 433.61 142.195C434.007 141.579 437.647 136.08 442.791 132.83C449.075 128.862 456.883 129.184 463.156 129.442C463.219 129.445 463.269 129.498 463.267 129.563C463.264 129.626 463.211 129.676 463.146 129.674C456.905 129.417 449.138 129.098 442.915 133.026C437.811 136.248 434.199 141.707 433.804 142.32C432.569 144.235 432.959 146.769 434.714 148.214C434.848 148.325 434.991 148.428 435.139 148.523C436.148 149.172 437.345 149.393 438.518 149.141C439.69 148.89 440.691 148.196 441.34 147.191C441.375 147.138 441.446 147.123 441.501 147.156C441.554 147.191 441.569 147.261 441.536 147.317C440.852 148.375 439.798 149.104 438.568 149.368C437.338 149.631 436.075 149.4 435.016 148.719C434.971 148.691 434.928 148.661 434.883 148.631L434.88 148.626Z" fill="black"/>
        <path d="M462.709 138.842C462.676 138.819 462.656 138.784 462.658 138.741C462.661 138.679 462.714 138.628 462.777 138.631C465.44 138.741 467.956 138.845 470.074 138.568C473.754 138.088 476.981 136.487 479.668 133.81C481.931 131.556 483.702 128.633 484.925 125.13C486.281 121.247 486.084 116.685 484.371 112.282C484.349 112.222 484.379 112.156 484.437 112.131C484.497 112.109 484.563 112.136 484.588 112.197C486.321 116.653 486.517 121.272 485.144 125.205C483.909 128.744 482.12 131.694 479.831 133.974C477.107 136.686 473.834 138.309 470.104 138.797C467.966 139.076 465.44 138.973 462.769 138.862C462.746 138.862 462.724 138.855 462.706 138.842H462.709Z" fill="black"/>
        <path d="M476.277 122.232C476.234 122.204 476.217 122.149 476.234 122.099C476.861 120.307 476.7 117.942 475.791 115.612C474.743 112.913 472.778 110.46 470.265 108.708C470.248 108.696 470.23 108.683 470.212 108.67C464.937 105.016 460.93 104.923 460.89 104.923C459.635 104.976 458.43 104.534 457.502 103.682C456.574 102.83 456.035 101.666 455.983 100.409C455.874 97.8107 457.902 95.6116 460.5 95.501C460.563 95.4985 460.619 95.5488 460.621 95.6116C460.624 95.6744 460.573 95.7297 460.51 95.7322C458.038 95.8353 456.111 97.9288 456.214 100.399C456.264 101.596 456.778 102.701 457.66 103.513C458.543 104.325 459.688 104.742 460.885 104.694C460.923 104.694 464.988 104.767 470.346 108.482C470.363 108.495 470.381 108.507 470.401 108.52C472.952 110.297 474.946 112.785 476.013 115.529C476.939 117.912 477.102 120.334 476.458 122.177C476.438 122.237 476.37 122.27 476.31 122.247C476.3 122.245 476.29 122.239 476.282 122.232H476.277Z" fill="black"/>
        <path d="M426.533 159.428C425.401 158.644 424.593 157.402 424.407 155.935C424.4 155.872 424.445 155.814 424.508 155.806C424.571 155.799 424.628 155.844 424.636 155.907C424.815 157.307 425.584 158.493 426.663 159.24C427.602 159.89 428.776 160.21 429.996 160.056C431.267 159.896 432.399 159.25 433.183 158.239C433.968 157.229 434.31 155.972 434.149 154.703C434.142 154.64 434.187 154.582 434.25 154.575C434.313 154.567 434.371 154.613 434.378 154.675C434.547 156.005 434.187 157.322 433.364 158.383C432.542 159.443 431.357 160.119 430.024 160.288C428.744 160.451 427.514 160.114 426.53 159.431L426.533 159.428Z" fill="black"/>
        <g style="mix-blend-mode:multiply">
            <path d="M407.705 37.7943C406.307 37.6158 405.235 36.412 405.25 34.9719C405.255 34.5245 405.343 30.5083 406.941 27.1682C408.887 23.0892 413.02 20.7192 416.343 18.8167C417.543 18.1281 418.677 17.4797 419.316 16.9494C421.314 15.2956 421.198 12.6291 420.748 10.6838C420.484 9.53778 419.618 8.35153 418.376 7.43168C416.942 6.36857 415.111 5.73523 413.227 5.64727C409.242 5.46129 407.119 6.74053 407.102 6.7531C405.821 7.63525 404.068 7.31356 403.188 6.03431C402.305 4.75507 402.627 3.00333 403.907 2.12369C404.262 1.87991 407.534 -0.248817 413.491 0.0301543C416.481 0.170896 419.407 1.19379 421.731 2.91537C424.065 4.647 425.665 6.95667 426.234 9.42469C426.747 11.6464 426.785 13.745 426.344 15.6601C425.824 17.9346 424.667 19.827 422.908 21.2822C421.897 22.1191 420.559 22.8857 419.143 23.6974C416.499 25.2129 413.211 27.0979 412.019 29.5935C411.124 31.4709 410.892 34.1626 410.877 35.0422C410.86 36.5954 409.587 37.837 408.032 37.8194C407.922 37.8194 407.811 37.8093 407.703 37.7968L407.705 37.7943Z" fill="#FDEACF"/>
        </g>
        <g style="mix-blend-mode:multiply">
            <path d="M410.25 43.5044C410.039 45.148 408.537 46.3091 406.892 46.098C405.247 45.8869 404.085 44.3865 404.296 42.7428C404.508 41.0992 406.009 39.9381 407.654 40.1492C409.299 40.3603 410.462 41.8607 410.253 43.5044H410.25Z" fill="#FDEACF"/>
        </g>
        <g style="mix-blend-mode:multiply">
            <path d="M144.957 161.514C143.818 162.343 142.213 162.205 141.232 161.145C140.928 160.815 138.234 157.835 137.099 154.311C135.713 150.008 137.089 145.452 138.196 141.79C138.596 140.466 138.973 139.216 139.074 138.392C139.388 135.821 137.474 133.961 135.809 132.853C134.828 132.199 133.386 131.931 131.85 132.114C130.076 132.325 128.31 133.119 126.879 134.348C123.853 136.947 123.189 139.332 123.184 139.355C122.859 140.873 121.363 141.843 119.844 141.519C118.324 141.194 117.353 139.699 117.678 138.181C117.768 137.761 118.684 133.969 123.207 130.083C125.478 128.133 128.31 126.871 131.18 126.53C134.068 126.185 136.817 126.771 138.925 128.173C140.825 129.437 142.294 130.938 143.29 132.632C144.474 134.642 144.932 136.811 144.656 139.078C144.495 140.38 144.049 141.855 143.579 143.416C142.699 146.329 141.602 149.958 142.45 152.59C143.088 154.57 144.769 156.686 145.365 157.335C146.419 158.476 146.346 160.252 145.204 161.305C145.121 161.381 145.038 161.451 144.95 161.514H144.957Z" fill="#FDEACF"/>
        </g>
        <g style="mix-blend-mode:multiply">
            <path d="M150.733 163.922C151.709 165.261 151.414 167.136 150.074 168.111C148.733 169.086 146.856 168.792 145.88 167.453C144.904 166.113 145.199 164.238 146.54 163.263C147.88 162.288 149.757 162.582 150.733 163.922Z" fill="#FDEACF"/>
        </g>
        <path d="M407.735 91.5778C406.94 91.2787 406.48 90.4268 406.689 89.5848C406.754 89.3234 407.363 86.9836 408.759 85.2495C410.465 83.1308 413.214 82.314 415.422 81.658C416.22 81.4218 416.974 81.1981 417.422 80.9744C418.821 80.2833 419.123 78.705 419.13 77.5036C419.135 76.7949 418.793 75.9806 418.192 75.2693C417.5 74.4475 416.517 73.8242 415.425 73.5126C413.118 72.8516 411.697 73.309 411.684 73.314C410.812 73.6533 409.831 73.2236 409.491 72.3515C409.151 71.4819 409.582 70.4992 410.454 70.1599C410.696 70.0669 412.907 69.2727 416.358 70.2604C418.091 70.7555 419.661 71.7608 420.783 73.0904C421.91 74.4274 422.526 76.0007 422.518 77.5237C422.511 78.896 422.242 80.13 421.718 81.1906C421.097 82.4497 420.159 83.3972 418.926 84.0079C418.217 84.3573 417.329 84.6211 416.386 84.9026C414.627 85.4254 412.442 86.0738 411.398 87.3706C410.613 88.3458 410.105 89.8914 409.974 90.4041C409.748 91.3114 408.829 91.8618 407.924 91.6381C407.859 91.6231 407.796 91.603 407.735 91.5803V91.5778Z" fill="#4CB7D8"/>
        <path d="M408.434 95.2748C408.084 96.2072 407.04 96.6797 406.107 96.3304C405.174 95.9785 404.701 94.938 405.051 94.0056C405.403 93.0732 406.444 92.6007 407.378 92.95C408.311 93.2994 408.784 94.3424 408.434 95.2748Z" fill="#4CB7D8"/>
        <path d="M407.858 91.6608C407.81 91.6482 407.765 91.6331 407.719 91.6155C406.897 91.3064 406.434 90.4293 406.648 89.5722C406.713 89.3109 407.324 86.9635 408.725 85.2193C410.441 83.0906 413.195 82.2712 415.409 81.6153C415.431 81.6077 415.454 81.6203 415.462 81.6429C415.469 81.6656 415.457 81.6882 415.434 81.6957C413.231 82.3492 410.489 83.1635 408.791 85.2721C407.4 87.0012 406.794 89.331 406.728 89.5924C406.527 90.4066 406.965 91.241 407.747 91.5351C407.807 91.5577 407.87 91.5778 407.931 91.5929C408.358 91.6985 408.803 91.6331 409.181 91.4044C409.558 91.1782 409.825 90.8163 409.93 90.389C409.935 90.3664 409.958 90.3514 409.981 90.3589C410.003 90.3639 410.018 90.3865 410.011 90.4092C409.9 90.859 409.618 91.2385 409.221 91.4773C408.824 91.716 408.358 91.7864 407.908 91.6733C407.888 91.6683 407.87 91.6633 407.85 91.6582L407.858 91.6608Z" fill="black"/>
        <path d="M416.378 84.9428C416.366 84.9378 416.353 84.9277 416.348 84.9152C416.34 84.8926 416.353 84.8699 416.376 84.8624C417.316 84.5834 418.204 84.3195 418.909 83.9702C420.131 83.3645 421.064 82.422 421.681 81.173C422.199 80.1174 422.468 78.8909 422.475 77.5237C422.486 76.0107 421.872 74.445 420.75 73.118C420.735 73.1004 420.737 73.0727 420.755 73.0577C420.773 73.0426 420.8 73.0451 420.815 73.0627C421.95 74.4073 422.569 75.9906 422.561 77.5237C422.553 78.9035 422.282 80.1425 421.759 81.2081C421.135 82.4773 420.189 83.4298 418.946 84.0456C418.234 84.3975 417.344 84.6613 416.401 84.9428C416.393 84.9428 416.383 84.9428 416.376 84.9428H416.378Z" fill="black"/>
        <path d="M419.12 77.5438C419.102 77.5388 419.089 77.5212 419.089 77.5036C419.094 76.8049 418.755 76.0007 418.161 75.297C417.474 74.4827 416.499 73.8619 415.414 73.5528C415.407 73.5528 415.399 73.5477 415.392 73.5452C413.12 72.9018 411.714 73.3467 411.699 73.3517C411.269 73.5201 410.796 73.51 410.371 73.3241C409.946 73.1381 409.619 72.7963 409.45 72.3665C409.103 71.4743 409.546 70.4665 410.439 70.1197C410.462 70.1121 410.487 70.1197 410.494 70.1448C410.502 70.1674 410.494 70.1926 410.469 70.2001C409.621 70.5293 409.199 71.4894 409.531 72.3364C409.692 72.746 410.001 73.0702 410.406 73.2487C410.809 73.4271 411.259 73.4346 411.669 73.2763C411.681 73.2713 413.105 72.8139 415.414 73.4673C415.422 73.4673 415.429 73.4723 415.437 73.4749C416.536 73.789 417.527 74.4198 418.227 75.2467C418.833 75.9655 419.177 76.7898 419.175 77.5086C419.175 77.5312 419.155 77.5514 419.132 77.5514C419.127 77.5514 419.125 77.5514 419.12 77.5514V77.5438Z" fill="black"/>
        <path d="M406.241 96.4158C405.753 96.2776 405.326 95.9408 405.084 95.4533C405.074 95.4332 405.084 95.4055 405.104 95.3955C405.124 95.3854 405.152 95.3955 405.162 95.4156C405.391 95.883 405.801 96.2022 406.266 96.3354C406.671 96.451 407.116 96.4209 407.524 96.2223C407.947 96.0162 408.264 95.6543 408.417 95.2095C408.57 94.7646 408.54 94.2871 408.331 93.8624C408.321 93.8423 408.331 93.8146 408.352 93.8046C408.372 93.7945 408.399 93.8046 408.409 93.8247C408.626 94.267 408.658 94.7697 408.5 95.2371C408.341 95.7046 408.007 96.0816 407.564 96.2977C407.139 96.5063 406.671 96.5365 406.246 96.4158H406.241Z" fill="black"/>
        <g style="mix-blend-mode:multiply">
            <path d="M249.51 56.7743C249.015 57.5107 248.036 57.7746 247.229 57.3599C246.977 57.2317 244.741 56.048 243.31 54.2108C241.562 51.9665 241.391 48.9732 241.255 46.5705C241.204 45.7009 241.159 44.8816 241.041 44.3714C240.671 42.783 239.137 42.0969 237.914 41.8004C237.195 41.627 236.282 41.7777 235.414 42.2176C234.41 42.7252 233.538 43.5747 232.956 44.6102C231.729 46.7992 231.85 48.3524 231.852 48.3675C231.988 49.3351 231.314 50.2298 230.343 50.3655C229.375 50.5012 228.479 49.8277 228.343 48.8576C228.305 48.5912 228.029 46.1483 229.865 42.8785C230.786 41.2374 232.189 39.8802 233.814 39.0584C235.447 38.2341 237.2 37.9852 238.749 38.3597C240.146 38.699 241.338 39.2695 242.294 40.0537C243.428 40.9886 244.168 42.1723 244.492 43.5722C244.678 44.3764 244.734 45.344 244.791 46.3695C244.9 48.282 245.035 50.6621 246.105 52.0368C246.909 53.0698 248.361 53.9595 248.851 54.2133C249.722 54.6607 250.061 55.7263 249.614 56.5959C249.581 56.6587 249.546 56.7165 249.508 56.7743H249.51Z" fill="#FDEACF"/>
            <path d="M253.445 56.9527C254.311 57.5333 254.542 58.707 253.961 59.5715C253.38 60.4361 252.205 60.6673 251.34 60.0868C250.475 59.5062 250.243 58.3325 250.824 57.468C251.405 56.6034 252.58 56.3722 253.448 56.9527H253.445Z" fill="#FDEACF"/>
        </g>
        <g opacity="0.3">
            <path d="M249.167 190.361C246.065 189.625 242.916 189.414 239.829 189.698L236.124 182.985L231.149 184.643L226.173 186.302L227.242 193.892C224.604 195.513 222.209 197.572 220.171 200.022L212.801 197.893L210.457 202.581L208.113 207.268L214.24 211.882C213.503 214.981 213.292 218.128 213.576 221.211L206.857 224.913L208.518 229.885L210.178 234.856L217.774 233.788C219.397 236.424 221.457 238.817 223.909 240.852L221.779 248.216L226.47 250.559L231.161 252.901L235.78 246.779C238.881 247.515 242.03 247.726 245.117 247.442L248.822 254.155L253.797 252.496L258.773 250.837L257.704 243.247C260.343 241.626 262.737 239.568 264.775 237.118L272.145 239.246L274.489 234.559L276.834 229.872L270.706 225.258C271.443 222.159 271.654 219.012 271.37 215.928L278.089 212.226L276.429 207.255L274.768 202.284L267.172 203.352C265.549 200.716 263.489 198.323 261.037 196.287L263.167 188.924L258.476 186.581L253.785 184.239L249.167 190.361ZM260.076 227.364C255.216 237.077 243.394 241.016 233.672 236.16C223.95 231.304 220.008 219.492 224.868 209.779C229.728 200.065 241.55 196.127 251.272 200.982C260.994 205.838 264.936 217.65 260.076 227.364Z" fill="#F8D2A2"/>
        </g>
        <g opacity="0.3">
            <path d="M61.442 244.348C58.3405 243.612 55.1912 243.401 52.1048 243.685L48.3996 236.972L43.4241 238.631L38.4486 240.289L39.5177 247.879C36.879 249.5 34.4844 251.559 32.4469 254.009L25.0767 251.881L22.7324 256.568L20.388 261.255L26.5155 265.869C25.7785 268.968 25.5672 272.115 25.8515 275.198L19.1328 278.9L20.793 283.872L22.4532 288.843L30.0497 287.775C31.6721 290.411 33.7323 292.804 36.1848 294.84L34.0542 302.203L38.7455 304.546L43.4367 306.888L48.055 300.766C51.1565 301.502 54.3058 301.713 57.3922 301.429L61.0974 308.142L66.0729 306.483L71.0483 304.825L69.9793 297.235C72.618 295.614 75.0126 293.555 77.0501 291.105L84.4203 293.234L86.7646 288.546L89.109 283.859L82.9814 279.245C83.7185 276.146 83.9298 272.999 83.6455 269.916L90.3642 266.214L88.704 261.242L87.0438 256.271L79.4473 257.339C77.8249 254.703 75.7647 252.31 73.3122 250.275L75.4428 242.911L70.7515 240.568L66.0603 238.226L61.442 244.348ZM72.3513 281.351C67.4916 291.065 55.6691 295.003 45.9471 290.147C36.225 285.292 32.2834 273.479 37.1431 263.766C42.0029 254.052 53.8253 250.114 63.5474 254.969C73.2695 259.825 77.2111 271.637 72.3513 281.351Z" fill="#F8D2A2"/>
        </g>
        <g opacity="0.3">
            <path d="M488.211 271.172C486.601 270.79 484.966 270.68 483.363 270.828L481.439 267.345L478.856 268.204L476.273 269.064L476.826 273.004C475.458 273.846 474.215 274.914 473.156 276.186L469.33 275.08L468.113 277.513L466.895 279.946L470.077 282.341C469.695 283.95 469.584 285.583 469.732 287.184L466.246 289.107L467.106 291.688L467.967 294.269L471.911 293.716C472.753 295.083 473.822 296.325 475.095 297.383L473.989 301.206L476.423 302.422L478.858 303.638L481.256 300.459C482.865 300.841 484.5 300.952 486.103 300.803L488.027 304.287L490.61 303.427L493.194 302.568L492.64 298.627C494.009 297.785 495.251 296.717 496.31 295.445L500.136 296.551L501.354 294.118L502.571 291.685L499.389 289.29C499.771 287.682 499.882 286.048 499.734 284.447L503.22 282.525L502.36 279.943L501.5 277.362L497.555 277.915C496.713 276.548 495.644 275.307 494.371 274.248L495.478 270.426L493.043 269.209L490.608 267.993L488.211 271.172ZM493.873 290.381C491.35 295.423 485.215 297.468 480.166 294.948C475.12 292.427 473.073 286.297 475.596 281.253C478.119 276.211 484.254 274.166 489.302 276.686C494.348 279.207 496.396 285.337 493.873 290.381Z" fill="#F8D2A2"/>
        </g>
        <path d="M102.349 107.009L92.3576 100.392C91.8872 100.08 91.7589 99.4468 92.0708 98.9768C92.3827 98.5069 93.0166 98.3787 93.487 98.6903L100.754 103.503L102.978 86.775C103.053 86.2171 103.566 85.8225 104.125 85.8979C104.683 85.9733 105.078 86.486 105.003 87.0439L102.349 107.009Z" fill="#7FC6A6"/>
        <path d="M506.39 162.499L500.795 148.495C500.531 147.837 500.853 147.088 501.512 146.824C502.171 146.56 502.921 146.882 503.185 147.54L507.253 157.724L521.55 142.004C522.028 141.478 522.84 141.438 523.366 141.918C523.892 142.396 523.93 143.208 523.452 143.733L506.385 162.494L506.39 162.499Z" fill="#FD7583"/>
    </g>
    <defs>
        <clipPath id="clip0_117_24136">
            <rect width="544" height="358" fill="white"/>
        </clipPath>
    </defs>
</svg>
