<svg width="680" height="484" viewBox="0 0 680 484" fill="none" xmlns="http://www.w3.org/2000/svg">
<path d="M38.7796 379.623C45.5024 411.155 62.8532 437.789 87.2845 459.773L133.601 443.993L436.396 411.463C436.396 411.463 536.361 443.031 586.557 456.585C645.687 411.59 689.985 343.458 678.046 240.807C672.424 192.472 650.447 147.827 627.911 121.465C564.758 47.5936 485.516 51.617 429.508 61.6753C309.708 83.1876 322.511 27.2578 213.511 44.9965C-20.2275 83.046 30.7513 343.485 37.5273 373.874C37.955 375.788 38.3687 377.706 38.7768 379.623H38.7796Z" fill="#FFE2AE"/>
<path d="M156.976 395.339C156.976 395.339 129.316 376.638 94.6143 400.492C94.6143 400.492 137.305 426.396 156.976 395.339Z" fill="#347877"/>
<path d="M172.099 399.679C172.099 399.679 166.939 342.7 97.0269 322.933C97.0269 322.933 108.96 407.639 172.099 399.679Z" fill="#7FC6A6"/>
<path d="M179.383 115.754C179.383 78.379 148.857 48.0792 111.204 48.0792C73.5506 48.0792 43.0254 78.379 43.0254 115.754C43.0254 134.292 50.5365 151.087 62.7019 163.31C62.7019 163.31 83.3344 185.213 90.3032 209.084C90.3032 209.084 102.217 213.099 111.207 213.324C120.197 213.102 132.11 209.084 132.11 209.084C139.079 185.213 159.712 163.31 159.712 163.31C171.877 151.087 179.388 134.292 179.388 115.751L179.383 115.754Z" fill="#FECC86"/>
<path d="M88.4609 203.69V221.207C88.4609 229.456 93.4926 236.537 100.677 239.598C101.308 244.809 105.77 248.851 111.19 248.851C116.61 248.851 121.072 244.809 121.703 239.598C128.885 236.537 133.919 229.456 133.919 221.207V203.69H88.4637H88.4609Z" fill="#42A0BD"/>
<g style="mix-blend-mode:multiply" opacity="0.3">
<path d="M179.383 115.754C179.383 101.908 175.193 89.0339 168.003 78.3096C148.061 127.081 116.261 159.88 70.4507 172.602C76.2203 180.114 83.8684 191.426 88.4919 203.69H133.916C142.09 182.014 159.709 163.313 159.709 163.313C171.874 151.09 179.386 134.295 179.386 115.754H179.383Z" fill="#FECC86"/>
</g>
<path d="M122.344 203.954L120.393 203.424C120.457 203.194 126.813 179.986 131.225 156.218C138.875 114.977 134.476 106.231 131.171 104.686C127.795 103.11 125.139 103.39 123.277 105.527C123.143 105.682 123.012 105.846 122.886 106.018C127.652 108.806 128.804 113.093 129.078 114.828C129.832 119.614 127.677 124.395 124.27 125.482C123.445 125.746 121.857 125.879 120.485 123.818C118.304 120.546 117.622 112.364 120.066 106.908C117.723 105.957 114.866 105.452 111.598 105.452H109.63C106.363 105.452 103.509 105.96 101.163 106.908C103.604 112.364 102.924 120.546 100.744 123.818C99.3715 125.876 97.7838 125.746 96.9591 125.482C93.5516 124.395 91.3936 119.617 92.1511 114.828C92.4251 113.093 93.5796 108.806 98.3428 106.018C98.2171 105.849 98.0885 105.682 97.9515 105.527C96.0898 103.39 93.4342 103.107 90.0574 104.686C86.7533 106.229 82.3534 114.977 90.0043 156.218C94.4154 179.986 100.772 203.191 100.836 203.424L98.8851 203.954C98.8208 203.721 92.4419 180.444 88.0168 156.595C81.9062 123.67 82.2919 106.098 89.1937 102.874C94.5495 100.374 97.7446 102.225 99.4806 104.217C99.7237 104.497 99.953 104.794 100.165 105.11C102.55 104.103 105.636 103.448 109.628 103.448H111.596C115.587 103.448 118.673 104.103 121.058 105.11C121.27 104.797 121.5 104.497 121.743 104.217C123.479 102.222 126.674 100.371 132.03 102.874C138.931 106.098 139.317 123.67 133.209 156.595C128.784 180.446 122.405 203.723 122.341 203.954H122.344ZM99.3464 107.796C96.47 109.464 94.6474 111.967 94.147 115.141C93.4873 119.32 95.3882 122.874 97.5769 123.573C97.781 123.637 98.3233 123.812 99.0557 122.713C100.923 119.911 101.415 112.511 99.3464 107.796ZM121.88 107.796C119.811 112.511 120.303 119.911 122.17 122.713C122.903 123.812 123.445 123.637 123.649 123.573C125.838 122.874 127.739 119.32 127.079 115.141C126.579 111.967 124.756 109.464 121.88 107.796Z" fill="#F99247"/>
<path d="M88.1314 204.162C87.5891 202.619 87.3431 202.053 86.8064 200.816L86.5129 200.139C78.0011 180.408 62.4869 163.818 62.3331 163.651L62.2856 163.598C49.5416 150.763 42.5225 133.773 42.5225 115.751C42.5225 78.1598 73.3328 47.5742 111.207 47.5742C134.459 47.5742 155.955 59.117 168.71 78.4511L167.863 79.0005C155.298 59.9494 134.118 48.5759 111.207 48.5759C73.8919 48.5759 43.5344 78.7092 43.5344 115.749C43.5344 133.535 50.4696 150.299 63.0655 162.952L63.7252 163.615L63.6777 163.623C66.6463 166.917 79.8264 182.078 87.4438 199.739L87.7345 200.413C88.2824 201.673 88.5312 202.247 89.0874 203.823L88.1314 204.154V204.162Z" fill="#21111D"/>
<path d="M63.5911 84.5111L62.6211 84.2308C62.6686 84.0643 67.7114 67.405 84.6708 61.1425L85.023 62.0831C68.55 68.1653 63.6386 84.3474 63.5911 84.5083V84.5111Z" fill="#21111D"/>
<path d="M66.7161 90.5322L65.7461 90.2519C65.7936 90.0855 70.8364 73.4261 87.7958 67.1636L88.148 68.1043C71.675 74.1864 66.7636 90.3685 66.7161 90.5294V90.5322Z" fill="#21111D"/>
<path d="M113.667 241.715H108.711C97.2664 241.715 87.9551 232.472 87.9551 221.113V203.188H133.916V204.192H88.967V221.113C88.967 231.92 97.8255 240.71 108.711 240.71H113.667C118.88 240.71 123.797 238.713 127.512 235.083L128.222 235.799C124.317 239.614 119.148 241.715 113.667 241.715Z" fill="#21111D"/>
<path d="M111.484 249.356C101.633 249.356 100.21 239.87 100.196 239.772L101.197 239.636C101.247 240 102.564 248.56 111.811 248.349L111.833 249.353C111.716 249.353 111.599 249.356 111.481 249.356H111.484Z" fill="#21111D"/>
<path d="M157.956 153.637L157.353 152.83C166.351 146.204 167.768 135.138 167.779 135.027L168.783 135.144C168.769 135.26 167.31 146.742 157.954 153.635L157.956 153.637Z" fill="#21111D"/>
<path d="M155.966 148.818L155.362 148.01C161.92 143.179 162.957 135.111 162.966 135.03L163.969 135.147C163.927 135.493 162.882 143.72 155.963 148.815L155.966 148.818Z" fill="#21111D"/>
<path d="M86.373 212.711L86.3618 211.706C86.7476 211.701 125.075 211.21 137.212 206.717L137.564 207.658C125.262 212.211 87.9552 212.691 86.373 212.711Z" fill="#21111D"/>
<path d="M86.3789 221.187L86.3594 220.183C86.7787 220.175 128.371 219.356 136.145 215.222L136.623 216.107C128.633 220.355 88.0981 221.154 86.3761 221.187H86.3789Z" fill="#21111D"/>
<path d="M88.464 229.889L88.4556 228.885C88.8301 228.882 126.154 228.491 136.153 223.363L136.617 224.256C126.405 229.495 90.0098 229.875 88.464 229.889Z" fill="#21111D"/>
<path d="M25.6444 105.102C25.6024 105.102 25.5577 105.102 25.5158 105.097L1.38909 103.057C0.553279 102.988 -0.064494 102.258 0.00538978 101.428C0.0752736 100.599 0.810451 99.9884 1.64626 100.055L25.7729 102.094C26.6087 102.164 27.2265 102.893 27.1566 103.723C27.0895 104.508 26.427 105.102 25.6471 105.102H25.6444Z" fill="#FECC86"/>
<path d="M38.1257 66.9472C37.8322 66.9472 37.5331 66.8612 37.2703 66.6836L17.2863 53.1097C16.5959 52.6408 16.417 51.703 16.8922 51.0176C17.3646 50.3323 18.3094 50.1547 18.9999 50.6264L38.9838 64.2002C39.6743 64.6692 39.8532 65.607 39.378 66.2924C39.0845 66.7197 38.6093 66.9472 38.1257 66.9472Z" fill="#FECC86"/>
<path d="M74.2414 39.5803C73.6432 39.5803 73.0757 39.2251 72.8353 38.6397L63.7225 16.3727C63.4066 15.6013 63.7812 14.7245 64.5583 14.411C65.3326 14.0974 66.2187 14.4692 66.5346 15.2406L75.6474 37.5076C75.9633 38.279 75.5887 39.1558 74.8116 39.4693C74.6243 39.5442 74.4314 39.5803 74.2414 39.5803Z" fill="#FECC86"/>
<path d="M195.551 109.439C194.76 109.439 194.092 108.829 194.039 108.032C193.983 107.203 194.618 106.484 195.454 106.431L219.617 104.847C220.447 104.794 221.174 105.421 221.229 106.251C221.285 107.081 220.651 107.799 219.815 107.852L195.652 109.436C195.618 109.436 195.585 109.439 195.551 109.439Z" fill="#FECC86"/>
<path d="M183.802 71.0593C183.308 71.0593 182.824 70.8207 182.533 70.3795C182.075 69.6831 182.268 68.7508 182.969 68.2929L203.208 55.0992C203.907 54.6414 204.849 54.8356 205.31 55.5321C205.771 56.2285 205.575 57.1608 204.874 57.6187L184.635 70.8124C184.378 70.9789 184.09 71.0593 183.805 71.0593H183.802Z" fill="#FECC86"/>
<path d="M152.886 39.4915C152.687 39.4915 152.483 39.4526 152.288 39.3694C151.519 39.042 151.161 38.1569 151.491 37.391L161.029 15.2988C161.359 14.533 162.25 14.1806 163.022 14.5081C163.791 14.8355 164.148 15.7206 163.818 16.4864L154.281 38.5786C154.035 39.1502 153.473 39.4915 152.886 39.4915Z" fill="#FECC86"/>
<path d="M113.994 27.7961C113.994 27.7961 113.978 27.7961 113.972 27.7961C113.133 27.7822 112.465 27.0997 112.479 26.2672L112.851 2.23554C112.865 1.41145 113.541 0.753845 114.369 0.753845C114.377 0.753845 114.386 0.753845 114.391 0.753845C115.23 0.767719 115.898 1.4503 115.884 2.28271L115.512 26.3144C115.498 27.1385 114.822 27.7961 113.994 27.7961Z" fill="#FECC86"/>
<g opacity="0.5">
<path d="M156.97 83.123C159.356 79.4467 155.005 72.445 147.25 67.4841C139.495 62.5233 131.273 61.4819 128.886 65.1582C126.499 68.8344 130.851 75.8362 138.606 80.797C146.361 85.7579 154.583 86.7992 156.97 83.123Z" fill="#F3FFFE"/>
</g>
<path d="M353.251 366.291C353.251 366.291 333.695 349.456 291.823 351.901C249.952 354.346 185.564 382.287 149.322 382.636L60.2983 471.272L318.457 459.324L353.251 441.657V366.288V366.291Z" fill="white"/>
<g opacity="0.3">
<path d="M97.8539 433.88C97.8539 433.88 148.97 433.278 179.934 423.15C210.898 413.022 281.973 387.176 329.823 409.179C329.823 409.179 346.562 417.953 353.251 425.986V441.66L318.457 459.326L60.2983 471.274L97.8539 433.882V433.88Z" fill="#42A0BD"/>
</g>
<path d="M353.282 366.291C353.282 366.291 372.838 349.456 414.71 351.901C456.581 354.346 520.969 382.287 557.211 382.636L646.235 471.272L388.076 459.324L353.282 441.657V366.288V366.291Z" fill="white"/>
<g opacity="0.3">
<path d="M608.679 433.88C608.679 433.88 557.563 433.278 526.599 423.15C495.635 413.022 424.56 387.176 376.71 409.179C376.71 409.179 359.971 417.953 353.282 425.986V441.66L388.076 459.326L646.235 471.274L608.679 433.882V433.88Z" fill="#42A0BD"/>
</g>
<path d="M318.125 458.588C318.125 458.588 337.642 438.977 354.982 441.049C372.321 443.122 389.652 457.9 389.652 457.9C389.652 457.9 380.844 466.632 377.149 468.028C373.453 469.424 346.45 469.424 346.185 469.424C345.919 469.424 330.791 467.504 330.262 467.065C329.734 466.627 318.122 458.583 318.122 458.583L318.125 458.588Z" fill="#49263E"/>
<path d="M320.722 453.935C320.722 453.935 306.53 443.633 268.482 451.79C230.435 459.948 188.728 462.723 188.728 462.723C188.728 462.723 222.272 468.261 223.446 468.525C224.62 468.788 319.62 456.213 319.62 456.213L320.722 453.935Z" fill="#49263E"/>
<path d="M385.809 453.935C385.809 453.935 400.001 443.633 438.048 451.79C476.096 459.948 517.802 462.723 517.802 462.723C517.802 462.723 484.258 468.261 483.084 468.525C481.91 468.788 386.91 456.213 386.91 456.213L385.809 453.935Z" fill="#49263E"/>
<path d="M608.674 434.471C563.126 434.057 551.193 430.483 522.362 421.849C508.866 417.806 492.066 412.775 466.485 406.388C424.245 395.844 395.841 401.837 379.449 408.719C361.704 416.171 353.83 426.244 353.752 426.344L353.299 426.935L352.821 426.363C352.748 426.274 345.276 417.428 329.284 410.289C314.519 403.696 289.26 397.254 252.786 403.988C225.596 409.007 207.502 414.695 191.537 419.712C165.295 427.958 144.567 434.471 97.854 434.471V433.291C144.385 433.291 165.035 426.801 191.18 418.585C207.177 413.558 225.308 407.861 252.571 402.828C289.391 396.03 314.916 402.564 329.846 409.246C343.797 415.489 351.376 423.036 353.265 425.081C355.194 422.845 363.298 414.24 378.91 407.667C389.459 403.225 401.34 400.553 414.215 399.726C430.288 398.691 447.975 400.55 466.776 405.245C492.384 411.638 509.196 416.674 522.705 420.719C551.422 429.321 563.308 432.881 608.685 433.291L608.674 434.471Z" fill="#1D1D1B"/>
<path d="M353.757 439.576L352.569 439.565L352.687 425.983V365.974L352.955 365.8C363.608 358.843 376.252 354.298 390.527 352.287C401.93 350.68 414.397 350.677 427.583 352.281C450.018 355.009 467 361.538 467.168 361.601L466.734 362.697C466.567 362.634 449.702 356.152 427.409 353.447C406.953 350.963 377.63 351.243 353.875 366.61V425.988L353.757 439.576Z" fill="#1D1D1B"/>
<path d="M352.943 366.776C352.689 366.601 327.011 349.284 291.879 352.489L291.77 351.316C310.359 349.623 326.178 353.646 336.174 357.323C347.012 361.307 353.556 365.763 353.62 365.808L352.943 366.776Z" fill="#1D1D1B"/>
<path d="M540.791 443.996C528.075 443.147 508.628 438.305 488.037 433.18C462.826 426.904 436.759 420.417 418.117 419.781C400.604 419.185 387.167 425.447 378.977 430.805C370.087 436.621 365.288 442.662 365.24 442.72L364.304 441.996C364.351 441.935 369.249 435.769 378.283 429.845C386.622 424.382 400.305 417.986 418.156 418.602C436.924 419.24 463.055 425.744 488.325 432.034C508.863 437.145 528.259 441.976 540.869 442.817L540.791 443.993V443.996Z" fill="#1D1D1B"/>
<path d="M483.006 446.979C482.768 446.882 459.013 437.265 429.162 431.18C399.075 425.045 373.498 445.52 373.244 445.728L372.492 444.818C372.556 444.765 379.1 439.482 389.32 435.051C398.765 430.955 413.382 426.763 429.402 430.028C459.371 436.138 483.221 445.797 483.459 445.894L483.006 446.985V446.979Z" fill="#1D1D1B"/>
<path d="M222.574 446.979L222.124 445.889C222.362 445.792 246.214 436.136 276.181 430.023C292.198 426.757 306.818 430.952 316.263 435.045C326.486 439.476 333.027 444.759 333.091 444.812L332.339 445.722C332.275 445.669 325.834 440.475 315.754 436.108C306.477 432.09 292.12 427.972 276.421 431.174C246.567 437.262 222.812 446.879 222.577 446.974L222.574 446.979Z" fill="#1D1D1B"/>
<path d="M470.799 142.278H242.326C235.564 142.278 230.066 147.63 229.898 154.3V204.647C230.068 211.315 235.567 216.667 242.326 216.667H348.611L356.564 238.496L364.516 216.667H470.799C477.667 216.667 483.232 211.143 483.232 204.331V154.62C483.232 147.802 477.667 142.278 470.799 142.278Z" fill="#333333"/>
<path d="M273.927 160.788L278.478 169.939L288.65 171.407L281.29 178.529L283.026 188.585L273.927 183.837L264.828 188.585L266.567 178.529L259.207 171.407L269.379 169.939L273.927 160.788Z" fill="#FFB800"/>
<path d="M313.773 160.788L318.323 169.939L328.496 171.407L321.136 178.529L322.871 188.585L313.773 183.837L304.674 188.585L306.412 178.529L299.052 171.407L309.225 169.939L313.773 160.788Z" fill="#FFB800"/>
<path d="M353.617 160.788L358.168 169.939L368.34 171.407L360.98 178.529L362.716 188.585L353.617 183.837L344.518 188.585L346.257 178.529L338.897 171.407L349.069 169.939L353.617 160.788Z" fill="#FFB800"/>
<path d="M393.463 160.788L398.013 169.939L408.186 171.407L400.825 178.529L402.561 188.585L393.463 183.837L384.366 188.585L386.102 178.529L378.742 171.407L388.914 169.939L393.463 160.788Z" fill="#FFB800"/>
<path opacity="0.5" d="M433.31 160.788L437.858 169.939L448.03 171.407L440.67 178.529L442.406 188.585L433.31 183.837L424.211 188.585L425.947 178.529L418.587 171.407L428.759 169.939L433.31 160.788Z" fill="white"/>
<path d="M243.237 426.732C243.237 426.732 237.713 440.933 245.538 454.504L249.843 443.117C249.843 443.117 255.447 447.442 259.204 451.538C259.204 451.538 258.88 425.248 268.107 421.335L243.237 426.735V426.732Z" fill="#D83942"/>
<path d="M164.789 443.996L164.71 442.82C177.32 441.979 196.717 437.148 217.255 432.037C242.525 425.747 268.656 419.243 287.424 418.605C305.269 418.003 318.958 424.385 327.296 429.848C336.334 435.769 341.229 441.937 341.276 441.998L340.34 442.723C340.292 442.662 335.49 436.624 326.603 430.808C318.416 425.45 304.976 419.188 287.463 419.784C268.821 420.417 242.754 426.907 217.543 433.183C196.952 438.308 177.505 443.15 164.789 443.999V443.996Z" fill="#1D1D1B"/>
<path d="M178.737 355.58C178.737 355.58 182.757 343.51 225.52 345.752C274.411 348.316 307.715 339.937 316.369 355.58L248.618 380.544L178.737 355.58Z" fill="#223749"/>
<path d="M255.646 377.087C255.646 377.087 216.852 353.888 203.244 350.403C189.636 346.92 180.216 351.513 178.737 355.578C177.258 359.642 175.866 370.616 184.915 377.084C188.831 379.884 233.579 393.094 245.412 396.177C245.412 396.177 256.392 391.59 255.646 377.084V377.087Z" fill="#223749"/>
<path d="M247.433 372.631C247.55 372.631 247.665 372.573 247.729 372.464C247.827 372.303 247.774 372.093 247.612 371.995C210.464 349.956 198.293 348.866 197.793 348.832C197.597 348.818 197.438 348.96 197.427 349.149C197.413 349.337 197.555 349.498 197.745 349.512C197.866 349.52 210.324 350.666 247.259 372.581C247.315 372.614 247.374 372.628 247.436 372.628L247.433 372.631Z" fill="#21111D"/>
<path d="M237.526 399.937L255.073 391.066L246.633 374.62L232.318 381.857C232.318 381.857 208.656 381.657 207.524 382.756C206.392 383.855 232.028 402.717 237.526 399.937Z" fill="#FE9F73"/>
<path d="M243.553 396.89C238.516 391.377 235.776 383.386 234.921 380.544L232.321 381.857C232.321 381.857 208.659 381.657 207.527 382.756C206.394 383.855 232.031 402.717 237.529 399.937L243.556 396.89H243.553Z" fill="#3AA1C9"/>
<path d="M239.458 377.087C239.458 377.087 278.252 353.888 291.859 350.403C305.467 346.92 314.887 351.513 316.366 355.578C317.845 359.642 319.237 370.616 310.188 377.084C306.272 379.884 258.385 393.935 246.552 397.021C246.552 397.021 238.709 391.593 239.455 377.084L239.458 377.087Z" fill="#223749"/>
<path d="M246.555 397.365C246.667 397.365 246.776 397.312 246.843 397.212C246.947 397.054 246.905 396.843 246.745 396.74C240.199 392.453 239.824 379.054 239.804 377.284C242.521 375.716 276.225 356.329 289.665 351.329C289.844 351.263 289.933 351.066 289.866 350.891C289.799 350.713 289.604 350.625 289.425 350.691C275.431 355.897 239.648 376.588 239.287 376.796L239.12 376.893V377.087C239.114 377.717 239.078 392.534 246.368 397.309C246.427 397.348 246.491 397.365 246.558 397.365H246.555Z" fill="#21111D"/>
<path d="M182.754 355.231C182.86 355.231 182.966 355.181 183.033 355.089C183.056 355.059 184.42 353.308 188.862 353.361C189.06 353.366 189.208 353.211 189.208 353.022C189.208 352.833 189.057 352.678 188.867 352.678C184.012 352.617 182.533 354.609 182.472 354.692C182.363 354.845 182.399 355.059 182.553 355.167C182.614 355.209 182.681 355.231 182.751 355.231H182.754Z" fill="#21111D"/>
<path d="M184.962 356.937C185.052 356.937 185.141 356.904 185.208 356.834C185.236 356.807 186.843 355.272 191.226 355.972C191.414 356.002 191.59 355.874 191.621 355.689C191.651 355.503 191.523 355.328 191.335 355.297C186.536 354.534 184.786 356.285 184.713 356.36C184.582 356.496 184.588 356.712 184.724 356.843C184.792 356.907 184.875 356.937 184.962 356.937Z" fill="#21111D"/>
<path d="M234.521 244.939C234.521 244.939 229.94 257.991 229.386 259.09C228.833 260.189 226.032 265.25 227.038 271.21C228.044 277.17 246.186 279.287 246.186 279.287L245.856 238.388C245.856 238.388 237.753 237.411 234.524 244.939H234.521Z" fill="black"/>
<path d="M257.001 244.939C257.001 244.939 261.583 257.991 262.136 259.09C262.69 260.189 265.491 265.25 264.485 271.21C263.478 277.17 245.336 279.287 245.336 279.287L245.666 238.388C245.666 238.388 253.77 237.411 256.999 244.939H257.001Z" fill="black"/>
<path d="M251.889 272.855L240.447 272.658L241.062 263.388H250.72L251.889 272.855Z" fill="#FE9F73"/>
<path d="M240.808 267.228C241.909 268.144 243.416 268.876 244.836 269.059C245.071 269.065 245.314 269.065 245.56 269.068C245.577 269.068 245.594 269.068 245.61 269.068C245.627 269.068 245.644 269.068 245.661 269.068C245.909 269.068 246.153 269.065 246.385 269.059C248.051 268.846 249.898 267.902 251.128 266.718L250.717 263.385H241.06L240.805 267.225L240.808 267.228Z" fill="#F07162"/>
<path d="M253.183 247.347C252.716 246.418 252.107 245.799 251.511 245.386C250.301 244.831 248.316 244.112 245.789 243.835H245.473C242.946 244.115 240.962 244.834 239.751 245.386C239.156 245.799 238.546 246.418 238.08 247.347C237.856 249.059 237.585 252.22 237.535 255.375C237.49 258.213 238.256 261.016 239.832 263.31C241.02 265.039 242.726 266.59 245.088 266.818C245.253 266.818 245.423 266.82 245.596 266.82C245.596 266.82 245.619 266.82 245.633 266.82C245.647 266.82 245.655 266.82 245.669 266.82C245.842 266.82 246.013 266.82 246.178 266.815C248.54 266.587 250.245 265.036 251.433 263.308C253.01 261.013 253.776 258.208 253.731 255.372C253.681 252.217 253.409 249.057 253.186 247.345L253.183 247.347Z" fill="#FE9F73"/>
<path d="M254.865 259.797C256.314 259.562 257.298 258.207 257.062 256.768C256.826 255.33 255.46 254.354 254.011 254.588C252.561 254.822 251.578 256.178 251.814 257.616C252.05 259.055 253.416 260.031 254.865 259.797Z" fill="#FE9F73"/>
<path d="M254.614 258.846C255.173 258.846 255.545 258.43 255.668 258.013C255.813 257.522 255.646 257.042 255.243 256.795C254.67 256.443 254.147 256.648 253.865 256.826C253.98 256.546 254.153 256.34 254.385 256.213C254.905 255.93 255.548 256.135 255.553 256.138C255.598 256.152 255.646 256.129 255.662 256.085C255.676 256.041 255.654 255.993 255.609 255.977C255.581 255.966 254.888 255.744 254.304 256.063C253.966 256.246 253.736 256.573 253.619 257.031L253.546 257.325L253.764 257.112C253.79 257.087 254.419 256.482 255.156 256.937C255.565 257.189 255.601 257.647 255.506 257.963C255.408 258.296 255.115 258.679 254.603 258.674C254.558 258.674 254.516 258.71 254.516 258.757C254.516 258.804 254.553 258.843 254.6 258.843C254.606 258.843 254.611 258.843 254.617 258.843L254.614 258.846Z" fill="#F07162"/>
<path d="M240.187 257.217C240.187 258.674 238.997 259.856 237.529 259.856C236.061 259.856 234.871 258.674 234.871 257.217C234.871 255.76 236.061 254.578 237.529 254.578C238.997 254.578 240.187 255.76 240.187 257.217Z" fill="#FE9F73"/>
<path d="M237.334 258.846C236.774 258.846 236.403 258.43 236.28 258.013C236.134 257.522 236.302 257.042 236.705 256.795C237.278 256.443 237.8 256.648 238.083 256.826C237.968 256.546 237.795 256.34 237.563 256.213C237.043 255.93 236.4 256.135 236.394 256.138C236.35 256.152 236.302 256.129 236.288 256.085C236.274 256.041 236.296 255.993 236.341 255.977C236.369 255.966 237.062 255.744 237.647 256.063C237.985 256.246 238.214 256.573 238.331 257.031L238.404 257.325L238.186 257.112C238.161 257.087 237.532 256.482 236.794 256.937C236.386 257.189 236.35 257.647 236.445 257.963C236.542 258.296 236.836 258.679 237.347 258.674C237.392 258.674 237.434 258.71 237.434 258.757C237.434 258.804 237.398 258.843 237.35 258.843C237.345 258.843 237.339 258.843 237.334 258.843V258.846Z" fill="#F07162"/>
<path d="M245.289 259.778C245.334 259.778 245.376 259.748 245.384 259.7C245.395 259.648 245.362 259.598 245.309 259.587C244.682 259.453 244.285 258.688 244.174 258.435C245.065 257.963 245.608 257.35 245.789 256.609C246.086 255.402 245.314 254.312 245.283 254.268C245.253 254.223 245.191 254.215 245.146 254.245C245.102 254.276 245.093 254.337 245.124 254.381C245.132 254.392 245.876 255.447 245.599 256.568C245.426 257.273 244.889 257.858 244.003 258.307L243.925 258.346L243.956 258.427C243.975 258.474 244.417 259.595 245.267 259.775C245.272 259.775 245.281 259.775 245.286 259.775L245.289 259.778Z" fill="#F07162"/>
<path d="M243.175 255.539C243.175 255.836 242.932 256.077 242.633 256.077C242.334 256.077 242.091 255.836 242.091 255.539C242.091 255.242 242.334 255 242.633 255C242.932 255 243.175 255.242 243.175 255.539Z" fill="black"/>
<path d="M248.772 255.644C248.772 255.941 249.015 256.183 249.314 256.183C249.613 256.183 249.857 255.941 249.857 255.644C249.857 255.347 249.613 255.105 249.314 255.105C249.015 255.105 248.772 255.347 248.772 255.644Z" fill="black"/>
<path d="M236.374 254.673C236.374 254.673 246.183 249.97 246.994 243.979L247.413 245.339C247.413 245.339 250.815 254.157 255.019 254.634C255.019 254.634 258.695 241.41 248.148 238.785C237.601 236.157 235.53 246.518 236.374 254.673Z" fill="black"/>
<path d="M243.986 260.852C244.037 260.841 247.274 260.771 247.274 260.771C247.274 260.771 246.866 262.101 245.664 262.128C244.462 262.159 243.986 260.852 243.986 260.852Z" fill="#FBFDFC"/>
<path d="M251.553 254.484C251.503 254.484 251.455 254.467 251.414 254.434C250.038 253.277 248.087 253.915 248.067 253.923C247.956 253.96 247.833 253.901 247.794 253.79C247.754 253.679 247.816 253.557 247.928 253.518C248.017 253.488 250.133 252.797 251.69 254.109C251.783 254.187 251.791 254.32 251.715 254.409C251.673 254.459 251.612 254.484 251.551 254.484H251.553Z" fill="black"/>
<path d="M240.492 254.443C240.431 254.443 240.366 254.415 240.324 254.363C240.249 254.271 240.263 254.135 240.358 254.063C241.948 252.788 244.045 253.53 244.134 253.563C244.246 253.605 244.302 253.727 244.263 253.838C244.221 253.949 244.101 254.007 243.986 253.966C243.967 253.96 242.027 253.277 240.629 254.396C240.59 254.429 240.542 254.443 240.495 254.443H240.492Z" fill="black"/>
<path d="M238.141 259.784C238.141 259.784 239.119 266.92 245.085 266.82L238.141 259.784Z" fill="#FE9F73"/>
<path d="M253.247 259.587C253.247 259.587 252.269 266.923 246.304 266.823L250.681 256.765L253.247 259.587Z" fill="#FE9F73"/>
<path d="M239.779 294.584L254.751 301.995L272.75 313.008L277.335 318.41L286.076 331.759C316.349 325.064 309.093 308.047 307.29 305.047C302.384 296.876 291.334 287.425 285.243 280.452C283.834 278.84 282.369 277.381 280.971 276.107C276.804 272.306 271.33 270.23 265.67 270.23H251.682L239.776 294.581L239.779 294.584ZM275.512 298.424C275.512 298.424 277.24 299.931 277.318 300.009C281.329 303.985 286.571 309.173 286.571 309.173L287.222 309.395L277.312 314.262C277.312 314.262 276.309 314.653 276.205 314.443C276.158 314.345 275.512 298.421 275.512 298.421V298.424Z" fill="#E76774"/>
<path d="M239.092 270.233H225.104C219.443 270.233 213.97 272.309 209.802 276.11C208.404 277.384 206.94 278.843 205.531 280.455C199.44 287.428 188.39 296.879 183.484 305.05C181.684 308.05 174.424 325.064 204.698 331.762L213.439 318.413L218.023 313.011L236.022 301.998L250.994 294.587L239.089 270.236L239.092 270.233ZM214.568 314.445C214.465 314.656 213.461 314.265 213.461 314.265L203.552 309.398L204.203 309.176C204.203 309.176 209.441 303.987 213.455 300.011C213.537 299.931 215.261 298.427 215.261 298.427C215.261 298.427 214.616 314.351 214.568 314.448V314.445Z" fill="#E76774"/>
<path d="M214.571 314.445L214.067 346.185C214.067 346.185 247.774 353.674 277.639 345.788C278.372 345.594 276.085 313.127 276.085 313.127C276.085 313.127 276.085 307.267 272.974 305.458C269.863 303.646 244.623 272.206 244.014 272.206C243.405 272.206 214.571 314.448 214.571 314.448V314.445Z" fill="#E76774"/>
<path d="M245.996 280.455C245.806 280.455 245.647 280.308 245.635 280.119C245.624 279.922 245.775 279.75 245.974 279.739C256.993 279.051 260.59 271.559 260.627 271.485C260.711 271.304 260.926 271.224 261.108 271.307C261.289 271.39 261.37 271.604 261.287 271.784C261.25 271.865 257.493 279.742 246.021 280.458C246.013 280.458 246.007 280.458 245.999 280.458L245.996 280.455Z" fill="#21111D"/>
<path d="M233.848 270.233H258.145C258.145 270.233 253.753 277.783 245.356 277.75C241.504 277.736 237.389 276.329 233.848 270.233Z" fill="#FE9F73"/>
<path d="M254.047 309.626L257.846 327.689C257.846 327.689 265.659 321.374 265.659 320.686C265.659 319.998 263.185 311.598 262.925 311.435C262.665 311.271 254.047 309.626 254.047 309.626Z" fill="#42A0BD"/>
<path d="M220.315 298.557V296.002L245.141 303.987L234.739 314.098L220.315 298.557Z" fill="#DCF4FF"/>
<path d="M270.903 298.557V296.002L246.077 303.987L256.481 314.098L270.903 298.557Z" fill="#DCF4FF"/>
<path d="M219.242 296.879C219.242 297.817 221.134 335.056 221.134 335.056L245.409 341.316V304.703L219.242 296.881V296.879Z" fill="#FEC786"/>
<path d="M271.574 296.879C271.574 297.817 269.681 335.056 269.681 335.056L245.406 341.316V304.703L271.574 296.881V296.879Z" fill="#FEC786"/>
<path d="M243.911 303.987H247.226C247.405 303.987 247.553 304.132 247.553 304.312V340.947C247.553 341.152 247.385 341.316 247.181 341.316H243.961C243.754 341.316 243.589 341.149 243.589 340.947V304.312C243.589 304.134 243.735 303.987 243.916 303.987H243.911Z" fill="#F99247"/>
<g style="mix-blend-mode:multiply" opacity="0.5">
<path d="M247.55 308.086H243.583V309.895H247.55V308.086Z" fill="#F99247"/>
</g>
<g style="mix-blend-mode:multiply" opacity="0.5">
<path d="M247.55 336.504H243.583V338.313H247.55V336.504Z" fill="#F99247"/>
</g>
<path d="M233.238 323.019C234.778 321.471 233.353 319.501 233.353 319.501C233.663 318.23 233.618 317.348 233.515 316.804C233.442 316.429 233.065 316.196 232.696 316.307C231.01 316.812 226.138 318.286 223.13 319.39C221.053 319.079 220.318 318.072 220.318 318.072L220.265 318.158C220.223 316.371 220.172 314.135 220.172 313.885C220.172 313.458 219.485 312.775 218.411 314.126C217.338 315.475 215.264 319.098 215.264 319.098H208.988L205.533 330.96C205.533 330.96 218.554 332.789 220.558 332.93C222.562 333.072 229.537 331.44 231.611 329.737C233.685 328.033 233.238 326.504 233.238 326.504C234.778 324.662 233.238 323.019 233.238 323.019Z" fill="#F78C63"/>
<path d="M228.942 321.804C228.841 321.804 228.746 321.74 228.712 321.637C228.67 321.512 228.74 321.377 228.869 321.335C230.647 320.763 233.207 319.309 233.232 319.293C233.347 319.226 233.495 319.268 233.562 319.382C233.629 319.495 233.59 319.642 233.473 319.709C233.367 319.77 230.845 321.205 229.017 321.79C228.992 321.798 228.967 321.801 228.942 321.801V321.804Z" fill="#F07162"/>
<path d="M228.942 324.839C228.827 324.839 228.726 324.759 228.704 324.642C228.679 324.512 228.766 324.387 228.897 324.362C231.133 323.949 233.096 322.822 233.115 322.811C233.23 322.744 233.378 322.783 233.445 322.897C233.512 323.011 233.473 323.158 233.358 323.224C233.274 323.272 231.307 324.404 228.984 324.834C228.97 324.834 228.953 324.837 228.939 324.837L228.942 324.839Z" fill="#F07162"/>
<path d="M229.478 328.302C229.366 328.302 229.266 328.224 229.243 328.114C229.215 327.983 229.299 327.855 229.428 327.828C231.348 327.417 233.09 326.315 233.109 326.304C233.221 326.232 233.372 326.266 233.442 326.377C233.514 326.488 233.481 326.637 233.369 326.707C233.296 326.754 231.535 327.867 229.531 328.297C229.514 328.299 229.498 328.302 229.481 328.302H229.478Z" fill="#F07162"/>
<path d="M216.785 315.905L215.264 332.939C215.264 332.939 209.838 333.53 199.358 330.361C188.881 327.192 197.569 310.158 198.212 309.892C198.855 309.628 205.816 310.494 205.816 310.494L216.782 315.902L216.785 315.905Z" fill="#E76774"/>
<path d="M215.554 333.261L215.253 333.249C214.118 333.211 187.4 332.134 182.142 318.15C182.061 317.991 179.838 313.46 182.203 307.028C184.546 300.655 200.968 284.82 201.667 284.151C201.93 283.854 208.524 276.437 211.744 274.148C211.887 274.048 212.083 274.082 212.183 274.22C212.284 274.359 212.25 274.553 212.111 274.656C208.949 276.904 202.19 284.506 202.123 284.584C201.936 284.764 185.085 301.007 182.793 307.248C180.526 313.413 182.695 317.864 182.718 317.905C187.548 330.749 211.965 332.453 214.973 332.614C215.297 328.294 216.298 317.719 216.452 316.088C206.12 310.916 196.007 306.127 195.906 306.08C195.749 306.005 195.682 305.819 195.758 305.663C195.833 305.508 196.021 305.444 196.177 305.516C196.281 305.563 206.523 310.416 216.927 315.627L217.117 315.722L217.098 315.933C217.086 316.057 215.898 328.541 215.577 332.958L215.554 333.258V333.261Z" fill="black"/>
<path d="M204.027 309.939C203.949 309.939 203.87 309.909 203.809 309.85C203.686 309.731 203.683 309.534 203.803 309.409L214.987 297.997C215.108 297.875 215.306 297.872 215.432 297.991C215.555 298.111 215.558 298.308 215.438 298.433L204.253 309.845C204.192 309.909 204.111 309.939 204.03 309.939H204.027Z" fill="black"/>
<path d="M214.571 315.128C214.571 315.128 214.562 315.128 214.559 315.128C214.386 315.122 214.252 314.978 214.257 314.806L214.951 296.868C214.956 296.696 215.082 296.557 215.275 296.568C215.448 296.573 215.582 296.718 215.577 296.89L214.884 314.828C214.878 314.995 214.738 315.128 214.571 315.128Z" fill="black"/>
<path d="M204.205 309.487C204.102 309.487 203.999 309.434 203.94 309.343L202.022 306.321C201.93 306.177 201.975 305.982 202.12 305.891C202.265 305.799 202.461 305.844 202.553 305.988L204.471 309.01C204.563 309.154 204.518 309.348 204.373 309.44C204.32 309.473 204.264 309.487 204.205 309.487Z" fill="black"/>
<path d="M257.541 323.019C256.001 321.471 257.426 319.501 257.426 319.501C257.2 318.569 257.161 317.844 257.2 317.312C257.244 316.673 257.887 316.249 258.505 316.435C260.476 317.026 264.865 318.369 267.649 319.393C269.726 319.082 270.461 318.075 270.461 318.075L270.514 318.161C270.556 316.374 270.606 314.137 270.606 313.888C270.606 313.46 271.294 312.778 272.367 314.129C273.441 315.477 275.515 319.101 275.515 319.101H281.79L285.246 330.963C285.246 330.963 272.225 332.792 270.22 332.933C268.216 333.075 261.242 331.443 259.168 329.739C257.094 328.036 257.541 326.507 257.541 326.507C256.001 324.665 257.541 323.022 257.541 323.022V323.019Z" fill="#F78C63"/>
<path d="M261.837 321.804C261.938 321.804 262.033 321.74 262.066 321.637C262.108 321.512 262.038 321.376 261.91 321.335C260.132 320.763 257.571 319.309 257.546 319.293C257.432 319.226 257.283 319.268 257.216 319.381C257.149 319.495 257.188 319.642 257.306 319.709C257.412 319.77 259.933 321.204 261.762 321.79C261.787 321.798 261.812 321.801 261.837 321.801V321.804Z" fill="#F07162"/>
<path d="M261.837 324.839C261.952 324.839 262.053 324.759 262.075 324.642C262.1 324.512 262.013 324.387 261.882 324.362C259.646 323.949 257.684 322.822 257.664 322.811C257.549 322.744 257.401 322.783 257.334 322.897C257.267 323.011 257.306 323.158 257.421 323.224C257.505 323.272 259.473 324.404 261.795 324.834C261.809 324.834 261.826 324.837 261.84 324.837L261.837 324.839Z" fill="#F07162"/>
<path d="M261.301 328.302C261.412 328.302 261.513 328.224 261.535 328.114C261.563 327.983 261.48 327.855 261.351 327.828C259.431 327.417 257.689 326.315 257.669 326.304C257.558 326.232 257.407 326.266 257.337 326.377C257.264 326.488 257.298 326.637 257.41 326.707C257.482 326.754 259.243 327.867 261.248 328.297C261.264 328.299 261.281 328.302 261.298 328.302H261.301Z" fill="#F07162"/>
<path d="M273.992 315.905L275.512 332.939C275.512 332.939 280.941 333.53 291.418 330.361C301.895 327.192 293.207 310.158 292.564 309.892C291.921 309.628 284.961 310.494 284.961 310.494L273.994 315.902L273.992 315.905Z" fill="#E76774"/>
<path d="M275.221 333.261L275.199 332.961C274.88 328.544 273.692 316.06 273.678 315.935L273.659 315.724L273.849 315.63C284.253 310.419 294.498 305.566 294.599 305.519C294.755 305.444 294.943 305.511 295.018 305.666C295.093 305.822 295.026 306.007 294.87 306.082C294.769 306.13 284.656 310.919 274.324 316.091C274.478 317.722 275.478 328.294 275.803 332.617C278.808 332.456 303.228 330.752 308.044 317.936C308.081 317.861 310.247 313.413 307.983 307.248C305.691 301.007 288.84 284.767 288.67 284.603C288.583 284.509 281.827 276.906 278.665 274.659C278.525 274.559 278.492 274.365 278.592 274.223C278.693 274.084 278.889 274.051 279.031 274.151C282.252 276.44 288.846 283.857 289.125 284.173C289.805 284.825 306.23 300.661 308.573 307.034C310.935 313.466 308.715 317.994 308.62 318.186C303.376 332.137 276.658 333.216 275.523 333.255L275.221 333.266V333.261Z" fill="black"/>
<path d="M286.75 309.939C286.669 309.939 286.585 309.909 286.526 309.845L275.342 298.433C275.222 298.31 275.224 298.113 275.347 297.991C275.47 297.872 275.672 297.875 275.792 297.997L286.976 309.409C287.096 309.531 287.093 309.728 286.971 309.85C286.909 309.909 286.831 309.939 286.752 309.939H286.75Z" fill="black"/>
<path d="M276.205 315.128C276.038 315.128 275.898 314.997 275.892 314.828L275.199 296.89C275.193 296.718 275.327 296.573 275.501 296.568C275.696 296.557 275.819 296.696 275.825 296.868L276.518 314.806C276.524 314.978 276.39 315.122 276.216 315.128C276.211 315.128 276.208 315.128 276.205 315.128Z" fill="black"/>
<path d="M286.571 309.487C286.515 309.487 286.456 309.47 286.403 309.44C286.257 309.348 286.213 309.157 286.305 309.01L288.223 305.988C288.315 305.844 288.508 305.799 288.656 305.891C288.801 305.982 288.846 306.174 288.754 306.321L286.836 309.343C286.777 309.437 286.674 309.487 286.571 309.487Z" fill="black"/>
<path d="M280.018 125.019L279.088 125.055L279.071 124.594C279.006 122.902 278.987 121.176 279.015 119.47L279.023 119.009L279.954 119.023L279.946 119.483C279.918 121.173 279.937 122.882 280.002 124.558L280.018 125.019ZM280.13 114.875L279.202 114.811L279.236 114.35C279.356 112.633 279.526 110.918 279.742 109.25L279.8 108.793L280.723 108.909L280.664 109.367C280.452 111.018 280.284 112.716 280.164 114.414L280.13 114.875ZM341.105 99.3502C340.353 99.4751 339.568 99.5333 338.765 99.5222L338.301 99.5167L338.315 98.5927L338.779 98.5983C339.523 98.6093 340.255 98.5538 340.949 98.4373C341.863 98.2847 342.743 98.0183 343.562 97.6465L343.984 97.4551L344.37 98.2958L343.948 98.4873C343.054 98.8924 342.095 99.1809 341.102 99.3474L341.105 99.3502ZM333.991 98.7176L333.566 98.5261C331.978 97.8102 330.709 96.5477 329.792 94.7775L329.58 94.3668L330.407 93.9451L330.62 94.3557C331.439 95.9373 332.56 97.0583 333.949 97.6854L334.374 97.8768L333.988 98.7176H333.991ZM347.836 95.6238L347.121 95.0355L347.417 94.6804C348.418 93.4817 349.237 92.0416 349.852 90.399L350.014 89.9661L350.886 90.288L350.724 90.7209C350.075 92.4606 349.203 93.9895 348.133 95.2686L347.836 95.6238ZM281.38 104.816L280.466 104.642L280.552 104.189C280.882 102.483 281.271 100.801 281.701 99.1893L281.821 98.7425L282.721 98.9812L282.601 99.4279C282.174 101.021 281.793 102.68 281.466 104.364L281.38 104.816ZM329.354 90.0965L328.428 90.1937L328.378 89.7358C328.205 88.1237 328.227 86.3784 328.442 84.5499L328.495 84.0921L329.421 84.2003L329.368 84.6581C329.161 86.4173 329.138 88.096 329.306 89.6387L329.356 90.0965H329.354ZM351.845 86.1121L350.92 86.015L350.97 85.5544C351.143 83.9228 351.138 82.2441 350.956 80.5654L350.906 80.1076L351.831 80.0077L351.881 80.4656C352.071 82.2108 352.077 83.9534 351.895 85.6487L351.848 86.1093L351.845 86.1121ZM283.946 95.0244L283.068 94.7192L283.222 94.2836C283.8 92.6437 284.449 91.04 285.142 89.5166L285.335 89.0949L286.182 89.475L285.989 89.8968C285.304 91.3979 284.67 92.9767 284.1 94.5888L283.946 95.0244ZM330.248 80.1853L329.354 79.93L329.482 79.4861C329.946 77.8795 330.544 76.248 331.257 74.6442L331.444 74.2225L332.294 74.5943L332.107 75.016C331.411 76.5837 330.827 78.1736 330.374 79.7414L330.245 80.1853H330.248ZM350.048 76.1259L349.902 75.6875C349.695 75.0632 349.463 74.4472 349.212 73.8562C348.812 72.9211 348.337 72.0221 347.797 71.1869L347.546 70.7985L348.328 70.3018L348.58 70.6903C349.147 71.5698 349.648 72.5132 350.067 73.4983C350.33 74.1142 350.573 74.7552 350.785 75.4045L350.931 75.8429L350.048 76.1315V76.1259ZM288.072 85.8013L287.264 85.3407L287.496 84.9412C288.365 83.44 289.31 81.9889 290.305 80.6237L290.579 80.2491L291.331 80.7902L291.057 81.1648C290.079 82.5022 289.154 83.9284 288.301 85.399L288.069 85.7985L288.072 85.8013ZM334.198 70.9372L333.398 70.4655L333.636 70.0687C334.505 68.6148 335.478 67.1775 336.526 65.8012L336.806 65.4322L337.55 65.9899L337.27 66.359C336.241 67.7102 335.288 69.117 334.435 70.5404L334.198 70.9372ZM293.953 77.6021L293.266 76.9777L293.579 76.6365C294.744 75.3712 295.997 74.1642 297.296 73.0543L297.649 72.7519L298.255 73.4511L297.903 73.7535C296.631 74.8412 295.407 76.0232 294.266 77.2608L293.953 77.6021ZM344.893 67.7519L344.541 67.4494C343.314 66.3923 341.91 65.4738 340.367 64.7219L339.951 64.5193L340.362 63.6897L340.778 63.8922C342.394 64.6803 343.864 65.6403 345.15 66.7502L345.502 67.0526L344.893 67.7491V67.7519ZM301.551 70.9539L301.028 70.1908L301.414 69.9328C302.837 68.9727 304.324 68.0737 305.833 67.2552L306.242 67.0332L306.686 67.8434L306.278 68.0654C304.794 68.8673 303.334 69.7524 301.937 70.6958L301.551 70.9566V70.9539ZM340.225 62.8379L339.545 62.208L339.864 61.8695C341.03 60.6347 342.282 59.4333 343.587 58.3012L343.937 57.996L344.549 58.6924L344.2 58.9977C342.917 60.1103 341.687 61.2896 340.543 62.5049L340.225 62.8406V62.8379ZM336.093 63.1431L335.64 63.0321C334.066 62.6436 332.389 62.3828 330.653 62.2579L330.189 62.2246L330.256 61.3034L330.72 61.3367C332.509 61.4644 334.24 61.7335 335.864 62.1358L336.317 62.2468L336.093 63.1431ZM310.429 66.051L310.066 65.2019L310.493 65.0215C312.089 64.3501 313.728 63.7563 315.357 63.2568L315.802 63.1209L316.076 64.0032L315.631 64.1392C314.032 64.6275 312.425 65.2102 310.857 65.8706L310.429 66.051ZM326.058 62.2274L325.594 62.2579C323.947 62.3689 322.256 62.5909 320.562 62.9128L320.107 62.9988L319.93 62.0915L320.386 62.0054C322.111 61.6752 323.844 61.4505 325.529 61.3367L325.993 61.3062L326.058 62.2274ZM347.808 56.1397L347.277 55.3822L347.66 55.1186C349.052 54.1586 350.545 53.2623 352.099 52.4549L352.51 52.2413L352.941 53.0598L352.527 53.2734C351.006 54.0642 349.547 54.941 348.186 55.8761L347.803 56.1397H347.808ZM392.828 47.6519L392.364 47.6047C390.678 47.4299 388.964 47.294 387.27 47.2052L386.806 47.1802L386.857 46.259L387.321 46.284C389.031 46.3755 390.759 46.5115 392.461 46.6891L392.923 46.7362L392.825 47.6547L392.828 47.6519ZM382.627 47.0637H382.161C380.439 47.0637 378.722 47.108 377.056 47.1996L376.592 47.2246L376.539 46.3034L377.003 46.2784C378.686 46.1841 380.422 46.1397 382.161 46.1397H382.625V47.0637H382.627ZM356.72 51.3561L356.382 50.496L356.815 50.3295C358.38 49.7246 360.033 49.1752 361.724 48.7007L362.171 48.5759L362.425 49.4638L361.978 49.5886C360.312 50.0548 358.691 50.5931 357.153 51.1896L356.72 51.3561ZM372.433 47.5853L371.971 47.6408C370.261 47.8461 368.592 48.1042 366.934 48.4233L366.479 48.5121L366.3 47.6047L366.755 47.5159C368.433 47.1913 370.127 46.9305 371.86 46.7224L372.321 46.6669L372.433 47.5853Z" fill="#61A3C5"/>
<path d="M401.012 52.0914L404.445 47.8961C404.445 47.8961 422.131 45.3517 422.377 45.2185C422.62 45.0853 431.585 40.2129 431.585 40.2129L420.09 39.9604L401.437 43.3039L401.015 52.0887L401.012 52.0914Z" fill="#933333"/>
<path d="M396.855 34.3472L431.582 40.2129L401.434 43.3039L396.855 34.3472Z" fill="#DD5E5E"/>
<path d="M404.445 47.8933L409.25 57.4355L431.582 40.2129L404.445 47.8933Z" fill="#DD5E5E"/>
<path d="M322.983 459.326L318.458 456.152C318.916 455.506 329.972 440.303 353.165 439.571C376.419 438.827 388.621 455.328 389.152 456.03L384.716 459.326C384.607 459.182 373.629 444.435 353.344 445.067C333.01 445.711 323.386 458.772 322.986 459.326H322.983Z" fill="#FFB357"/>
<path d="M58.7132 483.181C55.6159 483.181 53.0051 480.794 52.7954 477.681C52.5746 474.435 55.0513 471.624 58.3218 471.408L320.721 453.938L322.634 455.88C322.751 455.997 336.247 469.235 356.561 468.028C376.441 466.843 384.973 457.054 385.562 456.349L387.435 453.871L390.507 454.113L648.066 466.163C651.342 466.316 653.871 469.077 653.718 472.329C653.564 475.581 650.794 478.097 647.506 477.939L392.649 466.016C388.176 470.234 376.919 478.627 357.273 479.798C336.392 481.041 321.574 470.525 316.268 466.05L59.1185 483.169C58.9843 483.178 58.8474 483.183 58.716 483.183L58.7132 483.181Z" fill="#D83942"/>
<path d="M60.3375 471.863L60.2593 470.686L320.996 453.328L321.189 453.572C321.298 453.71 332.415 467.379 356.561 467.437V468.616C333.617 468.558 322.111 456.43 320.459 454.543L60.3347 471.863H60.3375Z" fill="#1D1D1B"/>
<path d="M354.112 480.361C347.065 480.361 342.271 479.293 342.212 479.279L342.478 478.131C342.551 478.147 349.707 479.737 359.381 478.977C368.287 478.278 381.219 475.384 392.252 465.572L392.434 465.411L392.677 465.422L540.861 472.356L540.805 473.533L392.864 466.613C381.613 476.524 368.489 479.451 359.437 480.156C357.559 480.303 355.775 480.361 354.115 480.361H354.112Z" fill="#1D1D1B"/>
<path d="M509.26 297.289L505.293 286.374L505.033 285.658L501.066 274.742L622.874 221.382C626.301 219.881 630.29 221.576 631.559 225.072L641.65 252.85C642.919 256.346 640.94 260.178 637.337 261.193L509.257 297.287L509.26 297.289Z" fill="#D83942"/>
<path d="M502.779 271.272L512.732 298.669C513.228 300.034 512.513 301.543 511.138 302.036L497.74 306.831L485.989 274.486L499.387 269.69C500.762 269.198 502.283 269.907 502.779 271.272Z" fill="#F99247"/>
<path d="M510.685 291.31L504.287 273.702C503.157 270.594 499.691 268.976 496.56 270.097L485.807 273.948L486.198 275.025L496.952 271.174C499.484 270.266 502.291 271.576 503.205 274.09L509.603 291.698L510.688 291.31H510.685Z" fill="#21111D"/>
<g style="mix-blend-mode:multiply">
<path d="M476.2 356.465C500.924 331.924 500.924 292.135 476.2 267.593C451.477 243.052 411.391 243.052 386.668 267.593C361.944 292.135 361.944 331.924 386.668 356.465C411.391 381.006 451.477 381.006 476.2 356.465Z" fill="#D4EEF4"/>
</g>
<g opacity="0.6">
<path d="M430.245 280.857C443.369 280.359 453.814 274.911 453.574 268.689C453.334 262.468 442.501 257.828 429.377 258.326C416.254 258.824 405.809 264.272 406.049 270.493C406.288 276.715 417.122 281.355 430.245 280.857Z" fill="#F3FFFE"/>
</g>
<path d="M624.288 220.199L503.503 273.379L503.97 274.424L624.755 221.244L624.288 220.199Z" fill="#21111D"/>
<path d="M381.945 288.629L380.972 288.016C380.894 288.138 373.238 300.269 375.091 313.885L376.232 313.732C374.437 300.541 381.87 288.749 381.945 288.632V288.629Z" fill="#21111D"/>
<path d="M389.831 289.612L388.858 288.998C388.78 289.121 381.123 301.252 382.977 314.867L384.117 314.714C382.323 301.524 389.755 289.731 389.831 289.614V289.612Z" fill="#21111D"/>
<path d="M490.989 290.71C502.852 323.358 485.804 359.37 452.911 371.146C420.018 382.922 383.74 365.999 371.876 333.349C360.016 300.702 377.062 264.689 409.954 252.913C442.845 241.138 479.125 258.06 490.989 290.708V290.71ZM406.539 243.513C368.416 257.159 348.658 298.899 362.406 336.74C376.153 374.581 418.204 394.193 456.327 380.547C494.45 366.901 514.207 325.161 500.46 287.32C486.712 249.478 444.662 229.867 406.539 243.513Z" fill="#FFB357"/>
<path d="M501.002 287.126C487.168 249.048 444.704 229.242 406.346 242.974C367.986 256.706 348.032 298.857 361.867 336.931C368.352 354.781 381.345 369.271 398.449 377.728L398.964 376.704C382.127 368.377 369.336 354.115 362.951 336.543C349.332 299.06 368.975 257.567 406.738 244.048C444.5 230.53 486.302 250.028 499.921 287.511C506.241 304.909 505.64 323.829 498.224 340.788L499.28 341.243C506.814 324.018 507.426 304.798 501.005 287.123L501.002 287.126Z" fill="#21111D"/>
<path d="M617.465 191.995C617.283 191.626 617.043 191.268 616.727 190.935C615.131 189.245 612.408 187.872 607.826 187.552C607.826 187.552 609.403 159.364 587.952 157.497C563.35 155.355 563.051 183.049 563.051 183.049C563.051 183.049 551.869 172.511 543.802 185.871C543.802 185.871 530.281 178.113 523.155 191.992H617.462L617.465 191.995Z" fill="white"/>
<path d="M527.994 118.393C530.762 116.229 532.542 112.869 532.467 109.073C532.411 106.243 531.399 102.949 528.766 99.2087C518.624 84.8135 500.871 98.4734 501.019 105.765C501.019 105.765 497.475 94.7775 486.595 96.6643C475.716 98.5511 479.509 114.528 479.509 114.528C479.509 114.528 476.004 113.781 473.566 115.421C472.467 116.159 472.143 117.341 472.389 118.393H527.994Z" fill="white"/>
</svg>
