<svg viewBox="0 0 236 177" xmlns="http://www.w3.org/2000/svg">
    <path d="m230.02 177c0.423 0 0.812-0.272 0.94-0.699 0.023-0.072 0.54-1.787 1.242-4.82 0.125-0.529-0.207-1.058-0.736-1.179-0.525-0.124-1.057 0.204-1.178 0.737-0.687 2.962-1.205 4.677-1.208 4.695-0.159 0.522 0.136 1.07 0.657 1.224 0.094 0.031 0.188 0.042 0.283 0.042z" fill="#fff"/>
    <path d="m233 162.4c-0.536-0.087-0.903-0.59-0.816-1.126 0.521-3.271 0.941-6.596 1.243-9.875 0.049-0.54 0.528-0.937 1.068-0.887 0.54 0.049 0.937 0.528 0.887 1.069-0.309 3.32-0.732 6.686-1.261 10.003-0.075 0.483-0.494 0.827-0.966 0.827-0.053 0-0.102-4e-3 -0.155-0.011zm1.963-19.923c-0.543-0.012-0.97-0.461-0.959-1.005 0.023-1.009 0.034-2.025 0.034-3.015 0-2.331-0.064-4.658-0.189-6.924-0.03-0.54 0.386-1.005 0.926-1.035 0.555-0.03 1.004 0.385 1.034 0.925 0.129 2.301 0.193 4.666 0.193 7.03 0 1.005-0.012 2.037-0.034 3.06-0.012 0.537-0.45 0.96-0.982 0.96h-0.023v4e-3zm-2.084-20.826c-0.479-3.336-1.118-6.607-1.892-9.728-0.132-0.525 0.189-1.061 0.718-1.19 0.525-0.132 1.061 0.189 1.189 0.718 0.793 3.181 1.443 6.52 1.933 9.924 0.076 0.536-0.294 1.035-0.83 1.114-0.049 8e-3 -0.095 0.012-0.14 0.012-0.48 0-0.899-0.352-0.97-0.843l-8e-3 -7e-3zm-88.475-9.747c-3.613-0.695-6.74-2.278-9.292-4.707-0.393-0.374-0.408-0.997-0.038-1.39 0.374-0.393 0.997-0.408 1.39-0.034 2.276 2.165 5.074 3.578 8.314 4.201 0.532 0.102 0.88 0.616 0.778 1.152-0.091 0.469-0.502 0.797-0.963 0.797-0.061 0-0.125-7e-3 -0.185-0.019h-4e-3zm9.168-1.012c-0.181-0.51 0.083-1.073 0.593-1.258 2.639-0.944 4.893-3.117 6.513-6.278 0.249-0.484 0.838-0.673 1.321-0.427 0.484 0.249 0.673 0.838 0.427 1.322-1.854 3.615-4.482 6.116-7.601 7.23-0.109 0.038-0.222 0.057-0.332 0.057-0.404 0-0.782-0.249-0.925-0.654l4e-3 8e-3zm74.485-8.42c-1.178-3.1282-2.541-6.1617-4.059-9.0062-0.256-0.4797-0.075-1.0728 0.404-1.3297 0.48-0.2569 1.076-0.0756 1.329 0.4042 1.56 2.9239 2.961 6.0328 4.165 9.2397 0.193 0.51-0.064 1.077-0.574 1.266-0.113 0.041-0.23 0.064-0.347 0.064-0.397 0-0.77-0.242-0.918-0.638zm-98.394-4.118c-1.012-3.0258-1.525-6.3577-1.525-9.9049v-0.2719c4e-3 -0.5402 0.442-0.9784 0.982-0.9784h3e-3c0.544 0 0.978 0.4457 0.978 0.9897v0.2644c0 3.3357 0.48 6.456 1.424 9.2816 0.173 0.5138-0.106 1.0729-0.619 1.2428-0.102 0.0341-0.208 0.0529-0.314 0.0529-0.411 0-0.793-0.2606-0.932-0.6724l3e-3 -0.0038zm34.477-3.1618c-0.54-0.0605-0.925-0.5478-0.864-1.088 0.166-1.4544 0.249-2.9843 0.249-4.5482 0-1.6962-0.098-3.4565-0.291-5.232-0.06-0.5402 0.332-1.0237 0.869-1.0842 0.536-0.0529 1.023 0.3287 1.083 0.8689 0.2 1.8472 0.306 3.6794 0.306 5.4435 0 1.6357-0.087 3.2412-0.26 4.7673-0.057 0.5025-0.484 0.8727-0.975 0.8727-0.037 0-0.075 0-0.113-0.0076l-4e-3 0.0076zm54.618-10.09c-1.937-2.6519-4.086-5.1791-6.385-7.5099-0.382-0.3853-0.378-1.0086 0.011-1.3902 0.385-0.3815 1.008-0.3777 1.389 0.0114 2.368 2.4025 4.581 5.0015 6.574 7.7327 0.321 0.4382 0.227 1.054-0.211 1.3751-0.174 0.1284-0.378 0.1889-0.578 0.1889-0.302 0-0.6-0.1398-0.793-0.4042l-7e-3 -0.0038zm-88.487-5.8667c-0.521-0.1435-0.827-0.6875-0.683-1.2088 0.932-3.347 2.273-6.5201 3.995-9.4365 0.275-0.4684 0.879-0.6233 1.344-0.3475 0.468 0.2758 0.623 0.8802 0.347 1.3448-1.631 2.7652-2.907 5.7798-3.795 8.9643-0.12 0.4344-0.517 0.7177-0.943 0.7177-0.087 0-0.174-0.0113-0.265-0.0377v0.0037zm31.041-4.5595c-0.887-3.0977-2.039-6.2104-3.421-9.2514-0.226-0.4949-7e-3 -1.0766 0.487-1.3033 0.495-0.2229 1.077-0.0075 1.299 0.4873 1.424 3.1317 2.606 6.3351 3.523 9.5234 0.151 0.5213-0.151 1.0653-0.672 1.2164-0.091 0.0264-0.181 0.0378-0.272 0.0378-0.426 0-0.819-0.2796-0.944-0.7102zm43.671-3.6454c-2.597-2.0362-5.335-3.925-8.137-5.6173-0.464-0.2796-0.615-0.884-0.332-1.3486 0.28-0.4647 0.884-0.6158 1.348-0.3325 2.87 1.734 5.675 3.6681 8.333 5.7533 0.427 0.3362 0.503 0.952 0.167 1.3789-0.193 0.2455-0.484 0.3777-0.775 0.3777-0.211 0-0.426-0.068-0.604-0.2078v-0.0037zm-64.868-8.9114c-0.344-0.4193-0.287-1.0389 0.132-1.3826 2.601-2.1457 5.607-3.8645 8.937-5.1036 0.506-0.1889 1.076 0.068 1.261 0.578 0.189 0.51-0.068 1.0728-0.577 1.2617-3.123 1.1635-5.94 2.769-8.371 4.7787-0.185 0.1511-0.404 0.2267-0.627 0.2267-0.283 0-0.563-0.1209-0.759-0.3551l4e-3 -0.0038zm47.964-1.2768c-3.066-1.3562-6.185-2.4857-9.277-3.3659-0.521-0.1473-0.823-0.6913-0.676-1.2126s0.691-0.8235 1.212-0.6762c3.179 0.9028 6.385 2.0663 9.534 3.4603 0.495 0.2191 0.721 0.8008 0.502 1.2957-0.162 0.3664-0.521 0.5855-0.899 0.5855-0.132 0-0.268-0.0264-0.396-0.0831v-0.0037zm-34.877-4.1101c-1.733-2.7539-3.678-5.4511-5.785-8.0161-0.343-0.4193-0.283-1.0388 0.136-1.3826 0.419-0.3437 1.038-0.2833 1.382 0.136 2.16 2.6292 4.153 5.3944 5.928 8.2163 0.291 0.4609 0.151 1.0653-0.309 1.3562-0.163 0.102-0.344 0.1511-0.522 0.1511-0.324 0-0.645-0.1625-0.83-0.4609zm15.953-1.1937c-3.376-0.3853-6.691-0.4382-9.795-0.1587-0.551 0.0529-1.019-0.3513-1.065-0.8915-0.049-0.5402 0.351-1.0199 0.891-1.0653 3.236-0.2909 6.684-0.238 10.191 0.1625 0.54 0.0604 0.925 0.5477 0.865 1.0879-0.057 0.5024-0.483 0.8726-0.974 0.8726-0.038 0-0.076 0-0.113-0.0075zm-28.466-14.049c-2.345-2.1796-4.943-4.2422-7.718-6.1272-0.449-0.306-0.566-0.9142-0.261-1.3638 0.306-0.4495 0.914-0.5666 1.363-0.2606 2.859 1.9417 5.536 4.0647 7.952 6.3124 0.397 0.3702 0.419 0.9897 0.049 1.3901-0.192 0.2078-0.456 0.3136-0.721 0.3136-0.241 0-0.479-0.0869-0.668-0.2645h4e-3zm-16.248-11.114c-2.85-1.4317-5.909-2.7576-9.088-3.9363-0.51-0.1888-0.767-0.7555-0.578-1.2617 0.189-0.51 0.755-0.7668 1.261-0.578 3.248 1.2051 6.37 2.5613 9.289 4.0232 0.483 0.2418 0.68 0.8349 0.438 1.3184-0.174 0.3438-0.517 0.544-0.88 0.544-0.147 0-0.298-0.034-0.438-0.1058l-4e-3 -0.0038zm-18.546-6.947c-3.108-0.8386-6.3703-1.5791-9.693-2.1986-0.5324-0.0982-0.8835-0.612-0.7854-1.1484 0.0982-0.5326 0.6117-0.8877 1.1441-0.7857 3.3756 0.6308 6.6833 1.3826 9.8433 2.2325 0.525 0.1398 0.835 0.68 0.691 1.2051-0.117 0.4382-0.513 0.7253-0.947 0.7253-0.084 0-0.17-0.0113-0.257-0.034l4e-3 0.0038zm-19.529-3.6832c-3.2585-0.3815-6.5964-0.6611-9.9229-0.8348-0.5437-0.0265-0.959-0.4911-0.9288-1.0313 0.0264-0.544 0.4946-0.9595 1.0308-0.9293 3.368 0.1775 6.7474 0.4608 10.047 0.8462 0.54 0.0642 0.9251 0.5515 0.8609 1.0879-0.0566 0.4987-0.4833 0.8689-0.9741 0.8689-0.0378 0-0.0756 0-0.1133-0.0076z" fill="#fff"/>
    <path d="m61.512 18.9h0.0755c0.0189 0 1.8087-0.136 4.8482-0.1776 0.5437-0.0075 0.9742-0.4533 0.9666-0.9973-0.0075-0.5364-0.4455-0.967-0.9817-0.967h-0.0151c-3.1037 0.0453-4.8897 0.1775-4.9652 0.1851-0.54 0.0415-0.944 0.5137-0.9062 1.0539 0.0378 0.5176 0.4682 0.9104 0.9779 0.9104v-0.0075z" fill="#fff"/>
    <path d="m47.979 27.913-5.5467-6.3577s-27.518-2.9881-27.903-3.1808c-0.3852-0.1964-14.529-7.2983-14.529-7.2983l17.777-1.0313 29.059 4.1856 1.144 13.682z" fill="#EA2D3F"/>
    <path d="M53.4203 0L0 11.076L46.8353 14.2303L53.4203 0Z" fill="#FF424D"/>
    <path d="M42.4326 21.555L35.5267 36.707L0 11.0759L42.4326 21.555Z" fill="#FF424D"/>
</svg>