<svg width="541" height="321" viewBox="0 0 541 321" fill="none" xmlns="http://www.w3.org/2000/svg">
    <path d="M440.197 32.7169H78.2559V314.793H440.197V32.7169Z" fill="#4CB7D8"/>
    <path d="M425.223 48.2838H138.535V62.6444H425.223V48.2838Z" fill="#D4EEF4"/>
    <path d="M425.225 85.287H94.0254V135.297H425.225V85.287Z" fill="#D4EEF4"/>
    <path d="M425.225 133.672H94.0254V298.864H425.225V133.672Z" fill="#DEF8FC"/>
    <path d="M130.448 57.097C131.359 53.2368 128.967 49.369 125.105 48.4579C121.243 47.5468 117.373 49.9375 116.461 53.7977C115.55 57.6579 117.942 61.5258 121.804 62.4368C125.666 63.3479 129.536 60.9572 130.448 57.097Z" fill="#D4EEF4"/>
    <path d="M103.959 62.1001C107.626 60.5822 109.367 56.3813 107.848 52.717C106.329 49.0526 102.126 47.3125 98.4598 48.8303C94.7934 50.3481 93.0524 54.5491 94.571 58.2134C96.0897 61.8778 100.293 63.6179 103.959 62.1001Z" fill="#D4EEF4"/>
    <path d="M362.815 96.8237H104.145V101.757H362.815V96.8237Z" fill="white"/>
    <path d="M362.815 112.76H104.145V117.694H362.815V112.76Z" fill="white"/>
    <g style="mix-blend-mode:multiply">
    <path d="M209.003 150.888H413.389C414.651 150.888 415.671 149.866 415.671 148.608C415.671 147.348 414.648 146.329 413.389 146.329H209.003C207.741 146.329 206.722 147.35 206.722 148.608C206.722 149.869 207.744 150.888 209.003 150.888Z" fill="#D4EEF4"/>
    </g>
    <g style="mix-blend-mode:multiply">
    <path d="M209.003 164.746H413.389C414.651 164.746 415.671 163.725 415.671 162.467C415.671 161.206 414.648 160.187 413.389 160.187H209.003C207.741 160.187 206.722 161.209 206.722 162.467C206.722 163.727 207.744 164.746 209.003 164.746Z" fill="#D4EEF4"/>
    </g>
    <g style="mix-blend-mode:multiply">
    <path d="M209.003 178.602H413.389C414.651 178.602 415.671 177.581 415.671 176.323C415.671 175.062 414.648 174.043 413.389 174.043H209.003C207.741 174.043 206.722 175.064 206.722 176.323C206.722 177.583 207.744 178.602 209.003 178.602Z" fill="#D4EEF4"/>
    </g>
    <g style="mix-blend-mode:multiply">
    <path d="M209.003 206.319H413.389C414.651 206.319 415.671 205.297 415.671 204.039C415.671 202.779 414.648 201.759 413.389 201.759H209.003C207.741 201.759 206.722 202.781 206.722 204.039C206.722 205.3 207.744 206.319 209.003 206.319Z" fill="#D4EEF4"/>
    </g>
    <g style="mix-blend-mode:multiply">
    <path d="M209.003 220.177H413.389C414.651 220.177 415.671 219.156 415.671 217.898C415.671 216.637 414.648 215.618 413.389 215.618H209.003C207.741 215.618 206.722 216.639 206.722 217.898C206.722 219.158 207.744 220.177 209.003 220.177Z" fill="#D4EEF4"/>
    </g>
    <g style="mix-blend-mode:multiply">
    <path d="M209.003 234.033H413.389C414.651 234.033 415.671 233.011 415.671 231.753C415.671 230.493 414.648 229.474 413.389 229.474H209.003C207.741 229.474 206.722 230.495 206.722 231.753C206.722 233.014 207.744 234.033 209.003 234.033Z" fill="#D4EEF4"/>
    </g>
    <g style="mix-blend-mode:multiply">
    <path d="M209.003 261.75H413.389C414.651 261.75 415.671 260.728 415.671 259.47C415.671 258.209 414.648 257.19 413.389 257.19H209.003C207.741 257.19 206.722 258.212 206.722 259.47C206.722 260.731 207.744 261.75 209.003 261.75Z" fill="#D4EEF4"/>
    </g>
    <g style="mix-blend-mode:multiply">
    <path d="M209.003 275.608H413.389C414.651 275.608 415.671 274.586 415.671 273.328C415.671 272.068 414.648 271.049 413.389 271.049H209.003C207.741 271.049 206.722 272.07 206.722 273.328C206.722 274.589 207.744 275.608 209.003 275.608Z" fill="#D4EEF4"/>
    </g>
    <path d="M193.494 146.326H106.443V224.363H193.494V146.326Z" fill="#D4EEF4"/>
    <path d="M193.494 244.839H106.443V275.608H193.494V244.839Z" fill="#D4EEF4"/>
    <g style="mix-blend-mode:multiply">
    <path d="M112.537 206.319L127.346 181.85L149.23 191.178L163.875 160.184L185.926 206.319H112.537Z" fill="#D4EEF4"/>
    </g>
    <path d="M287.642 7.24307V50.5685C287.642 54.5667 284.397 57.8116 280.395 57.8116H175.589C171.586 57.8116 168.342 54.5667 168.342 50.5685V7.19628C168.342 3.47135 171.15 0.406222 174.769 0H280.397C284.4 0 287.644 3.2424 287.644 7.24307H287.642Z" fill="#7FC6A6"/>
    <path d="M215.316 54.6726C215.169 55.0419 197.531 72.4478 197.517 71.8594C197.499 71.271 202.113 51.1988 202.113 51.1988L215.316 54.6701V54.6726Z" fill="#7FC6A6"/>
    <path d="M204.849 30.5356C204.849 36.2276 201.556 41.1491 196.77 43.5052C194.846 44.4505 192.678 44.9823 190.39 44.9823C188.971 44.9823 187.596 44.778 186.301 44.3964C180.307 42.6361 175.933 37.0967 175.933 30.5356C175.933 22.5564 182.406 16.0888 190.387 16.0888C198.368 16.0888 204.844 22.5589 204.844 30.5356H204.849Z" fill="white"/>
    <path d="M203.861 30.5381C203.861 35.7599 200.886 40.2899 196.533 42.5204C196.469 42.5549 196.4 42.5893 196.334 42.6238C194.543 43.5051 192.523 44 190.39 44C189.114 44 187.875 43.8227 186.707 43.4879C186.665 43.4781 186.626 43.4658 186.581 43.4534C180.997 41.8113 176.923 36.6511 176.923 30.5405C176.923 23.1079 182.953 17.0786 190.392 17.0786C197.831 17.0786 203.864 23.1054 203.864 30.5405L203.861 30.5381Z" fill="#8CD2F9"/>
    <path d="M196.535 42.5204C196.471 42.5548 196.402 42.5893 196.335 42.6238C194.544 43.5051 192.524 44 190.391 44C189.115 44 187.876 43.8227 186.708 43.4879L186.814 42.7887L187.27 39.7384C184.558 39.278 184.767 36.1735 184.767 36.1735L185.016 26.6777L185.021 26.5029L196.229 24.4176L196.261 28.7901L196.266 29.6345L196.271 30.1121V30.6439L196.301 34.3516L196.305 35.036L196.138 37.7713C196.138 37.7713 196.446 40.4868 196.532 42.5253L196.535 42.5204Z" fill="#FE9F73"/>
    <path d="M193.648 37.2616C193.648 37.2616 193.328 42.4613 186.812 42.7863L187.268 39.7359C187.268 39.7359 191.463 40.6936 193.648 37.2592V37.2616Z" fill="#F07162"/>
    <path d="M196.902 30.5258L194.089 31.0354L193.569 31.545C193.569 31.545 193.934 26.8648 194.486 25.9564C195.037 25.0479 196.902 30.5258 196.902 30.5258Z" fill="black"/>
    <path d="M192.979 32.1728C192.945 33.4604 193.962 34.5313 195.251 34.5658C196.539 34.6003 197.61 33.5835 197.645 32.2959C197.679 31.0083 196.662 29.9374 195.374 29.9029C194.085 29.8684 193.014 30.8852 192.979 32.1728Z" fill="#FE9F73"/>
    <path d="M196.903 30.5257C196.903 30.5257 197.809 26.0056 196.464 24.2773C195.117 22.549 187.212 19.378 186.222 20.1979C185.231 21.0177 186.172 22.0714 186.172 22.0714C186.172 22.0714 182.995 20.9586 182.194 23.7824C181.394 26.6038 188.256 27.9949 192.405 26.7713C192.405 26.7713 195.104 27.6354 196.905 30.5257H196.903Z" fill="black"/>
    <path d="M211.583 11.1797L213.176 14.4123L216.746 14.9293L214.164 17.4454L214.772 20.9955L211.583 19.3189L208.39 20.9955L208.999 17.4454L206.417 14.9293L209.986 14.4123L211.583 11.1797Z" fill="#FECC86"/>
    <path d="M227.114 11.1797L228.71 14.4123L232.28 14.9293L229.696 17.4454L230.307 20.9955L227.114 19.3189L223.924 20.9955L224.533 17.4454L221.951 14.9293L225.518 14.4123L227.114 11.1797Z" fill="#FECC86"/>
    <path d="M242.647 11.1797L244.243 14.4123L247.81 14.9293L245.228 17.4454L245.837 20.9955L242.647 19.3189L239.455 20.9955L240.065 17.4454L237.481 14.9293L241.051 14.4123L242.647 11.1797Z" fill="#FECC86"/>
    <path d="M258.179 11.1797L259.775 14.4123L263.344 14.9293L260.763 17.4454L261.371 20.9955L258.179 19.3189L254.989 20.9955L255.597 17.4454L253.016 14.9293L256.585 14.4123L258.179 11.1797Z" fill="#FECC86"/>
    <path d="M273.712 11.1797L275.308 14.4123L278.875 14.9293L276.293 17.4454L276.904 20.9955L273.712 19.3189L270.519 20.9955L271.13 17.4454L268.549 14.9293L272.116 14.4123L273.712 11.1797Z" fill="#FECC86"/>
    <path d="M267.602 25.8554H209.631V27.2513H267.602V25.8554Z" fill="white"/>
    <path d="M277.908 32.1088H209.631V33.5047H277.908V32.1088Z" fill="white"/>
    <path d="M277.908 38.3646H209.631V39.7605H277.908V38.3646Z" fill="white"/>
    <path d="M127.766 73.8216V128.09C127.766 132.374 124.293 135.848 120.004 135.848H7.76184C3.47325 135.848 0 132.374 0 128.09V73.7724C0 69.784 3.0077 66.5022 6.88246 66.0665H120.004C124.293 66.0665 127.766 69.5378 127.766 73.8241V73.8216Z" fill="#7FC6A6"/>
    <path d="M42.9502 131.389C42.7901 131.786 23.904 150.428 23.8868 149.797C23.8695 149.167 28.8109 127.672 28.8109 127.672L42.9502 131.389Z" fill="#7FC6A6"/>
    <path d="M39.0945 98.7661C39.0945 104.862 35.567 110.133 30.4409 112.656C28.3816 113.671 26.0612 114.239 23.6102 114.239C22.0904 114.239 20.6198 114.02 19.2329 113.612C12.8161 111.726 8.13086 105.793 8.13086 98.7686C8.13086 90.2232 15.0626 83.2952 23.6127 83.2952C32.1628 83.2952 39.0969 90.2232 39.0969 98.7686L39.0945 98.7661Z" fill="white"/>
    <path d="M38.0381 98.7661C38.0381 104.36 34.8506 109.21 30.1901 111.598C30.1211 111.635 30.0472 111.672 29.9757 111.709C28.0568 112.654 25.8941 113.183 23.6106 113.183C22.2435 113.183 20.9182 112.994 19.6644 112.634C19.6201 112.624 19.5757 112.61 19.5314 112.597C13.553 110.84 9.18555 105.312 9.18555 98.7661C9.18555 90.8042 15.6443 84.3489 23.6106 84.3489C31.5769 84.3489 38.0381 90.8042 38.0381 98.7661Z" fill="#8CD2F9"/>
    <path d="M30.1917 111.598C30.1227 111.635 30.0488 111.672 29.9774 111.709C28.0585 112.654 25.8957 113.183 23.6123 113.183C22.2451 113.183 20.9199 112.994 19.6661 112.634L19.7794 111.886L20.2671 108.619C17.3629 108.126 17.587 104.8 17.587 104.8L17.8555 94.63L17.8604 94.4429L29.8641 92.2099L29.8986 96.8926L29.9035 97.7961L29.9084 98.3082V98.8769L29.9404 102.846L29.9454 103.579L29.7656 106.509C29.7656 106.509 30.0956 109.417 30.1892 111.6L30.1917 111.598Z" fill="#FE9F73"/>
    <path d="M27.0982 105.967C27.0982 105.967 26.7559 111.536 19.7773 111.886L20.2651 108.619C20.2651 108.619 24.7581 109.646 27.0982 105.967Z" fill="#F07162"/>
    <path d="M30.584 98.7563L27.5714 99.3004L27.0146 99.8469C27.0146 99.8469 27.4063 94.8344 27.995 93.8619C28.5862 92.8894 30.5815 98.7563 30.5815 98.7563H30.584Z" fill="black"/>
    <path d="M26.3837 100.519C26.3468 101.898 27.438 103.045 28.8175 103.082C30.1969 103.119 31.3448 102.028 31.3817 100.65C31.4187 99.2708 30.3274 98.1236 28.948 98.0866C27.5685 98.0497 26.4207 99.1404 26.3837 100.519Z" fill="#FE9F73"/>
    <path d="M30.5833 98.7563C30.5833 98.7563 31.5538 93.9161 30.1128 92.0647C28.6718 90.2133 20.203 86.8158 19.1438 87.6972C18.0846 88.5761 19.092 89.7037 19.092 89.7037C19.092 89.7037 15.6878 88.5121 14.8305 91.5354C13.9733 94.5587 21.3238 96.0457 25.7651 94.7359C25.7651 94.7359 28.657 95.6616 30.5833 98.7563Z" fill="black"/>
    <path d="M46.3075 78.0365L48.017 81.4955L51.8375 82.0519L49.0713 84.7453L49.724 88.549L46.3075 86.7542L42.8884 88.549L43.5412 84.7453L40.7773 82.0519L44.5979 81.4955L46.3075 78.0365Z" fill="#FECC86"/>
    <path d="M62.9422 78.0365L64.6517 81.4955L68.4723 82.0519L65.7085 84.7453L66.3612 88.549L62.9422 86.7542L59.5231 88.549L60.1759 84.7453L57.4121 82.0519L61.2327 81.4955L62.9422 78.0365Z" fill="#FECC86"/>
    <path d="M79.576 78.0365L81.2855 81.4955L85.1061 82.0519L82.3423 84.7453L82.995 88.549L79.576 86.7542L76.1569 88.549L76.8097 84.7453L74.0459 82.0519L77.8665 81.4955L79.576 78.0365Z" fill="#FECC86"/>
    <path d="M96.2108 78.0365L97.9203 81.4955L101.741 82.0519L98.977 84.7453L99.6298 88.549L96.2108 86.7542L92.7917 88.549L93.4445 84.7453L90.6807 82.0519L94.5012 81.4955L96.2108 78.0365Z" fill="#FECC86"/>
    <path d="M112.846 78.0365L114.555 81.4955L118.376 82.0519L115.612 84.7453L116.265 88.549L112.846 86.7542L109.426 88.549L110.079 84.7453L107.315 82.0519L111.136 81.4955L112.846 78.0365Z" fill="#FECC86"/>
    <path d="M106.304 93.7536H44.2188V95.248H106.304V93.7536Z" fill="white"/>
    <path d="M117.339 100.45H44.2188V101.945H117.339V100.45Z" fill="white"/>
    <path d="M117.339 107.149H44.2188V108.643H117.339V107.149Z" fill="white"/>
    <path d="M117.339 113.846H44.2188V115.34H117.339V113.846Z" fill="white"/>
    <path d="M117.339 120.545H44.2188V122.039H117.339V120.545Z" fill="white"/>
    <path d="M400.23 115.8V166.618C400.23 171.308 404.036 175.114 408.731 175.114H531.662C536.357 175.114 540.163 171.308 540.163 166.618V115.744C540.163 111.376 536.867 107.779 532.625 107.302H408.731C404.036 107.302 400.23 111.105 400.23 115.798V115.8Z" fill="#258D8C"/>
    <path d="M503.633 171.433C503.808 171.866 524.492 192.283 524.512 191.594C524.531 190.905 519.12 167.361 519.12 167.361L503.633 171.433Z" fill="#258D8C"/>
    <path d="M443.738 140.302C443.738 146.979 439.875 152.752 434.262 155.514C432.005 156.624 429.463 157.247 426.781 157.247C425.115 157.247 423.504 157.009 421.985 156.558C414.957 154.492 409.823 147.995 409.823 140.302C409.823 130.944 417.415 123.356 426.778 123.356C436.141 123.356 443.735 130.944 443.735 140.302H443.738Z" fill="white"/>
    <path d="M442.581 140.304C442.581 146.429 439.09 151.742 433.986 154.359C433.91 154.401 433.831 154.441 433.752 154.48C431.651 155.514 429.281 156.095 426.781 156.095C425.283 156.095 423.832 155.888 422.46 155.494C422.411 155.482 422.364 155.467 422.313 155.453C415.763 153.527 410.981 147.476 410.981 140.304C410.981 131.584 418.056 124.516 426.779 124.516C435.501 124.516 442.578 131.586 442.578 140.304H442.581Z" fill="#8CD2F9"/>
    <path d="M433.986 154.357C433.91 154.399 433.831 154.438 433.752 154.478C431.651 155.512 429.281 156.093 426.781 156.093C425.283 156.093 423.832 155.886 422.46 155.492L422.583 154.672L423.118 151.095C419.938 150.556 420.184 146.915 420.184 146.915L420.477 135.774L420.482 135.57L433.629 133.123L433.666 138.251L433.671 139.241L433.676 139.799V140.422L433.71 144.77L433.715 145.573L433.518 148.781C433.518 148.781 433.878 151.966 433.981 154.357H433.986Z" fill="#FE9F73"/>
    <path d="M430.599 148.19C430.599 148.19 430.225 154.288 422.581 154.672L423.116 151.095C423.116 151.095 428.037 152.218 430.599 148.19Z" fill="#F07162"/>
    <path d="M434.417 140.292L431.118 140.888L430.51 141.486C430.51 141.486 430.938 135.996 431.584 134.93C432.229 133.866 434.417 140.289 434.417 140.289V140.292Z" fill="black"/>
    <path d="M429.815 142.222C429.776 143.734 430.968 144.989 432.481 145.029C433.993 145.068 435.249 143.876 435.289 142.365C435.328 140.853 434.136 139.598 432.624 139.558C431.111 139.519 429.855 140.71 429.815 142.222Z" fill="#FE9F73"/>
    <path d="M434.417 140.292C434.417 140.292 435.481 134.991 433.902 132.963C432.323 130.934 423.049 127.214 421.889 128.179C420.729 129.142 421.832 130.378 421.832 130.378C421.832 130.378 418.105 129.073 417.164 132.384C416.226 135.693 424.276 137.325 429.141 135.89C429.141 135.89 432.306 136.904 434.42 140.294L434.417 140.292Z" fill="black"/>
    <path d="M451.638 117.598L453.508 121.389L457.696 121.997L454.666 124.947L455.38 129.115L451.638 127.148L447.894 129.115L448.608 124.947L445.581 121.997L449.766 121.389L451.638 117.598Z" fill="#FECC86"/>
    <path d="M469.857 117.598L471.729 121.389L475.914 121.997L472.884 124.947L473.599 129.115L469.857 127.148L466.113 129.115L466.827 124.947L463.8 121.997L467.985 121.389L469.857 117.598Z" fill="#FECC86"/>
    <path d="M488.075 117.598L489.947 121.389L494.132 121.997L491.102 124.947L491.817 129.115L488.075 127.148L484.331 129.115L485.045 124.947L482.018 121.997L486.203 121.389L488.075 117.598Z" fill="#FECC86"/>
    <path d="M506.294 117.598L508.166 121.389L512.351 121.997L509.321 124.947L510.038 129.115L506.294 127.148L502.549 129.115L503.264 124.947L500.236 121.997L504.421 121.389L506.294 117.598Z" fill="#FECC86"/>
    <path d="M524.512 117.598L526.384 121.389L530.57 121.997L527.54 124.947L528.257 129.115L524.512 127.148L520.768 129.115L521.482 124.947L518.455 121.997L522.64 121.389L524.512 117.598Z" fill="#FECC86"/>
    <path d="M517.345 134.812H449.349V136.449H517.345V134.812Z" fill="white"/>
    <path d="M529.433 142.148H449.349V143.785H529.433V142.148Z" fill="white"/>
    <path d="M529.433 149.485H449.349V151.122H529.433V149.485Z" fill="white"/>
    <path d="M260.452 272.865C260.452 272.865 250.707 297.374 258.88 315.91L71.5146 317.481L54.2248 315.91L38.9844 306.474V292.032L43.2213 280.091L57.0527 272.865H260.449H260.452Z" fill="white"/>
    <path d="M62.7374 319.869H265.166C266.484 319.869 267.553 318.801 267.553 317.483C267.553 316.166 266.484 315.098 265.166 315.098H62.7374C50.5194 315.098 40.5776 305.878 40.5776 294.548C40.5776 283.218 50.5194 273.998 62.7374 273.998H265.166C266.484 273.998 267.553 272.93 267.553 271.612C267.553 270.295 266.484 269.227 265.166 269.227H62.7374C47.8862 269.227 35.8037 280.586 35.8037 294.548C35.8037 308.51 47.8862 319.872 62.7374 319.872V319.869Z" fill="#FF424D"/>
    <path d="M257.7 295.077H158.358C158.065 295.077 157.828 294.841 157.828 294.548C157.828 294.255 158.065 294.019 158.358 294.019H257.7C257.993 294.019 258.229 294.255 258.229 294.548C258.229 294.841 257.993 295.077 257.7 295.077Z" fill="#AAC9F8"/>
    <path d="M144.369 295.077H47.8568C47.5636 295.077 47.3271 294.841 47.3271 294.548C47.3271 294.255 47.5636 294.019 47.8568 294.019H144.369C144.662 294.019 144.898 294.255 144.898 294.548C144.898 294.841 144.662 295.077 144.369 295.077Z" fill="#AAC9F8"/>
    <path d="M99.9701 304.575H50.4505C50.1574 304.575 49.9209 304.339 49.9209 304.046C49.9209 303.753 50.1574 303.517 50.4505 303.517H99.9701C100.263 303.517 100.5 303.753 100.5 304.046C100.5 304.339 100.263 304.575 99.9701 304.575Z" fill="#AAC9F8"/>
    <path d="M257.7 304.575H107.235C106.942 304.575 106.705 304.339 106.705 304.046C106.705 303.753 106.942 303.517 107.235 303.517H257.7C257.993 303.517 258.23 303.753 258.23 304.046C258.23 304.339 257.993 304.575 257.7 304.575Z" fill="#AAC9F8"/>
    <path d="M72.584 225.601C72.584 225.601 81.6292 248.347 74.0423 265.551L247.931 267.009L263.977 265.551L278.121 256.794V243.391L274.19 232.31L261.354 225.603H72.5865L72.584 225.601Z" fill="white"/>
    <path d="M256.074 269.224H68.2057C66.9815 269.224 65.9912 268.232 65.9912 267.011C65.9912 265.79 66.9839 264.798 68.2057 264.798H256.074C267.415 264.798 276.64 256.242 276.64 245.725C276.64 235.208 267.415 226.652 256.074 226.652H68.2057C66.9815 226.652 65.9912 225.66 65.9912 224.439C65.9912 223.218 66.9839 222.226 68.2057 222.226H256.074C269.856 222.226 281.071 232.768 281.071 245.727C281.071 258.687 269.858 269.229 256.074 269.229V269.224Z" fill="#258D8C"/>
    <path d="M167.331 246.252H75.1351C74.8419 246.252 74.6055 246.015 74.6055 245.722C74.6055 245.429 74.8419 245.193 75.1351 245.193H167.331C167.624 245.193 167.861 245.429 167.861 245.722C167.861 246.015 167.624 246.252 167.331 246.252Z" fill="#AAC9F8"/>
    <path d="M269.883 246.252H180.313C180.02 246.252 179.783 246.015 179.783 245.722C179.783 245.429 180.02 245.193 180.313 245.193H269.883C270.176 245.193 270.413 245.429 270.413 245.722C270.413 246.015 270.176 246.252 269.883 246.252Z" fill="#AAC9F8"/>
    <path d="M267.477 255.068H221.519C221.226 255.068 220.989 254.832 220.989 254.539C220.989 254.246 221.226 254.009 221.519 254.009H267.477C267.77 254.009 268.006 254.246 268.006 254.539C268.006 254.832 267.77 255.068 267.477 255.068Z" fill="#AAC9F8"/>
    <path d="M267.476 237.433H75.1351C74.8419 237.433 74.6055 237.197 74.6055 236.904C74.6055 236.611 74.8419 236.374 75.1351 236.374H267.476C267.77 236.374 268.006 236.611 268.006 236.904C268.006 237.197 267.77 237.433 267.476 237.433Z" fill="#AAC9F8"/>
    <path d="M265.166 320.398H62.7372C47.5929 320.398 35.2715 308.8 35.2715 294.546C35.2715 280.291 47.5929 268.693 62.7372 268.693H265.166C266.774 268.693 268.082 270 268.082 271.61C268.082 273.22 266.774 274.527 265.166 274.527C264.873 274.527 264.636 274.291 264.636 273.998C264.636 273.705 264.873 273.469 265.166 273.469C266.19 273.469 267.023 272.637 267.023 271.612C267.023 270.588 266.19 269.756 265.166 269.756H62.7372C48.1791 269.756 36.3331 280.877 36.3331 294.548C36.3331 308.219 48.1767 319.34 62.7372 319.34H265.166C266.19 319.34 267.023 318.508 267.023 317.484C267.023 316.459 266.19 315.627 265.166 315.627C264.873 315.627 264.636 315.391 264.636 315.098C264.636 314.805 264.873 314.569 265.166 314.569C266.774 314.569 268.082 315.876 268.082 317.486C268.082 319.096 266.774 320.403 265.166 320.403V320.398Z" fill="#21111D"/>
    <path d="M256.074 269.754H68.2055C66.6906 269.754 65.459 268.523 65.459 267.009C65.459 265.494 66.6906 264.263 68.2055 264.263C68.4987 264.263 68.7351 264.5 68.7351 264.793C68.7351 265.086 68.4987 265.322 68.2055 265.322C67.2769 265.322 66.5206 266.078 66.5206 267.006C66.5206 267.934 67.2769 268.69 68.2055 268.69H256.074C269.565 268.69 280.541 258.384 280.541 245.718C280.541 233.051 269.565 222.748 256.074 222.748H68.2055C67.2769 222.748 66.5206 223.503 66.5206 224.432C66.5206 225.36 67.2769 226.116 68.2055 226.116C68.4987 226.116 68.7351 226.352 68.7351 226.645C68.7351 226.938 68.4987 227.174 68.2055 227.174C66.6906 227.174 65.459 225.943 65.459 224.429C65.459 222.915 66.6906 221.684 68.2055 221.684H256.074C270.149 221.684 281.601 232.465 281.601 245.715C281.601 258.965 270.149 269.746 256.074 269.746V269.754Z" fill="#21111D"/>
    <path d="M233.082 285.042C233.082 285.042 239.457 300.917 235.782 312.601L230.602 304.6C230.602 304.6 227.064 308.842 224.897 312.601C224.897 312.601 220.941 286.502 213.272 285.042H233.082Z" fill="#7FC6A6"/>
    <path d="M185.052 254.539C185.052 254.539 178.677 270.413 182.352 282.098L187.533 274.096C187.533 274.096 191.07 278.338 193.238 282.098C193.238 282.098 197.194 255.999 204.862 254.539H185.052Z" fill="#4CB7D8"/>
    <path d="M257.7 285.572H50.4505C50.1574 285.572 49.9209 285.335 49.9209 285.042C49.9209 284.749 50.1574 284.513 50.4505 284.513H257.7C257.993 284.513 258.229 284.749 258.229 285.042C258.229 285.335 257.993 285.572 257.7 285.572Z" fill="#AAC9F8"/>
    <path d="M214.779 255.068H75.1351C74.8419 255.068 74.6055 254.832 74.6055 254.539C74.6055 254.246 74.8419 254.009 75.1351 254.009H214.779C215.072 254.009 215.309 254.246 215.309 254.539C215.309 254.832 215.072 255.068 214.779 255.068Z" fill="#AAC9F8"/>
</svg>
