<svg width="650" height="412" viewBox="0 0 650 412" fill="none" xmlns="http://www.w3.org/2000/svg">
<path d="M302.801 282.897L309.723 290.127L317.144 298.576C317.144 298.576 331.875 307.218 332.152 307.246C332.18 307.246 329.189 308.963 329.189 308.963C348.157 318.741 411.317 344.752 421.202 349.71C427.155 352.701 428.207 362.119 428.069 369.128L420.51 370.402C420.51 370.402 365.463 347.522 364.798 348.63C364.604 348.99 362.583 354.613 360.312 362.147C323.817 351.51 274.945 333.45 275.111 317.19C275.305 303.839 293.497 291.207 302.801 282.897Z" fill="#FE9F73"/>
<path d="M269.518 343.671L279.735 348.103L291.116 353.505C291.116 353.505 308.782 356.58 309.031 356.524C309.059 356.524 307.563 359.156 307.563 359.156C329.466 361.87 398.524 364.696 409.877 365.97C416.716 366.745 423.278 375.222 427.432 381.87L421.811 385.665C421.811 385.665 361.503 383.005 361.614 384.28C361.641 384.667 363.358 390.678 365.989 398.517C328.746 401.01 276.579 400.761 266.887 385.415C258.94 372.756 266.693 354.668 269.518 343.671Z" fill="#F9B59D"/>
<path d="M540.295 305.944H445.596L412.59 390.069H507.261L540.295 305.944Z" fill="#E23E3D"/>
<path d="M412.59 390.069H417.519L450.553 305.944H445.596L412.59 390.069Z" fill="#CC2323"/>
<path d="M478.381 345.333C477.08 349.211 478.021 353.006 480.541 353.865C483.033 354.724 486.134 352.258 487.436 348.408C488.737 344.53 487.796 340.735 485.276 339.876C482.784 339.018 479.71 341.455 478.381 345.333Z" fill="#E2F2F1"/>
<path d="M381.273 383.282H416.661V390.069H381.273C379.391 390.069 377.868 388.545 377.868 386.662C377.868 384.806 379.391 383.282 381.273 383.282Z" fill="#CC2323"/>
<path d="M390.221 386.683L412.567 386.683L412.567 385.63L390.221 385.63L390.221 386.683Z" fill="#E23E3D"/>
<path d="M224.051 10.3295H72.478V114.094H224.051V10.3295Z" fill="#E2F2F1"/>
<path d="M224.051 127.196H72.478V400.179H224.051V127.196Z" fill="#E2F2F1"/>
<path d="M233.715 407.492H62.7866V0.218994H233.715V407.492ZM63.7281 406.55H232.773V1.1608H63.7281V406.55Z" fill="#21111D"/>
<path d="M224.494 114.565H72.0073V9.85864H224.494V114.565ZM72.9488 113.623H223.58V10.8004H72.9488V113.623Z" fill="#21111D"/>
<path d="M224.494 400.65H72.0073V126.725H224.494V400.65ZM72.9488 399.708H223.58V127.667H72.9488V399.708Z" fill="#21111D"/>
<path d="M104.321 66.422L103.74 65.6741L154.689 23.9856L155.298 24.7058L104.321 66.422Z" fill="#21111D"/>
<path d="M117.723 70.3277L117.114 69.6075L147.96 43.985L148.542 44.7329L117.723 70.3277Z" fill="#21111D"/>
<path d="M161.86 249.048L161.14 248.439L192.762 209.908L193.482 210.517L161.86 249.048Z" fill="#21111D"/>
<path d="M176.564 245.281L175.816 244.699L195.171 220.019L195.891 220.6L176.564 245.281Z" fill="#21111D"/>
<path d="M482.497 208.361L477.823 213.876L549.712 274.853L554.386 269.339L482.497 208.361Z" fill="#FEC786"/>
<path d="M473.452 206.556C470.157 210.517 465.228 226.085 469.188 229.381C473.148 232.677 484.473 222.456 487.768 218.495C491.063 214.534 490.537 208.661 486.577 205.365C482.617 202.069 476.747 202.595 473.452 206.556Z" fill="#258D8C"/>
<path d="M471.154 230.24C470.351 230.24 469.631 230.046 469.049 229.547L469.354 229.187C471.403 230.877 475.501 228.633 478.602 226.445C482.147 223.924 485.802 220.462 487.601 218.329C490.813 214.478 490.287 208.745 486.438 205.531L486.743 205.171C490.786 208.551 491.34 214.589 487.961 218.633C486.162 220.794 482.451 224.312 478.879 226.833C476.47 228.55 473.452 230.24 471.154 230.24Z" fill="#1D1D1D"/>
<path d="M491.035 374.335H475.03V377.05H491.035V374.335Z" fill="#FF424D"/>
<path d="M469.194 250.983C471.738 244.03 468.165 236.33 461.215 233.785C454.264 231.24 446.567 234.814 444.023 241.767C441.479 248.721 445.051 256.421 452.002 258.965C458.953 261.51 466.65 257.936 469.194 250.983Z" fill="#F3FFFE"/>
<path d="M481.538 216.528C498.041 230.295 500.228 254.837 486.466 271.319L426.74 221.459C440.502 204.977 465.035 202.761 481.538 216.528Z" fill="#7FC6A6"/>
<path d="M547.774 274.367L512.682 378.084L519.527 380.402L554.619 276.685L547.774 274.367Z" fill="#FEC786"/>
<path d="M475.667 376.385H531.711C538.384 376.385 543.784 381.787 543.784 388.462V389.736C543.784 390.373 543.258 390.928 542.593 390.928H461.103C461.13 382.922 467.637 376.385 475.667 376.385Z" fill="#7FC6A6"/>
<path d="M426.74 221.487L486.466 271.319L483.393 274.366L424.192 224.118L426.74 221.487Z" fill="#FEC786"/>
<path d="M436.763 235.087L423.888 224.146L424.026 223.98C424.109 223.841 433.468 211.404 447.369 208.357C461.85 205.199 470.545 209.576 474.754 211.681C479.599 214.118 486.992 220.489 489.623 225.337L489.208 225.559C486.632 220.794 479.35 214.534 474.532 212.124C470.406 210.047 461.795 205.725 447.479 208.828C434.631 211.625 425.715 222.595 424.525 224.09L437.068 234.727L436.763 235.087Z" fill="#1D1D1D"/>
<path d="M426.9 221.288L426.599 221.649L486.318 271.502L486.62 271.14L426.9 221.288Z" fill="#1D1D1D"/>
<path d="M485.83 243.425H485.359V248.66H485.83V243.425Z" fill="#1D1D1D"/>
<path d="M483.503 244.948H483.033V250.738H483.503V244.948Z" fill="#1D1D1D"/>
<path d="M490.066 214.498L489.762 214.857L550.077 266.018L550.382 265.659L490.066 214.498Z" fill="#1D1D1D"/>
<path d="M501.991 234.077L501.687 234.436L525.657 254.768L525.961 254.409L501.991 234.077Z" fill="#1D1D1D"/>
<path d="M554.377 276.633L520.674 376.346L521.12 376.497L554.822 276.784L554.377 276.633Z" fill="#1D1D1D"/>
<path d="M542.969 288.007L523.285 346.15L523.731 346.301L543.415 288.159L542.969 288.007Z" fill="#1D1D1D"/>
<path d="M467.997 378.85L467.665 378.546C467.776 378.435 470.379 375.748 480.375 376.163C490.232 376.607 529.967 376.163 530.354 376.163V376.634C529.967 376.634 490.204 377.077 480.347 376.634C470.628 376.191 468.025 378.823 467.997 378.85Z" fill="#1D1D1D"/>
<path d="M532.631 380.58L532.364 380.968L535.672 383.244L535.939 382.856L532.631 380.58Z" fill="#1D1D1D"/>
<path d="M533.153 383.164L532.903 383.563L535.651 385.281L535.9 384.881L533.153 383.164Z" fill="#1D1D1D"/>
<path d="M557.191 276.321C559.265 273.163 558.387 268.92 555.23 266.846C552.073 264.771 547.832 265.649 545.758 268.807C543.684 271.965 544.562 276.208 547.719 278.283C550.876 280.357 555.116 279.479 557.191 276.321Z" fill="#258D8C"/>
<path d="M342.84 309.213C344.446 309.24 408.52 339.433 408.52 339.433L394.564 364.059L358.346 354.807L342.84 309.213Z" fill="#4CB7D8"/>
<path d="M252.627 189.465C252.627 189.465 225.131 190.629 212.948 199.687C190.824 216.14 196.306 269.214 196.306 269.214C196.306 269.214 213.363 260.654 214.471 257.635C215.606 254.643 252.627 189.465 252.627 189.465Z" fill="#4CB7D8"/>
<path d="M231.278 193.066C247.061 191.432 282.975 191.792 282.975 191.792C282.975 191.792 288.43 193.427 286.685 192.54C332.179 202.18 336.084 236.334 336.084 236.334L355.079 335.223L379.889 337.411C387.42 352.951 380.11 393.891 380.11 393.891L259.189 403.365C259.189 403.365 232.995 406.772 211.951 377.77C198.023 358.574 195.032 301.041 196.445 259.103C196.5 259.131 206.745 195.615 231.278 193.066Z" fill="#4CB7D8"/>
<path d="M261.46 333.755C261.598 333.81 261.737 333.838 261.903 333.81C262.318 333.727 262.595 333.339 262.512 332.924C262.401 332.37 251.63 278.41 247.421 244.561C247.366 244.145 246.978 243.841 246.563 243.896C246.147 243.951 245.843 244.339 245.898 244.755C250.107 278.687 260.878 332.702 260.989 333.228C261.044 333.45 261.238 333.644 261.46 333.755Z" fill="#21111D"/>
<path d="M241.191 327.965C241.219 327.965 241.246 327.993 241.302 327.993L261.487 333.339C261.903 333.45 262.318 333.201 262.429 332.785C262.54 332.37 262.29 331.954 261.875 331.843L241.689 326.497C241.274 326.386 240.859 326.636 240.748 327.051C240.637 327.439 240.831 327.827 241.191 327.965Z" fill="#21111D"/>
<path d="M372.135 322.758C372.523 322.924 372.966 322.73 373.132 322.37C373.298 321.982 373.132 321.539 372.744 321.373L351.063 311.844C350.676 311.678 350.233 311.844 350.067 312.232C349.9 312.62 350.067 313.063 350.454 313.229L372.135 322.758Z" fill="#21111D"/>
<path d="M379.944 337.439C379.944 337.439 387.254 356.469 380.165 393.919L371.886 391.592L361.226 349.516L379.944 337.439Z" fill="#4CB7D8"/>
<path d="M235.155 333.533C235.238 333.561 235.349 333.588 235.432 333.588C236.512 333.588 344.252 334.032 379.363 338.131C380.138 340.486 383.71 352.563 381.855 374.391C381.827 374.806 382.132 375.166 382.547 375.222C382.962 375.249 383.322 374.945 383.378 374.529C385.482 349.793 380.83 337.688 380.636 337.162L380.47 336.746L380.027 336.691C345.332 332.536 236.539 332.065 235.459 332.065C235.044 332.065 234.684 332.397 234.684 332.813C234.684 333.145 234.878 333.395 235.155 333.533Z" fill="#21111D"/>
<path d="M279.098 400.816C323.097 400.816 376.926 395.138 380.248 394.778C380.747 394.722 381.079 394.279 381.024 393.808C380.968 393.31 380.553 392.977 380.055 393.033C378.864 393.171 259.688 405.719 229.755 394.002C200.183 382.396 198.106 317.19 198.078 316.553C198.078 316.054 197.663 315.667 197.164 315.694C196.666 315.694 196.278 316.11 196.306 316.608C196.389 319.351 198.41 383.642 229.091 395.664C238.976 399.514 257.888 400.816 279.098 400.816Z" fill="#21111D"/>
<path d="M245.428 159.272C245.428 159.272 238.478 151.018 228.482 151.71C218.486 152.375 209.21 167.056 199.961 170.352C199.961 170.352 207.41 182.014 218.32 185.449C229.229 188.884 250.55 175.56 246.286 160.879L245.428 159.272Z" fill="#4C222E"/>
<path d="M283.889 120.936C283.889 120.936 290.257 121.102 295.103 127.584C299.949 134.065 291.808 180.047 277.326 180.407C255.701 180.934 270.875 128.553 270.875 128.553L283.889 120.936Z" fill="#4C222E"/>
<path d="M290.977 151.295C291.309 162.402 291.669 179.05 279.043 182.346L278.96 189.992C278.849 198.994 270.459 205.559 261.682 203.509C255.202 201.986 250.661 196.113 250.827 189.465L252.572 120.271C252.572 120.271 260.519 121.323 260.519 121.96C260.519 122.404 278.295 128.525 286.575 134.121C291.642 137.639 290.756 144.397 290.977 151.295Z" fill="#F9B59D"/>
<path d="M279.459 165.117C279.348 165.117 279.237 165.034 279.209 164.923C279.182 164.785 279.265 164.674 279.403 164.646C280.982 164.314 282.006 162.375 282.283 161.738C280.04 160.519 278.683 158.94 278.24 157.084C277.52 154.009 279.486 151.267 279.569 151.156L279.902 151.101L279.957 151.433C279.929 151.461 278.046 154.12 278.711 156.973C279.126 158.774 280.483 160.27 282.698 161.433L282.892 161.544L282.809 161.738C282.754 161.848 281.618 164.702 279.486 165.145L279.459 165.117Z" fill="#ED7163"/>
<path d="M278.988 189.825L279.043 182.153C279.043 182.153 266.056 181.294 258.137 176.225C258.137 176.197 268.881 186.695 278.988 189.825Z" fill="#ED7163"/>
<path d="M273.339 154.425C273.339 155.173 272.73 155.782 271.954 155.782C271.207 155.782 270.598 155.173 270.598 154.397C270.598 153.649 271.207 153.04 271.982 153.04C272.757 153.04 273.339 153.649 273.339 154.425Z" fill="#4C222E"/>
<path d="M287.184 154.951C287.184 155.699 286.574 156.308 285.799 156.308C285.052 156.308 284.442 155.699 284.442 154.923C284.442 154.176 285.052 153.566 285.827 153.566C286.574 153.594 287.184 154.203 287.184 154.951Z" fill="#4C222E"/>
<path d="M268.826 164.397C268.964 164.425 277.742 168.303 277.742 168.303C277.742 168.303 274.973 171.377 271.706 169.937C268.438 168.524 268.826 164.397 268.826 164.397Z" fill="#FBFDFC"/>
<path d="M267.773 149.467C267.912 149.522 268.078 149.522 268.216 149.439C268.244 149.411 271.788 147.389 275.277 148.636C275.527 148.719 275.803 148.608 275.886 148.331C275.97 148.082 275.859 147.805 275.582 147.694C271.65 146.281 267.856 148.497 267.69 148.58C267.469 148.719 267.386 149.023 267.524 149.245L267.773 149.467Z" fill="#4C222E"/>
<path d="M288.707 151.489C288.873 151.516 289.011 151.461 289.122 151.322C289.316 151.129 289.288 150.824 289.094 150.63C288.956 150.491 285.689 147.583 281.563 148.137C281.286 148.165 281.12 148.414 281.148 148.691C281.175 148.968 281.424 149.134 281.701 149.106C285.384 148.608 288.402 151.322 288.43 151.35L288.707 151.489Z" fill="#4C222E"/>
<path d="M278.268 134.315L271.678 127.999L276.551 135.34L278.268 134.315Z" fill="#F39D75"/>
<path d="M290.479 127.279C290.811 124.149 289.011 119.467 285.882 119.19C285.882 119.19 253.679 111.656 243.379 122.459C231.888 134.509 230.199 155.782 237.952 169.466C242.41 177.36 251.077 179.909 251.077 179.909L254.842 143.65C255.867 144.204 281.009 147.749 286.99 138.719C288.79 135.949 289.981 131.905 290.479 127.279Z" fill="#4C222E"/>
<path d="M258.276 157.915C258.248 162.153 254.787 165.56 250.55 165.533C246.314 165.505 242.908 162.042 242.936 157.804C242.963 153.566 246.425 150.159 250.661 150.187C254.898 150.215 258.303 153.677 258.276 157.915Z" fill="#F9B59D"/>
<path d="M250.024 162.596C248.418 162.596 247.338 161.378 247.006 160.159C246.591 158.718 247.089 157.333 248.252 156.641C249.913 155.616 251.409 156.225 252.239 156.752C251.907 155.921 251.409 155.339 250.744 154.951C249.249 154.12 247.394 154.702 247.366 154.702C247.227 154.757 247.089 154.674 247.061 154.536C247.006 154.397 247.089 154.259 247.227 154.231C247.311 154.203 249.304 153.566 250.993 154.508C251.962 155.062 252.627 156.004 252.932 157.333L253.125 158.192L252.516 157.555C252.433 157.472 250.633 155.699 248.501 157.029C247.311 157.749 247.2 159.078 247.477 159.993C247.754 160.962 248.584 162.07 250.08 162.07C250.218 162.07 250.329 162.181 250.329 162.319C250.329 162.458 250.218 162.569 250.08 162.569L250.024 162.596Z" fill="#ED7163"/>
<path d="M221.642 195.172C221.642 195.172 232.884 217.249 267.496 217.498C302.108 217.775 310.886 201.82 310.886 201.82L304.6 198.302L286.159 192.429L281.618 191.571H278.184L250.799 189.438C250.799 189.493 239.225 189.493 221.642 195.172Z" fill="#F9B59D"/>
<path d="M345.221 321.567C345.553 321.705 345.969 321.594 346.163 321.262L351.562 312.675L351.507 312.37L336.859 236.223C336.776 235.531 335.585 226.694 328.441 216.722C321.768 207.387 308.366 195.338 282.476 190.989C282.061 190.906 281.673 191.211 281.59 191.626C281.507 192.042 281.812 192.429 282.227 192.512C307.536 196.751 320.633 208.468 327.168 217.553C334.228 227.387 335.336 236.362 335.364 236.445V236.5L349.956 312.398L344.861 320.459C344.64 320.819 344.75 321.29 345.11 321.511C345.138 321.511 345.194 321.539 345.221 321.567Z" fill="#21111D"/>
<path d="M329.937 334.613C329.521 334.613 329.161 334.281 329.134 333.838L326.669 279.435L326.835 279.213C331.653 272.371 333.481 265.585 332.262 259.02C330.269 248.3 320.633 241.763 320.55 241.708C320.19 241.458 320.079 240.96 320.328 240.6C320.577 240.239 321.076 240.129 321.436 240.378C321.851 240.655 331.709 247.303 333.841 258.715C335.142 265.64 333.259 272.759 328.303 279.906L330.74 333.782C330.767 334.226 330.407 334.613 329.964 334.613C329.964 334.613 329.964 334.613 329.937 334.613Z" fill="#21111D"/>
<path d="M303.465 283.701C303.078 283.701 302.718 283.396 302.662 283.008C302.607 282.565 302.911 282.177 303.354 282.094L327.389 278.853C327.832 278.798 328.22 279.103 328.303 279.546C328.358 279.989 328.054 280.377 327.611 280.46L303.576 283.701C303.521 283.701 303.493 283.701 303.465 283.701Z" fill="#21111D"/>
<path d="M300.89 292.122C300.502 292.122 300.142 291.817 300.087 291.429C300.032 290.986 300.336 290.598 300.779 290.543L315.261 288.659C315.704 288.604 316.092 288.908 316.147 289.352C316.202 289.795 315.898 290.183 315.455 290.238L300.973 292.122C300.973 292.122 300.918 292.122 300.89 292.122Z" fill="#21111D"/>
<path d="M204.447 228.605C204.391 228.605 204.336 228.605 204.281 228.578C203.838 228.495 203.561 228.051 203.671 227.636C205.305 219.741 209.431 213.315 209.625 213.066C209.874 212.706 210.372 212.595 210.732 212.816C211.092 213.066 211.203 213.564 210.981 213.924C210.954 213.98 206.828 220.379 205.277 227.968C205.139 228.328 204.807 228.605 204.447 228.605Z" fill="#21111D"/>
<path d="M207.354 233.675C207.299 233.675 207.244 233.675 207.188 233.647C206.745 233.564 206.468 233.121 206.579 232.705C208.213 224.811 212.339 218.384 212.532 218.135C212.782 217.775 213.28 217.664 213.64 217.886C214 218.135 214.111 218.633 213.889 218.994C213.861 219.049 209.736 225.448 208.185 233.037C208.074 233.398 207.742 233.675 207.354 233.675Z" fill="#21111D"/>
<path d="M649.42 389.903H2.92188V411.342H649.42V389.903Z" fill="#44243D"/>
<path d="M249.471 389.903H2.92188V411.342H249.471V389.903Z" fill="#2D1629"/>
<path d="M123.482 283.618C123.482 283.618 121.378 254.339 110.025 260.017C98.6723 265.696 89.3963 303.008 88.1503 304.143C86.9042 305.251 87.2919 339.35 87.2919 339.35L100.5 332.674C100.5 332.674 104.016 251.153 123.482 283.618Z" fill="#258D8C"/>
<path d="M110.745 222.982C110.745 222.982 85.2706 245.78 78.3205 284.864C71.3704 323.949 93.3283 335.444 93.3283 335.444C93.3283 335.444 96.4849 253.259 110.745 222.982Z" fill="#7FC6A6"/>
<path d="M63.5063 340.707C63.5063 340.707 59.2421 257.524 37.7549 221.459C37.7549 221.459 75.4959 243.979 88.0116 303.091C88.7038 306.415 89.1469 310.127 89.673 313.672C90.2268 317.384 90.5591 320.653 90.476 323.949C90.3375 329.738 89.5345 334.724 89.2853 338.353C87.2363 369.931 63.5063 340.707 63.5063 340.707Z" fill="#258D8C"/>
<path d="M64.2538 305.362C62.7862 293.507 58.3005 282.205 51.0458 272.676C45.8125 265.807 39.7761 260.599 35.0412 264.311C24.5468 272.593 22.4424 324.004 22.4424 324.004C22.4424 324.004 34.2936 288.41 39.4992 290.764C44.7049 293.119 49.4952 341.428 49.4952 341.428L68.8779 343.034L64.2538 305.362Z" fill="#7FC6A6"/>
<path d="M90.6978 337.799C91.5008 319.628 89.2302 302.204 83.9415 286C79.705 273.036 73.5579 260.793 65.6386 249.658C52.1815 230.683 38.0874 221.293 37.949 221.21L37.6167 221.736C37.7551 221.819 51.7661 231.154 65.1679 250.045C77.5175 267.469 91.8884 296.858 90.0886 337.799H90.6978Z" fill="#21111D"/>
<path d="M93.6603 335.444C93.6603 335.25 94.4633 314.642 97.0107 290.598C99.3367 268.438 103.684 238.716 111.049 223.121L110.468 222.844C103.075 238.522 98.7275 268.3 96.3739 290.515C93.8264 314.586 93.0234 335.195 93.0234 335.417L93.6603 335.444Z" fill="#21111D"/>
<path d="M100.832 332.674C100.832 332.536 101.441 319.129 103.407 305.556C105.982 287.717 109.748 277.662 114.234 276.499C116.892 275.806 119.91 278.244 123.233 283.756L123.759 283.424C120.27 277.662 117.003 275.141 114.067 275.889C109.249 277.136 105.456 287.08 102.798 305.445C100.832 319.046 100.223 332.48 100.223 332.619L100.832 332.674Z" fill="#21111D"/>
<path d="M68.5736 343.09L69.1828 343.007L64.5309 305.335C63.0357 293.313 58.4669 281.956 51.2676 272.51C46.7264 266.527 42.6561 263.258 39.2502 262.843C37.6442 262.649 36.149 263.064 34.8199 264.089C30.3896 267.579 26.9284 278.715 24.464 297.246C22.6365 310.985 22.1104 323.894 22.1104 324.004L22.7472 324.032C22.7749 323.506 24.9624 272.676 35.2352 264.588C36.4259 263.646 37.755 263.286 39.1949 263.452C42.4346 263.868 46.3388 267.053 50.7968 272.898C57.9131 282.26 62.4542 293.507 63.9217 305.418L68.5736 343.09Z" fill="#21111D"/>
<path d="M48.4376 296.637L47.8716 296.929L51.946 304.832L52.5121 304.54L48.4376 296.637Z" fill="#21111D"/>
<path d="M48.4309 301.958L47.873 302.266L51.9479 309.666L52.5058 309.358L48.4309 301.958Z" fill="#21111D"/>
<path d="M93.5543 249.525L90.0767 257.163L90.6562 257.427L94.1338 249.789L93.5543 249.525Z" fill="#21111D"/>
<path d="M93.0955 255.496L90.1294 260.851L90.6865 261.159L93.6525 255.805L93.0955 255.496Z" fill="#21111D"/>
<path d="M113.018 262.83L107.097 265.848L107.386 266.416L113.308 263.397L113.018 262.83Z" fill="#21111D"/>
<path d="M110.563 266.28L107.062 268.41L107.393 268.954L110.894 266.824L110.563 266.28Z" fill="#21111D"/>
<path d="M107.256 330.541C107.256 330.541 106.149 391.371 89.8671 389.93H77.0745H75.0255H62.2328C45.9513 391.343 44.8438 330.541 44.8438 330.541C60.2115 328.215 91.8331 328.215 107.256 330.541Z" fill="#FF424D"/>
<path d="M51.3067 338.308L50.8442 338.746L68.6435 357.551L69.1059 357.113L51.3067 338.308Z" fill="#21111D"/>
<path d="M56.5563 350.464L56.0757 350.882L65.8693 362.148L66.3498 361.73L56.5563 350.464Z" fill="#21111D"/>
<path d="M556.133 370.956C556.133 370.956 560.01 380.734 556.77 388.102L631.394 388.739L638.288 388.102L644.353 384.335V378.573L642.663 373.809L637.153 370.928H556.133V370.956Z" fill="white"/>
<path d="M634.883 389.709H554.251C553.724 389.709 553.309 389.293 553.309 388.767C553.309 388.241 553.724 387.825 554.251 387.825H634.883C639.756 387.825 643.716 384.141 643.716 379.626C643.716 375.111 639.756 371.427 634.883 371.427H554.251C553.724 371.427 553.309 371.011 553.309 370.485C553.309 369.959 553.724 369.543 554.251 369.543H634.883C640.808 369.543 645.599 374.058 645.599 379.626C645.599 385.166 640.808 389.709 634.883 389.709Z" fill="#61A3C5"/>
<path d="M596.809 379.82H557.241C557.13 379.82 557.019 379.737 557.019 379.598C557.019 379.487 557.102 379.377 557.241 379.377H596.809C596.92 379.377 597.031 379.46 597.031 379.598C597.003 379.709 596.92 379.82 596.809 379.82Z" fill="#AAC9F8"/>
<path d="M640.808 379.82H602.375C602.264 379.82 602.153 379.737 602.153 379.598C602.153 379.487 602.236 379.377 602.375 379.377H640.808C640.919 379.377 641.03 379.46 641.03 379.598C641.03 379.709 640.919 379.82 640.808 379.82Z" fill="#AAC9F8"/>
<path d="M639.784 383.587H620.069C619.958 383.587 619.847 383.504 619.847 383.365C619.847 383.227 619.93 383.144 620.069 383.144H639.784C639.894 383.144 640.005 383.227 640.005 383.365C640.005 383.504 639.894 383.587 639.784 383.587Z" fill="#AAC9F8"/>
<path d="M617.161 383.587H557.241C557.13 383.587 557.019 383.504 557.019 383.365C557.019 383.227 557.102 383.144 557.241 383.144H617.161C617.272 383.144 617.382 383.227 617.382 383.365C617.382 383.504 617.272 383.587 617.161 383.587Z" fill="#AAC9F8"/>
<path d="M643.549 350.956C643.549 350.956 639.673 360.735 642.912 368.103L568.289 368.74L561.394 368.103L555.33 364.336V358.574L557.019 353.81L562.529 350.929H643.549V350.956Z" fill="white"/>
<path d="M564.828 369.682H645.46C645.986 369.682 646.402 369.266 646.402 368.74C646.402 368.214 645.986 367.798 645.46 367.798H564.828C559.955 367.798 555.995 364.114 555.995 359.599C555.995 355.084 559.955 351.4 564.828 351.4H645.46C645.986 351.4 646.402 350.984 646.402 350.458C646.402 349.932 645.986 349.516 645.46 349.516H564.828C558.902 349.516 554.112 354.031 554.112 359.599C554.084 365.167 558.902 369.682 564.828 369.682Z" fill="#FC4963"/>
<path d="M642.47 359.82H602.901C602.79 359.82 602.68 359.737 602.68 359.599C602.68 359.46 602.763 359.377 602.901 359.377H642.47C642.58 359.377 642.691 359.46 642.691 359.599C642.691 359.737 642.58 359.82 642.47 359.82Z" fill="#AAC9F8"/>
<path d="M597.335 359.82H558.902C558.791 359.82 558.681 359.737 558.681 359.599C558.681 359.46 558.764 359.377 558.902 359.377H597.335C597.446 359.377 597.557 359.46 597.557 359.599C597.557 359.737 597.446 359.82 597.335 359.82Z" fill="#AAC9F8"/>
<path d="M579.642 363.588H559.927C559.816 363.588 559.705 363.505 559.705 363.366C559.705 363.255 559.788 363.144 559.927 363.144H579.642C579.752 363.144 579.863 363.228 579.863 363.366C579.863 363.505 579.752 363.588 579.642 363.588Z" fill="#AAC9F8"/>
<path d="M642.47 363.588H582.549C582.438 363.588 582.328 363.505 582.328 363.366C582.328 363.255 582.411 363.144 582.549 363.144H642.47C642.58 363.144 642.691 363.228 642.691 363.366C642.663 363.505 642.58 363.588 642.47 363.588Z" fill="#AAC9F8"/>
<path d="M645.432 369.903H564.8C558.764 369.903 553.863 365.277 553.863 359.599C553.863 353.92 558.764 349.294 564.8 349.294H645.432C646.069 349.294 646.595 349.821 646.595 350.458C646.595 351.095 646.069 351.621 645.432 351.621C645.322 351.621 645.211 351.538 645.211 351.4C645.211 351.289 645.294 351.178 645.432 351.178C645.848 351.178 646.18 350.846 646.18 350.43C646.18 350.015 645.848 349.682 645.432 349.682H564.8C559.013 349.682 554.278 354.114 554.278 359.571C554.278 365.028 558.985 369.46 564.8 369.46H645.432C645.848 369.46 646.18 369.128 646.18 368.712C646.18 368.297 645.848 367.964 645.432 367.964C645.322 367.964 645.211 367.881 645.211 367.743C645.211 367.604 645.294 367.521 645.432 367.521C646.069 367.521 646.595 368.047 646.595 368.684C646.595 369.377 646.069 369.903 645.432 369.903Z" fill="#21111D"/>
<path d="M634.883 389.903H554.25C553.613 389.903 553.087 389.376 553.087 388.739C553.087 388.102 553.613 387.576 554.25 387.576C554.361 387.576 554.472 387.659 554.472 387.797C554.472 387.908 554.389 388.019 554.25 388.019C553.835 388.019 553.503 388.351 553.503 388.767C553.503 389.182 553.835 389.515 554.25 389.515H634.883C640.67 389.515 645.405 385.083 645.405 379.626C645.405 374.169 640.698 369.737 634.883 369.737H554.25C553.835 369.737 553.503 370.069 553.503 370.485C553.503 370.9 553.835 371.233 554.25 371.233C554.361 371.233 554.472 371.316 554.472 371.454C554.472 371.565 554.389 371.676 554.25 371.676C553.613 371.676 553.087 371.15 553.087 370.513C553.087 369.876 553.613 369.349 554.25 369.349H634.883C640.919 369.349 645.82 373.975 645.82 379.654C645.82 385.277 640.919 389.903 634.883 389.903Z" fill="#21111D"/>
<path d="M578.534 375.803C578.534 375.803 575.987 382.119 577.454 386.8L579.531 383.615C579.531 383.615 580.943 385.304 581.801 386.8C581.801 386.8 583.38 376.385 586.426 375.803H578.534Z" fill="#F75553"/>
<path d="M632.667 355.804C632.667 355.804 635.215 362.12 633.747 366.801L631.671 363.615C631.671 363.615 630.258 365.305 629.4 366.801C629.4 366.801 627.822 356.386 624.776 355.804H632.667Z" fill="#7FC6A6"/>
<path d="M639.783 376.025H557.241C557.13 376.025 557.019 375.942 557.019 375.803C557.019 375.665 557.102 375.582 557.241 375.582H639.783C639.894 375.582 640.005 375.665 640.005 375.803C640.005 375.942 639.894 376.025 639.783 376.025Z" fill="#AAC9F8"/>
<path d="M642.469 356.026H559.927C559.816 356.026 559.705 355.943 559.705 355.804C559.705 355.666 559.788 355.582 559.927 355.582H642.469C642.58 355.582 642.691 355.666 642.691 355.804C642.691 355.943 642.58 356.026 642.469 356.026Z" fill="#AAC9F8"/>
<path d="M137.161 331.899H137.355H156.848L151.92 389.958H137.355H137.161H122.07L117.667 331.899H137.161Z" fill="#F7AB48"/>
<path d="M122.873 321.705H137.161H137.355H151.643C153.304 321.705 154.661 323.063 154.661 324.752H137.327H137.133H119.827C119.827 323.063 121.184 321.705 122.873 321.705Z" fill="#21111D"/>
<path d="M118.11 326.331C118.304 325.417 119.107 324.752 120.021 324.752H137.161H137.355H154.495C155.408 324.752 156.211 325.417 156.405 326.331L158.039 334.087C158.288 335.306 157.374 336.469 156.128 336.469H137.355H137.161H118.387C117.141 336.469 116.227 335.306 116.477 334.087L118.11 326.331Z" fill="#44243D"/>
<path d="M155.879 349.71L154.606 373.338H137.383H137.133H119.91L118.637 349.71H137.133H137.383H155.879Z" fill="#4C222E"/>
<path d="M136.302 370.79C141.364 370.79 145.468 366.647 145.468 361.538C145.468 356.428 141.364 352.286 136.302 352.286C131.241 352.286 127.137 356.428 127.137 361.538C127.137 366.647 131.241 370.79 136.302 370.79Z" fill="#F3FFFE"/>
<path d="M119.91 373.892H155.159L156.461 349.738C156.488 349.433 156.239 349.156 155.934 349.128C155.63 349.101 155.353 349.35 155.325 349.655L154.079 372.729H119.91C119.606 372.729 119.356 372.978 119.356 373.283C119.329 373.643 119.606 373.892 119.91 373.892Z" fill="#21111D"/>
<path d="M128.023 344.17C128.106 344.17 128.217 344.142 128.3 344.087C128.577 343.921 128.66 343.588 128.521 343.311L125.171 337.411C125.005 337.134 124.673 337.051 124.396 337.19C124.119 337.356 124.036 337.688 124.174 337.965L127.525 343.865C127.635 344.059 127.829 344.17 128.023 344.17Z" fill="#21111D"/>
<path d="M127.442 347.549C127.552 347.549 127.636 347.522 127.719 347.466C127.995 347.3 128.079 346.968 127.912 346.691L124.894 341.483C124.728 341.206 124.396 341.123 124.119 341.289C123.842 341.455 123.759 341.788 123.925 342.065L126.943 347.272C127.082 347.466 127.248 347.549 127.442 347.549Z" fill="#21111D"/>
<path d="M595.84 167.472C602.493 167.472 607.885 162.077 607.885 155.422C607.885 148.767 602.493 143.373 595.84 143.373C589.188 143.373 583.795 148.767 583.795 155.422C583.795 162.077 589.188 167.472 595.84 167.472Z" fill="#FEC787"/>
<path d="M45.9147 203.088C52.4492 201.842 56.737 195.533 55.4917 188.996C54.2464 182.459 47.9396 178.17 41.405 179.416C34.8705 180.661 30.5828 186.971 31.8281 193.507C33.0734 200.044 39.3802 204.334 45.9147 203.088Z" fill="#FEC787"/>
<path d="M616.572 203.786C619.983 203.062 622.161 199.709 621.437 196.297C620.713 192.885 617.362 190.706 613.951 191.43C610.54 192.155 608.362 195.508 609.086 198.92C609.81 202.331 613.162 204.51 616.572 203.786Z" fill="#FEC787"/>
<path d="M10.0775 258.926C13.3885 257.832 15.1864 254.261 14.0933 250.948C13.0002 247.636 9.43005 245.838 6.11907 246.931C2.8081 248.025 1.01014 251.596 2.10322 254.908C3.1963 258.22 6.7665 260.019 10.0775 258.926Z" fill="#FEC787"/>
<path d="M365.846 98.3604C367.411 92.3813 363.834 86.2653 357.857 84.6997C351.88 83.1342 345.767 86.7121 344.202 92.6911C342.637 98.6701 346.213 104.786 352.19 106.352C358.167 107.917 364.281 104.339 365.846 98.3604Z" fill="#FEC787"/>
<path d="M341.63 140.399C343.966 138.671 344.461 135.376 342.734 133.038C341.006 130.701 337.712 130.206 335.375 131.934C333.039 133.662 332.545 136.957 334.272 139.295C335.999 141.632 339.293 142.127 341.63 140.399Z" fill="#FEC787"/>
<path d="M289.371 80.549C287.737 80.7152 286.27 79.5518 286.104 77.9175C285.938 76.2832 287.101 74.8151 288.734 74.6489C290.368 74.4827 291.835 75.6461 292.002 77.2804C292.168 78.9147 291.005 80.3551 289.371 80.549Z" fill="#FEC787"/>
<path d="M560.591 58.8599H544.891V141.434H560.591V58.8599Z" fill="#4CB7D8"/>
<path d="M560.591 68.1948H544.891V73.8456H560.591V68.1948Z" fill="#61A3C5"/>
<path d="M560.591 128.193H544.891V133.844H560.591V128.193Z" fill="#61A3C5"/>
<path d="M552.688 98.8495L549.365 105.238L550.298 105.724L553.621 99.3354L552.688 98.8495Z" fill="#21111D"/>
<path d="M554.074 102.957L550.278 109.719L551.195 110.235L554.991 103.472L554.074 102.957Z" fill="#21111D"/>
<path d="M544.891 58.8599H529.191V141.434H544.891V58.8599Z" fill="#FC4963"/>
<path d="M544.891 68.1948H529.191V73.8456H544.891V68.1948Z" fill="#FEBAC7"/>
<path d="M544.891 128.193H529.191V133.844H544.891V128.193Z" fill="#FEBAC7"/>
<path d="M537.46 113.233L534.137 119.621L535.071 120.107L538.394 113.718L537.46 113.233Z" fill="#21111D"/>
<path d="M538.823 117.325L535.027 124.088L535.944 124.603L539.74 117.841L538.823 117.325Z" fill="#21111D"/>
<path d="M529.191 58.8599H513.491V141.434H529.191V58.8599Z" fill="#F7AB48"/>
<path d="M529.191 68.1948H513.491V73.8456H529.191V68.1948Z" fill="#FEBAC7"/>
<path d="M529.191 128.193H513.491V133.844H529.191V128.193Z" fill="#FEBAC7"/>
<path d="M521.311 76.6768L517.988 83.0657L518.922 83.5516L522.245 77.1627L521.311 76.6768Z" fill="#21111D"/>
<path d="M522.676 80.7709L518.88 87.5333L519.797 88.0487L523.593 81.2862L522.676 80.7709Z" fill="#21111D"/>
<path d="M472.017 141.75L513.503 70.3647L499.93 62.471L458.444 133.856L472.017 141.75Z" fill="#7FC6A6"/>
<path d="M495.25 70.5375L492.411 75.4226L505.983 83.3164L508.822 78.4313L495.25 70.5375Z" fill="#B9EDD6"/>
<path d="M465.077 122.405L462.238 127.29L475.81 135.184L478.65 130.299L465.077 122.405Z" fill="#B9EDD6"/>
<path d="M480.468 111.482L474.386 115.335L474.949 116.224L481.031 112.372L480.468 111.482Z" fill="#21111D"/>
<path d="M479.608 115.722L472.929 119.66L473.463 120.567L480.143 116.629L479.608 115.722Z" fill="#21111D"/>
<path d="M576.319 141.434H390.411V146.53H576.319V141.434Z" fill="#44243D"/>
<path d="M451.217 104.537H393.706V141.434H451.217V104.537Z" fill="#FEC786"/>
<path d="M454.124 104.537H390.771V110.991H454.124V104.537Z" fill="#FEC786"/>
<path d="M450.635 141.461H451.798V110.41H393.706V111.573H450.635V141.461Z" fill="#21111D"/>
<path d="M451.217 111.573H454.706V103.955H418.156V105.119H453.543V110.41H451.217V111.573Z" fill="#21111D"/>
</svg>
