<svg width="10" height="10" viewBox="0 0 10 10" fill="none" xmlns="http://www.w3.org/2000/svg">
    <path d="M5 8.085L2.65292 9.86591C2.53663 9.96047 2.40976 10.005 2.27232 9.99955C2.13487 9.99451 2.01329 9.95521 1.90757 9.88167C1.80184 9.80812 1.72001 9.7083 1.66208 9.58222C1.60372 9.45614 1.60097 9.31955 1.65383 9.17245L2.55777 6.25681L0.258269 4.63351C0.1314 4.54945 0.0521069 4.43913 0.0203896 4.30254C-0.0113276 4.16596 -0.00604135 4.03987 0.0362483 3.9243C0.078538 3.80872 0.152545 3.70618 0.258269 3.61666C0.363993 3.52756 0.490862 3.48301 0.638876 3.48301H3.47757L4.39737 0.457047C4.45023 0.309951 4.53228 0.196898 4.6435 0.117887C4.7543 0.0392957 4.87313 0 5 0C5.12687 0 5.2457 0.0392957 5.3565 0.117887C5.46772 0.196898 5.54977 0.309951 5.60263 0.457047L6.52243 3.48301H9.36112C9.50914 3.48301 9.63601 3.52756 9.74173 3.61666C9.84746 3.70618 9.92146 3.80872 9.96375 3.9243C10.006 4.03987 10.0113 4.16596 9.97961 4.30254C9.94789 4.43913 9.8686 4.54945 9.74173 4.63351L7.44223 6.25681L8.34617 9.17245C8.39903 9.31955 8.3965 9.45614 8.33856 9.58222C8.2802 9.7083 8.19816 9.80812 8.09243 9.88167C7.98671 9.95521 7.86513 9.99451 7.72768 9.99955C7.59024 10.005 7.46337 9.96047 7.34708 9.86591L5 8.085Z" fill="black"/>
</svg>
